<svg width="162" height="165" viewBox="0 0 162 165" fill="none" xmlns="http://www.w3.org/2000/svg">
<path d="M80.5037 164.499C58.9982 164.499 38.7796 156.12 23.5775 140.911C8.37535 125.701 0 105.473 0 83.9794C0 62.4855 8.37535 42.2355 23.5775 27.0262C38.7796 11.8168 58.9982 3.4375 80.5037 3.4375V5.88147C37.4492 5.88147 2.44281 40.9262 2.44281 83.9794C2.44281 127.033 37.471 162.077 80.5037 162.077C123.536 162.077 158.565 127.033 158.565 83.9794H161.007C161.007 105.495 152.632 125.723 137.43 140.933C122.228 156.142 102.009 164.499 80.5037 164.499Z" fill="#FF7300"/>
<path d="M88.3835 4.65993L80.4102 0.03125V4.65993V9.26678L88.3835 4.65993Z" fill="#FF7300"/>
</svg>
