<svg width="176" height="168" viewBox="0 0 176 168" fill="none" xmlns="http://www.w3.org/2000/svg">
<path d="M8.79297 164.667V162.219C52.1149 162.219 87.3387 127.12 87.3387 84H89.7967C89.7967 105.549 81.3693 125.809 66.0728 141.042C50.7762 156.296 30.432 164.667 8.79297 164.667Z" fill="#FF7300"/>
<path d="M0.804688 163.39L8.79975 158.762V163.39V167.997L0.804688 163.39Z" fill="#FF7300"/>
<path d="M89.79 84.0234H87.332C87.332 62.377 95.7594 42.0259 111.056 26.7242C126.353 11.4224 146.697 2.99219 168.336 2.99219V5.451C125.014 5.42905 89.79 40.6867 89.79 84.0234Z" fill="#FF7300"/>
<path d="M175.153 4.65993L167.18 0.03125V4.65993V9.26678L175.153 4.65993Z" fill="#FF7300"/>
</svg>
