<svg width="240" height="169" viewBox="0 0 240 169" fill="none" xmlns="http://www.w3.org/2000/svg">
<path d="M159.496 164.524V162.08C202.55 162.08 237.557 127.04 237.557 83.9929C237.557 40.9456 202.529 5.90555 159.496 5.90555C116.441 5.90555 81.435 40.9456 81.435 83.9929H78.9922C78.9922 62.4801 87.3676 42.2547 102.57 27.0474C117.772 11.8401 137.99 3.46191 159.496 3.46191C181.001 3.46191 201.22 11.8401 216.422 27.0474C231.624 42.2547 240 62.4801 240 83.9929C240 105.506 231.624 125.731 216.422 140.938C201.22 156.167 181.001 164.524 159.496 164.524Z" fill="#FF7300"/>
<path d="M151.5 163.394L159.495 158.766V163.394V168.001L151.5 163.394Z" fill="#FF7300"/>
<path d="M8.62167 4.65993L0.648438 0.03125V4.65993V9.26678L8.62167 4.65993Z" fill="#FF7300"/>
<path d="M0.433594 165.043V162.584C43.7556 162.584 78.9793 127.326 78.9793 84.0117H81.4373C81.4373 105.658 73.01 126.009 57.7134 141.311C42.4168 156.635 22.0726 165.043 0.433594 165.043Z" fill="#FF7300"/>
</svg>
