<svg width="248" height="169" viewBox="0 0 248 169" fill="none" xmlns="http://www.w3.org/2000/svg">
<path d="M0.65625 163.39L8.65136 158.762V163.39V167.997L0.65625 163.39Z" fill="#FF7300"/>
<path d="M167.496 164.524V162.08C210.55 162.08 245.557 127.04 245.557 83.9929C245.557 40.9456 210.529 5.90555 167.496 5.90555C124.441 5.90555 89.435 40.9456 89.435 83.9929H86.9922C86.9922 62.4801 95.3676 42.2547 110.57 27.0474C125.772 11.8401 145.99 3.46191 167.496 3.46191C189.001 3.46191 209.22 11.8401 224.422 27.0474C239.624 42.2547 248 62.4801 248 83.9929C248 105.506 239.624 125.731 224.422 140.938C209.22 156.167 189.001 164.524 167.496 164.524Z" fill="#FF7300"/>
<path d="M159.5 163.394L167.495 158.766V163.394V168.001L159.5 163.394Z" fill="#FF7300"/>
<path d="M16.6217 4.65993L8.64844 0.03125V4.65993V9.26678L16.6217 4.65993Z" fill="#FF7300"/>
<path d="M8.43359 165.043V162.584C51.7556 162.584 86.9793 127.326 86.9793 84.0117H89.4373C89.4373 105.658 81.01 126.009 65.7134 141.311C50.4168 156.635 30.0726 165.043 8.43359 165.043Z" fill="#FF7300"/>
</svg>
