<svg width="24" height="24" viewBox="0 0 24 24" fill="none" xmlns="http://www.w3.org/2000/svg">
<path d="M11.9992 21.8571C11.9146 21.8571 11.8318 21.832 11.7614 21.7851L10.4757 20.928L10.9511 20.2148L12.1289 21H14.0284C13.822 20.3407 13.6415 19.6214 13.4888 18.8571H11.142C11.0575 18.8571 10.9746 18.832 10.9043 18.7851L9.61856 17.928L10.094 17.2148L11.2718 18H13.3326C13.217 17.309 13.1221 16.5911 13.0484 15.8571H10.7134C10.6289 15.8571 10.546 15.832 10.4757 15.7851L9.18998 14.928L9.66543 14.2148L10.8432 15H12.9718C12.9172 14.2917 12.8825 13.5741 12.8668 12.8571H10.7134C10.6289 12.8571 10.546 12.832 10.4757 12.7851L9.18998 11.928L9.66543 11.2148L10.8432 12H12.8563C12.8563 11.2872 12.8769 10.5696 12.9159 9.85714H10.7134C10.6289 9.85714 10.546 9.83202 10.4757 9.78514L9.18998 8.928L9.66543 8.2148L10.8432 9H12.9718C13.0279 8.27164 13.1043 7.55357 13.2009 6.85714H11.142C11.0575 6.85714 10.9746 6.83202 10.9043 6.78514L9.61856 5.928L10.094 5.2148L11.2718 6H13.3326C13.4585 5.24754 13.6088 4.52823 13.7835 3.85714H11.5706C11.4861 3.85714 11.4032 3.83202 11.3328 3.78514L10.0471 2.928L10.5226 2.2148L11.7003 3H14.0284C14.428 1.72393 14.9264 0.678268 15.5206 0H8.14202C7.36159 0 6.26986 1.09982 5.33348 3H7.15513L8.33284 2.21486L8.80829 2.92805L7.52257 3.7852C7.45229 3.83202 7.36941 3.85714 7.28488 3.85714H4.94606C4.67691 4.50386 4.42856 5.2207 4.21384 6H6.29804L7.47575 5.21486L7.9512 5.92805L6.66548 6.7852C6.59514 6.83202 6.51227 6.85714 6.42773 6.85714H3.99838C3.84307 7.53332 3.71364 8.24866 3.61775 9H5.44084L6.61856 8.21486L7.094 8.92805L5.80829 9.7852C5.738 9.83202 5.65513 9.85714 5.57059 9.85714H3.52507C3.46304 10.5467 3.42773 11.261 3.42773 12H5.44084L6.61856 11.2149L7.094 11.9281L5.80829 12.7852C5.738 12.832 5.65513 12.8571 5.57059 12.8571H3.44472C3.47102 13.5984 3.53022 14.3139 3.61775 15H5.86941L7.04713 14.2149L7.52257 14.9281L6.23686 15.7852C6.16657 15.832 6.0837 15.8571 5.99916 15.8571H3.7437C3.88577 16.7088 4.07006 17.5085 4.28488 18.2498V18H6.72656L7.90427 17.2149L8.37972 17.9281L7.094 18.7852C7.02372 18.832 6.94084 18.8571 6.85631 18.8571H4.47061C4.72984 19.6523 5.02304 20.3701 5.33343 21H7.58364L8.76136 20.2149L9.23681 20.9281L7.95109 21.7852C7.88086 21.832 7.79798 21.8571 7.71345 21.8571H5.79881C6.6155 23.2255 7.48797 24 8.14202 24H15.5206C15.0656 23.4807 14.6671 22.7454 14.3257 21.8571H11.9992Z" fill="black"/>
<path d="M17.1431 17.5716C17.8532 17.5716 18.4289 15.0772 18.4289 12.0001C18.4289 8.92312 17.8532 6.42871 17.1431 6.42871C16.4331 6.42871 15.8574 8.92312 15.8574 12.0001C15.8574 15.0772 16.4331 17.5716 17.1431 17.5716Z" fill="black"/>
<path d="M17.1434 0C15.5216 0 13.7148 4.92814 13.7148 12C13.7148 19.0719 15.5216 24 17.1434 24C18.7652 24 20.572 19.0719 20.572 12C20.572 4.92814 18.7652 0 17.1434 0ZM17.1434 18.4286C15.6711 18.4286 15.0006 15.0963 15.0006 12C15.0006 8.90373 15.6711 5.57143 17.1434 5.57143C18.6158 5.57143 19.2863 8.90373 19.2863 12C19.2863 15.0963 18.6158 18.4286 17.1434 18.4286Z" fill="black"/>
</svg>
