<svg width="37" height="37" viewBox="0 0 37 37" fill="none" xmlns="http://www.w3.org/2000/svg">
<path d="M18.4612 32.8714C26.3812 32.8714 32.8017 26.4372 32.8017 18.5002C32.8017 10.5631 26.3812 4.12891 18.4612 4.12891C10.5412 4.12891 4.12073 10.5631 4.12073 18.5002C4.12073 26.4372 10.5412 32.8714 18.4612 32.8714Z" fill="url(#paint0_linear)"/>
<path d="M25.406 10.6287C25.0671 10.8996 24.7747 11.1333 24.1655 11.1333C23.5564 11.1333 23.2637 10.8996 22.9251 10.6287C22.5565 10.3341 22.1389 10 21.3308 10C20.5233 10 20.1059 10.3341 19.7373 10.6287C19.399 10.8996 19.1069 11.1333 18.498 11.1333C17.8891 11.1333 17.5967 10.8996 17.2582 10.6287C16.8898 10.3341 16.4722 10 15.6644 10C14.8566 10 14.4393 10.334 14.0709 10.629C13.7326 10.8996 13.4405 11.1333 12.8319 11.1333C12.2233 11.1333 11.9312 10.8996 11.5929 10.6287C11.2246 10.3341 10.8075 10 10 10V10.5667C10.6083 10.5667 10.9004 10.8004 11.2387 11.071C11.6071 11.3659 12.0244 11.7 12.8319 11.7C13.6394 11.7 14.0568 11.3659 14.4254 11.0713C14.7634 10.8004 15.0555 10.5667 15.6644 10.5667C16.2733 10.5667 16.5657 10.8004 16.9043 11.0713C17.2726 11.3659 17.6902 11.7 18.498 11.7C19.3058 11.7 19.7232 11.3659 20.0915 11.071C20.4298 10.8004 20.7219 10.5667 21.3308 10.5667C21.9399 10.5667 22.2326 10.8004 22.5712 11.0713C22.9395 11.3659 23.3575 11.7 24.1655 11.7C24.9736 11.7 25.3912 11.3659 25.7599 11.0713C26.0984 10.8004 26.3908 10.5667 27 10.5667V10C26.1919 10 25.7743 10.3341 25.406 10.6287Z" fill="white"/>
<path d="M25.406 16.5789C25.0671 16.8498 24.7747 17.0835 24.1655 17.0835C23.5564 17.0835 23.2637 16.8498 22.9251 16.5789C22.5565 16.2842 22.1389 15.9502 21.3308 15.9502C20.5233 15.9502 20.1059 16.2842 19.7373 16.5789C19.399 16.8498 19.1069 17.0835 18.498 17.0835C17.8891 17.0835 17.5967 16.8498 17.2582 16.5789C16.8898 16.2842 16.4722 15.9502 15.6644 15.9502C14.8566 15.9502 14.4393 16.2842 14.0709 16.5792C13.7326 16.8498 13.4405 17.0835 12.8319 17.0835C12.2233 17.0835 11.9312 16.8498 11.5929 16.5789C11.2246 16.2842 10.8075 15.9502 10 15.9502V16.5169C10.6083 16.5169 10.9004 16.7506 11.2387 17.0212C11.6071 17.3161 12.0244 17.6502 12.8319 17.6502C13.6394 17.6502 14.0568 17.3161 14.4254 17.0215C14.7634 16.7506 15.0555 16.5169 15.6644 16.5169C16.2733 16.5169 16.5657 16.7506 16.9043 17.0215C17.2726 17.3161 17.6902 17.6502 18.498 17.6502C19.3058 17.6502 19.7232 17.3161 20.0915 17.0212C20.4298 16.7506 20.7219 16.5169 21.3308 16.5169C21.9399 16.5169 22.2326 16.7506 22.5712 17.0215C22.9395 17.3161 23.3575 17.6502 24.1655 17.6502C24.9736 17.6502 25.3912 17.3161 25.7599 17.0215C26.0984 16.7506 26.3908 16.5169 27 16.5169V15.9502C26.1919 15.9502 25.7743 16.2842 25.406 16.5789Z" fill="white"/>
<path d="M25.406 13.4617C25.0671 13.7326 24.7747 13.9663 24.1655 13.9663C23.5564 13.9663 23.2637 13.7326 22.9251 13.4617C22.5565 13.1671 22.1389 12.833 21.3308 12.833C20.5233 12.833 20.1059 13.1671 19.7373 13.4617C19.399 13.7326 19.1069 13.9663 18.498 13.9663C17.8891 13.9663 17.5967 13.7326 17.2582 13.4617C16.8898 13.1671 16.4722 12.833 15.6644 12.833C14.8566 12.833 14.4393 13.1671 14.0709 13.462C13.7326 13.7326 13.4405 13.9663 12.8319 13.9663C12.2233 13.9663 11.9312 13.7326 11.5929 13.4617C11.2246 13.1671 10.8075 12.833 10 12.833V13.3997C10.6083 13.3997 10.9004 13.6334 11.2387 13.904C11.6071 14.199 12.0244 14.533 12.8319 14.533C13.6394 14.533 14.0568 14.199 14.4254 13.9043C14.7634 13.6334 15.0555 13.3997 15.6644 13.3997C16.2733 13.3997 16.5657 13.6334 16.9043 13.9043C17.2726 14.199 17.6902 14.533 18.498 14.533C19.3058 14.533 19.7232 14.199 20.0915 13.904C20.4298 13.6334 20.7219 13.3997 21.3308 13.3997C21.9399 13.3997 22.2326 13.6334 22.5712 13.9043C22.9395 14.199 23.3575 14.533 24.1655 14.533C24.9736 14.533 25.3912 14.199 25.7599 13.9043C26.0984 13.6334 26.3908 13.3997 27 13.3997V12.833C26.1919 12.833 25.7743 13.1671 25.406 13.4617Z" fill="white"/>
<path d="M25.406 19.6951C25.0671 19.966 24.7747 20.1997 24.1655 20.1997C23.5564 20.1997 23.2637 19.966 22.9251 19.6951C22.5565 19.4005 22.1389 19.0664 21.3308 19.0664C20.5233 19.0664 20.1059 19.4005 19.7373 19.6951C19.399 19.966 19.1069 20.1997 18.498 20.1997C17.8891 20.1997 17.5967 19.966 17.2582 19.6951C16.8898 19.4005 16.4722 19.0664 15.6644 19.0664C14.8566 19.0664 14.4393 19.4005 14.0709 19.6954C13.7326 19.966 13.4405 20.1997 12.8319 20.1997C12.2233 20.1997 11.9312 19.966 11.5929 19.6951C11.2246 19.4005 10.8075 19.0664 10 19.0664V19.6331C10.6083 19.6331 10.9004 19.8668 11.2387 20.1374C11.6071 20.4324 12.0244 20.7664 12.8319 20.7664C13.6394 20.7664 14.0568 20.4324 14.4254 20.1377C14.7634 19.8668 15.0555 19.6331 15.6644 19.6331C16.2733 19.6331 16.5657 19.8668 16.9043 20.1377C17.2726 20.4324 17.6902 20.7664 18.498 20.7664C19.3058 20.7664 19.7232 20.4324 20.0915 20.1374C20.4298 19.8668 20.7219 19.6331 21.3308 19.6331C21.9399 19.6331 22.2326 19.8668 22.5712 20.1377C22.9395 20.4324 23.3575 20.7664 24.1655 20.7664C24.9736 20.7664 25.3912 20.4324 25.7599 20.1377C26.0984 19.8668 26.3908 19.6331 27 19.6331V19.0664C26.1919 19.0664 25.7743 19.4005 25.406 19.6951Z" fill="white"/>
<path d="M25.406 25.9285C25.0671 26.1994 24.7747 26.4331 24.1655 26.4331C23.5564 26.4331 23.2637 26.1994 22.9251 25.9285C22.5565 25.6339 22.1389 25.2998 21.3308 25.2998C20.5233 25.2998 20.1059 25.6339 19.7373 25.9285C19.399 26.1994 19.1069 26.4331 18.498 26.4331C17.8891 26.4331 17.5967 26.1994 17.2582 25.9285C16.8898 25.6339 16.4722 25.2998 15.6644 25.2998C14.8566 25.2998 14.4393 25.6339 14.0709 25.9288C13.7326 26.1994 13.4405 26.4331 12.8319 26.4331C12.2233 26.4331 11.9312 26.1994 11.5929 25.9285C11.2246 25.6339 10.8075 25.2998 10 25.2998V25.8665C10.6083 25.8665 10.9004 26.1002 11.2387 26.3708C11.6071 26.6658 12.0244 26.9998 12.8319 26.9998C13.6394 26.9998 14.0568 26.6658 14.4254 26.3711C14.7634 26.1002 15.0555 25.8665 15.6644 25.8665C16.2733 25.8665 16.5657 26.1002 16.9043 26.3711C17.2726 26.6658 17.6902 26.9998 18.498 26.9998C19.3058 26.9998 19.7232 26.6658 20.0915 26.3708C20.4298 26.1002 20.7219 25.8665 21.3308 25.8665C21.9399 25.8665 22.2326 26.1002 22.5712 26.3711C22.9395 26.6658 23.3575 26.9998 24.1655 26.9998C24.9736 26.9998 25.3912 26.6658 25.7599 26.3711C26.0984 26.1002 26.3908 25.8665 27 25.8665V25.2998C26.1919 25.2998 25.7743 25.6339 25.406 25.9285Z" fill="white"/>
<path d="M25.406 22.8123C25.0671 23.0832 24.7747 23.3169 24.1655 23.3169C23.5564 23.3169 23.2637 23.0832 22.9251 22.8123C22.5565 22.5176 22.1389 22.1836 21.3308 22.1836C20.5233 22.1836 20.1059 22.5176 19.7373 22.8123C19.399 23.0832 19.1069 23.3169 18.498 23.3169C17.8891 23.3169 17.5967 23.0832 17.2582 22.8123C16.8898 22.5176 16.4722 22.1836 15.6644 22.1836C14.8566 22.1836 14.4393 22.5176 14.0709 22.8126C13.7326 23.0832 13.4405 23.3169 12.8319 23.3169C12.2233 23.3169 11.9312 23.0832 11.5929 22.8123C11.2246 22.5176 10.8075 22.1836 10 22.1836V22.7503C10.6083 22.7503 10.9004 22.984 11.2387 23.2546C11.6071 23.5495 12.0244 23.8836 12.8319 23.8836C13.6394 23.8836 14.0568 23.5495 14.4254 23.2549C14.7634 22.984 15.0555 22.7503 15.6644 22.7503C16.2733 22.7503 16.5657 22.984 16.9043 23.2549C17.2726 23.5495 17.6902 23.8836 18.498 23.8836C19.3058 23.8836 19.7232 23.5495 20.0915 23.2546C20.4298 22.984 20.7219 22.7503 21.3308 22.7503C21.9399 22.7503 22.2326 22.984 22.5712 23.2549C22.9395 23.5495 23.3575 23.8836 24.1655 23.8836C24.9736 23.8836 25.3912 23.5495 25.7599 23.2549C26.0984 22.984 26.3908 22.7503 27 22.7503V22.1836C26.1919 22.1836 25.7743 22.5176 25.406 22.8123Z" fill="white"/>
<defs>
<linearGradient id="paint0_linear" x1="3.89168" y1="18.5001" x2="33.0047" y2="18.5001" gradientUnits="userSpaceOnUse">
<stop stop-color="#29C3B4"/>
<stop offset="1" stop-color="#69EE80"/>
</linearGradient>
</defs>
</svg>
