<svg width="20" height="20" viewBox="0 0 20 20" fill="none" xmlns="http://www.w3.org/2000/svg">
<g clip-path="url(#clip0)">
<path d="M4.3801 7.32812C2.90504 7.32812 1.71094 8.52223 1.71094 9.99729C1.71094 11.4724 2.90504 12.6665 4.3801 12.6665C5.85517 12.6665 7.04927 11.4724 7.04927 9.99729C7.04458 8.52691 5.85048 7.33281 4.3801 7.32812ZM4.3801 11.7299C3.42482 11.7299 2.64749 10.9573 2.64749 9.99729C2.64749 9.04201 3.42014 8.26467 4.3801 8.26467C5.33538 8.26467 6.11272 9.03733 6.11272 9.99729C6.10803 10.9526 5.33538 11.7252 4.3801 11.7299Z" fill="#828282"/>
<path d="M17.8219 8.07764H8.29249C8.03494 8.07764 7.82422 8.28836 7.82422 8.54591C7.82422 8.80346 8.03494 9.01418 8.29249 9.01418H17.8219C18.0794 9.01418 18.2902 8.80346 18.2902 8.54591C18.2902 8.28836 18.0794 8.07764 17.8219 8.07764Z" fill="#828282"/>
<path d="M13.4248 10.981H8.29249C8.03494 10.981 7.82422 11.1917 7.82422 11.4492C7.82422 11.7068 8.03026 11.9175 8.29249 11.9175H13.4248C13.6823 11.9175 13.8931 11.7068 13.8931 11.4492C13.8931 11.1917 13.6823 10.981 13.4248 10.981Z" fill="#828282"/>
<path d="M4.3801 0C2.90504 0 1.71094 1.1941 1.71094 2.66916C1.71094 4.14423 2.90504 5.33833 4.3801 5.33833C5.85517 5.33833 7.04927 4.14423 7.04927 2.66916C7.04458 1.1941 5.85048 0 4.3801 0ZM4.3801 4.39709C3.42482 4.39709 2.64749 3.62444 2.64749 2.66448C2.64749 1.70452 3.42014 0.931866 4.3801 0.931866C5.33538 0.931866 6.11272 1.70452 6.11272 2.66448C6.10803 3.62444 5.33538 4.39709 4.3801 4.39709Z" fill="#828282"/>
<path d="M17.8219 0.725586H8.29249C8.03494 0.725586 7.82422 0.936309 7.82422 1.19386C7.82422 1.45141 8.03494 1.66214 8.29249 1.66214H17.8219C18.0794 1.66214 18.2902 1.45141 18.2902 1.19386C18.2902 0.936309 18.0794 0.725586 17.8219 0.725586Z" fill="#828282"/>
<path d="M13.4248 3.67578H8.29249C8.03494 3.67578 7.82422 3.8865 7.82422 4.14406C7.82422 4.40161 8.03026 4.61233 8.29249 4.61233H13.4248C13.6823 4.61233 13.8931 4.40161 13.8931 4.14406C13.8931 3.8865 13.6823 3.67578 13.4248 3.67578Z" fill="#828282"/>
<path d="M4.3801 14.6616C2.90504 14.6616 1.71094 15.8557 1.71094 17.3308C1.71094 18.8058 2.90504 19.9999 4.3801 19.9999C5.85517 19.9999 7.04927 18.8058 7.04927 17.3308C7.04458 15.8557 5.85048 14.6616 4.3801 14.6616ZM4.3801 19.0587C3.42482 19.0587 2.64749 18.2861 2.64749 17.3261C2.64749 16.3708 3.42014 15.5935 4.3801 15.5935C5.33538 15.5935 6.11272 16.3661 6.11272 17.3261C6.10803 18.2861 5.33538 19.0587 4.3801 19.0587Z" fill="#828282"/>
<path d="M17.8219 15.3828H8.29249C8.03494 15.3828 7.82422 15.5935 7.82422 15.8511C7.82422 16.1086 8.03494 16.3194 8.29249 16.3194H17.8219C18.0794 16.3194 18.2902 16.1086 18.2902 15.8511C18.2902 15.5935 18.0794 15.3828 17.8219 15.3828Z" fill="#828282"/>
<path d="M13.4248 18.3325H8.29249C8.03494 18.3325 7.82422 18.5432 7.82422 18.8008C7.82422 19.0583 8.03494 19.2691 8.29249 19.2691H13.4248C13.6823 19.2691 13.8931 19.0583 13.8931 18.8008C13.8931 18.5432 13.6823 18.3325 13.4248 18.3325Z" fill="#828282"/>
</g>
<defs>
<clipPath id="clip0">
<rect width="20" height="20" fill="white"/>
</clipPath>
</defs>
</svg>
