<?xml version="1.0"?>
<svg width="24" height="24" xmlns="http://www.w3.org/2000/svg" xmlns:svg="http://www.w3.org/2000/svg" xmlns:xlink="http://www.w3.org/1999/xlink">
 <!-- Created with SVG-edit - https://github.com/SVG-Edit/svgedit-->
 <defs>
  <symbol id="svg_2" viewBox="0 0 24 24" x="0px" xmlns="http://www.w3.org/2000/svg" xmlns:xlink="http://www.w3.org/1999/xlink" y="0px">
   <g>
    <g>
     <g>
      <path d="m490.114,12.813l-357.546,0c-12.012,0.014 -21.746,9.748 -21.76,21.76l0,98.62l-16.35,-24.525c-7.484,-11.289 -22.535,-14.676 -34.133,-7.68l-33.638,20.224c-11.016,6.464 -19.097,16.946 -22.545,29.244c-12.271,44.681 -3.166,121.66 109.824,234.667c89.855,89.762 156.85,113.937 203.024,113.937c10.69,0.049 21.339,-1.34 31.659,-4.13c12.293,-3.448 22.775,-11.518 29.252,-22.519l20.198,-33.673c6.968,-11.589 3.584,-26.609 -7.68,-34.091l-80.546,-53.692c-11.049,-7.308 -25.859,-4.905 -34.031,5.521l-23.45,30.148c-2.451,3.226 -6.897,4.166 -10.445,2.21l-4.463,-2.458c-14.686,-8.004 -32.964,-17.971 -69.879,-54.886c-3.994,-3.994 -7.612,-7.731 -11.008,-11.307l333.517,0c11.982,0.009 21.713,-9.676 21.76,-21.658l0,-263.952c-0.014,-12.012 -9.748,-21.746 -21.76,-21.76zm-260.796,388.549l4.335,2.381c10.897,6.093 24.614,3.266 32.213,-6.639l23.45,-30.148c2.666,-3.396 7.49,-4.179 11.093,-1.801l80.546,53.692c3.659,2.439 4.759,7.321 2.5,11.093l-20.198,33.673c-4.218,7.233 -11.071,12.553 -19.123,14.848c-40.337,11.093 -110.933,1.707 -218.078,-105.446s-116.496,-177.742 -105.429,-218.045c2.293,-8.051 7.61,-14.903 14.839,-19.123l33.673,-20.207c3.773,-2.254 8.652,-1.155 11.093,2.5l53.717,80.546c2.382,3.602 1.599,8.43 -1.801,11.093l-30.157,23.458c-9.903,7.597 -12.731,21.311 -6.639,32.205l2.389,4.335c8.533,15.65 19.14,35.123 57.805,73.779c38.666,38.657 58.131,49.272 73.772,57.806zm265.49,-102.836c-0.028,2.567 -2.127,4.627 -4.693,4.608l-348.912,0c-11.083,-12.674 -20.64,-26.604 -28.476,-41.506l-2.458,-4.48c-1.96,-3.54 -1.022,-7.982 2.202,-10.428l30.157,-23.458c10.43,-8.17 12.833,-22.982 5.521,-34.031l-20.275,-30.43l0,-124.228c-0.014,-1.249 0.476,-2.451 1.359,-3.334c0.883,-0.883 2.085,-1.373 3.334,-1.359l357.547,0c1.249,-0.014 2.451,0.476 3.334,1.359c0.883,0.883 1.373,2.085 1.359,3.334l0,263.953l0.001,0z"/>
      <path d="m460.725,52.323l-142.618,108.16c-4.035,2.932 -9.499,2.932 -13.534,0l-142.565,-108.16c-3.756,-2.849 -9.111,-2.113 -11.959,1.643c-2.849,3.756 -2.113,9.111 1.643,11.959l142.583,108.151c10.144,7.494 23.989,7.494 34.133,0l142.626,-108.151c1.805,-1.368 2.992,-3.398 3.299,-5.642c0.307,-2.244 -0.29,-4.518 -1.661,-6.321c-2.848,-3.749 -8.194,-4.482 -11.947,-1.639z"/>
      <path d="m238.517,174.793l-87.415,93.611c-3.214,3.447 -3.025,8.848 0.422,12.062c3.447,3.214 8.848,3.025 12.062,-0.422l87.416,-93.653c2.888,-3.484 2.553,-8.617 -0.762,-11.698c-3.316,-3.081 -8.46,-3.037 -11.723,0.1z"/>
      <path d="m384.728,174.793c-3.214,-3.447 -8.614,-3.637 -12.062,-0.422c-3.447,3.214 -3.637,8.614 -0.422,12.062l87.39,93.611c3.214,3.447 8.614,3.637 12.062,0.422c3.447,-3.214 3.637,-8.614 0.422,-12.062l-87.39,-93.611z"/>
     </g>
    </g>
   </g>
   <g/>
   <g/>
   <g/>
   <g/>
   <g/>
   <g/>
   <g/>
   <g/>
   <g/>
   <g/>
   <g/>
   <g/>
   <g/>
   <g/>
   <g/>
  </symbol>
 </defs>
 <g class="layer">
  <title>Layer 1</title>
  <use fill="#ff7300" id="svg_3" transform="matrix(0.312577 0 0 0.312577 0 0)" x="0" xlink:href="#svg_2" y="0"/>
  <g id="svg_4"/>
 </g>
</svg>