<svg width="19" height="12" viewBox="0 0 19 12" fill="none" xmlns="http://www.w3.org/2000/svg">
<path d="M1.72076 4.31152L1.73849 4.29379L1.75235 4.27289C1.7824 4.22757 1.84735 4.15991 1.95969 4.07445C2.06892 3.99137 2.2106 3.90069 2.38029 3.8063C2.7195 3.61761 3.15712 3.42153 3.64062 3.24708C4.6139 2.8959 5.73528 2.64584 6.58464 2.69893L6.95199 2.72188L6.83793 2.37194L6.30928 0.75H10.483C10.4133 0.85451 10.3363 0.974358 10.2589 1.10293C10.1319 1.31375 10.0014 1.5521 9.90053 1.78736C9.80163 2.01801 9.72185 2.26671 9.71496 2.49237C9.70562 2.7984 9.90092 3.00008 10.1134 3.12135C10.3223 3.24061 10.5916 3.31132 10.8518 3.35732C11.1165 3.40411 11.3949 3.42905 11.634 3.44582C11.7286 3.45246 11.8146 3.45771 11.8913 3.4624C11.915 3.46385 11.9378 3.46524 11.9597 3.4666C11.9756 3.95737 12.1909 4.40647 12.509 4.76431C12.8813 5.18315 13.4054 5.49105 13.9618 5.61469C14.9601 5.83651 16.3742 5.97234 17.4283 5.76313C17.5979 5.86046 17.7061 5.98341 17.7722 6.11736C17.8486 6.27232 17.8762 6.45757 17.8569 6.66122C17.818 7.07452 17.5893 7.52204 17.2881 7.82322C16.703 8.40822 15.8843 8.47217 15.0255 8.25746L15.013 8.25434L15.0002 8.25251C14.7007 8.20972 14.444 8.1061 14.1713 7.996C14.1197 7.97515 14.0675 7.95407 14.0143 7.93312C13.6928 7.80651 13.3335 7.68512 12.9238 7.7534C12.1895 7.87577 11.3859 8.34304 10.8087 8.80478L10.8086 8.80463L10.8011 8.81107C9.96706 9.53389 8.9239 10.3109 7.82017 10.8238C6.81178 11.2924 5.77811 11.5291 4.81476 11.3307C5.3797 9.92328 5.16538 8.07245 4.15833 6.84169L4.06661 6.72959L3.92375 6.7534C3.58625 6.80965 3.2407 6.86327 2.91256 6.87661C2.58295 6.89 2.29176 6.8615 2.05769 6.76788C1.85494 6.68678 1.64066 6.45529 1.4695 6.16512C1.38727 6.02571 1.32173 5.88401 1.27738 5.7605C1.23099 5.63128 1.21484 5.54144 1.21484 5.5C1.21484 5.45134 1.22916 5.36489 1.26377 5.24594C1.29709 5.13146 1.34462 5.0022 1.39977 4.87408C1.45489 4.74603 1.51598 4.62295 1.57515 4.52053C1.63667 4.41407 1.68796 4.34431 1.72076 4.31152Z" fill="#FF7300" stroke="white" stroke-width="0.5"/>
</svg>
