<svg width="53" height="44" viewBox="0 0 53 44" fill="none" xmlns="http://www.w3.org/2000/svg">
<path d="M12.1533 29.2866C11.4525 29.2869 10.7673 29.0793 10.1845 28.6901C9.60163 28.3009 9.14735 27.7475 8.87911 27.1C8.61087 26.4526 8.54072 25.7401 8.67753 25.0527C8.81434 24.3653 9.15197 23.734 9.6477 23.2386L11.7121 21.1742C12.3769 20.5099 13.2783 20.1367 14.2181 20.1367C15.158 20.1367 16.0593 20.5099 16.7241 21.1742C17.0533 21.5032 17.3145 21.8939 17.4926 22.3239C17.6708 22.7538 17.7625 23.2147 17.7625 23.6802C17.7625 24.1456 17.6708 24.6065 17.4926 25.0365C17.3145 25.4665 17.0533 25.8571 16.7241 26.1862L14.6597 28.2506C14.3307 28.5797 13.9399 28.8407 13.5098 29.0185C13.0797 29.1962 12.6187 29.2874 12.1533 29.2866ZM14.2185 21.6502C13.9514 21.6489 13.6868 21.7007 13.4399 21.8027C13.1931 21.9047 12.969 22.0548 12.7807 22.2442L10.7155 24.3086C10.3341 24.69 10.1199 25.2072 10.1199 25.7465C10.1199 26.2858 10.3341 26.803 10.7155 27.1843C11.0968 27.5657 11.614 27.7799 12.1533 27.7799C12.6926 27.7799 13.2098 27.5657 13.5912 27.1843L15.6556 25.1199C15.8448 24.9313 15.9949 24.7072 16.0973 24.4604C16.1997 24.2137 16.2524 23.9492 16.2524 23.6821C16.2524 23.4149 16.1997 23.1504 16.0973 22.9037C15.9949 22.6569 15.8448 22.4328 15.6556 22.2442C15.4672 22.0552 15.2432 21.9055 14.9965 21.8038C14.7498 21.7021 14.4853 21.6504 14.2185 21.6517V21.6502Z" fill="#FF7300"/>
<path d="M23.2552 41.8553C22.5544 41.8552 21.8693 41.6473 21.2867 41.2579C20.704 40.8685 20.2498 40.315 19.9816 39.6676C19.7135 39.0201 19.6433 38.3076 19.78 37.6202C19.9167 36.9329 20.2541 36.3014 20.7496 35.8058L21.604 34.9514C22.2687 34.2872 23.1699 33.9141 24.1096 33.9141C25.0493 33.9141 25.9505 34.2872 26.6152 34.9514C26.9444 35.2805 27.2056 35.6711 27.3837 36.1011C27.5619 36.5311 27.6536 36.992 27.6536 37.4574C27.6536 37.9229 27.5619 38.3838 27.3837 38.8138C27.2056 39.2437 26.9444 39.6344 26.6152 39.9634L25.7609 40.8171C25.4327 41.1473 25.0422 41.4091 24.6121 41.5874C24.182 41.7656 23.7208 41.8567 23.2552 41.8553ZM24.1089 35.4274C23.8418 35.4264 23.5772 35.4784 23.3304 35.5804C23.0836 35.6823 22.8595 35.8323 22.671 36.0215L21.8166 36.8759C21.4365 37.2569 21.223 37.7732 21.223 38.3114C21.223 38.8497 21.4365 39.366 21.8166 39.747C22.2033 40.1164 22.7174 40.3226 23.2522 40.3226C23.787 40.3226 24.3011 40.1164 24.6878 39.747L25.5452 38.8972C25.7344 38.7086 25.8845 38.4845 25.9869 38.2377C26.0893 37.991 26.142 37.7265 26.142 37.4593C26.142 37.1922 26.0893 36.9277 25.9869 36.6809C25.8845 36.4342 25.7344 36.2101 25.5452 36.0215C25.3568 35.8326 25.1329 35.6828 24.8864 35.5808C24.6399 35.4789 24.3756 35.4267 24.1089 35.4274Z" fill="#FF7300"/>
<path d="M14.3061 35.016C13.6056 35.0151 12.9211 34.8067 12.339 34.417C11.7569 34.0273 11.3033 33.4738 11.0356 32.8265C10.7679 32.1791 10.698 31.467 10.8349 30.7799C10.9717 30.0929 11.309 29.4619 11.8043 28.9665L15.0742 25.6965C15.4032 25.3673 15.7938 25.1062 16.2237 24.9281C16.6537 24.7499 17.1145 24.6582 17.5799 24.6582C18.0452 24.6582 18.5061 24.7499 18.936 24.9281C19.3659 25.1062 19.7565 25.3673 20.0855 25.6965C20.7492 26.3615 21.1219 27.2626 21.1219 28.2021C21.1219 29.1417 20.7492 30.0428 20.0855 30.7078L16.8118 33.9785C16.4834 34.3085 16.0929 34.5701 15.6629 34.7482C15.2328 34.9263 14.7716 35.0173 14.3061 35.016ZM17.5768 26.1718C17.3097 26.1708 17.0451 26.2229 16.7983 26.325C16.5514 26.4271 16.3274 26.5772 16.139 26.7666L12.8691 30.0365C12.6802 30.2253 12.5305 30.4495 12.4283 30.6962C12.3261 30.9429 12.2735 31.2073 12.2735 31.4744C12.2735 31.7414 12.3261 32.0058 12.4283 32.2525C12.5305 32.4992 12.6802 32.7234 12.8691 32.9122C13.2559 33.2813 13.77 33.4872 14.3046 33.4872C14.8393 33.4872 15.3534 33.2813 15.7402 32.9122L19.0101 29.6415C19.3903 29.2604 19.6038 28.7442 19.6038 28.2059C19.6038 27.6677 19.3903 27.1514 19.0101 26.7704C18.8227 26.5807 18.5995 26.4302 18.3535 26.3274C18.1074 26.2247 17.8435 26.1718 17.5768 26.1718Z" fill="#FF7300"/>
<path d="M18.5034 38.7278C17.8024 38.7281 17.1171 38.5204 16.5341 38.131C15.9512 37.7417 15.4969 37.1882 15.2287 36.5405C14.9604 35.8929 14.8903 35.1802 15.0272 34.4927C15.1641 33.8052 15.5019 33.1738 15.9978 32.6783L18.206 30.4701C18.8711 29.8064 19.7723 29.4336 20.712 29.4336C21.6516 29.4336 22.5529 29.8064 23.218 30.4701C23.5471 30.7991 23.8083 31.1897 23.9864 31.6196C24.1646 32.0495 24.2563 32.5103 24.2563 32.9757C24.2563 33.4411 24.1646 33.9019 23.9864 34.3318C23.8083 34.7618 23.5471 35.1524 23.218 35.4813L21.009 37.6896C20.6808 38.0198 20.2904 38.2816 19.8603 38.4599C19.4301 38.6381 18.9689 38.7292 18.5034 38.7278ZM20.7116 30.9491C20.4446 30.9484 20.1801 31.0006 19.9333 31.1025C19.6866 31.2045 19.4624 31.3542 19.2737 31.5432L17.0678 33.7491C16.8792 33.9376 16.7296 34.1614 16.6275 34.4077C16.5255 34.654 16.4729 34.9181 16.4729 35.1847C16.4729 35.4513 16.5255 35.7153 16.6275 35.9617C16.7296 36.208 16.8792 36.4318 17.0678 36.6203C17.4544 36.9897 17.9686 37.1958 18.5034 37.1958C19.0381 37.1958 19.5523 36.9897 19.9389 36.6203L22.1479 34.412C22.3365 34.2236 22.4861 33.9998 22.5882 33.7534C22.6902 33.5071 22.7428 33.2431 22.7428 32.9765C22.7428 32.7098 22.6902 32.4458 22.5882 32.1995C22.4861 31.9532 22.3365 31.7294 22.1479 31.5409C21.9592 31.3526 21.7352 31.2034 21.4887 31.1019C21.2423 31.0003 20.9782 30.9484 20.7116 30.9491Z" fill="#FF7300"/>
<path d="M9.56463 25.2072C9.4104 25.2073 9.25983 25.1602 9.1331 25.0723C9.00638 24.9844 8.90953 24.8598 8.85555 24.7153C8.57446 23.9653 8.47917 23.1583 8.57782 22.3633C8.72009 21.6013 7.77642 20.4185 7.29739 19.9652C7.15823 19.8336 7.07413 19.6541 7.06205 19.463C7.04998 19.2719 7.11082 19.0833 7.23231 18.9352L16.6237 7.48172C16.7467 7.33177 16.9227 7.23481 17.1152 7.21087C17.3077 7.18692 17.5021 7.23783 17.6581 7.35307L18.7138 8.13177C19.0518 8.37805 19.4368 8.55216 19.845 8.64329C20.2531 8.73442 20.6756 8.74062 21.0863 8.6615L21.389 8.60172C22.0331 8.42235 22.7096 8.39232 23.3671 8.51394C23.464 8.53774 23.5552 8.58038 23.6355 8.63943C23.7159 8.69848 23.7838 8.77278 23.8355 8.85809C23.8871 8.9434 23.9215 9.03805 23.9366 9.13663C23.9516 9.23521 23.9471 9.33579 23.9233 9.43264C23.8995 9.52948 23.8569 9.62069 23.7978 9.70105C23.7388 9.78142 23.6645 9.84937 23.5792 9.90102C23.4939 9.95266 23.3992 9.987 23.3006 10.0021C23.2021 10.0171 23.1015 10.0127 23.0046 9.98885C22.5643 9.92967 22.1165 9.9637 21.6901 10.0887L21.3685 10.1531C20.753 10.2706 20.1199 10.2602 19.5086 10.1223C18.8973 9.9844 18.321 9.72208 17.8156 9.35167L17.338 8.99977L8.82226 19.3825C9.41934 20.084 10.3032 21.3727 10.0648 22.6426C10.0202 23.1657 10.0912 23.6923 10.273 24.1848C10.3159 24.2993 10.3304 24.4225 10.3153 24.5438C10.3003 24.6651 10.256 24.781 10.1864 24.8814C10.1168 24.9819 10.0239 25.064 9.91558 25.1208C9.80729 25.1775 9.68688 25.2072 9.56463 25.2072Z" fill="#FF7300"/>
<path d="M6.59731 21.0386C6.18918 21.0394 5.79231 20.9047 5.46899 20.6557L0.718068 16.9899C0.524605 16.8403 0.36274 16.6537 0.241835 16.4411C0.120931 16.2285 0.0433866 15.994 0.0136884 15.7512C-0.0160097 15.5084 0.00272767 15.2621 0.0688165 15.0266C0.134905 14.7911 0.247034 14.571 0.398716 14.3791L10.3599 2.18399C10.6636 1.80696 11.1026 1.56351 11.5833 1.50555C12.064 1.44758 12.5482 1.5797 12.9329 1.87372L17.6838 5.53945C17.8779 5.6889 18.0404 5.87546 18.1617 6.08829C18.2831 6.30111 18.3609 6.53595 18.3906 6.77913C18.4203 7.02231 18.4014 7.26897 18.3348 7.50476C18.2683 7.74054 18.1556 7.96074 18.0031 8.15254L8.03969 20.3484C7.86681 20.5647 7.64728 20.7391 7.39751 20.8586C7.14774 20.9781 6.8742 21.0397 6.59731 21.0386ZM11.8038 3.00356C11.7532 3.00334 11.7032 3.01459 11.6576 3.03648C11.612 3.05837 11.5719 3.09033 11.5404 3.12994L11.5336 3.13826L1.57774 15.3251C1.52507 15.3935 1.50143 15.48 1.51191 15.5657C1.51721 15.6102 1.53131 15.6532 1.5534 15.6922C1.57549 15.7312 1.60512 15.7653 1.64055 15.7928L6.39072 19.4577C6.46061 19.5113 6.54871 19.5353 6.63613 19.5247C6.72355 19.5141 6.80334 19.4697 6.85839 19.401L16.8249 7.20356C16.877 7.1349 16.8999 7.04838 16.8884 6.96291C16.8835 6.91842 16.8696 6.87538 16.8476 6.83637C16.8257 6.79736 16.796 6.76319 16.7606 6.73589L12.0096 3.07016C11.9503 3.02567 11.8779 3.00223 11.8038 3.00356Z" fill="#FF7300"/>
<path d="M46.66 20.7183C46.6214 20.7183 46.5843 20.7183 46.5442 20.7145C46.2995 20.7004 46.0601 20.6373 45.8402 20.529C45.6202 20.4207 45.4242 20.2695 45.2638 20.0841L33.9427 7.07396C33.6253 6.70732 33.4641 6.23094 33.4937 5.7469C33.5233 5.26285 33.7412 4.80963 34.1009 4.48434L38.5657 0.47353C38.7472 0.308274 38.9602 0.181498 39.192 0.100858C39.4237 0.0202169 39.6695 -0.0126158 39.9143 0.00434114C40.1588 0.0187876 40.3979 0.0819231 40.6176 0.190043C40.8374 0.298163 41.0333 0.449089 41.194 0.633963L52.5181 13.6472C52.8358 14.0139 52.9971 14.4905 52.9674 14.9748C52.9377 15.4591 52.7193 15.9124 52.3591 16.2375L47.8943 20.2483C47.5556 20.553 47.1156 20.7205 46.66 20.7183ZM39.8045 1.51407C39.7208 1.51309 39.6398 1.54361 39.5775 1.59958L35.1127 5.61039C35.0478 5.66965 35.0085 5.75183 35.0031 5.83954C34.9977 5.92726 35.0267 6.01362 35.0839 6.08034L46.405 19.0897C46.4342 19.123 46.4697 19.1502 46.5094 19.1697C46.5492 19.1891 46.5924 19.2006 46.6365 19.2033C46.6809 19.2061 46.7255 19.2 46.7674 19.1853C46.8094 19.1706 46.848 19.1476 46.881 19.1177L51.3458 15.1069C51.4111 15.0479 51.4506 14.9657 51.456 14.8778C51.4614 14.79 51.4322 14.7036 51.3746 14.637L40.055 1.63061C39.9956 1.56363 39.9121 1.52284 39.8227 1.5171L39.8045 1.51407Z" fill="#FF7300"/>
<path d="M32.0238 41.1417C31.1329 41.1356 30.275 40.8037 29.6121 40.2086L26.2884 37.1679C26.1403 37.0325 26.052 36.8437 26.0431 36.6432C26.0341 36.4426 26.1052 36.2468 26.2407 36.0986C26.3762 35.9505 26.5649 35.8623 26.7655 35.8533C26.966 35.8444 27.1619 35.9155 27.31 36.051L30.6238 39.0833C31.0114 39.4199 31.5062 39.6071 32.0195 39.6114C32.5328 39.6157 33.0307 39.4368 33.4238 39.1068C33.6413 38.9118 33.8165 38.6743 33.9383 38.4088C34.0602 38.1434 34.1261 37.8557 34.1322 37.5637C34.1405 37.2733 34.0879 36.9843 33.9778 36.7154C33.8677 36.4465 33.7024 36.2037 33.4927 36.0025L26.2468 28.948C26.1034 28.8076 26.0216 28.6158 26.0196 28.4151C26.0175 28.2144 26.0953 28.021 26.2358 27.8776C26.3763 27.7342 26.568 27.6525 26.7687 27.6504C26.9695 27.6484 27.1628 27.7261 27.3062 27.8666L33.8045 34.1946C34.2215 34.5916 34.7721 34.818 35.3477 34.8293C35.9234 34.8407 36.4824 34.6361 36.9148 34.2559C37.136 34.0639 37.3167 33.8297 37.4462 33.5669C37.5758 33.3042 37.6516 33.0182 37.6692 32.7258C37.6868 32.4334 37.6459 32.1404 37.5488 31.864C37.4518 31.5876 37.3005 31.3333 37.1039 31.1162C37.0822 31.0922 37.062 31.0669 37.0434 31.0405C37.0213 31.0049 36.996 30.9715 36.9677 30.9406C36.8261 30.7983 36.7469 30.6056 36.7474 30.4048C36.7479 30.2041 36.8281 30.0117 36.9704 29.8702C37.1127 29.7286 37.3054 29.6493 37.5061 29.6498C37.7069 29.6503 37.8992 29.7305 38.0408 29.8728C38.1253 29.9609 38.2029 30.0552 38.2731 30.1551C38.9127 30.8998 39.234 31.8661 39.1677 32.8456C39.1015 33.825 38.653 34.7392 37.919 35.3911C37.2427 36.0001 36.3701 36.3459 35.4603 36.3658C35.6462 36.9108 35.6991 37.4925 35.6146 38.0622C35.5301 38.6318 35.3105 39.173 34.9743 39.6406C34.6381 40.1082 34.195 40.4886 33.6818 40.7501C33.1687 41.0117 32.6005 41.1467 32.0246 41.1439L32.0238 41.1417Z" fill="#FF7300"/>
<path d="M27.2047 43.4372C26.4132 43.4481 25.6481 43.1529 25.0691 42.6131L23.8159 41.4697C23.6714 41.3335 23.5862 41.1461 23.5787 40.9477C23.5711 40.7493 23.6418 40.5559 23.7756 40.4092C23.9093 40.2624 24.0953 40.1741 24.2935 40.1633C24.4918 40.1524 24.6863 40.2199 24.8353 40.3512L26.1006 41.506C26.4152 41.7751 26.8176 41.9196 27.2316 41.9122C27.6456 41.9049 28.0425 41.7461 28.3474 41.4659C28.5106 41.3088 28.6393 41.1194 28.725 40.9097C28.8108 40.7 28.8517 40.4747 28.8453 40.2483C28.8393 40.0192 28.7856 39.7938 28.6876 39.5866C28.5896 39.3795 28.4495 39.195 28.2762 39.045L28.0575 38.8475L26.2791 37.1562C26.1993 37.09 26.1338 37.0082 26.0869 36.9158C26.04 36.8234 26.0125 36.7223 26.0063 36.6188C26 36.5153 26.0151 36.4116 26.0506 36.3142C26.0861 36.2168 26.1412 36.1277 26.2125 36.0525C26.2838 35.9772 26.3699 35.9175 26.4653 35.8769C26.5607 35.8363 26.6634 35.8157 26.7671 35.8164C26.8707 35.8172 26.9731 35.8392 27.0679 35.8812C27.1628 35.9231 27.2479 35.9841 27.3182 36.0604L29.2857 37.9129C29.6129 38.1992 29.8773 38.5501 30.0625 38.9435C30.2476 39.3368 30.3495 39.7642 30.3616 40.1988C30.3738 40.6334 30.296 41.0658 30.1331 41.4689C29.9702 41.872 29.7258 42.2371 29.4151 42.5412C29.1242 42.8293 28.7791 43.0568 28.3996 43.2106C28.0202 43.3644 27.614 43.4414 27.2047 43.4372Z" fill="#FF7300"/>
<path d="M18.9938 19.38C18.5067 19.38 18.0274 19.2567 17.6007 19.0216C17.174 18.7865 16.8137 18.4473 16.5534 18.0355C16.293 17.6237 16.1411 17.1527 16.1117 16.6665C16.0823 16.1802 16.1764 15.6943 16.3853 15.2542C18.2219 11.3387 20.2069 10.1506 22.5044 8.77485L22.795 8.60155C24.6637 7.50369 26.7682 6.86949 28.9323 6.75204L32.7275 6.52501L34.0329 5.77507C34.207 5.67472 34.4138 5.64764 34.6079 5.69979C34.802 5.75195 34.9674 5.87906 35.0677 6.05318C35.1681 6.22729 35.1952 6.43413 35.143 6.62821C35.0908 6.82228 34.9637 6.98769 34.7896 7.08804L33.3283 7.92426C33.227 7.98245 33.1135 8.01638 32.9969 8.02339L29.0239 8.26253C27.1032 8.3665 25.2352 8.92769 23.5752 9.89939L23.2862 10.0734C21.1143 11.3736 19.4002 12.4005 17.755 15.9073C17.6236 16.1814 17.5877 16.4916 17.653 16.7885C17.7183 17.0854 17.881 17.3519 18.1152 17.5457C18.4044 17.7694 18.7679 17.8747 19.1319 17.84C19.4958 17.8052 19.8329 17.6332 20.0745 17.3587L23.6857 13.4804C23.9878 13.1137 24.3615 12.8125 24.784 12.5954C25.2065 12.3782 25.6689 12.2496 26.1429 12.2173C26.627 12.1804 27.1136 12.2435 27.5722 12.4027C28.0309 12.562 28.4519 12.8139 28.809 13.1429C28.8859 13.2087 28.9488 13.2894 28.994 13.38C29.0392 13.4706 29.0657 13.5694 29.072 13.6705C29.0783 13.7716 29.0642 13.8729 29.0307 13.9684C28.9971 14.064 28.9447 14.1518 28.8766 14.2268C28.8084 14.3017 28.7259 14.3622 28.634 14.4046C28.5421 14.4471 28.4425 14.4707 28.3413 14.474C28.2401 14.4773 28.1393 14.4602 28.0447 14.4238C27.9502 14.3874 27.864 14.3324 27.7911 14.2621C27.5864 14.073 27.3451 13.9279 27.0821 13.8358C26.8191 13.7436 26.54 13.7064 26.262 13.7264C25.9841 13.7464 25.7132 13.8232 25.4661 13.9521C25.219 14.0809 25.0009 14.259 24.8254 14.4755L21.1884 18.3773C20.9135 18.6891 20.576 18.9395 20.1979 19.1123C19.8198 19.285 19.4095 19.3763 18.9938 19.38Z" fill="#FF7300"/>
<path d="M40.3484 32.7329C39.3932 32.7289 38.473 32.3733 37.7633 31.7339L37.1579 31.1717L31.4414 25.7987C31.2949 25.6615 31.2089 25.4718 31.2023 25.2712C31.1957 25.0706 31.269 24.8755 31.4062 24.729C31.5434 24.5825 31.7331 24.4965 31.9337 24.4899C32.1343 24.4833 32.3294 24.5567 32.4759 24.6938L38.7781 30.5511C38.8383 30.6044 38.8894 30.667 38.9295 30.7365C39.3589 31.0571 39.8846 31.222 40.4201 31.2041C40.9557 31.1862 41.4692 30.9866 41.8763 30.6382C42.1037 30.4272 42.2862 30.1726 42.413 29.8896C42.5397 29.6065 42.6082 29.3008 42.6141 28.9907C42.6224 28.6918 42.5704 28.3943 42.4612 28.1159C42.352 27.8375 42.1878 27.584 41.9785 27.3705L40.2379 25.7601L27.9656 14.4405C27.8925 14.3732 27.8334 14.2921 27.7917 14.2018C27.7499 14.1116 27.7263 14.0141 27.7223 13.9147C27.7183 13.8154 27.7338 13.7162 27.7681 13.6229C27.8024 13.5296 27.8547 13.444 27.9221 13.3709C27.9895 13.2978 28.0706 13.2387 28.1608 13.1969C28.251 13.1552 28.3486 13.1316 28.4479 13.1276C28.5472 13.1235 28.6464 13.1391 28.7397 13.1734C28.833 13.2077 28.9187 13.26 28.9918 13.3274L43.0288 26.283C43.3876 26.6413 43.6697 27.0687 43.8581 27.5394C44.0464 28.0101 44.1371 28.5142 44.1246 29.021C44.115 29.5339 44.0018 30.0396 43.7919 30.5078C43.582 30.9759 43.2798 31.3968 42.9032 31.7453C42.2071 32.3857 41.2942 32.7385 40.3484 32.7329Z" fill="#FF7300"/>
<path d="M40.4449 25.6745C40.2985 25.6744 40.1552 25.6319 40.0325 25.552C39.9097 25.4721 39.8128 25.3584 39.7534 25.2245C39.6941 25.0906 39.6748 24.9424 39.698 24.7978C39.7212 24.6533 39.7859 24.5185 39.8841 24.4099L45.0028 18.766C45.1377 18.6173 45.3261 18.5283 45.5267 18.5185C45.7272 18.5087 45.9234 18.579 46.0721 18.7138C46.2208 18.8487 46.3099 19.0371 46.3197 19.2377C46.3295 19.4382 46.2592 19.6344 46.1243 19.7831L41.0056 25.4255C40.9347 25.5039 40.8482 25.5665 40.7516 25.6094C40.655 25.6523 40.5506 25.6744 40.4449 25.6745Z" fill="#FF7300"/>
</svg>
