<svg width="35" height="43" viewBox="0 0 35 43" fill="none" xmlns="http://www.w3.org/2000/svg">
<path d="M33.7732 9.03519L33.2016 8.46359L25.7173 0.979362L25.1457 0.407759C24.887 0.149017 24.5282 0 24.1612 0H2.64487C1.76559 0 0.818848 0.679104 0.818848 2.16928V28.9138V41.174V41.5172C0.818848 42.1378 1.44309 42.7427 2.1815 42.9333C2.21857 42.9429 2.25416 42.957 2.29271 42.9644C2.40837 42.9874 2.52624 43 2.64487 43H32.3549C32.4735 43 32.5914 42.9874 32.7071 42.9644C32.7456 42.957 32.7812 42.9429 32.8183 42.9333C33.5567 42.7427 34.1809 42.1378 34.1809 41.5172V41.174V28.9138V10.363C34.1809 9.79436 34.1127 9.37474 33.7732 9.03519ZM31.5379 8.89655H25.2844V2.64302L31.5379 8.89655ZM2.64487 41.5172C2.59223 41.5172 2.54478 41.498 2.49807 41.4809C2.38242 41.4261 2.30161 41.3104 2.30161 41.174V30.3966H32.6982V41.174C32.6982 41.3104 32.6174 41.4253 32.5017 41.4809C32.455 41.498 32.4075 41.5172 32.3549 41.5172H2.64487ZM2.30161 28.9138V2.16928C2.30161 2.0084 2.32607 1.48276 2.64487 1.48276H23.8446C23.8201 1.57617 23.8016 1.67255 23.8016 1.77264V10.3793H32.4083C32.5084 10.3793 32.604 10.3608 32.6974 10.3363C32.6974 10.3474 32.6982 10.3519 32.6982 10.363V28.9138H2.30161Z" fill="#FF7300"/>
<path d="M12.3411 33.1724C12.0943 32.97 11.8155 32.8173 11.5049 32.7164C11.1942 32.6149 10.8799 32.5645 10.5626 32.5645H8.41406V40.0346H9.63067V37.3382H10.5329C10.9244 37.3382 11.2832 37.2811 11.6072 37.1662C11.9312 37.0513 12.2084 36.8889 12.4383 36.6798C12.6681 36.4708 12.8468 36.212 12.9758 35.9044C13.104 35.5967 13.1685 35.2542 13.1685 34.8753C13.1685 34.5172 13.0922 34.1947 12.9402 33.9071C12.7882 33.6194 12.588 33.3755 12.3411 33.1724ZM11.88 35.6404C11.8051 35.8465 11.708 36.0067 11.5864 36.1216C11.4648 36.2365 11.3314 36.3195 11.1861 36.37C11.0408 36.4204 10.8932 36.4463 10.745 36.4463H9.62992V33.4867H10.5418C10.8525 33.4867 11.1023 33.5357 11.2921 33.6335C11.4811 33.7314 11.6279 33.853 11.7332 33.9983C11.8378 34.1436 11.9067 34.2956 11.9408 34.4542C11.9742 34.6129 11.9912 34.753 11.9912 34.8746C11.9912 35.1793 11.9541 35.4343 11.88 35.6404Z" fill="#FF7300"/>
<path d="M19.69 33.6587C19.3756 33.3281 18.9805 33.0619 18.5037 32.8632C18.027 32.6645 17.4747 32.5645 16.8468 32.5645H14.5967V40.0346H17.4243C17.5185 40.0346 17.6638 40.0227 17.8602 39.999C18.056 39.9753 18.2724 39.9219 18.5089 39.8366C18.7454 39.7521 18.9901 39.6254 19.2436 39.4563C19.4972 39.2873 19.7248 39.056 19.9279 38.7616C20.1311 38.4673 20.2979 38.1026 20.4299 37.6666C20.5618 37.2307 20.6278 36.7051 20.6278 36.0905C20.6278 35.6441 20.55 35.2097 20.395 34.7879C20.2386 34.3667 20.0043 33.9901 19.69 33.6587ZM18.8033 38.3517C18.4385 38.8788 17.8439 39.142 17.0195 39.142H15.8133V33.486H16.5228C17.104 33.486 17.577 33.5623 17.9418 33.7143C18.3065 33.8663 18.5957 34.0657 18.8085 34.3126C19.0212 34.5595 19.1643 34.8346 19.2392 35.1385C19.3133 35.4425 19.3504 35.7502 19.3504 36.0608C19.3504 37.0609 19.168 37.8253 18.8033 38.3517Z" fill="#FF7300"/>
<path d="M22.3916 40.0346H23.6282V36.6695H26.7502V35.8384H23.6282V33.4867H27.0638V32.5645H22.3916V40.0346Z" fill="#FF7300"/>
<path d="M24.4896 17.0228C23.8083 17.0228 22.972 17.1118 22.0001 17.2882C20.6433 15.8484 19.2273 13.7459 18.2279 11.6819C19.2191 7.50867 18.7232 6.91779 18.5045 6.63903C18.2717 6.34248 17.9432 5.86133 17.5696 5.86133C17.4131 5.86133 16.9861 5.9325 16.8163 5.98885C16.3893 6.13119 16.1595 6.46036 15.9756 6.88962C15.4515 8.11512 16.1706 10.2043 16.9105 11.8146C16.2781 14.3301 15.2172 17.3408 14.1021 19.7844C11.2923 21.0715 9.79992 22.3355 9.66499 23.5417C9.61606 23.9806 9.71986 24.6249 10.4916 25.2039C10.7029 25.3618 10.9505 25.4456 11.2085 25.4456C11.8573 25.4456 12.5126 24.9489 13.2711 23.8835C13.8241 23.1066 14.418 22.0471 15.0378 20.7319C17.0232 19.8638 19.4794 19.0794 21.5827 18.6397C22.754 19.7644 23.8031 20.3338 24.7046 20.3338C25.3689 20.3338 25.9383 20.0283 26.3505 19.4508C26.7797 18.8496 26.8776 18.3113 26.6396 17.8494C26.3542 17.2941 25.6506 17.0228 24.4896 17.0228ZM11.2249 24.1942C10.8779 23.928 10.8979 23.7486 10.9053 23.6811C10.9513 23.2689 11.597 22.5372 13.1814 21.6468C11.9803 23.865 11.3353 24.1593 11.2249 24.1942ZM17.3042 7.20026C17.336 7.18988 18.0789 8.01652 17.3753 9.58454C16.3181 8.50286 17.2315 7.22472 17.3042 7.20026ZM15.7717 19.0816C16.5242 17.2882 17.2241 15.308 17.7542 13.4738C18.5868 14.9699 19.5869 16.4215 20.5877 17.584C19.0056 17.9554 17.3212 18.4796 15.7717 19.0816ZM25.3363 18.7265C25.1079 19.046 24.6127 19.0534 24.4392 19.0534C24.044 19.0534 23.8965 18.8184 23.2923 18.3536C23.7905 18.2898 24.2605 18.2735 24.6349 18.2735C25.294 18.2735 25.4149 18.3706 25.506 18.4196C25.4897 18.4722 25.4467 18.5715 25.3363 18.7265Z" fill="#FF7300"/>
</svg>
