<svg width="39" height="41" viewBox="0 0 39 41" fill="none" xmlns="http://www.w3.org/2000/svg">
<path d="M35.0049 32.6835H29.5351V31.5213H35.0049C35.5159 31.5207 36.0057 31.3174 36.3671 30.9561C36.7284 30.5948 36.9317 30.1049 36.9323 29.5939V16.0349C36.9317 15.5239 36.7284 15.034 36.3671 14.6727C36.0057 14.3114 35.5159 14.1081 35.0049 14.1075H3.99488C3.48388 14.1081 2.99398 14.3114 2.63265 14.6727C2.27132 15.034 2.06805 15.5239 2.06744 16.0349V29.5939C2.06805 30.1049 2.27132 30.5948 2.63265 30.9561C2.99398 31.3174 3.48388 31.5207 3.99488 31.5213H9.4646V32.6835H3.99488C3.1758 32.6824 2.39057 32.3565 1.81139 31.7774C1.23221 31.1982 0.90635 30.4129 0.905273 29.5939V16.0349C0.90635 15.2158 1.23221 14.4306 1.81139 13.8514C2.39057 13.2722 3.1758 12.9464 3.99488 12.9453H35.0049C35.8239 12.9464 36.6092 13.2722 37.1883 13.8514C37.7675 14.4306 38.0934 15.2158 38.0945 16.0349V29.5939C38.0934 30.4129 37.7675 31.1982 37.1883 31.7774C36.6092 32.3565 35.8239 32.6824 35.0049 32.6835Z" fill="#FF7300"/>
<path d="M28.7968 14.1081H10.2022C10.0481 14.1081 9.90026 14.0468 9.79129 13.9379C9.68231 13.8289 9.62109 13.6811 9.62109 13.527V0.743191C9.62109 0.589078 9.68231 0.441278 9.79129 0.332304C9.90026 0.22333 10.0481 0.162109 10.2022 0.162109H24.1481V1.32427H10.7833V12.9459H28.2157V5.39184H29.3779V13.527C29.3779 13.6811 29.3166 13.8289 29.2077 13.9379C29.0987 14.0468 28.9509 14.1081 28.7968 14.1081Z" fill="#FF7300"/>
<path d="M28.7971 5.9728H24.1485C23.9944 5.9728 23.8466 5.91158 23.7376 5.8026C23.6286 5.69363 23.5674 5.54583 23.5674 5.39172V0.743067C23.5674 0.628158 23.6015 0.515836 23.6654 0.4203C23.7292 0.324765 23.8199 0.250305 23.9261 0.206335C24.0323 0.162364 24.1491 0.150857 24.2618 0.173268C24.3745 0.195679 24.478 0.251002 24.5593 0.332242L29.2079 4.98089C29.2892 5.06216 29.3445 5.16568 29.3669 5.27839C29.3893 5.39109 29.3778 5.50791 29.3339 5.61407C29.2899 5.72023 29.2154 5.81098 29.1199 5.87483C29.0244 5.93868 28.912 5.97277 28.7971 5.9728ZM24.7295 4.81063H27.3944L24.7295 2.1458V4.81063Z" fill="#FF7300"/>
<path d="M6.71587 13.5276H5.55371V9.45999C5.55371 9.30588 5.61493 9.15807 5.72391 9.0491C5.83288 8.94013 5.98068 8.87891 6.13479 8.87891H10.092V10.0411H6.71587V13.5276Z" fill="#FF7300"/>
<path d="M33.4455 13.5276H32.2834V10.0411H28.7969V8.87891H32.8644C33.0186 8.87891 33.1664 8.94013 33.2753 9.0491C33.3843 9.15807 33.4455 9.30588 33.4455 9.45999V13.5276Z" fill="#FF7300"/>
<path d="M6.95605 26.8926H32.0437V28.0547H6.95605V26.8926Z" fill="#FF7300"/>
<path d="M29.3779 40.8385H9.62112C9.46701 40.8385 9.31921 40.7773 9.21023 40.6683C9.10126 40.5593 9.04004 40.4115 9.04004 40.2574V27.4737C9.04004 27.3195 9.10126 27.1717 9.21023 27.0628C9.31921 26.9538 9.46701 26.8926 9.62112 26.8926H29.3779C29.532 26.8926 29.6798 26.9538 29.7888 27.0628C29.8977 27.1717 29.959 27.3195 29.959 27.4737V40.2574C29.959 40.4115 29.8977 40.5593 29.7888 40.6683C29.6798 40.7773 29.532 40.8385 29.3779 40.8385ZM10.2022 39.6764H28.7968V28.0547H10.2022V39.6764Z" fill="#FF7300"/>
<path d="M32.2833 20.5002C31.8236 20.5002 31.3742 20.3639 30.992 20.1085C30.6097 19.8531 30.3118 19.4901 30.1359 19.0654C29.96 18.6407 29.914 18.1733 30.0036 17.7224C30.0933 17.2716 30.3147 16.8574 30.6398 16.5323C30.9648 16.2073 31.379 15.9859 31.8299 15.8962C32.2807 15.8065 32.7481 15.8526 33.1728 16.0285C33.5975 16.2044 33.9605 16.5023 34.2159 16.8846C34.4713 17.2668 34.6076 17.7162 34.6076 18.1759C34.6076 18.7923 34.3627 19.3835 33.9268 19.8194C33.491 20.2553 32.8998 20.5002 32.2833 20.5002ZM32.2833 17.0137C32.0535 17.0137 31.8288 17.0819 31.6376 17.2096C31.4465 17.3373 31.2976 17.5188 31.2096 17.7311C31.1216 17.9435 31.0986 18.1772 31.1435 18.4026C31.1883 18.6281 31.299 18.8351 31.4615 18.9977C31.6241 19.1602 31.8311 19.2709 32.0566 19.3157C32.282 19.3606 32.5157 19.3375 32.728 19.2496C32.9404 19.1616 33.1219 19.0127 33.2496 18.8215C33.3773 18.6304 33.4455 18.4057 33.4455 18.1759C33.4455 17.8677 33.323 17.5721 33.1051 17.3541C32.8871 17.1362 32.5915 17.0137 32.2833 17.0137Z" fill="#FF7300"/>
<path d="M13.1084 29.7969H25.8922V30.959H13.1084V29.7969Z" fill="#FF7300"/>
<path d="M13.1084 33.2832H25.8922V34.4454H13.1084V33.2832Z" fill="#FF7300"/>
<path d="M13.1084 36.7695H25.8922V37.9317H13.1084V36.7695Z" fill="#FF7300"/>
</svg>
