<svg width="43" height="43" viewBox="0 0 43 43" fill="none" xmlns="http://www.w3.org/2000/svg">
<path d="M21.5 0C9.6451 0 0 9.6451 0 21.5C0 33.3549 9.6451 43 21.5 43C27.2433 43 32.642 40.7639 36.7029 36.7029C37.0529 36.353 37.0529 35.7861 36.7029 35.4362C36.353 35.0862 35.7861 35.0862 35.4362 35.4362C31.7138 39.1586 26.7648 41.2084 21.5 41.2084C10.6328 41.2084 1.79164 32.3672 1.79164 21.5C1.79164 10.6328 10.6328 1.79164 21.5 1.79164C32.3672 1.79164 41.2084 10.6328 41.2084 21.5V23.2916C41.2084 26.2556 38.7973 28.6666 35.8334 28.6666C32.8694 28.6666 30.4584 26.2556 30.4584 23.2916V15.2291C30.4584 14.734 30.0577 14.3333 29.5625 14.3333C29.0673 14.3333 28.6666 14.734 28.6666 15.2291V16.1804C27.0322 13.9852 24.4406 12.5416 21.5 12.5416C16.5606 12.5416 12.5416 16.5606 12.5416 21.5C12.5416 26.4394 16.5607 30.4584 21.5 30.4584C24.7946 30.4584 27.6482 28.6502 29.2042 25.9935C30.2739 28.6081 32.8383 30.4584 35.8333 30.4584C39.7849 30.4584 42.9999 27.2434 42.9999 23.2917V21.5C43 9.6451 33.3549 0 21.5 0ZM21.5 28.6666C17.5484 28.6666 14.3334 25.4516 14.3334 21.5C14.3334 17.5484 17.5484 14.3334 21.5 14.3334C25.4516 14.3334 28.6666 17.5484 28.6666 21.5C28.6666 25.4516 25.4516 28.6666 21.5 28.6666Z" fill="#FF7300"/>
</svg>
