<svg width="51" height="61" viewBox="0 0 51 61" fill="none" xmlns="http://www.w3.org/2000/svg">
<path d="M50.5218 5.45804V35.6223C50.5218 49.3948 39.3227 60.57 25.5207 60.57C11.7186 60.57 0.519531 49.3948 0.519531 35.6223V5.45804C8.21892 2.2932 16.662 0.547075 25.5207 0.547075C34.3793 0.525248 42.8006 2.2932 50.5218 5.45804Z" fill="#FF7300"/>
<g clip-path="url(#clip0)">
<path fill-rule="evenodd" clip-rule="evenodd" d="M25.8713 17.7842C25.8713 17.8186 25.7869 17.8468 25.6837 17.8468C25.5804 17.8468 25.496 17.8749 25.496 17.9093C25.496 17.9437 25.4397 17.9719 25.3709 17.9719C25.3021 17.9719 25.2458 18 25.2458 18.0345C25.2458 18.0689 25.1957 18.097 25.1345 18.097C25.0732 18.097 24.9826 18.1533 24.933 18.2221C24.8834 18.2909 24.8048 18.3472 24.7583 18.3472C24.6494 18.3472 24.4951 18.5015 24.4951 18.6104C24.4951 18.6569 24.4388 18.7355 24.37 18.7851C24.3012 18.8347 24.2449 18.9253 24.2449 18.9866C24.2449 19.0478 24.2167 19.0979 24.1823 19.0979C24.1479 19.0979 24.1197 19.1542 24.1197 19.223C24.1197 19.2918 24.0916 19.3481 24.0572 19.3481C24.0228 19.3481 23.9946 19.4607 23.9946 19.5983C23.9946 19.7359 23.9665 19.8485 23.9321 19.8485C23.8963 19.8485 23.8695 20.0362 23.8695 20.2864C23.8695 20.5366 23.8963 20.7243 23.9321 20.7243C23.9665 20.7243 23.9946 20.8087 23.9946 20.9119C23.9946 21.0152 24.0228 21.0996 24.0572 21.0996C24.0916 21.0996 24.1197 21.1559 24.1197 21.2247C24.1197 21.2935 24.1479 21.3498 24.1823 21.3498C24.2167 21.3498 24.2449 21.4061 24.2449 21.4749C24.2449 21.5437 24.273 21.6 24.3074 21.6C24.3418 21.6 24.37 21.6501 24.37 21.7113C24.37 21.7726 24.4263 21.8632 24.4951 21.9128C24.5639 21.9624 24.6202 22.0469 24.6202 22.1005C24.6202 22.1541 24.6765 22.2385 24.7453 22.2881C24.8141 22.3377 24.8704 22.4222 24.8704 22.4758C24.8704 22.5294 24.9267 22.6139 24.9955 22.6635C25.0643 22.7131 25.1207 22.7975 25.1207 22.8511C25.1207 22.9047 25.177 22.9892 25.2458 23.0388C25.3146 23.0884 25.3709 23.1728 25.3709 23.2264C25.3709 23.2801 25.4272 23.3645 25.496 23.4141C25.5648 23.4637 25.6211 23.5482 25.6211 23.6018C25.6211 23.6554 25.6774 23.7398 25.7462 23.7894C25.815 23.839 25.8713 23.9235 25.8713 23.9771C25.8713 24.0307 25.9276 24.1152 25.9965 24.1648C26.0653 24.2144 26.1216 24.2988 26.1216 24.3524C26.1216 24.406 26.1779 24.4905 26.2467 24.5401C26.3155 24.5897 26.3718 24.6741 26.3718 24.7277C26.3718 24.7814 26.4281 24.8658 26.4969 24.9154C26.5657 24.965 26.622 25.0436 26.622 25.0901C26.622 25.2046 26.4656 25.3533 26.345 25.3533C26.2909 25.3533 26.2467 25.3814 26.2467 25.4158C26.2467 25.4502 26.1966 25.4784 26.1354 25.4784C26.0741 25.4784 25.9835 25.5347 25.9339 25.6035C25.8843 25.6723 25.7936 25.7286 25.7324 25.7286C25.6712 25.7286 25.6211 25.7568 25.6211 25.7912C25.6211 25.8256 25.5648 25.8537 25.496 25.8537C25.4272 25.8537 25.3709 25.8819 25.3709 25.9163C25.3709 25.9507 25.3208 25.9788 25.2596 25.9788C25.1983 25.9788 25.1077 26.0351 25.0581 26.1039C25.0085 26.1728 24.924 26.229 24.8704 26.229C24.8168 26.229 24.7324 26.2853 24.6828 26.3542C24.6331 26.423 24.5425 26.4793 24.4813 26.4793C24.4201 26.4793 24.37 26.5074 24.37 26.5418C24.37 26.5762 24.3137 26.6044 24.2449 26.6044C24.176 26.6044 24.1197 26.6325 24.1197 26.6669C24.1197 26.7062 23.7236 26.7295 23.0563 26.7295C22.389 26.7295 21.9928 26.7062 21.9928 26.6669C21.9928 26.6325 22.0209 26.6044 22.0554 26.6044C22.0933 26.6044 22.1179 26.3333 22.1179 25.9163C22.1179 25.4992 22.0933 25.2282 22.0554 25.2282C22.0209 25.2282 21.9928 25.1437 21.9928 25.0405C21.9928 24.9373 21.9646 24.8529 21.9302 24.8529C21.8958 24.8529 21.8677 24.8079 21.8677 24.7528C21.8677 24.6978 21.7832 24.5739 21.68 24.4775C21.5768 24.3811 21.4923 24.2572 21.4923 24.2022C21.4923 24.1472 21.4474 24.1022 21.3923 24.1022C21.3373 24.1022 21.2134 24.0178 21.117 23.9145C21.0206 23.8113 20.8967 23.7269 20.8417 23.7269C20.7866 23.7269 20.7417 23.6987 20.7417 23.6643C20.7417 23.6299 20.6572 23.6018 20.554 23.6018C20.4508 23.6018 20.3663 23.5736 20.3663 23.5392C20.3663 23.4981 18.9483 23.4767 16.2375 23.4767C13.5268 23.4767 12.1088 23.4981 12.1088 23.5392C12.1088 23.5736 12.0243 23.6018 11.9211 23.6018C11.8179 23.6018 11.7334 23.6299 11.7334 23.6643C11.7334 23.6987 11.6885 23.7269 11.6334 23.7269C11.5784 23.7269 11.4545 23.8113 11.3581 23.9145C11.2617 24.0178 11.1378 24.1022 11.0828 24.1022C11.0277 24.1022 10.9828 24.1472 10.9828 24.2022C10.9828 24.2572 10.8983 24.3811 10.7951 24.4775C10.6919 24.5739 10.6074 24.6978 10.6074 24.7528C10.6074 24.8079 10.5793 24.8529 10.5449 24.8529C10.5104 24.8529 10.4823 24.9373 10.4823 25.0405C10.4823 25.1437 10.4541 25.2282 10.4197 25.2282C10.3818 25.2282 10.3572 25.4992 10.3572 25.9163C10.3572 26.3333 10.3818 26.6044 10.4197 26.6044C10.4541 26.6044 10.4823 26.6607 10.4823 26.7295C10.4823 26.8129 10.4406 26.8546 10.3572 26.8546C10.2884 26.8546 10.2321 26.8827 10.2321 26.9171C10.2321 26.9515 10.1758 26.9797 10.107 26.9797C10.0381 26.9797 9.98184 27.0078 9.98184 27.0423C9.98184 27.0767 9.92554 27.1048 9.85672 27.1048C9.78791 27.1048 9.73161 27.133 9.73161 27.1674C9.73161 27.2018 9.68845 27.2299 9.63571 27.2299C9.5186 27.2299 9.10604 27.6317 9.10604 27.7457C9.10604 27.7909 9.04974 27.8684 8.98093 27.918C8.91211 27.9676 8.85581 28.0583 8.85581 28.1195C8.85581 28.1807 8.82766 28.2308 8.79325 28.2308C8.75885 28.2308 8.7307 28.3152 8.7307 28.4184C8.7307 28.5217 8.70255 28.6061 8.66814 28.6061C8.63023 28.6061 8.60558 28.8772 8.60558 29.2942C8.60558 29.7113 8.63023 29.9823 8.66814 29.9823C8.70255 29.9823 8.7307 30.0667 8.7307 30.17C8.7307 30.2732 8.75885 30.3576 8.79325 30.3576C8.82766 30.3576 8.85581 30.401 8.85581 30.4541C8.85581 30.5072 9.08208 30.7745 9.35864 31.048L9.86142 31.5455L9.17097 32.2319C8.65456 32.7453 8.48047 32.9583 8.48047 33.0767C8.48047 33.1639 8.50862 33.2351 8.54303 33.2351C8.57781 33.2351 8.60558 33.4019 8.60558 33.6104C8.60558 33.8189 8.63336 33.9858 8.66814 33.9858C8.70255 33.9858 8.7307 34.0421 8.7307 34.1109C8.7307 34.1797 8.75885 34.236 8.79325 34.236C8.82766 34.236 8.85581 34.2861 8.85581 34.3473C8.85581 34.4085 8.91211 34.4991 8.98093 34.5488C9.04974 34.5984 9.10604 34.6769 9.10604 34.7234C9.10604 34.8323 9.26037 34.9866 9.36928 34.9866C9.41576 34.9866 9.49433 35.0429 9.54394 35.1117C9.59355 35.1806 9.68419 35.2369 9.74543 35.2369C9.80662 35.2369 9.85672 35.265 9.85672 35.2994C9.85672 35.3338 9.91303 35.362 9.98184 35.362C10.0507 35.362 10.107 35.3901 10.107 35.4245C10.107 35.4589 10.2196 35.4871 10.3572 35.4871C10.4948 35.4871 10.6074 35.5152 10.6074 35.5496C10.6074 35.5908 12.4633 35.6122 16.0499 35.6122C19.6365 35.6122 21.4923 35.5908 21.4923 35.5496C21.4923 35.5152 21.6049 35.4871 21.7426 35.4871C21.8802 35.4871 21.9928 35.4589 21.9928 35.4245C21.9928 35.3901 22.0711 35.362 22.1666 35.362C22.2687 35.362 22.3777 35.3103 22.4307 35.2369C22.4803 35.168 22.5571 35.1117 22.6012 35.1117C22.6969 35.1117 25.496 32.327 25.496 32.2317C25.496 32.1335 25.7895 31.8589 25.8945 31.8589C25.9448 31.8589 26.0025 31.8238 26.0225 31.7807C26.0517 31.7182 26.0663 31.7182 26.0955 31.7807C26.1487 31.8947 31.1029 31.8947 31.1438 31.7807C31.1628 31.7277 31.2121 31.7478 31.2971 31.8433C31.366 31.9207 31.4549 31.984 31.4948 31.984C31.5856 31.984 32.127 32.5201 32.127 32.61C32.127 32.7121 32.5486 33.11 32.6567 33.11C32.7109 33.11 32.7526 33.1644 32.7526 33.2351C32.7526 33.3185 32.7943 33.3602 32.8777 33.3602C32.9611 33.3602 33.0028 33.4019 33.0028 33.4853C33.0028 33.609 32.9611 33.6104 29.312 33.6104C26.8931 33.6104 25.6211 33.632 25.6211 33.673C25.6211 33.7074 25.5779 33.7356 25.5252 33.7356C25.4724 33.7356 25.3317 33.8331 25.2124 33.9524C25.0126 34.1522 24.9955 34.1991 24.9955 34.5488C24.9955 34.8984 25.0126 34.9453 25.2124 35.1451C25.3317 35.2644 25.4724 35.362 25.5252 35.362C25.5779 35.362 25.6211 35.3901 25.6211 35.4245C25.6211 35.4659 28.1026 35.4871 32.9403 35.4871C37.778 35.4871 40.2595 35.4659 40.2595 35.4245C40.2595 35.3901 40.3721 35.362 40.5097 35.362C40.6473 35.362 40.7599 35.3338 40.7599 35.2994C40.7599 35.265 40.8444 35.2369 40.9476 35.2369C41.0508 35.2369 41.1353 35.2087 41.1353 35.1743C41.1353 35.1399 41.1802 35.1117 41.2353 35.1117C41.2903 35.1117 41.4142 35.0273 41.5106 34.9241C41.607 34.8209 41.7189 34.7364 41.7591 34.7364C41.8536 34.7364 42.0111 34.579 42.0111 34.4845C42.0111 34.4442 42.0955 34.3324 42.1987 34.236C42.302 34.1396 42.3864 34.0157 42.3864 33.9607C42.3864 33.9056 42.4146 33.8607 42.449 33.8607C42.4834 33.8607 42.5115 33.7762 42.5115 33.673C42.5115 33.5698 42.5397 33.4853 42.5741 33.4853C42.6087 33.4853 42.6366 33.3203 42.6366 33.1152C42.6366 32.8803 42.6652 32.7318 42.7148 32.7086C42.7774 32.6794 42.7774 32.6648 42.7148 32.6357C42.6719 32.6156 42.6366 32.5171 42.6366 32.4167C42.6366 32.3164 42.6085 32.2343 42.5741 32.2343C42.5397 32.2343 42.5115 32.19 42.5115 32.136C42.5115 32.0096 42.3609 31.8589 42.2345 31.8589C42.1804 31.8589 42.1362 31.8308 42.1362 31.7964C42.1362 31.762 41.9954 31.7338 41.8234 31.7338C41.6514 31.7338 41.5106 31.762 41.5106 31.7964C41.5106 31.8308 41.4674 31.8589 41.4147 31.8589C41.3619 31.8589 41.2212 31.9565 41.1019 32.0758C40.9067 32.271 40.885 32.3272 40.885 32.6388C40.885 32.8291 40.8569 32.9849 40.8225 32.9849C40.7881 32.9849 40.7599 33.0284 40.7599 33.0815C40.7599 33.2067 40.4813 33.4853 40.3561 33.4853C40.3029 33.4853 40.2595 33.5135 40.2595 33.5479C40.2595 33.5884 39.4565 33.6104 37.9756 33.6104H35.6917L34.8477 32.7665C34.3835 32.3024 34.0038 31.8801 34.0038 31.8282C34.0038 31.7755 34.0591 31.7338 34.1289 31.7338C34.1977 31.7338 34.254 31.762 34.254 31.7964C34.254 31.8346 34.5459 31.8589 35.0047 31.8589C35.4634 31.8589 35.7554 31.8346 35.7554 31.7964C35.7554 31.7599 35.9639 31.7338 36.2558 31.7338C36.5478 31.7338 36.7563 31.7077 36.7563 31.6713C36.7563 31.6369 36.8407 31.6087 36.9439 31.6087C37.0472 31.6087 37.1316 31.5806 37.1316 31.5462C37.1316 31.5118 37.1879 31.4836 37.2567 31.4836C37.3255 31.4836 37.3818 31.4555 37.3818 31.421C37.3818 31.3866 37.4245 31.3585 37.4767 31.3585C37.6003 31.3585 38.5079 30.451 38.5079 30.3273C38.5079 30.2752 38.536 30.2325 38.5704 30.2325C38.6048 30.2325 38.633 30.1762 38.633 30.1074C38.633 30.0386 38.6611 29.9823 38.6955 29.9823C38.7299 29.9823 38.7581 29.8979 38.7581 29.7946C38.7581 29.6914 38.7862 29.607 38.8207 29.607C38.8551 29.607 38.8832 29.4662 38.8832 29.2942C38.8832 29.1222 38.9114 28.9814 38.9458 28.9814C38.9802 28.9814 39.0083 28.8688 39.0083 28.7312C39.0083 28.5936 38.9802 28.481 38.9458 28.481C38.9114 28.481 38.8832 28.3403 38.8832 28.1682C38.8832 27.9962 38.8551 27.8555 38.8207 27.8555C38.7862 27.8555 38.7581 27.771 38.7581 27.6678C38.7581 27.5646 38.7299 27.4801 38.6955 27.4801C38.6611 27.4801 38.633 27.43 38.633 27.3688C38.633 27.3076 38.5767 27.217 38.5079 27.1674C38.4391 27.1178 38.3828 27.0404 38.3828 26.9955C38.3828 26.8816 37.8439 26.3542 37.7275 26.3542C37.675 26.3542 37.6321 26.326 37.6321 26.2916C37.6321 26.2572 37.582 26.229 37.5208 26.229C37.4595 26.229 37.3689 26.1728 37.3193 26.1039C37.2697 26.0351 37.179 25.9788 37.1178 25.9788C37.0566 25.9788 37.0065 25.9507 37.0065 25.9163C37.0065 25.8819 36.9502 25.8537 36.8814 25.8537C36.8126 25.8537 36.7563 25.8256 36.7563 25.7912C36.7563 25.7568 36.7 25.7286 36.6312 25.7286C36.5623 25.7286 36.506 25.7005 36.506 25.6661C36.506 25.6317 36.4497 25.6035 36.3809 25.6035C36.3121 25.6035 36.2558 25.5754 36.2558 25.541C36.2558 25.5065 36.1995 25.4784 36.1307 25.4784C36.0619 25.4784 36.0056 25.4502 36.0056 25.4158C36.0056 25.3814 35.9555 25.3533 35.8943 25.3533C35.833 25.3533 35.7424 25.297 35.6928 25.2282C35.6432 25.1594 35.5525 25.1031 35.4913 25.1031C35.4301 25.1031 35.38 25.0749 35.38 25.0405C35.38 25.0061 35.3237 24.978 35.2549 24.978C35.1861 24.978 35.1298 24.9498 35.1298 24.9154C35.1298 24.881 35.0735 24.8529 35.0047 24.8529C34.9359 24.8529 34.8796 24.8247 34.8796 24.7903C34.8796 24.7559 34.8233 24.7277 34.7544 24.7277C34.6856 24.7277 34.6293 24.6996 34.6293 24.6652C34.6293 24.6308 34.573 24.6026 34.5042 24.6026C34.4354 24.6026 34.3791 24.5745 34.3791 24.5401C34.3791 24.5057 34.3228 24.4775 34.254 24.4775C34.1852 24.4775 34.1289 24.4494 34.1289 24.415C34.1289 24.3806 34.0726 24.3524 34.0038 24.3524C33.9349 24.3524 33.8786 24.3243 33.8786 24.2899C33.8786 24.2555 33.8223 24.2273 33.7535 24.2273C33.6847 24.2273 33.6284 24.1992 33.6284 24.1648C33.6284 24.1304 33.5721 24.1022 33.5033 24.1022C33.4345 24.1022 33.3782 24.0741 33.3782 24.0397C33.3782 24.0052 33.3219 23.9771 33.2531 23.9771C33.1843 23.9771 33.128 23.9489 33.128 23.9145C33.128 23.8801 33.0717 23.852 33.0028 23.852C32.934 23.852 32.8777 23.8238 32.8777 23.7894C32.8777 23.755 32.8214 23.7269 32.7526 23.7269C32.6838 23.7269 32.6275 23.6987 32.6275 23.6643C32.6275 23.6299 32.5712 23.6018 32.5024 23.6018C32.4336 23.6018 32.3773 23.5736 32.3773 23.5392C32.3773 23.5048 32.321 23.4767 32.2522 23.4767C32.1833 23.4767 32.127 23.4485 32.127 23.4141C32.127 23.3797 32.0707 23.3516 32.0019 23.3516C31.9331 23.3516 31.8768 23.3234 31.8768 23.289C31.8768 23.2546 31.8205 23.2264 31.7517 23.2264C31.6829 23.2264 31.6266 23.1983 31.6266 23.1639C31.6266 23.1295 31.5834 23.1013 31.5307 23.1013C31.4136 23.1013 31.001 22.6996 31.001 22.5855C31.001 22.5404 30.9447 22.4628 30.8759 22.4132C30.8071 22.3636 30.7508 22.2792 30.7508 22.2256C30.7508 22.172 30.6945 22.0875 30.6257 22.0379C30.5569 21.9883 30.5006 21.9039 30.5006 21.8503C30.5006 21.7966 30.4443 21.7122 30.3754 21.6626C30.3066 21.613 30.2503 21.5285 30.2503 21.4749C30.2503 21.4213 30.194 21.3369 30.1252 21.2873C30.0564 21.2377 30.0001 21.1532 30.0001 21.0996C30.0001 21.046 29.9438 20.9615 29.875 20.9119C29.8062 20.8623 29.7499 20.7779 29.7499 20.7243C29.7499 20.6707 29.6936 20.5862 29.6248 20.5366C29.5559 20.487 29.4996 20.4076 29.4996 20.3602C29.4996 20.3129 29.4152 20.1951 29.312 20.0987C29.2088 20.0023 29.1243 19.8846 29.1243 19.8373C29.1243 19.7898 29.068 19.7105 28.9992 19.6609C28.9304 19.6113 28.8741 19.5206 28.8741 19.4594C28.8741 19.3982 28.8459 19.3481 28.8115 19.3481C28.7771 19.3481 28.749 19.3031 28.749 19.2481C28.749 19.1931 28.6645 19.0692 28.5613 18.9728C28.4581 18.8764 28.3736 18.7656 28.3736 18.7266C28.3736 18.6284 27.9582 18.2221 27.8578 18.2221C27.8126 18.2221 27.7351 18.1658 27.6855 18.097C27.6359 18.0282 27.5452 17.9719 27.484 17.9719C27.4228 17.9719 27.3727 17.9437 27.3727 17.9093C27.3727 17.8749 27.2601 17.8468 27.1225 17.8468C26.9849 17.8468 26.8722 17.8186 26.8722 17.7842C26.8722 17.7478 26.6637 17.7217 26.3718 17.7217C26.0798 17.7217 25.8713 17.7478 25.8713 17.7842ZM12.3851 31.812C12.4142 31.8746 12.4289 31.8746 12.458 31.812C12.5013 31.7195 12.8595 31.7055 12.8595 31.7964C12.8595 31.8343 13.1305 31.8589 13.5476 31.8589C13.9647 31.8589 14.2357 31.8343 14.2357 31.7964C14.2357 31.7593 14.4651 31.7338 14.7987 31.7338C15.1324 31.7338 15.3617 31.7593 15.3617 31.7964C15.3617 31.8351 15.6954 31.8589 16.2375 31.8589C16.7797 31.8589 17.1133 31.8351 17.1133 31.7964C17.1133 31.7599 17.3218 31.7338 17.6138 31.7338C17.9058 31.7338 18.1143 31.7599 18.1143 31.7964C18.1143 31.8368 18.8649 31.8589 20.2412 31.8589C21.6175 31.8589 22.3681 31.8368 22.3681 31.7964C22.3681 31.762 22.4807 31.7338 22.6184 31.7338C22.756 31.7338 22.8686 31.762 22.8686 31.7964C22.8686 31.8308 22.9249 31.8589 22.9937 31.8589C23.0625 31.8589 23.1188 31.8308 23.1188 31.7964C23.1188 31.762 23.147 31.7338 23.1814 31.7338C23.3686 31.7338 23.1534 32.0131 22.3374 32.829L21.4308 33.7356H16.0817C12.5573 33.7356 10.7325 33.7142 10.7325 33.673C10.7325 33.6386 10.6762 33.6104 10.6074 33.6104C10.5386 33.6104 10.4823 33.5961 10.4823 33.5787C10.4823 33.5337 12.2562 31.745 12.3069 31.7388C12.3298 31.7361 12.365 31.769 12.3851 31.812Z" fill="white"/>
</g>
<defs>
<clipPath id="clip0">
<rect width="43.002" height="43" fill="white" transform="translate(4.17969 5.37891)"/>
</clipPath>
</defs>
</svg>
