<svg width="51" height="61" viewBox="0 0 51 61" fill="none" xmlns="http://www.w3.org/2000/svg">
<path d="M50.9046 5.45804V35.6223C50.9046 49.3948 39.7055 60.57 25.9035 60.57C12.1014 60.57 0.902344 49.3948 0.902344 35.6223V5.45804C8.60173 2.2932 17.0448 0.547075 25.9035 0.547075C34.7403 0.525248 43.1834 2.2932 50.9046 5.45804Z" fill="#FF7300"/>
<g clip-path="url(#clip0)">
<path d="M39.0429 32.5537H38.496V31.4209V31.0303C38.496 30.578 38.1281 30.21 37.6757 30.21C37.2234 30.21 36.8555 30.578 36.8555 31.0303V31.1475H35.2148V30.9522C35.2148 30.8012 35.0924 30.6788 34.9414 30.6788C34.7904 30.6788 34.668 30.8012 34.668 30.9522V31.1475H33.5251C33.3295 30.2983 32.5679 29.6631 31.6602 29.6631C30.7525 29.6631 29.9911 30.2983 29.7954 31.1475H28.9259V29.8818C28.9259 29.761 28.8356 29.6631 28.7244 29.6631H21.4709C21.3596 29.6631 21.2695 29.761 21.2695 29.8818V31.1475H20.4C20.2044 30.2983 19.4428 29.6631 18.5351 29.6631C17.6274 29.6631 16.8659 30.2983 16.6703 31.1475H15.5273V30.9522C15.5273 30.8012 15.4049 30.6788 15.2539 30.6788C15.1029 30.6788 14.9805 30.8012 14.9805 30.9522V31.1475H13.3398V31.0303C13.3398 30.578 12.9719 30.21 12.5195 30.21C12.0672 30.21 11.6993 30.578 11.6993 31.0303V31.4209V32.5537H11.1523C11.0013 32.5537 10.8789 32.6761 10.8789 32.8272V34.7021C10.8789 34.8531 11.0013 34.9755 11.1523 34.9755H11.6992V36.1084V36.499C11.6992 36.9513 12.0671 37.3192 12.5195 37.3192C12.9718 37.3192 13.3397 36.9513 13.3397 36.499V36.3818H14.9804V36.577C14.9804 36.728 15.1028 36.8504 15.2538 36.8504C15.4048 36.8504 15.5272 36.728 15.5272 36.577V36.3818H16.6701C16.8657 37.2309 17.6273 37.8662 18.535 37.8662C19.4427 37.8662 20.2041 37.231 20.3998 36.3818H21.5428V36.577C21.5428 36.728 21.6652 36.8504 21.8162 36.8504C21.9672 36.8504 22.0896 36.728 22.0896 36.577V36.3818H24.824V36.577C24.824 36.728 24.9464 36.8504 25.0974 36.8504C25.2484 36.8504 25.3708 36.728 25.3708 36.577V36.3818H28.1052V36.577C28.1052 36.728 28.2276 36.8504 28.3786 36.8504C28.5296 36.8504 28.652 36.728 28.652 36.577V36.3818H29.7949C29.9905 37.2309 30.7521 37.8662 31.6598 37.8662C32.5674 37.8662 33.3289 37.231 33.5246 36.3818H34.6675V36.577C34.6675 36.728 34.7899 36.8504 34.9409 36.8504C35.092 36.8504 35.2143 36.728 35.2143 36.577V36.3818H36.855V36.499C36.855 36.9513 37.2229 37.3192 37.6753 37.3192C38.1276 37.3192 38.4955 36.9513 38.4955 36.499V36.1084V34.9755H39.0424C39.1934 34.9755 39.3158 34.8531 39.3158 34.7021V32.8272C39.3163 32.6762 39.1939 32.5537 39.0429 32.5537ZM14.9805 35.835H13.3398V34.5069H14.9805V35.835ZM14.9805 33.0224H13.3398V31.6943H14.9805V33.0224ZM16.6211 35.835H15.5273V34.5069H16.6211V35.835ZM16.6211 33.0224H15.5273V31.6943H16.6211V33.0224ZM20.4492 31.6943H21.2695V33.0225H20.4492V31.6943ZM21.543 35.835H20.4492V34.5069H21.543V35.835ZM24.8242 35.835H22.0898V34.5069H24.8242V35.835ZM28.1054 35.835H25.371V34.5069H28.1054V35.835ZM29.7461 35.835H28.6523V34.5069H29.7461V35.835ZM29.7461 33.0224H28.9258V31.6943H29.7461V33.0224ZM34.6679 35.835H33.5741V34.5069H34.6679V35.835ZM34.6679 33.0224H33.5741V31.6943H34.6679V33.0224ZM36.8554 35.835H35.2148V34.5069H36.8554V35.835ZM36.8554 33.0224H35.2148V31.6943H36.8554V33.0224Z" fill="white"/>
<path d="M45.8484 14.9551L45.0965 13.4969L44.3446 12.0387C44.2754 11.9046 44.1105 11.852 43.9763 11.921L32.9451 17.6089L33.0043 17.0464C33.3345 16.9403 33.5742 16.6306 33.5742 16.2656C33.5742 15.8133 33.2063 15.4453 32.7539 15.4453H17.4414C16.9891 15.4453 16.6211 15.8133 16.6211 16.2656C16.6211 16.6306 16.8608 16.9403 17.191 17.0464L17.5809 20.7506L16.9397 20.6439C16.9293 20.6422 16.9192 20.6425 16.909 20.642C16.9041 20.6416 16.8996 20.6405 16.8946 20.6405H16.8861C16.8852 20.6405 16.8845 20.6405 16.8836 20.6405H15.8008C15.6498 20.6405 15.5274 20.7629 15.5274 20.9139V23.1014C15.5274 23.2524 15.6498 23.3748 15.8008 23.3748H16.8946C17.0456 23.3748 17.168 23.2524 17.168 23.1014V21.2371L17.6403 21.3158L18.2313 26.9295H16.8945C16.1406 26.9295 15.5273 27.5428 15.5273 28.2967C15.5273 28.4477 15.6497 28.5701 15.8007 28.5701H18.8555C19.2812 28.5701 19.6813 28.7358 19.9824 29.0368C20.0337 29.0881 20.1032 29.117 20.1758 29.117H30.0195C30.092 29.117 30.1616 29.0881 30.2129 29.0368C30.5139 28.7358 30.9141 28.5701 31.3398 28.5701H34.3945C34.5455 28.5701 34.6679 28.4477 34.6679 28.2967C34.6679 27.5428 34.0546 26.9295 33.3007 26.9295H31.964L32.5549 21.3158L33.0273 21.2371V23.1014C33.0273 23.2524 33.1497 23.3748 33.3007 23.3748H34.3944C34.5454 23.3748 34.6678 23.2524 34.6678 23.1014V20.914C34.6678 20.763 34.5454 20.6406 34.3944 20.6406H33.3116C33.3108 20.6406 33.31 20.6406 33.3092 20.6406H33.3007C33.2957 20.6406 33.2911 20.6418 33.2862 20.6421C33.276 20.6426 33.2659 20.6423 33.2556 20.644L32.6144 20.7507L32.6711 20.2115L41.9616 15.421L44.0638 16.0928C44.091 16.1015 44.119 16.1058 44.1471 16.1058C44.1903 16.1058 44.2332 16.0956 44.2724 16.0754L45.7305 15.3235C45.8649 15.2543 45.9176 15.0893 45.8484 14.9551ZM30.8385 19.5592C30.8385 19.5633 30.8391 19.5673 30.8385 19.5715L30.7045 21.0692L30.6546 21.6325L30.1815 26.9297H20.0138L19.5407 21.6325L19.4908 21.0692L19.3569 19.5715C19.3562 19.5674 19.3569 19.5633 19.3569 19.5592C19.3569 19.5551 19.3555 19.551 19.3555 19.5468C19.3555 18.7929 19.9687 18.1797 20.7226 18.1797H29.4726C30.2266 18.1797 30.8398 18.7929 30.8398 19.5468C30.8398 19.5509 30.8385 19.555 30.8385 19.5592ZM17.4414 16.5391C17.2906 16.5391 17.168 16.4165 17.168 16.2657C17.168 16.1149 17.2906 15.9922 17.4414 15.9922H32.7539C32.9047 15.9922 33.0273 16.1149 33.0273 16.2657C33.0273 16.4165 32.9047 16.5391 32.7539 16.5391H17.4414ZM32.7397 19.5608L32.8767 18.2596L41.0677 14.0361L41.569 15.0082L32.7397 19.5608Z" fill="white"/>
</g>
<defs>
<clipPath id="clip0">
<rect width="35" height="35" fill="white" transform="translate(10.8789 7.37891)"/>
</clipPath>
</defs>
</svg>
