<svg width="51" height="61" viewBox="0 0 51 61" fill="none" xmlns="http://www.w3.org/2000/svg">
<path d="M50.2757 5.45804V35.6223C50.2757 49.3948 39.0766 60.57 25.2746 60.57C11.4725 60.57 0.273438 49.3948 0.273438 35.6223V5.45804C7.97283 2.2932 16.4159 0.547075 25.2746 0.547075C34.1114 0.525248 42.5545 2.2932 50.2757 5.45804Z" fill="#FF7300"/>
<path fill-rule="evenodd" clip-rule="evenodd" d="M20.5477 19.1898C20.5477 19.2157 20.5144 19.2369 20.4736 19.2369C20.3826 19.2369 20.2646 19.3491 20.2646 19.4355C20.2646 19.4705 20.2222 19.5298 20.1703 19.5672C20.1184 19.6046 20.0759 19.6683 20.0759 19.7087C20.0759 19.7492 20.0334 19.8129 19.9815 19.8503C19.9296 19.8877 19.8872 19.9476 19.8872 19.9833C19.8872 20.0191 19.8235 20.1079 19.7456 20.1806C19.6678 20.2533 19.6041 20.3421 19.6041 20.3778C19.6041 20.4135 19.5616 20.4734 19.5097 20.5108C19.4578 20.5482 19.4153 20.6119 19.4153 20.6524C19.4153 20.6928 19.3729 20.7565 19.321 20.7939C19.2691 20.8313 19.2266 20.895 19.2266 20.9355C19.2266 20.9759 19.1841 21.0396 19.1322 21.077C19.0803 21.1144 19.0379 21.1781 19.0379 21.2185C19.0379 21.259 18.9954 21.3227 18.9435 21.3601C18.8916 21.3975 18.8491 21.4612 18.8491 21.5016C18.8491 21.5421 18.8067 21.6057 18.7548 21.6432C18.7029 21.6806 18.6604 21.7405 18.6604 21.7762C18.6604 21.8119 18.5967 21.9007 18.5189 21.9734C18.441 22.0461 18.3773 22.1349 18.3773 22.1706C18.3773 22.2064 18.3349 22.2663 18.2829 22.3037C18.231 22.3411 18.1886 22.4048 18.1886 22.4452C18.1886 22.4857 18.1461 22.5494 18.0942 22.5868C18.0423 22.6242 17.9999 22.6879 17.9999 22.7283C17.9999 22.7688 17.9574 22.8325 17.9055 22.8699C17.8536 22.9073 17.8111 22.971 17.8111 23.0114C17.8111 23.0518 17.7687 23.1155 17.7168 23.153C17.6649 23.1904 17.6224 23.2541 17.6224 23.2945C17.6224 23.3349 17.5799 23.3986 17.528 23.436C17.4761 23.4735 17.4337 23.5371 17.4337 23.5776C17.4337 23.618 17.3912 23.6817 17.3393 23.7191C17.2874 23.7565 17.2449 23.8164 17.2449 23.8522C17.2449 23.8879 17.1812 23.9767 17.1034 24.0494C17.0255 24.1221 16.9618 24.2109 16.9618 24.2466C16.9618 24.2824 16.9194 24.3422 16.8675 24.3797C16.8156 24.4171 16.7731 24.4808 16.7731 24.5212C16.7731 24.5616 16.7306 24.6253 16.6787 24.6627C16.6268 24.7002 16.5844 24.7638 16.5844 24.8043C16.5844 24.8447 16.5419 24.9084 16.49 24.9458C16.4381 24.9832 16.3956 25.0469 16.3956 25.0874C16.3956 25.1278 16.3532 25.1915 16.3013 25.2289C16.2494 25.2663 16.2069 25.3347 16.2069 25.3809C16.2069 25.461 16.5322 25.4648 23.3113 25.4648C29.4056 25.4648 30.4253 25.4552 30.4831 25.3974C30.5401 25.3405 30.5505 24.886 30.5505 22.4722C30.5505 20.5984 30.5343 19.6144 30.5034 19.6144C30.4774 19.6144 30.4562 19.5604 30.4562 19.4943C30.4562 19.4283 30.404 19.3221 30.3403 19.2584L30.2246 19.1426H25.3861C22.192 19.1426 20.5477 19.1586 20.5477 19.1898ZM24.228 20.5108C24.228 20.5368 24.2614 20.558 24.3021 20.558C24.5052 20.558 24.5111 20.6092 24.5111 22.3509C24.5111 24.0926 24.5052 24.1437 24.3021 24.1437C24.2614 24.1437 24.228 24.165 24.228 24.1909C24.228 24.2217 23.4102 24.2381 21.8689 24.2381C20.3275 24.2381 19.5097 24.2217 19.5097 24.1909C19.5097 24.165 19.4672 24.1437 19.4153 24.1437C19.3524 24.1437 19.321 24.1123 19.321 24.0494C19.321 23.9975 19.2997 23.955 19.2738 23.955C19.2478 23.955 19.2266 23.8913 19.2266 23.8135C19.2266 23.7356 19.2478 23.6719 19.2738 23.6719C19.2997 23.6719 19.321 23.638 19.321 23.5965C19.321 23.555 19.3847 23.4616 19.4625 23.3889C19.5404 23.3162 19.6041 23.2274 19.6041 23.1916C19.6041 23.1559 19.6465 23.096 19.6984 23.0586C19.7503 23.0212 19.7928 22.9575 19.7928 22.917C19.7928 22.8766 19.8353 22.8129 19.8872 22.7755C19.9391 22.7381 19.9815 22.6744 19.9815 22.634C19.9815 22.5935 20.024 22.5298 20.0759 22.4924C20.1278 22.455 20.1703 22.3913 20.1703 22.3509C20.1703 22.3104 20.2127 22.2467 20.2646 22.2093C20.3165 22.1719 20.359 22.1082 20.359 22.0678C20.359 22.0274 20.4015 21.9637 20.4534 21.9262C20.5053 21.8888 20.5477 21.829 20.5477 21.7932C20.5477 21.7575 20.6114 21.6687 20.6893 21.596C20.7671 21.5233 20.8308 21.4345 20.8308 21.3988C20.8308 21.363 20.8733 21.3031 20.9252 21.2657C20.9771 21.2283 21.0196 21.1646 21.0196 21.1242C21.0196 21.0837 21.062 21.02 21.1139 20.9826C21.1658 20.9452 21.2083 20.8869 21.2083 20.8529C21.2083 20.819 21.2773 20.719 21.3616 20.6307L21.515 20.4701L22.8715 20.4669C23.7466 20.4648 24.228 20.4804 24.228 20.5108ZM32.7799 21.3856L32.6266 21.5461V23.7886V26.031H19.8615H7.09628L6.98049 26.1468C6.8337 26.2935 6.8228 26.5462 6.95902 26.6443C7.01092 26.6818 7.05339 26.7454 7.05339 26.7859C7.05339 26.8263 7.09585 26.89 7.14775 26.9274C7.19965 26.9648 7.24212 27.0285 7.24212 27.069C7.24212 27.1094 7.28458 27.1731 7.33648 27.2105C7.38839 27.2479 7.43085 27.3078 7.43085 27.3436C7.43085 27.3793 7.49455 27.4681 7.5724 27.5408C7.65025 27.6135 7.71395 27.6984 7.71395 27.7295C7.71395 27.7606 7.77765 27.8455 7.8555 27.9182C7.93335 27.9909 7.99705 28.0754 7.99705 28.106C7.99705 28.1365 8.08198 28.2431 8.18578 28.3428C8.28958 28.4426 8.37451 28.5485 8.37451 28.5781C8.37451 28.6078 8.48067 28.7354 8.61043 28.8618C8.74018 28.9882 8.84634 29.1143 8.84634 29.1421C8.84634 29.2081 10.9536 31.3152 11.0195 31.3152C11.0473 31.3152 11.1735 31.4214 11.2999 31.5511C11.4263 31.6809 11.5544 31.7871 11.5846 31.7871C11.6148 31.7871 11.699 31.8507 11.7717 31.9286C11.8444 32.0064 11.9293 32.0701 11.9604 32.0701C11.9915 32.0701 12.0764 32.1338 12.1492 32.2117C12.2219 32.2895 12.3107 32.3532 12.3464 32.3532C12.3821 32.3532 12.442 32.3957 12.4794 32.4476C12.5169 32.4995 12.5805 32.5419 12.621 32.5419C12.6614 32.5419 12.7251 32.5844 12.7625 32.6363C12.8 32.6882 12.8636 32.7307 12.9041 32.7307C12.9445 32.7307 13.0082 32.7731 13.0456 32.825C13.083 32.8769 13.1467 32.9194 13.1872 32.9194C13.2276 32.9194 13.2913 32.9619 13.3287 33.0138C13.3661 33.0657 13.4345 33.1081 13.4807 33.1081C13.5269 33.1081 13.5646 33.1293 13.5646 33.1553C13.5646 33.1812 13.6071 33.2025 13.659 33.2025C13.7109 33.2025 13.7534 33.2237 13.7534 33.2497C13.7534 33.2756 13.7912 33.2968 13.8373 33.2968C13.8835 33.2968 13.9519 33.3393 13.9893 33.3912C14.0267 33.4431 14.0951 33.4856 14.1413 33.4856C14.1874 33.4856 14.2252 33.5068 14.2252 33.5327C14.2252 33.5587 14.2677 33.5799 14.3196 33.5799C14.3715 33.5799 14.4139 33.6012 14.4139 33.6271C14.4139 33.6531 14.4564 33.6743 14.5083 33.6743C14.5602 33.6743 14.6027 33.6955 14.6027 33.7215C14.6027 33.7474 14.6451 33.7686 14.697 33.7686C14.7489 33.7686 14.7914 33.7899 14.7914 33.8158C14.7914 33.8418 14.8339 33.863 14.8858 33.863C14.9377 33.863 14.9801 33.8842 14.9801 33.9102C14.9801 33.9361 15.0226 33.9574 15.0745 33.9574C15.1264 33.9574 15.1689 33.9786 15.1689 34.0046C15.1689 34.0305 15.2113 34.0517 15.2632 34.0517C15.3151 34.0517 15.3576 34.073 15.3576 34.0989C15.3576 34.1249 15.4213 34.1461 15.4992 34.1461C15.577 34.1461 15.6407 34.1673 15.6407 34.1933C15.6407 34.2192 15.6832 34.2405 15.7351 34.2405C15.787 34.2405 15.8294 34.2617 15.8294 34.2876C15.8294 34.3136 15.8719 34.3348 15.9238 34.3348C15.9757 34.3348 16.0182 34.356 16.0182 34.382C16.0182 34.4079 16.0819 34.4292 16.1597 34.4292C16.2376 34.4292 16.3013 34.4504 16.3013 34.4764C16.3013 34.5023 16.3437 34.5235 16.3956 34.5235C16.4475 34.5235 16.49 34.5448 16.49 34.5707C16.49 34.5967 16.5537 34.6179 16.6315 34.6179C16.7094 34.6179 16.7731 34.6391 16.7731 34.6651C16.7731 34.691 16.8368 34.7123 16.9146 34.7123C16.9925 34.7123 17.0562 34.7335 17.0562 34.7594C17.0562 34.7854 17.1199 34.8066 17.1977 34.8066C17.2756 34.8066 17.3393 34.8279 17.3393 34.8538C17.3393 34.8798 17.403 34.901 17.4808 34.901C17.5587 34.901 17.6224 34.9222 17.6224 34.9482C17.6224 34.9741 17.7073 34.9953 17.8111 34.9953C17.9149 34.9953 17.9999 35.0166 17.9999 35.0425C17.9999 35.0685 18.0635 35.0897 18.1414 35.0897C18.2193 35.0897 18.2829 35.1109 18.2829 35.1369C18.2829 35.1628 18.3679 35.1841 18.4717 35.1841C18.5755 35.1841 18.6604 35.2053 18.6604 35.2313C18.6604 35.2572 18.7453 35.2784 18.8491 35.2784C18.9529 35.2784 19.0379 35.2997 19.0379 35.3256C19.0379 35.3516 19.144 35.3728 19.2738 35.3728C19.4035 35.3728 19.5097 35.394 19.5097 35.42C19.5097 35.4459 19.5946 35.4672 19.6984 35.4672C19.8022 35.4672 19.8872 35.4884 19.8872 35.5143C19.8872 35.5406 20.013 35.5615 20.1703 35.5615C20.3275 35.5615 20.4534 35.5825 20.4534 35.6087C20.4534 35.6349 20.5792 35.6559 20.7365 35.6559C20.8937 35.6559 21.0196 35.6768 21.0196 35.7031C21.0196 35.73 21.1611 35.7502 21.3498 35.7502C21.5386 35.7502 21.6801 35.7705 21.6801 35.7974C21.6801 35.8254 21.8531 35.8446 22.1048 35.8446C22.3564 35.8446 22.5294 35.8638 22.5294 35.8918C22.5294 35.9206 22.7496 35.939 23.0956 35.939C23.4416 35.939 23.6618 35.9573 23.6618 35.9861C23.6618 36.0162 24.0393 36.0333 24.6998 36.0333C25.3604 36.0333 25.7379 36.0505 25.7379 36.0805C25.7379 36.111 26.2726 36.1277 27.2477 36.1277C28.2229 36.1277 28.7576 36.111 28.7576 36.0805C28.7576 36.0501 29.2766 36.0333 30.2203 36.0333C31.1639 36.0333 31.6829 36.0166 31.6829 35.9861C31.6829 35.9559 32.1233 35.939 32.9097 35.939C33.6961 35.939 34.1364 35.922 34.1364 35.8918C34.1364 35.8613 34.7026 35.8446 35.7407 35.8446C36.7787 35.8446 37.3449 35.8279 37.3449 35.7974C37.3449 35.7677 37.6684 35.7502 38.2211 35.7502C39.1325 35.7502 39.2322 35.7296 39.2322 35.5413C39.2322 35.5005 39.2535 35.4672 39.2794 35.4672C39.3054 35.4672 39.3266 35.4247 39.3266 35.3728C39.3266 35.3209 39.3478 35.2784 39.3738 35.2784C39.3997 35.2784 39.421 35.2147 39.421 35.1369C39.421 35.059 39.4422 34.9953 39.4681 34.9953C39.4941 34.9953 39.5153 34.9529 39.5153 34.901C39.5153 34.8491 39.5365 34.8066 39.5625 34.8066C39.5885 34.8066 39.6097 34.7429 39.6097 34.6651C39.6097 34.5872 39.6309 34.5235 39.6569 34.5235C39.6828 34.5235 39.704 34.4811 39.704 34.4292C39.704 34.3773 39.7253 34.3348 39.7512 34.3348C39.7772 34.3348 39.7984 34.2924 39.7984 34.2405C39.7984 34.1886 39.8196 34.1461 39.8456 34.1461C39.8715 34.1461 39.8928 34.0824 39.8928 34.0046C39.8928 33.9267 39.914 33.863 39.94 33.863C39.9659 33.863 39.9871 33.8205 39.9871 33.7686C39.9871 33.7167 40.0084 33.6743 40.0343 33.6743C40.0603 33.6743 40.0815 33.6106 40.0815 33.5327C40.0815 33.4549 40.1027 33.3912 40.1287 33.3912C40.1546 33.3912 40.1759 33.3487 40.1759 33.2968C40.1759 33.2449 40.1971 33.2025 40.2231 33.2025C40.249 33.2025 40.2702 33.1388 40.2702 33.0609C40.2702 32.9831 40.2915 32.9194 40.3174 32.9194C40.3434 32.9194 40.3646 32.8769 40.3646 32.825C40.3646 32.7731 40.3858 32.7307 40.4118 32.7307C40.4377 32.7307 40.459 32.6882 40.459 32.6363C40.459 32.5844 40.4802 32.5419 40.5062 32.5419C40.5321 32.5419 40.5533 32.4782 40.5533 32.4004C40.5533 32.3226 40.5746 32.2589 40.6005 32.2589C40.6265 32.2589 40.6477 32.2164 40.6477 32.1645C40.6477 32.1126 40.6689 32.0701 40.6949 32.0701C40.7208 32.0701 40.7421 32.0064 40.7421 31.9286C40.7421 31.8507 40.7633 31.7871 40.7893 31.7871C40.8152 31.7871 40.8364 31.7446 40.8364 31.6927C40.8364 31.6408 40.8577 31.5983 40.8836 31.5983C40.9096 31.5983 40.9308 31.5346 40.9308 31.4568C40.9308 31.3789 40.952 31.3152 40.978 31.3152C41.0039 31.3152 41.0252 31.2728 41.0252 31.2209C41.0252 31.169 41.0464 31.1265 41.0724 31.1265C41.0983 31.1265 41.1195 31.0841 41.1195 31.0322C41.1195 30.9803 41.1408 30.9378 41.1667 30.9378C41.1927 30.9378 41.2139 30.8741 41.2139 30.7963C41.2139 30.7184 41.2351 30.6547 41.2611 30.6547C41.287 30.6547 41.3083 30.6122 41.3083 30.5603C41.3083 30.5084 41.3295 30.466 41.3555 30.466C41.3814 30.466 41.4026 30.4023 41.4026 30.3244C41.4026 30.2466 41.4239 30.1829 41.4498 30.1829C41.4758 30.1829 41.497 30.1404 41.497 30.0885C41.497 30.0366 41.5182 29.9942 41.5442 29.9942C41.5701 29.9942 41.5914 29.9305 41.5914 29.8526C41.5914 29.7748 41.6126 29.7111 41.6386 29.7111C41.6645 29.7111 41.6857 29.6686 41.6857 29.6167C41.6857 29.5648 41.707 29.5224 41.7329 29.5224C41.7589 29.5224 41.7801 29.4799 41.7801 29.428C41.7801 29.3761 41.8013 29.3336 41.8273 29.3336C41.8532 29.3336 41.8745 29.27 41.8745 29.1921C41.8745 29.1143 41.8957 29.0506 41.9216 29.0506C41.9476 29.0506 41.9688 29.0081 41.9688 28.9562C41.9688 28.9043 41.9901 28.8618 42.016 28.8618C42.042 28.8618 42.0632 28.7981 42.0632 28.7203C42.0632 28.6424 42.0844 28.5788 42.1104 28.5788C42.1363 28.5788 42.1576 28.5363 42.1576 28.4844C42.1576 28.4325 42.1788 28.39 42.2048 28.39C42.2307 28.39 42.2519 28.3476 42.2519 28.2957C42.2519 28.2438 42.2732 28.2013 42.2991 28.2013C42.3251 28.2013 42.3463 28.1376 42.3463 28.0598C42.3463 27.9819 42.3675 27.9182 42.3935 27.9182C42.4194 27.9182 42.4407 27.8758 42.4407 27.8239C42.4407 27.772 42.4619 27.7295 42.4878 27.7295C42.5138 27.7295 42.535 27.6658 42.535 27.588C42.535 27.5101 42.5563 27.4464 42.5822 27.4464C42.6082 27.4464 42.6294 27.4039 42.6294 27.352C42.6294 27.3001 42.6506 27.2577 42.6766 27.2577C42.7025 27.2577 42.7238 27.194 42.7238 27.1161C42.7238 27.0383 42.745 26.9746 42.7709 26.9746C42.7969 26.9746 42.8181 26.9321 42.8181 26.8802C42.8181 26.8283 42.8394 26.7859 42.8653 26.7859C42.8913 26.7859 42.9125 26.7434 42.9125 26.6915C42.9125 26.6396 42.9337 26.5972 42.9597 26.5972C43.0595 26.5972 43.0088 26.2646 42.891 26.1468L42.7752 26.031H41.6171H40.459V25.2761V24.5212H41.5914C42.3148 24.5212 42.7238 24.5042 42.7238 24.474C42.7238 24.4481 42.7571 24.4268 42.7979 24.4268C42.8932 24.4268 43.0069 24.3132 43.0069 24.2179C43.0069 24.1771 43.0281 24.1437 43.054 24.1437C43.08 24.1437 43.1012 24.0376 43.1012 23.9078C43.1012 23.7781 43.08 23.6719 43.054 23.6719C43.0281 23.6719 43.0069 23.6391 43.0069 23.599C43.0069 23.5046 42.7967 23.2945 42.7023 23.2945C42.6622 23.2945 42.6294 23.2733 42.6294 23.2473C42.6294 23.2172 42.2362 23.2001 41.5442 23.2001H40.459V22.4452C40.459 21.9734 40.4413 21.6903 40.4118 21.6903C40.3858 21.6903 40.3646 21.6578 40.3646 21.618C40.3646 21.5782 40.291 21.472 40.201 21.3821C40.0504 21.2314 40.0149 21.2185 39.7512 21.2185C39.4875 21.2185 39.4521 21.2314 39.3014 21.3821L39.1379 21.5456V22.3729V23.2001H38.147H37.1562V22.3981C37.1562 21.8948 37.1386 21.596 37.109 21.596C37.083 21.596 37.0618 21.5632 37.0618 21.5231C37.0618 21.483 37.0097 21.3981 36.946 21.3344C36.8466 21.235 36.7863 21.2185 36.5213 21.2185C36.3469 21.2185 36.2125 21.2391 36.2125 21.2657C36.2125 21.2917 36.1791 21.3129 36.1384 21.3129C36.043 21.3129 35.9294 21.4265 35.9294 21.5219C35.9294 21.5626 35.9082 21.596 35.8822 21.596C35.8526 21.596 35.835 21.8948 35.835 22.3981V23.2001H34.8914H33.9477V22.4452C33.9477 21.9734 33.93 21.6903 33.9005 21.6903C33.8746 21.6903 33.8534 21.6578 33.8534 21.618C33.8534 21.5782 33.7797 21.472 33.6898 21.3821C33.5368 21.2291 33.507 21.2187 33.2297 21.2218C32.9559 21.2248 32.9216 21.2373 32.7799 21.3856ZM35.835 25.2761V26.031H34.8914H33.9477V25.2761V24.5212H34.8914H35.835V25.2761ZM39.0704 24.5886C39.1227 24.6408 39.1379 24.8106 39.1379 25.3435V26.031H38.147H37.1562V25.2761V24.5212H38.0796C38.817 24.5212 39.0166 24.5348 39.0704 24.5886Z" fill="white"/>
</svg>
