<svg width="51" height="61" viewBox="0 0 51 61" fill="none" xmlns="http://www.w3.org/2000/svg">
<path d="M50.6663 5.45804V35.6223C50.6663 49.3948 39.4673 60.57 25.6652 60.57C11.8632 60.57 0.664062 49.3948 0.664062 35.6223V5.45804C8.36346 2.2932 16.8066 0.547075 25.6652 0.547075C34.502 0.525248 42.9451 2.2932 50.6663 5.45804Z" fill="#FF7300"/>
<path fill-rule="evenodd" clip-rule="evenodd" d="M24.9824 15.296C24.9824 15.3099 24.8349 15.3181 24.5841 15.3181C24.3334 15.3181 24.1859 15.3263 24.1859 15.3403C24.1859 15.3524 24.1681 15.3624 24.1465 15.3624C24.1248 15.3624 24.0928 15.3823 24.0752 15.4066C24.0577 15.431 24.0301 15.4509 24.014 15.4509C23.9736 15.4509 23.8761 15.5519 23.8761 15.5937C23.8761 15.6125 23.8661 15.6279 23.854 15.6279C23.8418 15.6279 23.8318 15.6478 23.8318 15.6722C23.8318 15.6965 23.8219 15.7164 23.8097 15.7164C23.7975 15.7164 23.7876 15.7463 23.7876 15.7828C23.7876 15.8193 23.7776 15.8492 23.7654 15.8492C23.7528 15.8492 23.7433 15.9155 23.7433 16.004C23.7433 16.0925 23.7528 16.1589 23.7654 16.1589C23.7776 16.1589 23.7876 16.1888 23.7876 16.2253C23.7876 16.2618 23.7975 16.2917 23.8097 16.2917C23.8219 16.2917 23.8318 16.3094 23.8318 16.331C23.8318 16.3527 23.8517 16.3848 23.8761 16.4023C23.9004 16.4199 23.9203 16.4519 23.9203 16.4736C23.9203 16.4966 23.9367 16.5129 23.9597 16.5129C23.9814 16.5129 24.0134 16.5329 24.031 16.5572C24.0485 16.5815 24.0806 16.6014 24.1022 16.6014C24.1239 16.6014 24.1416 16.6114 24.1416 16.6236C24.1416 16.6357 24.1715 16.6457 24.208 16.6457C24.2445 16.6457 24.2744 16.6557 24.2744 16.6678C24.2744 16.6824 25.0341 16.69 26.5092 16.69C27.9844 16.69 28.744 16.6975 28.744 16.7121C28.744 16.7242 28.7839 16.7342 28.8326 16.7342C28.8812 16.7342 28.9211 16.7442 28.9211 16.7563C28.9211 16.7685 28.941 16.7785 28.9653 16.7785C28.9897 16.7785 29.0096 16.7884 29.0096 16.8006C29.0096 16.8128 29.0255 16.8227 29.0449 16.8227C29.0644 16.8227 29.1082 16.8526 29.1423 16.8891C29.1764 16.9256 29.216 16.9555 29.2302 16.9555C29.2654 16.9555 29.3193 17.0118 29.3193 17.0486C29.3193 17.065 29.3393 17.0928 29.3636 17.1103C29.3879 17.1279 29.4079 17.16 29.4079 17.1816C29.4079 17.2033 29.4178 17.221 29.43 17.221C29.4422 17.221 29.4521 17.2387 29.4521 17.2603C29.4521 17.282 29.472 17.3141 29.4964 17.3316C29.5223 17.3503 29.5406 17.3889 29.5406 17.425C29.5406 17.4588 29.5506 17.4865 29.5627 17.4865C29.5749 17.4865 29.5849 17.5064 29.5849 17.5307C29.5849 17.5551 29.5948 17.575 29.607 17.575C29.6192 17.575 29.6291 17.5949 29.6291 17.6192C29.6291 17.6436 29.6391 17.6635 29.6513 17.6635C29.6634 17.6635 29.6734 17.6834 29.6734 17.7078C29.6734 17.7321 29.6833 17.752 29.6955 17.752C29.7077 17.752 29.7176 17.7719 29.7176 17.7963C29.7176 17.8206 29.7276 17.8405 29.7398 17.8405C29.7519 17.8405 29.7619 17.8604 29.7619 17.8848C29.7619 17.9091 29.7718 17.929 29.784 17.929C29.7962 17.929 29.8061 17.9467 29.8061 17.9684C29.8061 17.99 29.8261 18.0221 29.8504 18.0396C29.8764 18.0584 29.8947 18.0969 29.8947 18.133C29.8947 18.1668 29.9046 18.1945 29.9168 18.1945C29.9289 18.1945 29.9389 18.2144 29.9389 18.2388C29.9389 18.2631 29.9489 18.283 29.961 18.283C29.9732 18.283 29.9832 18.3029 29.9832 18.3273C29.9832 18.3516 29.9931 18.3715 30.0053 18.3715C30.0175 18.3715 30.0274 18.3914 30.0274 18.4158C30.0274 18.4401 30.0374 18.46 30.0495 18.46C30.0617 18.46 30.0717 18.48 30.0717 18.5043C30.0717 18.5286 30.0816 18.5485 30.0938 18.5485C30.106 18.5485 30.1159 18.5685 30.1159 18.5928C30.1159 18.6171 30.1259 18.637 30.1381 18.637C30.1502 18.637 30.1602 18.6548 30.1602 18.6764C30.1602 18.6981 30.1801 18.7301 30.2044 18.7477C30.2304 18.7664 30.2487 18.805 30.2487 18.8411C30.2487 18.8749 30.2586 18.9026 30.2708 18.9026C30.283 18.9026 30.2929 18.9225 30.2929 18.9468C30.2929 18.9712 30.3029 18.9911 30.3151 18.9911C30.3272 18.9911 30.3372 19.011 30.3372 19.0353C30.3372 19.0597 30.3472 19.0796 30.3593 19.0796C30.3715 19.0796 30.3814 19.0995 30.3814 19.1238C30.3814 19.1482 30.3914 19.1681 30.4036 19.1681C30.4157 19.1681 30.4257 19.188 30.4257 19.2123C30.4257 19.2367 30.4357 19.2566 30.4478 19.2566C30.46 19.2566 30.47 19.2765 30.47 19.3008C30.47 19.3252 30.4799 19.3451 30.4921 19.3451C30.5043 19.3451 30.5142 19.3605 30.5142 19.3793C30.5142 19.4235 30.6128 19.5221 30.657 19.5221C30.6758 19.5221 30.6912 19.532 30.6912 19.5442C30.6912 19.5564 30.7211 19.5663 30.7576 19.5663C30.7941 19.5663 30.824 19.5763 30.824 19.5885C30.824 19.6006 30.8539 19.6106 30.8904 19.6106C30.9269 19.6106 30.9568 19.6206 30.9568 19.6327C30.9568 19.6449 30.9866 19.6548 31.0231 19.6548C31.0596 19.6548 31.0895 19.6648 31.0895 19.677C31.0895 19.6891 31.1194 19.6991 31.1559 19.6991C31.1924 19.6991 31.2223 19.7091 31.2223 19.7212C31.2223 19.7334 31.2521 19.7434 31.2887 19.7434C31.3252 19.7434 31.355 19.7533 31.355 19.7655C31.355 19.7776 31.3949 19.7876 31.4435 19.7876C31.4922 19.7876 31.5321 19.7976 31.5321 19.8097C31.5321 19.8219 31.5619 19.8319 31.5984 19.8319C31.6349 19.8319 31.6648 19.8418 31.6648 19.854C31.6648 19.8662 31.7046 19.8761 31.7533 19.8761C31.802 19.8761 31.8418 19.8861 31.8418 19.8982C31.8418 19.9104 31.8717 19.9204 31.9082 19.9204C31.9447 19.9204 31.9746 19.9303 31.9746 19.9425C31.9746 19.9547 32.0045 19.9646 32.041 19.9646C32.0775 19.9646 32.1074 19.9746 32.1074 19.9867C32.1074 19.9989 32.1372 20.0089 32.1737 20.0089C32.2103 20.0089 32.2401 20.0188 32.2401 20.031C32.2401 20.0432 32.27 20.0531 32.3065 20.0531C32.343 20.0531 32.3729 20.0631 32.3729 20.0752C32.3729 20.0874 32.3828 20.0974 32.395 20.0974C32.4072 20.0974 32.4171 20.0775 32.4171 20.0531C32.4171 20.0288 32.4072 20.0089 32.395 20.0089C32.3828 20.0089 32.3729 19.989 32.3729 19.9646C32.3729 19.9403 32.3629 19.9204 32.3508 19.9204C32.3386 19.9204 32.3286 19.9004 32.3286 19.8761C32.3286 19.8518 32.3187 19.8319 32.3065 19.8319C32.2943 19.8319 32.2844 19.8119 32.2844 19.7876C32.2844 19.7633 32.2744 19.7434 32.2623 19.7434C32.2501 19.7434 32.2401 19.7234 32.2401 19.6991C32.2401 19.6748 32.2302 19.6548 32.218 19.6548C32.2058 19.6548 32.1959 19.6349 32.1959 19.6106C32.1959 19.5863 32.1859 19.5663 32.1737 19.5663C32.1616 19.5663 32.1516 19.5464 32.1516 19.5221C32.1516 19.4978 32.1417 19.4778 32.1295 19.4778C32.1173 19.4778 32.1074 19.4579 32.1074 19.4336C32.1074 19.4092 32.0974 19.3893 32.0852 19.3893C32.0731 19.3893 32.0631 19.3694 32.0631 19.3451C32.0631 19.3207 32.0532 19.3008 32.041 19.3008C32.0288 19.3008 32.0189 19.2809 32.0189 19.2566C32.0189 19.2322 32.0089 19.2123 31.9967 19.2123C31.9846 19.2123 31.9746 19.1924 31.9746 19.1681C31.9746 19.1437 31.9646 19.1238 31.9525 19.1238C31.9403 19.1238 31.9303 19.1039 31.9303 19.0796C31.9303 19.0552 31.9204 19.0353 31.9082 19.0353C31.896 19.0353 31.8861 19.0154 31.8861 18.9911C31.8861 18.9667 31.8761 18.9468 31.864 18.9468C31.8518 18.9468 31.8418 18.9269 31.8418 18.9026C31.8418 18.8782 31.8319 18.8583 31.8197 18.8583C31.8075 18.8583 31.7976 18.8384 31.7976 18.8141C31.7976 18.7897 31.7876 18.7698 31.7755 18.7698C31.7633 18.7698 31.7533 18.7499 31.7533 18.7256C31.7533 18.7012 31.7434 18.6813 31.7312 18.6813C31.719 18.6813 31.7091 18.6614 31.7091 18.637C31.7091 18.6127 31.6991 18.5928 31.6869 18.5928C31.6748 18.5928 31.6648 18.5729 31.6648 18.5485C31.6648 18.5242 31.6549 18.5043 31.6427 18.5043C31.6305 18.5043 31.6206 18.4844 31.6206 18.46C31.6206 18.4357 31.6106 18.4158 31.5984 18.4158C31.5863 18.4158 31.5763 18.3959 31.5763 18.3715C31.5763 18.3472 31.5664 18.3273 31.5542 18.3273C31.542 18.3273 31.5321 18.3074 31.5321 18.283C31.5321 18.2587 31.5221 18.2388 31.5099 18.2388C31.4978 18.2388 31.4878 18.2189 31.4878 18.1945C31.4878 18.1702 31.4778 18.1503 31.4657 18.1503C31.4535 18.1503 31.4435 18.1304 31.4435 18.106C31.4435 18.0817 31.4336 18.0618 31.4214 18.0618C31.4093 18.0618 31.3993 18.0419 31.3993 18.0175C31.3993 17.9932 31.3893 17.9733 31.3772 17.9733C31.365 17.9733 31.355 17.9534 31.355 17.929C31.355 17.9047 31.3451 17.8848 31.3329 17.8848C31.3207 17.8848 31.3108 17.8648 31.3108 17.8405C31.3108 17.8162 31.3008 17.7963 31.2887 17.7963C31.2765 17.7963 31.2665 17.7763 31.2665 17.752C31.2665 17.7277 31.2566 17.7078 31.2444 17.7078C31.2322 17.7078 31.2223 17.6878 31.2223 17.6635C31.2223 17.6392 31.2123 17.6192 31.2001 17.6192C31.188 17.6192 31.178 17.5993 31.178 17.575C31.178 17.5507 31.1681 17.5307 31.1559 17.5307C31.1437 17.5307 31.1338 17.5108 31.1338 17.4865C31.1338 17.4622 31.1238 17.4422 31.1116 17.4422C31.0995 17.4422 31.0895 17.4223 31.0895 17.398C31.0895 17.3736 31.0796 17.3537 31.0674 17.3537C31.0552 17.3537 31.0453 17.3338 31.0453 17.3095C31.0453 17.2851 31.0353 17.2652 31.0231 17.2652C31.011 17.2652 31.001 17.2453 31.001 17.221C31.001 17.1966 30.991 17.1767 30.9789 17.1767C30.9667 17.1767 30.9568 17.1568 30.9568 17.1325C30.9568 17.1081 30.9468 17.0882 30.9346 17.0882C30.9225 17.0882 30.9125 17.0683 30.9125 17.044C30.9125 17.0196 30.9025 16.9997 30.8904 16.9997C30.8782 16.9997 30.8682 16.9798 30.8682 16.9555C30.8682 16.9311 30.8583 16.9112 30.8461 16.9112C30.8339 16.9112 30.824 16.8913 30.824 16.867C30.824 16.8426 30.814 16.8227 30.8019 16.8227C30.7897 16.8227 30.7797 16.8028 30.7797 16.7785C30.7797 16.7541 30.7698 16.7342 30.7576 16.7342C30.7454 16.7342 30.7355 16.7143 30.7355 16.69C30.7355 16.6656 30.7255 16.6457 30.7134 16.6457C30.7012 16.6457 30.6912 16.6258 30.6912 16.6014C30.6912 16.5771 30.6813 16.5572 30.6691 16.5572C30.6569 16.5572 30.647 16.5373 30.647 16.5129C30.647 16.4886 30.637 16.4687 30.6248 16.4687C30.6127 16.4687 30.6027 16.451 30.6027 16.4293C30.6027 16.4077 30.5828 16.3756 30.5585 16.3581C30.5341 16.3405 30.5142 16.3127 30.5142 16.2961C30.5142 16.2796 30.4744 16.2278 30.4257 16.1811C30.377 16.1343 30.3372 16.085 30.3372 16.0714C30.3372 16.0394 30.1912 15.8934 30.1592 15.8934C30.1456 15.8934 30.0963 15.8536 30.0495 15.8049C30.0028 15.7562 29.951 15.7164 29.9345 15.7164C29.9179 15.7164 29.8901 15.6965 29.8725 15.6722C29.855 15.6478 29.8229 15.6279 29.8013 15.6279C29.7796 15.6279 29.7619 15.6179 29.7619 15.6058C29.7619 15.5936 29.742 15.5836 29.7176 15.5836C29.6933 15.5836 29.6734 15.5737 29.6734 15.5615C29.6734 15.5494 29.6535 15.5394 29.6291 15.5394C29.6048 15.5394 29.5849 15.5294 29.5849 15.5173C29.5849 15.5051 29.565 15.4951 29.5406 15.4951C29.5163 15.4951 29.4964 15.4852 29.4964 15.473C29.4964 15.4608 29.4665 15.4509 29.43 15.4509C29.3935 15.4509 29.3636 15.4409 29.3636 15.4288C29.3636 15.4166 29.3337 15.4066 29.2972 15.4066C29.2607 15.4066 29.2308 15.3967 29.2308 15.3845C29.2308 15.3723 29.191 15.3624 29.1423 15.3624C29.0937 15.3624 29.0538 15.3524 29.0538 15.3403C29.0538 15.326 28.7957 15.3181 28.3236 15.3181C27.8516 15.3181 27.5934 15.3103 27.5934 15.296C27.5934 15.2612 26.8924 15.2666 26.8761 15.3015C26.8658 15.3237 26.8607 15.3237 26.8503 15.3015C26.835 15.2687 26.7526 15.2641 26.7526 15.296C26.7526 15.3101 26.583 15.3181 26.2879 15.3181C25.9929 15.3181 25.8233 15.3101 25.8233 15.296C25.8233 15.2612 25.1223 15.2666 25.106 15.3015C25.0957 15.3237 25.0905 15.3237 25.0802 15.3015C25.0649 15.2687 24.9824 15.2641 24.9824 15.296ZM34.7626 16.9776C34.7626 16.9898 34.7128 16.9997 34.652 16.9997C34.5911 16.9997 34.5413 17.0097 34.5413 17.0218C34.5413 17.034 34.5115 17.044 34.475 17.044C34.4384 17.044 34.4086 17.0539 34.4086 17.0661C34.4086 17.0783 34.3887 17.0882 34.3643 17.0882C34.34 17.0882 34.3201 17.0982 34.3201 17.1103C34.3201 17.1225 34.3002 17.1325 34.2758 17.1325C34.2515 17.1325 34.2316 17.1424 34.2316 17.1546C34.2316 17.1668 34.2138 17.1767 34.1922 17.1767C34.1705 17.1767 34.1385 17.1966 34.1209 17.221C34.1034 17.2453 34.0713 17.2652 34.0497 17.2652C34.028 17.2652 34.0103 17.2752 34.0103 17.2874C34.0103 17.2995 33.9952 17.3095 33.9768 17.3095C33.9362 17.3095 33.4792 17.7619 33.4792 17.8022C33.4792 17.8179 33.4593 17.8451 33.435 17.8626C33.4106 17.8802 33.3907 17.9122 33.3907 17.9339C33.3907 17.9555 33.3808 17.9733 33.3686 17.9733C33.3564 17.9733 33.3465 17.9932 33.3465 18.0175C33.3465 18.0419 33.3365 18.0618 33.3244 18.0618C33.3122 18.0618 33.3022 18.0817 33.3022 18.106C33.3022 18.1304 33.2923 18.1503 33.2801 18.1503C33.2679 18.1503 33.258 18.1702 33.258 18.1945C33.258 18.2189 33.248 18.2388 33.2358 18.2388C33.2237 18.2388 33.2137 18.2686 33.2137 18.3052C33.2137 18.3417 33.2038 18.3715 33.1916 18.3715C33.1794 18.3715 33.1695 18.4213 33.1695 18.4822C33.1695 18.543 33.1595 18.5928 33.1473 18.5928C33.1334 18.5928 33.1252 18.7403 33.1252 18.9911C33.1252 19.2418 33.1334 19.3893 33.1473 19.3893C33.1595 19.3893 33.1695 19.4292 33.1695 19.4778C33.1695 19.5265 33.1794 19.5663 33.1916 19.5663C33.2038 19.5663 33.2137 19.5962 33.2137 19.6327C33.2137 19.6692 33.2237 19.6991 33.2358 19.6991C33.248 19.6991 33.258 19.729 33.258 19.7655C33.258 19.802 33.2679 19.8319 33.2801 19.8319C33.2923 19.8319 33.3022 19.8496 33.3022 19.8712C33.3022 19.8929 33.3221 19.9249 33.3465 19.9425C33.3708 19.96 33.3907 19.9921 33.3907 20.0138C33.3907 20.0354 33.4007 20.0531 33.4129 20.0531C33.425 20.0531 33.435 20.069 33.435 20.0885C33.435 20.1079 33.4649 20.1518 33.5014 20.1859C33.5379 20.22 33.5677 20.259 33.5677 20.2726C33.5677 20.3048 33.8471 20.5841 33.8793 20.5841C33.8929 20.5841 33.9319 20.614 33.966 20.6505C34.0001 20.687 34.044 20.7169 34.0634 20.7169C34.0829 20.7169 34.0988 20.7269 34.0988 20.739C34.0988 20.7512 34.1187 20.7612 34.1431 20.7612C34.1674 20.7612 34.1873 20.7711 34.1873 20.7833C34.1873 20.7954 34.2072 20.8054 34.2316 20.8054C34.2559 20.8054 34.2758 20.8154 34.2758 20.8275C34.2758 20.8397 34.2957 20.8497 34.3201 20.8497C34.3444 20.8497 34.3643 20.8596 34.3643 20.8718C34.3643 20.884 34.3942 20.8939 34.4307 20.8939C34.4672 20.8939 34.4971 20.9039 34.4971 20.916C34.4971 20.9282 34.527 20.9382 34.5635 20.9382C34.6 20.9382 34.6298 20.9481 34.6298 20.9603C34.6298 20.9725 34.6796 20.9824 34.7405 20.9824C34.8013 20.9824 34.8511 20.9924 34.8511 21.0045C34.8511 21.0183 34.9765 21.0267 35.183 21.0267H35.5149V18.9911V16.9555H35.1388C34.9027 16.9555 34.7626 16.9637 34.7626 16.9776ZM30.4976 20.8395C30.4581 20.8809 30.4257 20.9278 30.4257 20.9437C30.4257 20.9596 30.4058 20.987 30.3814 21.0045C30.3571 21.0221 30.3372 21.0502 30.3372 21.0669C30.3372 21.0837 30.3073 21.1253 30.2708 21.1594C30.2343 21.1935 30.2044 21.2352 30.2044 21.2519C30.2044 21.2687 30.1845 21.2968 30.1602 21.3143C30.1358 21.3318 30.1159 21.3617 30.1159 21.3807C30.1159 21.3996 30.096 21.4295 30.0717 21.4471C30.0473 21.4646 30.0274 21.4945 30.0274 21.5134C30.0274 21.5324 30.0075 21.5623 29.9832 21.5798C29.9588 21.5974 29.9389 21.6272 29.9389 21.6462C29.9389 21.6652 29.919 21.695 29.8947 21.7126C29.8703 21.7301 29.8504 21.7582 29.8504 21.775C29.8504 21.7917 29.8205 21.8334 29.784 21.8675C29.7475 21.9016 29.7176 21.9432 29.7176 21.9599C29.7176 21.9767 29.6977 22.0048 29.6734 22.0223C29.649 22.0399 29.6291 22.0698 29.6291 22.0887C29.6291 22.1077 29.6092 22.1375 29.5849 22.1551C29.5605 22.1726 29.5406 22.2007 29.5406 22.2175C29.5406 22.2342 29.5107 22.2759 29.4742 22.31C29.4377 22.3441 29.4079 22.3857 29.4079 22.4025C29.4079 22.4192 29.3879 22.4473 29.3636 22.4649C29.3393 22.4824 29.3193 22.5123 29.3193 22.5312C29.3193 22.5502 29.2994 22.5801 29.2751 22.5976C29.2508 22.6152 29.2308 22.645 29.2308 22.664C29.2308 22.683 29.2109 22.7128 29.1866 22.7304C29.1622 22.7479 29.1423 22.776 29.1423 22.7928C29.1423 22.8095 29.1125 22.8512 29.0759 22.8853C29.0394 22.9194 29.0096 22.961 29.0096 22.9777C29.0096 22.9945 28.9897 23.0226 28.9653 23.0401C28.941 23.0577 28.9211 23.0876 28.9211 23.1065C28.9211 23.1255 28.9011 23.1553 28.8768 23.1729C28.8525 23.1904 28.8326 23.2203 28.8326 23.2393C28.8326 23.2582 28.8126 23.2881 28.7883 23.3057C28.764 23.3232 28.744 23.3513 28.744 23.368C28.744 23.3848 28.7142 23.4264 28.6777 23.4605C28.6412 23.4946 28.6113 23.5363 28.6113 23.553C28.6113 23.5698 28.5914 23.5979 28.567 23.6154C28.5427 23.633 28.5228 23.6628 28.5228 23.6818C28.5228 23.7008 28.5029 23.7306 28.4785 23.7482C28.4542 23.7657 28.4343 23.7956 28.4343 23.8146C28.4343 23.8335 28.4143 23.8634 28.39 23.8809C28.3657 23.8985 28.3458 23.9283 28.3458 23.9473C28.3458 23.9663 28.3258 23.9961 28.3015 24.0137C28.2772 24.0312 28.2572 24.0593 28.2572 24.0761C28.2572 24.0928 28.2274 24.1345 28.1909 24.1686C28.1544 24.2027 28.1245 24.2443 28.1245 24.2611C28.1245 24.2778 28.1046 24.3059 28.0802 24.3235C28.0559 24.341 28.036 24.3709 28.036 24.3898C28.036 24.4088 28.0161 24.4387 27.9917 24.4562C27.9674 24.4738 27.9475 24.5018 27.9475 24.5186C27.9475 24.5354 27.9176 24.577 27.8811 24.6111C27.8446 24.6452 27.8147 24.6848 27.8147 24.6992C27.8147 24.7135 27.7749 24.7634 27.7262 24.8102C27.6775 24.857 27.6377 24.9065 27.6377 24.9201C27.6377 24.9526 27.5364 25.0536 27.5038 25.0536C27.4898 25.0536 27.4505 25.0835 27.4164 25.12C27.3823 25.1565 27.3385 25.1864 27.319 25.1864C27.2996 25.1864 27.2837 25.1963 27.2837 25.2085C27.2837 25.2207 27.2637 25.2306 27.2394 25.2306C27.2151 25.2306 27.1951 25.2406 27.1951 25.2527C27.1951 25.2649 27.1752 25.2749 27.1509 25.2749C27.1266 25.2749 27.1066 25.2848 27.1066 25.297C27.1066 25.3092 27.0768 25.3191 27.0403 25.3191C27.0037 25.3191 26.9739 25.3291 26.9739 25.3413C26.9739 25.3534 26.934 25.3634 26.8854 25.3634C26.8367 25.3634 26.7969 25.3733 26.7969 25.3855C26.7969 25.3991 26.6862 25.4076 26.5092 25.4076C26.3322 25.4076 26.2216 25.3991 26.2216 25.3855C26.2216 25.3733 26.1718 25.3634 26.1109 25.3634C26.0501 25.3634 26.0003 25.3534 26.0003 25.3413C26.0003 25.3291 25.9704 25.3191 25.9339 25.3191C25.8974 25.3191 25.8675 25.3092 25.8675 25.297C25.8675 25.2848 25.8377 25.2749 25.8011 25.2749C25.7646 25.2749 25.7348 25.2649 25.7348 25.2527C25.7348 25.2406 25.7049 25.2306 25.6684 25.2306C25.6319 25.2306 25.602 25.2207 25.602 25.2085C25.602 25.1963 25.5622 25.1864 25.5135 25.1864C25.4648 25.1864 25.425 25.1764 25.425 25.1642C25.425 25.1521 25.3951 25.1421 25.3586 25.1421C25.3221 25.1421 25.2922 25.1322 25.2922 25.12C25.2922 25.1078 25.2623 25.0979 25.2258 25.0979C25.1893 25.0979 25.1595 25.0879 25.1595 25.0757C25.1595 25.0636 25.1296 25.0536 25.0931 25.0536C25.0566 25.0536 25.0267 25.0437 25.0267 25.0315C25.0267 25.0193 24.9968 25.0094 24.9603 25.0094C24.9238 25.0094 24.8939 24.9994 24.8939 24.9872C24.8939 24.9751 24.8641 24.9651 24.8275 24.9651C24.791 24.9651 24.7612 24.9552 24.7612 24.943C24.7612 24.9308 24.7213 24.9209 24.6727 24.9209C24.624 24.9209 24.5841 24.9109 24.5841 24.8987C24.5841 24.8866 24.5543 24.8766 24.5178 24.8766C24.4813 24.8766 24.4514 24.8666 24.4514 24.8545C24.4514 24.8423 24.4215 24.8324 24.385 24.8324C24.3485 24.8324 24.3186 24.8224 24.3186 24.8102C24.3186 24.7981 24.2888 24.7881 24.2522 24.7881C24.2157 24.7881 24.1859 24.7781 24.1859 24.766C24.1859 24.7538 24.146 24.7438 24.0974 24.7438C24.0487 24.7438 24.0088 24.7339 24.0088 24.7217C24.0088 24.7096 23.979 24.6996 23.9425 24.6996C23.906 24.6996 23.8761 24.6896 23.8761 24.6775C23.8761 24.6653 23.8462 24.6553 23.8097 24.6553C23.7732 24.6553 23.7433 24.6454 23.7433 24.6332C23.7433 24.621 23.7134 24.6111 23.6769 24.6111C23.6404 24.6111 23.6106 24.6011 23.6106 24.589C23.6106 24.5768 23.5707 24.5668 23.522 24.5668C23.4734 24.5668 23.4335 24.5569 23.4335 24.5447C23.4335 24.5325 23.4037 24.5226 23.3672 24.5226C23.3306 24.5226 23.3008 24.5126 23.3008 24.5005C23.3008 24.4883 23.2709 24.4783 23.2344 24.4783C23.1979 24.4783 23.168 24.4684 23.168 24.4562C23.168 24.444 23.1381 24.4341 23.1016 24.4341C23.0651 24.4341 23.0353 24.4241 23.0353 24.412C23.0353 24.3998 23.0054 24.3898 22.9689 24.3898C22.9324 24.3898 22.9025 24.3799 22.9025 24.3677C22.9025 24.3555 22.8726 24.3456 22.8361 24.3456C22.7996 24.3456 22.7697 24.3356 22.7697 24.3235C22.7697 24.3113 22.7299 24.3013 22.6812 24.3013C22.6325 24.3013 22.5927 24.2914 22.5927 24.2792C22.5927 24.267 22.5628 24.2571 22.5263 24.2571C22.4898 24.2571 22.4599 24.2471 22.4599 24.2349C22.4599 24.2228 22.4201 24.2128 22.3714 24.2128C22.3228 24.2128 22.2829 24.2029 22.2829 24.1907C22.2829 24.1785 22.2531 24.1686 22.2166 24.1686C22.18 24.1686 22.1502 24.1586 22.1502 24.1464C22.1502 24.1343 22.1203 24.1243 22.0838 24.1243C22.0473 24.1243 22.0174 24.1144 22.0174 24.1022C22.0174 24.09 21.9875 24.0801 21.951 24.0801C21.9145 24.0801 21.8846 24.0701 21.8846 24.0579C21.8846 24.0458 21.8548 24.0358 21.8183 24.0358C21.7818 24.0358 21.7519 24.0259 21.7519 24.0137C21.7519 24.0015 21.722 23.9916 21.6855 23.9916C21.649 23.9916 21.6191 23.9816 21.6191 23.9694C21.6191 23.9573 21.5793 23.9473 21.5306 23.9473C21.4819 23.9473 21.4421 23.9374 21.4421 23.9252C21.4421 23.913 21.4122 23.9031 21.3757 23.9031C21.3392 23.9031 21.3093 23.8931 21.3093 23.8809C21.3093 23.8688 21.2795 23.8588 21.243 23.8588C21.2064 23.8588 21.1766 23.8488 21.1766 23.8367C21.1766 23.8245 21.1467 23.8146 21.1102 23.8146C21.0737 23.8146 21.0438 23.8046 21.0438 23.7924C21.0438 23.7803 21.0139 23.7703 20.9774 23.7703C20.9409 23.7703 20.9111 23.7603 20.9111 23.7482C20.9111 23.736 20.8712 23.726 20.8225 23.726C20.7739 23.726 20.734 23.7161 20.734 23.7039C20.734 23.6918 20.7042 23.6818 20.6677 23.6818C20.6311 23.6818 20.6013 23.6718 20.6013 23.6597C20.6013 23.6475 20.5714 23.6375 20.5349 23.6375C20.4984 23.6375 20.4685 23.6276 20.4685 23.6154C20.4685 23.6032 20.4287 23.5933 20.38 23.5933C20.3313 23.5933 20.2915 23.5833 20.2915 23.5712C20.2915 23.559 20.2616 23.549 20.2251 23.549C20.1886 23.549 20.1587 23.5391 20.1587 23.5269C20.1587 23.5147 20.1289 23.5048 20.0924 23.5048C20.0558 23.5048 20.026 23.4948 20.026 23.4827C20.026 23.4705 19.9961 23.4605 19.9596 23.4605C19.9231 23.4605 19.8932 23.4506 19.8932 23.4384C19.8932 23.4262 19.8633 23.4163 19.8268 23.4163C19.7903 23.4163 19.7604 23.4063 19.7604 23.3942C19.7604 23.382 19.7306 23.372 19.6941 23.372C19.6576 23.372 19.6277 23.3621 19.6277 23.3499C19.6277 23.3377 19.5879 23.3278 19.5392 23.3278C19.4905 23.3278 19.4507 23.3178 19.4507 23.3057C19.4507 23.2935 19.4208 23.2835 19.3843 23.2835C19.3478 23.2835 19.3179 23.2736 19.3179 23.2614C19.3179 23.2492 19.288 23.2393 19.2515 23.2393C19.215 23.2393 19.1851 23.2293 19.1851 23.2171C19.1851 23.205 19.1553 23.195 19.1188 23.195C19.0822 23.195 19.0524 23.1851 19.0524 23.1729C19.0524 23.1607 19.0225 23.1508 18.986 23.1508C18.9495 23.1508 18.9196 23.1408 18.9196 23.1286C18.9196 23.1165 18.8798 23.1065 18.8311 23.1065C18.7824 23.1065 18.7426 23.0966 18.7426 23.0844C18.7426 23.0722 18.7127 23.0623 18.6762 23.0623C18.6397 23.0623 18.6098 23.0523 18.6098 23.0401C18.6098 23.028 18.58 23.018 18.5435 23.018C18.5069 23.018 18.4771 23.0081 18.4771 22.9959C18.4771 22.9837 18.4372 22.9738 18.3886 22.9738C18.3399 22.9738 18.3001 22.9638 18.3001 22.9516C18.3001 22.9395 18.2702 22.9295 18.2337 22.9295C18.1972 22.9295 18.1673 22.9196 18.1673 22.9074C18.1673 22.8952 18.1374 22.8853 18.1009 22.8853C18.0644 22.8853 18.0345 22.8753 18.0345 22.8631C18.0345 22.851 18.0047 22.841 17.9681 22.841C17.9316 22.841 17.9018 22.831 17.9018 22.8189C17.9018 22.8067 17.8719 22.7968 17.8354 22.7968C17.7989 22.7968 17.769 22.7868 17.769 22.7746C17.769 22.7625 17.7292 22.7525 17.6805 22.7525C17.6318 22.7525 17.592 22.7425 17.592 22.7304C17.592 22.7182 17.5621 22.7082 17.5256 22.7082C17.4891 22.7082 17.4592 22.6983 17.4592 22.6861C17.4592 22.674 17.4294 22.664 17.3928 22.664C17.3563 22.664 17.3265 22.654 17.3265 22.6419C17.3265 22.6297 17.2966 22.6197 17.2601 22.6197C17.2236 22.6197 17.1937 22.6098 17.1937 22.5976C17.1937 22.5854 17.1638 22.5755 17.1273 22.5755C17.0908 22.5755 17.0609 22.5655 17.0609 22.5534C17.0609 22.5412 17.0211 22.5312 16.9724 22.5312C16.9238 22.5312 16.8839 22.5213 16.8839 22.5091C16.8839 22.4969 16.8541 22.487 16.8175 22.487C16.781 22.487 16.7512 22.477 16.7512 22.4649C16.7512 22.4527 16.7213 22.4427 16.6848 22.4427C16.6483 22.4427 16.6184 22.4328 16.6184 22.4206C16.6184 22.4084 16.5885 22.3985 16.552 22.3985C16.5155 22.3985 16.4856 22.3885 16.4856 22.3764C16.4856 22.3642 16.4458 22.3542 16.3971 22.3542C16.3484 22.3542 16.3086 22.3443 16.3086 22.3321C16.3086 22.3199 16.2787 22.31 16.2422 22.31C16.2057 22.31 16.1759 22.3 16.1759 22.2879C16.1759 22.2757 16.146 22.2657 16.1095 22.2657C16.073 22.2657 16.0431 22.2558 16.0431 22.2436C16.0431 22.2314 16.0033 22.2215 15.9546 22.2215C15.9059 22.2215 15.8661 22.2115 15.8661 22.1993C15.8661 22.1872 15.8462 22.1772 15.8218 22.1772C15.7975 22.1772 15.7776 22.1673 15.7776 22.1551C15.7776 22.1429 15.7377 22.133 15.6891 22.133C15.6404 22.133 15.6006 22.123 15.6006 22.1108C15.6006 22.0987 15.5707 22.0887 15.5342 22.0887C15.4977 22.0887 15.4678 22.0788 15.4678 22.0666C15.4678 22.0544 15.428 22.0445 15.3793 22.0445C15.3306 22.0445 15.2908 22.0345 15.2908 22.0223C15.2908 22.0102 15.2609 22.0002 15.2244 22.0002C15.1879 22.0002 15.158 21.9903 15.158 21.9781C15.158 21.9659 15.1281 21.956 15.0916 21.956C15.0551 21.956 15.0252 21.946 15.0252 21.9338C15.0252 21.9217 14.9954 21.9117 14.9589 21.9117C14.9224 21.9117 14.8925 21.9018 14.8925 21.8896C14.8925 21.8774 14.8626 21.8675 14.8261 21.8675C14.7896 21.8675 14.7597 21.8575 14.7597 21.8453C14.7597 21.8332 14.7298 21.8232 14.6933 21.8232C14.6568 21.8232 14.627 21.8132 14.627 21.8011C14.627 21.7889 14.5971 21.779 14.5606 21.779C14.5241 21.779 14.4942 21.769 14.4942 21.7568C14.4942 21.7447 14.4544 21.7347 14.4057 21.7347C14.357 21.7347 14.3172 21.7247 14.3172 21.7126C14.3172 21.7004 14.2774 21.6904 14.2287 21.6904C14.18 21.6904 14.1402 21.6805 14.1402 21.6683C14.1402 21.6562 14.1103 21.6462 14.0738 21.6462C14.0373 21.6462 14.0074 21.6362 14.0074 21.6241C14.0074 21.6119 13.9676 21.6019 13.9189 21.6019C13.8702 21.6019 13.8304 21.592 13.8304 21.5798C13.8304 21.5665 13.7419 21.5577 13.6091 21.5577C13.4763 21.5577 13.3878 21.5665 13.3878 21.5798C13.3878 21.5921 13.3288 21.6019 13.2551 21.6019C13.1813 21.6019 13.1223 21.6118 13.1223 21.6241C13.1223 21.6362 13.0924 21.6462 13.0559 21.6462C13.0194 21.6462 12.9896 21.6562 12.9896 21.6683C12.9896 21.6805 12.9597 21.6904 12.9232 21.6904C12.8867 21.6904 12.8568 21.7004 12.8568 21.7126C12.8568 21.7247 12.8369 21.7347 12.8125 21.7347C12.7882 21.7347 12.7683 21.7447 12.7683 21.7568C12.7683 21.769 12.7506 21.779 12.7289 21.779C12.7073 21.779 12.6752 21.7989 12.6576 21.8232C12.6401 21.8475 12.612 21.8675 12.5952 21.8675C12.5785 21.8675 12.5369 21.8973 12.5028 21.9338C12.4687 21.9703 12.4295 22.0002 12.4157 22.0002C12.3834 22.0002 12.2372 22.146 12.2372 22.1782C12.2372 22.1918 12.1974 22.2411 12.1487 22.2879C12.1 22.3346 12.0602 22.3864 12.0602 22.4029C12.0602 22.4195 12.0403 22.4473 12.016 22.4649C11.9916 22.4824 11.9717 22.5145 11.9717 22.5361C11.9717 22.5578 11.9618 22.5755 11.9496 22.5755C11.9374 22.5755 11.9275 22.5932 11.9275 22.6149C11.9275 22.6365 11.9075 22.6686 11.8832 22.6861C11.8589 22.7037 11.8389 22.7335 11.8389 22.7525C11.8389 22.7715 11.819 22.8013 11.7947 22.8189C11.7704 22.8364 11.7504 22.8663 11.7504 22.8853C11.7504 22.9042 11.7305 22.9341 11.7062 22.9516C11.6818 22.9692 11.6619 22.999 11.6619 23.018C11.6619 23.037 11.642 23.0668 11.6177 23.0844C11.5933 23.1019 11.5734 23.1318 11.5734 23.1508C11.5734 23.1697 11.5535 23.1996 11.5292 23.2171C11.5048 23.2347 11.4849 23.2646 11.4849 23.2835C11.4849 23.3025 11.465 23.3324 11.4407 23.3499C11.4163 23.3674 11.3964 23.3973 11.3964 23.4163C11.3964 23.4352 11.3765 23.4651 11.3521 23.4827C11.3278 23.5002 11.3079 23.5301 11.3079 23.549C11.3079 23.568 11.288 23.5979 11.2636 23.6154C11.2377 23.6342 11.2194 23.6727 11.2194 23.7088C11.2194 23.7624 11.2279 23.7703 11.2858 23.7703C11.3223 23.7703 11.3521 23.7803 11.3521 23.7924C11.3521 23.8046 11.382 23.8146 11.4185 23.8146C11.455 23.8146 11.4849 23.8245 11.4849 23.8367C11.4849 23.8488 11.5148 23.8588 11.5513 23.8588C11.5878 23.8588 11.6177 23.8688 11.6177 23.8809C11.6177 23.8931 11.6475 23.9031 11.6841 23.9031C11.7206 23.9031 11.7504 23.913 11.7504 23.9252C11.7504 23.9374 11.7803 23.9473 11.8168 23.9473C11.8533 23.9473 11.8832 23.9573 11.8832 23.9694C11.8832 23.9816 11.9131 23.9916 11.9496 23.9916C11.9861 23.9916 12.016 24.0015 12.016 24.0137C12.016 24.0259 12.0558 24.0358 12.1045 24.0358C12.1531 24.0358 12.193 24.0458 12.193 24.0579C12.193 24.0701 12.2228 24.0801 12.2594 24.0801C12.2959 24.0801 12.3257 24.09 12.3257 24.1022C12.3257 24.1144 12.3556 24.1243 12.3921 24.1243C12.4286 24.1243 12.4585 24.1343 12.4585 24.1464C12.4585 24.1586 12.4884 24.1686 12.5249 24.1686C12.5614 24.1686 12.5913 24.1785 12.5913 24.1907C12.5913 24.2029 12.6112 24.2128 12.6355 24.2128C12.6599 24.2128 12.6798 24.2228 12.6798 24.2349C12.6798 24.2471 12.7196 24.2571 12.7683 24.2571C12.817 24.2571 12.8568 24.267 12.8568 24.2792C12.8568 24.2914 12.8867 24.3013 12.9232 24.3013C12.9597 24.3013 12.9896 24.3113 12.9896 24.3235C12.9896 24.3356 13.0194 24.3456 13.0559 24.3456C13.0924 24.3456 13.1223 24.3555 13.1223 24.3677C13.1223 24.3799 13.1522 24.3898 13.1887 24.3898C13.2252 24.3898 13.2551 24.3998 13.2551 24.412C13.2551 24.4241 13.285 24.4341 13.3215 24.4341C13.358 24.4341 13.3878 24.444 13.3878 24.4562C13.3878 24.4684 13.4177 24.4783 13.4542 24.4783C13.4907 24.4783 13.5206 24.4883 13.5206 24.5005C13.5206 24.5126 13.5505 24.5226 13.587 24.5226C13.6235 24.5226 13.6534 24.5325 13.6534 24.5447C13.6534 24.5569 13.6832 24.5668 13.7197 24.5668C13.7563 24.5668 13.7861 24.5768 13.7861 24.589C13.7861 24.6011 13.816 24.6111 13.8525 24.6111C13.889 24.6111 13.9189 24.621 13.9189 24.6332C13.9189 24.6454 13.9488 24.6553 13.9853 24.6553C14.0218 24.6553 14.0517 24.6653 14.0517 24.6775C14.0517 24.6896 14.0815 24.6996 14.118 24.6996C14.1545 24.6996 14.1844 24.7096 14.1844 24.7217C14.1844 24.7339 14.2143 24.7438 14.2508 24.7438C14.2873 24.7438 14.3172 24.7538 14.3172 24.766C14.3172 24.7781 14.3471 24.7881 14.3836 24.7881C14.4201 24.7881 14.4499 24.7981 14.4499 24.8102C14.4499 24.8224 14.4798 24.8324 14.5163 24.8324C14.5528 24.8324 14.5827 24.8423 14.5827 24.8545C14.5827 24.8666 14.6126 24.8766 14.6491 24.8766C14.6856 24.8766 14.7155 24.8866 14.7155 24.8987C14.7155 24.9109 14.7453 24.9209 14.7818 24.9209C14.8184 24.9209 14.8482 24.9308 14.8482 24.943C14.8482 24.9552 14.8781 24.9651 14.9146 24.9651C14.9511 24.9651 14.981 24.9751 14.981 24.9872C14.981 24.9994 15.0109 25.0094 15.0474 25.0094C15.0839 25.0094 15.1138 25.0193 15.1138 25.0315C15.1138 25.0437 15.1436 25.0536 15.1801 25.0536C15.2166 25.0536 15.2465 25.0636 15.2465 25.0757C15.2465 25.0879 15.2764 25.0979 15.3129 25.0979C15.3494 25.0979 15.3793 25.1078 15.3793 25.12C15.3793 25.1322 15.4092 25.1421 15.4457 25.1421C15.4822 25.1421 15.512 25.1521 15.512 25.1642C15.512 25.1764 15.5419 25.1864 15.5784 25.1864C15.6149 25.1864 15.6448 25.1963 15.6448 25.2085C15.6448 25.2207 15.6747 25.2306 15.7112 25.2306C15.7477 25.2306 15.7776 25.2406 15.7776 25.2527C15.7776 25.2649 15.8174 25.2749 15.8661 25.2749C15.9148 25.2749 15.9546 25.2848 15.9546 25.297C15.9546 25.3092 15.9845 25.3191 16.021 25.3191C16.0575 25.3191 16.0873 25.3291 16.0873 25.3413C16.0873 25.3534 16.1073 25.3634 16.1316 25.3634C16.1559 25.3634 16.1759 25.3733 16.1759 25.3855C16.1759 25.3977 16.2057 25.4076 16.2422 25.4076C16.2787 25.4076 16.3086 25.4176 16.3086 25.4298C16.3086 25.4419 16.3385 25.4519 16.375 25.4519C16.4115 25.4519 16.4414 25.4618 16.4414 25.474C16.4414 25.4862 16.4713 25.4961 16.5078 25.4961C16.5443 25.4961 16.5741 25.5061 16.5741 25.5183C16.5741 25.5304 16.604 25.5404 16.6405 25.5404C16.677 25.5404 16.7069 25.5503 16.7069 25.5625C16.7069 25.5747 16.7368 25.5846 16.7733 25.5846C16.8098 25.5846 16.8397 25.5946 16.8397 25.6068C16.8397 25.6189 16.8695 25.6289 16.906 25.6289C16.9426 25.6289 16.9724 25.6388 16.9724 25.651C16.9724 25.6632 17.0023 25.6731 17.0388 25.6731C17.0753 25.6731 17.1052 25.6831 17.1052 25.6953C17.1052 25.7074 17.1251 25.7174 17.1494 25.7174C17.1738 25.7174 17.1937 25.7274 17.1937 25.7395C17.1937 25.7517 17.2136 25.7616 17.238 25.7616C17.2623 25.7616 17.2822 25.7716 17.2822 25.7838C17.2822 25.7959 17.3021 25.8059 17.3265 25.8059C17.3508 25.8059 17.3707 25.8159 17.3707 25.828C17.3707 25.8402 17.3906 25.8502 17.415 25.8502C17.4393 25.8502 17.4592 25.8601 17.4592 25.8723C17.4592 25.8844 17.4891 25.8944 17.5256 25.8944C17.5621 25.8944 17.592 25.9044 17.592 25.9165C17.592 25.9287 17.6119 25.9387 17.6362 25.9387C17.6606 25.9387 17.6805 25.9486 17.6805 25.9608C17.6805 25.9729 17.6982 25.9829 17.7199 25.9829C17.7415 25.9829 17.7736 26.0028 17.7911 26.0272C17.8087 26.0515 17.8407 26.0714 17.8624 26.0714C17.884 26.0714 17.9018 26.0814 17.9018 26.0935C17.9018 26.1057 17.9217 26.1157 17.946 26.1157C17.9704 26.1157 17.9903 26.1256 17.9903 26.1378C17.9903 26.15 18.008 26.1599 18.0296 26.1599C18.0513 26.1599 18.0834 26.1798 18.1009 26.2042C18.1185 26.2285 18.1483 26.2484 18.1673 26.2484C18.1863 26.2484 18.2161 26.2683 18.2337 26.2927C18.2512 26.317 18.2811 26.3369 18.3001 26.3369C18.319 26.3369 18.3489 26.3568 18.3664 26.3812C18.384 26.4055 18.4139 26.4254 18.4328 26.4254C18.4518 26.4254 18.4817 26.4453 18.4992 26.4697C18.5167 26.494 18.5448 26.5139 18.5616 26.5139C18.5783 26.5139 18.62 26.5438 18.6541 26.5803C18.6882 26.6168 18.7277 26.6467 18.7418 26.6467C18.756 26.6467 18.8161 26.6965 18.8754 26.7573C18.9346 26.8182 18.9938 26.8679 19.0068 26.8679C19.038 26.8679 19.8932 27.7234 19.8932 27.7546C19.8932 27.7678 19.933 27.8168 19.9817 27.8636C20.0304 27.9104 20.0702 27.9604 20.0702 27.9747C20.0702 27.989 20.1001 28.0287 20.1366 28.0628C20.1731 28.0969 20.203 28.1385 20.203 28.1552C20.203 28.172 20.2229 28.2001 20.2472 28.2176C20.2716 28.2352 20.2915 28.2651 20.2915 28.284C20.2915 28.303 20.3114 28.3329 20.3357 28.3504C20.3601 28.3679 20.38 28.3978 20.38 28.4168C20.38 28.4357 20.3999 28.4656 20.4243 28.4832C20.4486 28.5007 20.4685 28.5306 20.4685 28.5495C20.4685 28.5685 20.4884 28.5984 20.5128 28.6159C20.5371 28.6335 20.557 28.6655 20.557 28.6872C20.557 28.7088 20.567 28.7265 20.5791 28.7265C20.5913 28.7265 20.6013 28.7465 20.6013 28.7708C20.6013 28.7951 20.6112 28.815 20.6234 28.815C20.6356 28.815 20.6455 28.835 20.6455 28.8593C20.6455 28.8836 20.6555 28.9035 20.6677 28.9035C20.6798 28.9035 20.6898 28.9213 20.6898 28.9429C20.6898 28.9646 20.7097 28.9966 20.734 29.0142C20.7584 29.0317 20.7783 29.0638 20.7783 29.0854C20.7783 29.1071 20.7882 29.1248 20.8004 29.1248C20.8126 29.1248 20.8225 29.1447 20.8225 29.1691C20.8225 29.1934 20.8325 29.2133 20.8447 29.2133C20.8568 29.2133 20.8668 29.2332 20.8668 29.2576C20.8668 29.2819 20.8768 29.3018 20.8889 29.3018C20.9011 29.3018 20.9111 29.3317 20.9111 29.3682C20.9111 29.4047 20.921 29.4346 20.9332 29.4346C20.9453 29.4346 20.9553 29.4545 20.9553 29.4788C20.9553 29.5032 20.9653 29.5231 20.9774 29.5231C20.9896 29.5231 20.9996 29.5529 20.9996 29.5895C20.9996 29.626 21.0095 29.6558 21.0217 29.6558C21.0339 29.6558 21.0438 29.6757 21.0438 29.7001C21.0438 29.7244 21.0538 29.7443 21.0659 29.7443C21.0781 29.7443 21.0881 29.7742 21.0881 29.8107C21.0881 29.8472 21.098 29.8771 21.1102 29.8771C21.1224 29.8771 21.1323 29.897 21.1323 29.9213C21.1323 29.9457 21.1423 29.9656 21.1545 29.9656C21.1666 29.9656 21.1766 29.9955 21.1766 30.032C21.1766 30.0685 21.1865 30.0984 21.1987 30.0984C21.2109 30.0984 21.2208 30.1282 21.2208 30.1647C21.2208 30.2012 21.2308 30.2311 21.243 30.2311C21.2551 30.2311 21.2651 30.2709 21.2651 30.3196C21.2651 30.3683 21.275 30.4081 21.2872 30.4081C21.2994 30.4081 21.3093 30.438 21.3093 30.4745C21.3093 30.511 21.3193 30.5409 21.3315 30.5409C21.3436 30.5409 21.3536 30.5907 21.3536 30.6515C21.3536 30.7124 21.3636 30.7621 21.3757 30.7621C21.3879 30.7621 21.3978 30.802 21.3978 30.8506C21.3978 30.8993 21.4078 30.9391 21.42 30.9391C21.4321 30.9391 21.4421 30.9889 21.4421 31.0498C21.4421 31.1106 21.4521 31.1604 21.4642 31.1604C21.4769 31.1604 21.4864 31.2268 21.4864 31.3153C21.4864 31.4038 21.4958 31.4702 21.5085 31.4702C21.5219 31.4702 21.5306 31.566 21.5306 31.7136C21.5306 31.8611 21.5393 31.9569 21.5527 31.9569C21.5659 31.9569 21.5749 32.0381 21.5749 32.1561V32.3552H26.4871H31.3993V32.0897C31.3993 31.9275 31.4079 31.8242 31.4214 31.8242C31.4347 31.8242 31.4435 31.7357 31.4435 31.6029C31.4435 31.4702 31.4524 31.3817 31.4657 31.3817C31.478 31.3817 31.4878 31.3227 31.4878 31.2489C31.4878 31.1752 31.4976 31.1162 31.5099 31.1162C31.5221 31.1162 31.5321 31.0664 31.5321 31.0055C31.5321 30.9447 31.542 30.8949 31.5542 30.8949C31.5664 30.8949 31.5763 30.8451 31.5763 30.7843C31.5763 30.7234 31.5863 30.6736 31.5984 30.6736C31.6106 30.6736 31.6206 30.6338 31.6206 30.5851C31.6206 30.5365 31.6305 30.4966 31.6427 30.4966C31.6549 30.4966 31.6648 30.4668 31.6648 30.4302C31.6648 30.3937 31.6748 30.3639 31.6869 30.3639C31.6991 30.3639 31.7091 30.324 31.7091 30.2754C31.7091 30.2267 31.719 30.1869 31.7312 30.1869C31.7434 30.1869 31.7533 30.157 31.7533 30.1205C31.7533 30.084 31.7633 30.0541 31.7755 30.0541C31.7876 30.0541 31.7976 30.0342 31.7976 30.0099C31.7976 29.9855 31.8075 29.9656 31.8197 29.9656C31.8319 29.9656 31.8418 29.9357 31.8418 29.8992C31.8418 29.8627 31.8518 29.8328 31.864 29.8328C31.8761 29.8328 31.8861 29.803 31.8861 29.7665C31.8861 29.73 31.896 29.7001 31.9082 29.7001C31.9204 29.7001 31.9303 29.6802 31.9303 29.6558C31.9303 29.6315 31.9403 29.6116 31.9525 29.6116C31.9646 29.6116 31.9746 29.5817 31.9746 29.5452C31.9746 29.5087 31.9846 29.4788 31.9967 29.4788C32.0089 29.4788 32.0189 29.4589 32.0189 29.4346C32.0189 29.4102 32.0288 29.3903 32.041 29.3903C32.0532 29.3903 32.0631 29.3704 32.0631 29.3461C32.0631 29.3217 32.0731 29.3018 32.0852 29.3018C32.0974 29.3018 32.1074 29.2819 32.1074 29.2576C32.1074 29.2332 32.1173 29.2133 32.1295 29.2133C32.1417 29.2133 32.1516 29.1934 32.1516 29.1691C32.1516 29.1447 32.1616 29.1248 32.1737 29.1248C32.1859 29.1248 32.1959 29.1049 32.1959 29.0806C32.1959 29.0562 32.2058 29.0363 32.218 29.0363C32.2302 29.0363 32.2401 29.0164 32.2401 28.9921C32.2401 28.9677 32.2501 28.9478 32.2623 28.9478C32.2744 28.9478 32.2844 28.9279 32.2844 28.9035C32.2844 28.8792 32.2943 28.8593 32.3065 28.8593C32.3187 28.8593 32.3286 28.8416 32.3286 28.8199C32.3286 28.7983 32.3485 28.7662 32.3729 28.7487C32.3972 28.7311 32.4171 28.6991 32.4171 28.6774C32.4171 28.6558 32.4271 28.638 32.4393 28.638C32.4514 28.638 32.4614 28.6203 32.4614 28.5987C32.4614 28.577 32.4813 28.545 32.5056 28.5274C32.53 28.5099 32.5499 28.48 32.5499 28.461C32.5499 28.4421 32.5698 28.4122 32.5942 28.3946C32.6185 28.3771 32.6384 28.3472 32.6384 28.3283C32.6384 28.3093 32.6583 28.2794 32.6827 28.2619C32.707 28.2443 32.7269 28.2163 32.7269 28.1995C32.7269 28.1827 32.7568 28.1411 32.7933 28.107C32.8298 28.0729 32.8597 28.0333 32.8597 28.0189C32.8597 28.0046 32.8995 27.9546 32.9482 27.9079C32.9969 27.8611 33.0367 27.8117 33.0367 27.7981C33.0367 27.7845 33.1263 27.6846 33.2358 27.576C33.3454 27.4674 33.435 27.368 33.435 27.355C33.435 27.3243 33.6259 27.1335 33.6566 27.1335C33.6696 27.1335 33.7591 27.0538 33.8554 26.9565C33.9517 26.8591 34.0417 26.7794 34.0553 26.7794C34.069 26.7794 34.1184 26.7396 34.1652 26.6909C34.212 26.6423 34.2637 26.6024 34.2803 26.6024C34.2968 26.6024 34.3246 26.5825 34.3422 26.5582C34.3597 26.5338 34.3878 26.5139 34.4046 26.5139C34.4213 26.5139 34.463 26.4841 34.4971 26.4476C34.5312 26.411 34.5728 26.3812 34.5896 26.3812C34.6064 26.3812 34.6344 26.3613 34.652 26.3369C34.6695 26.3126 34.7016 26.2927 34.7232 26.2927C34.7449 26.2927 34.7626 26.2827 34.7626 26.2705C34.7626 26.2584 34.7803 26.2484 34.802 26.2484C34.8236 26.2484 34.8557 26.2285 34.8732 26.2042C34.8908 26.1798 34.9229 26.1599 34.9445 26.1599C34.9662 26.1599 34.9839 26.15 34.9839 26.1378C34.9839 26.1256 35.0038 26.1157 35.0281 26.1157C35.0525 26.1157 35.0724 26.1057 35.0724 26.0935C35.0724 26.0814 35.0901 26.0714 35.1118 26.0714C35.1334 26.0714 35.1655 26.0515 35.183 26.0272C35.2006 26.0028 35.2326 25.9829 35.2543 25.9829C35.2759 25.9829 35.2937 25.9729 35.2937 25.9608C35.2937 25.9486 35.3136 25.9387 35.3379 25.9387C35.3623 25.9387 35.3822 25.9287 35.3822 25.9165C35.3822 25.9044 35.4021 25.8944 35.4264 25.8944C35.4508 25.8944 35.4707 25.8844 35.4707 25.8723C35.4707 25.8601 35.5006 25.8502 35.5371 25.8502C35.5736 25.8502 35.6034 25.8402 35.6034 25.828C35.6034 25.8159 35.6234 25.8059 35.6477 25.8059C35.672 25.8059 35.6919 25.7959 35.6919 25.7838C35.6919 25.7716 35.7119 25.7616 35.7362 25.7616C35.7605 25.7616 35.7805 25.7517 35.7805 25.7395C35.7805 25.7274 35.8004 25.7174 35.8247 25.7174C35.8491 25.7174 35.869 25.7074 35.869 25.6953C35.869 25.6831 35.8988 25.6731 35.9353 25.6731C35.9719 25.6731 36.0017 25.6632 36.0017 25.651C36.0017 25.6388 36.0316 25.6289 36.0681 25.6289C36.1046 25.6289 36.1345 25.6189 36.1345 25.6068C36.1345 25.5946 36.1544 25.5846 36.1787 25.5846C36.2031 25.5846 36.223 25.5747 36.223 25.5625C36.223 25.5503 36.2628 25.5404 36.3115 25.5404C36.3602 25.5404 36.4 25.5304 36.4 25.5183C36.4 25.5061 36.4299 25.4961 36.4664 25.4961C36.5029 25.4961 36.5328 25.4862 36.5328 25.474C36.5328 25.4618 36.5627 25.4519 36.5992 25.4519C36.6357 25.4519 36.6655 25.4419 36.6655 25.4298C36.6655 25.4176 36.6954 25.4076 36.7319 25.4076C36.7684 25.4076 36.7983 25.3977 36.7983 25.3855C36.7983 25.3733 36.8481 25.3634 36.9089 25.3634C36.9698 25.3634 37.0196 25.3534 37.0196 25.3413C37.0196 25.3291 37.0594 25.3191 37.1081 25.3191C37.1568 25.3191 37.1966 25.3092 37.1966 25.297C37.1966 25.2844 37.263 25.2749 37.3515 25.2749C37.44 25.2749 37.5064 25.2654 37.5064 25.2527C37.5064 25.2398 37.5801 25.2306 37.6834 25.2306C37.7867 25.2306 37.8604 25.2214 37.8604 25.2085C37.8604 25.1947 37.9932 25.1864 38.2144 25.1864C38.4357 25.1864 38.5685 25.1781 38.5685 25.1642C38.5685 25.1507 38.6717 25.1421 38.834 25.1421C38.9963 25.1421 39.0995 25.1507 39.0995 25.1642C39.0995 25.1782 39.2618 25.1864 39.5421 25.1864C39.8223 25.1864 39.9846 25.1782 39.9846 25.1642C39.9846 25.1502 40.1469 25.1421 40.4271 25.1421C40.7074 25.1421 40.8697 25.1502 40.8697 25.1642C40.8697 25.1988 41.438 25.1934 41.4542 25.1587C41.4645 25.1366 41.4697 25.1366 41.48 25.1587C41.4973 25.1957 41.5514 25.1937 41.5904 25.1547C41.6261 25.119 41.6338 24.9651 41.5999 24.9651C41.5877 24.9651 41.5778 24.9153 41.5778 24.8545C41.5778 24.7936 41.5678 24.7438 41.5556 24.7438C41.5435 24.7438 41.5335 24.7239 41.5335 24.6996C41.5335 24.6753 41.5235 24.6553 41.5114 24.6553C41.4992 24.6553 41.4892 24.6354 41.4892 24.6111C41.4892 24.5868 41.4793 24.5668 41.4671 24.5668C41.455 24.5668 41.445 24.5469 41.445 24.5226C41.445 24.4982 41.435 24.4783 41.4229 24.4783C41.4107 24.4783 41.4007 24.4632 41.4007 24.4448C41.4007 24.4011 41.0797 24.0801 41.036 24.0801C41.0175 24.0801 41.0025 24.0701 41.0025 24.0579C41.0025 24.0458 40.9825 24.0358 40.9582 24.0358C40.9339 24.0358 40.9139 24.0259 40.9139 24.0137C40.9139 24.0015 40.894 23.9916 40.8697 23.9916C40.8454 23.9916 40.8254 23.9816 40.8254 23.9694C40.8254 23.9573 40.7956 23.9473 40.7591 23.9473C40.7225 23.9473 40.6927 23.9374 40.6927 23.9252C40.6927 23.913 40.6628 23.9031 40.6263 23.9031C40.5898 23.9031 40.5599 23.8931 40.5599 23.8809C40.5599 23.8688 40.53 23.8588 40.4935 23.8588C40.457 23.8588 40.4271 23.8488 40.4271 23.8367C40.4271 23.8245 40.3973 23.8146 40.3608 23.8146C40.3243 23.8146 40.2944 23.8046 40.2944 23.7924C40.2944 23.7803 40.2645 23.7703 40.228 23.7703C40.1915 23.7703 40.1616 23.7603 40.1616 23.7482C40.1616 23.736 40.1318 23.726 40.0952 23.726C40.0587 23.726 40.0289 23.7161 40.0289 23.7039C40.0289 23.6918 39.999 23.6818 39.9625 23.6818C39.926 23.6818 39.8961 23.6718 39.8961 23.6597C39.8961 23.6475 39.8563 23.6375 39.8076 23.6375C39.7589 23.6375 39.7191 23.6276 39.7191 23.6154C39.7191 23.6032 39.6892 23.5933 39.6527 23.5933C39.6162 23.5933 39.5863 23.5833 39.5863 23.5712C39.5863 23.559 39.5564 23.549 39.5199 23.549C39.4834 23.549 39.4536 23.5391 39.4536 23.5269C39.4536 23.5147 39.4237 23.5048 39.3872 23.5048C39.3507 23.5048 39.3208 23.4948 39.3208 23.4827C39.3208 23.4705 39.2909 23.4605 39.2544 23.4605C39.2179 23.4605 39.188 23.4506 39.188 23.4384C39.188 23.4262 39.1482 23.4163 39.0995 23.4163C39.0508 23.4163 39.011 23.4063 39.011 23.3942C39.011 23.382 38.9811 23.372 38.9446 23.372C38.9081 23.372 38.8783 23.3621 38.8783 23.3499C38.8783 23.3377 38.8484 23.3278 38.8119 23.3278C38.7754 23.3278 38.7455 23.3178 38.7455 23.3057C38.7455 23.2935 38.7156 23.2835 38.6791 23.2835C38.6426 23.2835 38.6127 23.2736 38.6127 23.2614C38.6127 23.2492 38.5729 23.2393 38.5242 23.2393C38.4755 23.2393 38.4357 23.2293 38.4357 23.2171C38.4357 23.205 38.4058 23.195 38.3693 23.195C38.3328 23.195 38.3029 23.1851 38.3029 23.1729C38.3029 23.1607 38.2731 23.1508 38.2366 23.1508C38.2001 23.1508 38.1702 23.1408 38.1702 23.1286C38.1702 23.1165 38.1403 23.1065 38.1038 23.1065C38.0673 23.1065 38.0374 23.0966 38.0374 23.0844C38.0374 23.0722 38.0075 23.0623 37.971 23.0623C37.9345 23.0623 37.9047 23.0523 37.9047 23.0401C37.9047 23.028 37.8648 23.018 37.8162 23.018C37.7675 23.018 37.7276 23.0081 37.7276 22.9959C37.7276 22.9837 37.6978 22.9738 37.6613 22.9738C37.6248 22.9738 37.5949 22.9638 37.5949 22.9516C37.5949 22.9395 37.565 22.9295 37.5285 22.9295C37.492 22.9295 37.4621 22.9196 37.4621 22.9074C37.4621 22.8952 37.4322 22.8853 37.3957 22.8853C37.3592 22.8853 37.3294 22.8753 37.3294 22.8631C37.3294 22.851 37.2995 22.841 37.263 22.841C37.2265 22.841 37.1966 22.831 37.1966 22.8189C37.1966 22.8067 37.1667 22.7968 37.1302 22.7968C37.0937 22.7968 37.0638 22.7868 37.0638 22.7746C37.0638 22.7625 37.024 22.7525 36.9753 22.7525C36.9266 22.7525 36.8868 22.7425 36.8868 22.7304C36.8868 22.7182 36.8569 22.7082 36.8204 22.7082C36.7839 22.7082 36.754 22.6983 36.754 22.6861C36.754 22.674 36.7242 22.664 36.6877 22.664C36.6512 22.664 36.6213 22.654 36.6213 22.6419C36.6213 22.6297 36.5914 22.6197 36.5549 22.6197C36.5184 22.6197 36.4885 22.6098 36.4885 22.5976C36.4885 22.5854 36.4487 22.5755 36.4 22.5755C36.3513 22.5755 36.3115 22.5655 36.3115 22.5534C36.3115 22.5412 36.2816 22.5312 36.2451 22.5312C36.2086 22.5312 36.1787 22.5213 36.1787 22.5091C36.1787 22.4969 36.1489 22.487 36.1124 22.487C36.0759 22.487 36.046 22.477 36.046 22.4649C36.046 22.4527 36.0161 22.4427 35.9796 22.4427C35.9431 22.4427 35.9132 22.4328 35.9132 22.4206C35.9132 22.4084 35.8833 22.3985 35.8468 22.3985C35.8103 22.3985 35.7805 22.3885 35.7805 22.3764C35.7805 22.3642 35.7406 22.3542 35.6919 22.3542C35.6433 22.3542 35.6034 22.3443 35.6034 22.3321C35.6034 22.3199 35.5736 22.31 35.5371 22.31C35.5006 22.31 35.4707 22.3 35.4707 22.2879C35.4707 22.2757 35.4408 22.2657 35.4043 22.2657C35.3678 22.2657 35.3379 22.2558 35.3379 22.2436C35.3379 22.2314 35.308 22.2215 35.2715 22.2215C35.235 22.2215 35.2052 22.2115 35.2052 22.1993C35.2052 22.1872 35.1753 22.1772 35.1388 22.1772C35.1023 22.1772 35.0724 22.1673 35.0724 22.1551C35.0724 22.1429 35.0326 22.133 34.9839 22.133C34.9352 22.133 34.8954 22.123 34.8954 22.1108C34.8954 22.0987 34.8655 22.0887 34.829 22.0887C34.7925 22.0887 34.7626 22.0788 34.7626 22.0666C34.7626 22.0544 34.7327 22.0445 34.6962 22.0445C34.6597 22.0445 34.6298 22.0345 34.6298 22.0223C34.6298 22.0102 34.6 22.0002 34.5635 22.0002C34.527 22.0002 34.4971 21.9903 34.4971 21.9781C34.4971 21.9659 34.4573 21.956 34.4086 21.956C34.3599 21.956 34.3201 21.946 34.3201 21.9338C34.3201 21.9217 34.2902 21.9117 34.2537 21.9117C34.2172 21.9117 34.1873 21.9018 34.1873 21.8896C34.1873 21.8774 34.1574 21.8675 34.1209 21.8675C34.0844 21.8675 34.0545 21.8575 34.0545 21.8453C34.0545 21.8332 34.0247 21.8232 33.9882 21.8232C33.9517 21.8232 33.9218 21.8132 33.9218 21.8011C33.9218 21.7889 33.8919 21.779 33.8554 21.779C33.8189 21.779 33.789 21.769 33.789 21.7568C33.789 21.7447 33.7492 21.7347 33.7005 21.7347C33.6518 21.7347 33.612 21.7247 33.612 21.7126C33.612 21.7004 33.5821 21.6904 33.5456 21.6904C33.5091 21.6904 33.4792 21.6805 33.4792 21.6683C33.4792 21.6562 33.4494 21.6462 33.4129 21.6462C33.3764 21.6462 33.3465 21.6362 33.3465 21.6241C33.3465 21.6119 33.3166 21.6019 33.2801 21.6019C33.2436 21.6019 33.2137 21.592 33.2137 21.5798C33.2137 21.5676 33.1838 21.5577 33.1473 21.5577C33.1108 21.5577 33.081 21.5477 33.081 21.5356C33.081 21.5234 33.0511 21.5134 33.0146 21.5134C32.9781 21.5134 32.9482 21.5035 32.9482 21.4913C32.9482 21.4791 32.9084 21.4692 32.8597 21.4692C32.811 21.4692 32.7712 21.4592 32.7712 21.4471C32.7712 21.4349 32.7413 21.4249 32.7048 21.4249C32.6683 21.4249 32.6384 21.415 32.6384 21.4028C32.6384 21.3906 32.6085 21.3807 32.572 21.3807C32.5355 21.3807 32.5056 21.3707 32.5056 21.3586C32.5056 21.3464 32.4758 21.3364 32.4393 21.3364C32.4028 21.3364 32.3729 21.3265 32.3729 21.3143C32.3729 21.3021 32.3331 21.2922 32.2844 21.2922C32.2357 21.2922 32.1959 21.2822 32.1959 21.2701C32.1959 21.2579 32.166 21.2479 32.1295 21.2479C32.093 21.2479 32.0631 21.238 32.0631 21.2258C32.0631 21.2136 32.0332 21.2037 31.9967 21.2037C31.9602 21.2037 31.9303 21.1937 31.9303 21.1815C31.9303 21.1694 31.9005 21.1594 31.864 21.1594C31.8275 21.1594 31.7976 21.1495 31.7976 21.1373C31.7976 21.1251 31.7677 21.1152 31.7312 21.1152C31.6947 21.1152 31.6648 21.1052 31.6648 21.093C31.6648 21.0809 31.625 21.0709 31.5763 21.0709C31.5276 21.0709 31.4878 21.061 31.4878 21.0488C31.4878 21.0366 31.4579 21.0267 31.4214 21.0267C31.3849 21.0267 31.355 21.0167 31.355 21.0045C31.355 20.9924 31.3252 20.9824 31.2887 20.9824C31.2521 20.9824 31.2223 20.9725 31.2223 20.9603C31.2223 20.9481 31.1924 20.9382 31.1559 20.9382C31.1194 20.9382 31.0895 20.9282 31.0895 20.916C31.0895 20.9039 31.0596 20.8939 31.0231 20.8939C30.9866 20.8939 30.9568 20.884 30.9568 20.8718C30.9568 20.8596 30.9269 20.8497 30.8904 20.8497C30.8539 20.8497 30.824 20.8397 30.824 20.8275C30.824 20.8154 30.7842 20.8054 30.7355 20.8054C30.6868 20.8054 30.647 20.7954 30.647 20.7833C30.647 20.737 30.5667 20.7672 30.4976 20.8395ZM14.2729 27.7309C14.2729 27.7435 14.2065 27.753 14.118 27.753C14.0295 27.753 13.9631 27.7625 13.9631 27.7751C13.9631 27.7874 13.9041 27.7972 13.8304 27.7972C13.7566 27.7972 13.6976 27.8071 13.6976 27.8194C13.6976 27.8315 13.6578 27.8415 13.6091 27.8415C13.5604 27.8415 13.5206 27.8515 13.5206 27.8636C13.5206 27.8758 13.4808 27.8857 13.4321 27.8857C13.3834 27.8857 13.3436 27.8957 13.3436 27.9079C13.3436 27.92 13.3137 27.93 13.2772 27.93C13.2407 27.93 13.2108 27.94 13.2108 27.9521C13.2108 27.9643 13.181 27.9743 13.1444 27.9743C13.1079 27.9743 13.0781 27.9842 13.0781 27.9964C13.0781 28.0085 13.0581 28.0185 13.0338 28.0185C13.0095 28.0185 12.9896 28.0285 12.9896 28.0406C12.9896 28.0528 12.9597 28.0628 12.9232 28.0628C12.8867 28.0628 12.8568 28.0727 12.8568 28.0849C12.8568 28.0971 12.8369 28.107 12.8125 28.107C12.7882 28.107 12.7683 28.117 12.7683 28.1291C12.7683 28.1413 12.7384 28.1513 12.7019 28.1513C12.6654 28.1513 12.6355 28.1612 12.6355 28.1734C12.6355 28.1856 12.6156 28.1955 12.5913 28.1955C12.5669 28.1955 12.547 28.2055 12.547 28.2176C12.547 28.2298 12.5271 28.2398 12.5028 28.2398C12.4784 28.2398 12.4585 28.2497 12.4585 28.2619C12.4585 28.2741 12.4386 28.284 12.4142 28.284C12.3899 28.284 12.37 28.294 12.37 28.3061C12.37 28.3183 12.3501 28.3283 12.3257 28.3283C12.3014 28.3283 12.2815 28.3382 12.2815 28.3504C12.2815 28.3626 12.2638 28.3725 12.2421 28.3725C12.2205 28.3725 12.1884 28.3924 12.1709 28.4168C12.1533 28.4411 12.1212 28.461 12.0996 28.461C12.0779 28.461 12.0602 28.471 12.0602 28.4832C12.0602 28.4953 12.0425 28.5053 12.0209 28.5053C11.9992 28.5053 11.9671 28.5252 11.9496 28.5495C11.932 28.5739 11.904 28.5938 11.8872 28.5938C11.8704 28.5938 11.8288 28.6237 11.7947 28.6602C11.7606 28.6967 11.7189 28.7265 11.7022 28.7265C11.6854 28.7265 11.6573 28.7465 11.6398 28.7708C11.6223 28.7951 11.5945 28.815 11.5782 28.815C11.5618 28.815 11.4999 28.8648 11.4407 28.9257C11.3814 28.9865 11.3222 29.0363 11.3091 29.0363C11.278 29.0363 10.8211 29.4932 10.8211 29.5243C10.8211 29.5374 10.7713 29.5966 10.7105 29.6558C10.6496 29.7151 10.5998 29.7752 10.5998 29.7893C10.5998 29.8035 10.57 29.843 10.5334 29.8771C10.4969 29.9112 10.4671 29.9528 10.4671 29.9696C10.4671 29.9864 10.4472 30.0144 10.4228 30.032C10.3985 30.0495 10.3786 30.0794 10.3786 30.0984C10.3786 30.1173 10.3586 30.1472 10.3343 30.1647C10.31 30.1823 10.29 30.2143 10.29 30.236C10.29 30.2576 10.2801 30.2754 10.2679 30.2754C10.2558 30.2754 10.2458 30.2931 10.2458 30.3147C10.2458 30.3364 10.2259 30.3685 10.2015 30.386C10.1772 30.4035 10.1573 30.4356 10.1573 30.4573C10.1573 30.4789 10.1473 30.4966 10.1352 30.4966C10.123 30.4966 10.113 30.5165 10.113 30.5409C10.113 30.5652 10.1031 30.5851 10.0909 30.5851C10.0787 30.5851 10.0688 30.605 10.0688 30.6294C10.0688 30.6537 10.0588 30.6736 10.0467 30.6736C10.0345 30.6736 10.0245 30.6936 10.0245 30.7179C10.0245 30.7422 10.0146 30.7621 10.0024 30.7621C9.99023 30.7621 9.98027 30.7821 9.98027 30.8064C9.98027 30.8307 9.97031 30.8506 9.95814 30.8506C9.94597 30.8506 9.93601 30.8706 9.93601 30.8949C9.93601 30.9192 9.92606 30.9391 9.91389 30.9391C9.90172 30.9391 9.89176 30.969 9.89176 31.0055C9.89176 31.042 9.8818 31.0719 9.86963 31.0719C9.85746 31.0719 9.84751 31.0918 9.84751 31.1162C9.84751 31.1405 9.83755 31.1604 9.82538 31.1604C9.81321 31.1604 9.80325 31.1903 9.80325 31.2268C9.80325 31.2633 9.7933 31.2932 9.78113 31.2932C9.76896 31.2932 9.759 31.323 9.759 31.3595C9.759 31.3961 9.74904 31.4259 9.73687 31.4259C9.7247 31.4259 9.71474 31.4558 9.71474 31.4923C9.71474 31.5288 9.70479 31.5587 9.69262 31.5587C9.68045 31.5587 9.67049 31.5985 9.67049 31.6472C9.67049 31.6959 9.66053 31.7357 9.64836 31.7357C9.63619 31.7357 9.62624 31.7755 9.62624 31.8242C9.62624 31.8729 9.61628 31.9127 9.60411 31.9127C9.59194 31.9127 9.58198 31.9625 9.58198 32.0233C9.58198 32.0842 9.57202 32.134 9.55985 32.134C9.54755 32.134 9.53773 32.193 9.53773 32.2667C9.53773 32.3405 9.5279 32.3995 9.5156 32.3995C9.50199 32.3995 9.49347 32.5101 9.49347 32.6871C9.49347 32.8641 9.48495 32.9747 9.47135 32.9747C9.45918 32.9747 9.44922 33.0146 9.44922 33.0633C9.44922 33.1119 9.45918 33.1518 9.47135 33.1518C9.48504 33.1518 9.49347 33.2698 9.49347 33.4615C9.49347 33.6533 9.5019 33.7713 9.5156 33.7713C9.52823 33.7713 9.53773 33.8377 9.53773 33.9262C9.53773 34.0147 9.54722 34.0811 9.55985 34.0811C9.57202 34.0811 9.58198 34.1209 9.58198 34.1696C9.58198 34.2182 9.59194 34.2581 9.60411 34.2581C9.61628 34.2581 9.62624 34.3078 9.62624 34.3687C9.62624 34.4295 9.63619 34.4793 9.64836 34.4793C9.66053 34.4793 9.67049 34.5092 9.67049 34.5457C9.67049 34.5822 9.68045 34.6121 9.69262 34.6121C9.70479 34.6121 9.71474 34.6519 9.71474 34.7006C9.71474 34.7493 9.7247 34.7891 9.73687 34.7891C9.74904 34.7891 9.759 34.819 9.759 34.8555C9.759 34.892 9.76896 34.9218 9.78113 34.9218C9.7933 34.9218 9.80325 34.9418 9.80325 34.9661C9.80325 34.9904 9.81321 35.0103 9.82538 35.0103C9.83755 35.0103 9.84751 35.0402 9.84751 35.0767C9.84751 35.1132 9.85746 35.1431 9.86963 35.1431C9.8818 35.1431 9.89176 35.163 9.89176 35.1874C9.89176 35.2117 9.90172 35.2316 9.91389 35.2316C9.92606 35.2316 9.93601 35.2515 9.93601 35.2759C9.93601 35.3002 9.94597 35.3201 9.95814 35.3201C9.97031 35.3201 9.98027 35.35 9.98027 35.3865C9.98027 35.423 9.99023 35.4529 10.0024 35.4529C10.0146 35.4529 10.0245 35.4728 10.0245 35.4971C10.0245 35.5215 10.0345 35.5414 10.0467 35.5414C10.0588 35.5414 10.0688 35.5591 10.0688 35.5807C10.0688 35.6024 10.0887 35.6345 10.113 35.652C10.1374 35.6696 10.1573 35.7016 10.1573 35.7233C10.1573 35.7449 10.1672 35.7626 10.1794 35.7626C10.1916 35.7626 10.2015 35.7804 10.2015 35.802C10.2015 35.8237 10.2215 35.8557 10.2458 35.8733C10.2701 35.8908 10.29 35.9229 10.29 35.9445C10.29 35.9662 10.3 35.9839 10.3122 35.9839C10.3243 35.9839 10.3343 36.0016 10.3343 36.0233C10.3343 36.0449 10.3542 36.077 10.3786 36.0945C10.4029 36.1121 10.4228 36.1402 10.4228 36.1569C10.4228 36.1737 10.4527 36.2153 10.4892 36.2494C10.5257 36.2835 10.5556 36.3231 10.5556 36.3375C10.5556 36.3518 10.5954 36.4018 10.6441 36.4485C10.6928 36.4953 10.7326 36.5444 10.7326 36.5576C10.7326 36.589 11.4108 37.2672 11.4422 37.2672C11.4554 37.2672 11.5045 37.307 11.5513 37.3557C11.5981 37.4044 11.6498 37.4442 11.6664 37.4442C11.6829 37.4442 11.7108 37.4641 11.7283 37.4885C11.7459 37.5128 11.7757 37.5327 11.7947 37.5327C11.8137 37.5327 11.8435 37.5526 11.8611 37.577C11.8786 37.6013 11.9085 37.6212 11.9275 37.6212C11.9464 37.6212 11.9763 37.6411 11.9938 37.6655C12.0114 37.6898 12.0434 37.7097 12.0651 37.7097C12.0867 37.7097 12.1045 37.7197 12.1045 37.7319C12.1045 37.744 12.1244 37.754 12.1487 37.754C12.1731 37.754 12.193 37.7639 12.193 37.7761C12.193 37.7883 12.2107 37.7982 12.2323 37.7982C12.254 37.7982 12.2861 37.8181 12.3036 37.8425C12.3212 37.8668 12.3532 37.8867 12.3749 37.8867C12.3965 37.8867 12.4142 37.8967 12.4142 37.9089C12.4142 37.921 12.4342 37.931 12.4585 37.931C12.4828 37.931 12.5028 37.9409 12.5028 37.9531C12.5028 37.9653 12.5227 37.9752 12.547 37.9752C12.5714 37.9752 12.5913 37.9852 12.5913 37.9974C12.5913 38.0095 12.6112 38.0195 12.6355 38.0195C12.6599 38.0195 12.6798 38.0295 12.6798 38.0416C12.6798 38.0538 12.7096 38.0637 12.7462 38.0637C12.7827 38.0637 12.8125 38.0737 12.8125 38.0859C12.8125 38.098 12.8325 38.108 12.8568 38.108C12.8811 38.108 12.901 38.118 12.901 38.1301C12.901 38.1423 12.9309 38.1523 12.9674 38.1523C13.0039 38.1523 13.0338 38.1622 13.0338 38.1744C13.0338 38.1865 13.0637 38.1965 13.1002 38.1965C13.1367 38.1965 13.1666 38.2065 13.1666 38.2186C13.1666 38.2308 13.1964 38.2408 13.233 38.2408C13.2695 38.2408 13.2993 38.2507 13.2993 38.2629C13.2993 38.2751 13.3392 38.285 13.3878 38.285C13.4365 38.285 13.4763 38.295 13.4763 38.3071C13.4763 38.3193 13.5062 38.3293 13.5427 38.3293C13.5792 38.3293 13.6091 38.3392 13.6091 38.3514C13.6091 38.3636 13.6589 38.3735 13.7197 38.3735C13.7806 38.3735 13.8304 38.3835 13.8304 38.3956C13.8304 38.4078 13.8802 38.4178 13.941 38.4178C14.0019 38.4178 14.0517 38.4277 14.0517 38.4399C14.0517 38.4533 14.1475 38.462 14.2951 38.462C14.4426 38.462 14.5384 38.4707 14.5384 38.4841C14.5384 38.4979 14.6638 38.5063 14.8704 38.5063C15.0769 38.5063 15.2023 38.4979 15.2023 38.4841C15.2023 38.4707 15.2981 38.462 15.4457 38.462C15.5932 38.462 15.6891 38.4533 15.6891 38.4399C15.6891 38.4277 15.7388 38.4178 15.7997 38.4178C15.8605 38.4178 15.9103 38.4078 15.9103 38.3956C15.9103 38.3835 15.9601 38.3735 16.021 38.3735C16.0818 38.3735 16.1316 38.3636 16.1316 38.3514C16.1316 38.3392 16.1714 38.3293 16.2201 38.3293C16.2688 38.3293 16.3086 38.3193 16.3086 38.3071C16.3086 38.295 16.3385 38.285 16.375 38.285C16.4115 38.285 16.4414 38.2751 16.4414 38.2629C16.4414 38.2507 16.4713 38.2408 16.5078 38.2408C16.5443 38.2408 16.5741 38.2308 16.5741 38.2186C16.5741 38.2065 16.604 38.1965 16.6405 38.1965C16.677 38.1965 16.7069 38.1865 16.7069 38.1744C16.7069 38.1622 16.7368 38.1523 16.7733 38.1523C16.8098 38.1523 16.8397 38.1423 16.8397 38.1301C16.8397 38.118 16.8695 38.108 16.906 38.108C16.9426 38.108 16.9724 38.098 16.9724 38.0859C16.9724 38.0737 16.9923 38.0637 17.0167 38.0637C17.041 38.0637 17.0609 38.0538 17.0609 38.0416C17.0609 38.0295 17.0809 38.0195 17.1052 38.0195C17.1295 38.0195 17.1494 38.0095 17.1494 37.9974C17.1494 37.9852 17.1694 37.9752 17.1937 37.9752C17.218 37.9752 17.238 37.9653 17.238 37.9531C17.238 37.9409 17.2579 37.931 17.2822 37.931C17.3065 37.931 17.3265 37.921 17.3265 37.9089C17.3265 37.8967 17.3464 37.8867 17.3707 37.8867C17.3951 37.8867 17.415 37.8768 17.415 37.8646C17.415 37.8524 17.4327 37.8425 17.4543 37.8425C17.476 37.8425 17.5081 37.8226 17.5256 37.7982C17.5432 37.7739 17.5752 37.754 17.5969 37.754C17.6185 37.754 17.6362 37.744 17.6362 37.7319C17.6362 37.7197 17.654 37.7097 17.6756 37.7097C17.6973 37.7097 17.7293 37.6898 17.7469 37.6655C17.7644 37.6411 17.7943 37.6212 17.8133 37.6212C17.8322 37.6212 17.8621 37.6013 17.8796 37.577C17.8972 37.5526 17.9271 37.5327 17.946 37.5327C17.965 37.5327 17.9949 37.5128 18.0124 37.4885C18.03 37.4641 18.0578 37.4442 18.0743 37.4442C18.0909 37.4442 18.1426 37.4044 18.1894 37.3557C18.2362 37.307 18.2853 37.2672 18.2985 37.2672C18.3301 37.2672 19.0524 36.5446 19.0524 36.5129C19.0524 36.4994 19.0822 36.4605 19.1188 36.4264C19.1553 36.3923 19.1851 36.3525 19.1851 36.3379C19.1851 36.3233 19.215 36.2835 19.2515 36.2494C19.288 36.2153 19.3179 36.1737 19.3179 36.1569C19.3179 36.1402 19.3378 36.1121 19.3622 36.0945C19.3865 36.077 19.4064 36.0471 19.4064 36.0281C19.4064 36.0092 19.4263 35.9793 19.4507 35.9618C19.475 35.9442 19.4949 35.9122 19.4949 35.8905C19.4949 35.8689 19.5049 35.8511 19.517 35.8511C19.5292 35.8511 19.5392 35.8334 19.5392 35.8118C19.5392 35.7901 19.5591 35.7581 19.5834 35.7405C19.6078 35.723 19.6277 35.6909 19.6277 35.6692C19.6277 35.6476 19.6376 35.6299 19.6498 35.6299C19.662 35.6299 19.6719 35.6 19.6719 35.5635C19.6719 35.527 19.6819 35.4971 19.6941 35.4971C19.7062 35.4971 19.7162 35.4772 19.7162 35.4529C19.7162 35.4285 19.7261 35.4086 19.7383 35.4086C19.7505 35.4086 19.7604 35.3887 19.7604 35.3644C19.7604 35.34 19.7704 35.3201 19.7826 35.3201C19.7947 35.3201 19.8047 35.3002 19.8047 35.2759C19.8047 35.2515 19.8147 35.2316 19.8268 35.2316C19.839 35.2316 19.849 35.2117 19.849 35.1874C19.849 35.163 19.8589 35.1431 19.8711 35.1431C19.8832 35.1431 19.8932 35.1132 19.8932 35.0767C19.8932 35.0402 19.9032 35.0103 19.9153 35.0103C19.9275 35.0103 19.9375 34.9904 19.9375 34.9661C19.9375 34.9418 19.9474 34.9218 19.9596 34.9218C19.9718 34.9218 19.9817 34.892 19.9817 34.8555C19.9817 34.819 19.9917 34.7891 20.0038 34.7891C20.016 34.7891 20.026 34.7493 20.026 34.7006C20.026 34.6519 20.0359 34.6121 20.0481 34.6121C20.0603 34.6121 20.0702 34.5822 20.0702 34.5457C20.0702 34.5092 20.0802 34.4793 20.0924 34.4793C20.1045 34.4793 20.1145 34.4295 20.1145 34.3687C20.1145 34.3078 20.1244 34.2581 20.1366 34.2581C20.1488 34.2581 20.1587 34.2182 20.1587 34.1696C20.1587 34.1209 20.1687 34.0811 20.1809 34.0811C20.1935 34.0811 20.203 34.0147 20.203 33.9262C20.203 33.8377 20.2125 33.7713 20.2251 33.7713C20.2389 33.7713 20.2472 33.6459 20.2472 33.4394C20.2472 33.2329 20.2556 33.1075 20.2694 33.1075C20.2815 33.1075 20.2915 33.0677 20.2915 33.019C20.2915 32.9703 20.2815 32.9305 20.2694 32.9305C20.2558 32.9305 20.2472 32.8272 20.2472 32.665C20.2472 32.5027 20.2386 32.3995 20.2251 32.3995C20.2128 32.3995 20.203 32.3405 20.203 32.2667C20.203 32.193 20.1932 32.134 20.1809 32.134C20.1687 32.134 20.1587 32.0842 20.1587 32.0233C20.1587 31.9625 20.1488 31.9127 20.1366 31.9127C20.1244 31.9127 20.1145 31.8729 20.1145 31.8242C20.1145 31.7755 20.1045 31.7357 20.0924 31.7357C20.0802 31.7357 20.0702 31.6959 20.0702 31.6472C20.0702 31.5985 20.0603 31.5587 20.0481 31.5587C20.0359 31.5587 20.026 31.5288 20.026 31.4923C20.026 31.4558 20.016 31.4259 20.0038 31.4259C19.9917 31.4259 19.9817 31.3961 19.9817 31.3595C19.9817 31.323 19.9718 31.2932 19.9596 31.2932C19.9474 31.2932 19.9375 31.2633 19.9375 31.2268C19.9375 31.1903 19.9275 31.1604 19.9153 31.1604C19.9032 31.1604 19.8932 31.1405 19.8932 31.1162C19.8932 31.0918 19.8832 31.0719 19.8711 31.0719C19.8589 31.0719 19.849 31.042 19.849 31.0055C19.849 30.969 19.839 30.9391 19.8268 30.9391C19.8147 30.9391 19.8047 30.9192 19.8047 30.8949C19.8047 30.8706 19.7947 30.8506 19.7826 30.8506C19.7704 30.8506 19.7604 30.8307 19.7604 30.8064C19.7604 30.7821 19.7505 30.7621 19.7383 30.7621C19.7261 30.7621 19.7162 30.7422 19.7162 30.7179C19.7162 30.6936 19.7062 30.6736 19.6941 30.6736C19.6819 30.6736 19.6719 30.6537 19.6719 30.6294C19.6719 30.605 19.662 30.5851 19.6498 30.5851C19.6376 30.5851 19.6277 30.5652 19.6277 30.5409C19.6277 30.5165 19.6177 30.4966 19.6056 30.4966C19.5934 30.4966 19.5834 30.4767 19.5834 30.4524C19.5834 30.428 19.5735 30.4081 19.5613 30.4081C19.5491 30.4081 19.5392 30.3904 19.5392 30.3688C19.5392 30.3471 19.5193 30.315 19.4949 30.2975C19.4706 30.2799 19.4507 30.2501 19.4507 30.2311C19.4507 30.2122 19.4307 30.1823 19.4064 30.1647C19.3821 30.1472 19.3622 30.1173 19.3622 30.0984C19.3622 30.0794 19.3422 30.0495 19.3179 30.032C19.2936 30.0144 19.2736 29.9864 19.2736 29.9696C19.2736 29.9528 19.2438 29.9112 19.2073 29.8771C19.1708 29.843 19.1409 29.8035 19.1409 29.7893C19.1409 29.7752 19.0911 29.7151 19.0302 29.6558C18.9694 29.5966 18.9196 29.5374 18.9196 29.5243C18.9196 29.5112 18.8152 29.396 18.6875 29.2684C18.5599 29.1407 18.4447 29.0363 18.4316 29.0363C18.4185 29.0363 18.3593 28.9865 18.3001 28.9257C18.2408 28.8648 18.1807 28.815 18.1665 28.815C18.1524 28.815 18.1129 28.7852 18.0788 28.7487C18.0447 28.7122 18.003 28.6823 17.9863 28.6823C17.9695 28.6823 17.9414 28.6624 17.9239 28.638C17.9063 28.6137 17.8765 28.5938 17.8575 28.5938C17.8386 28.5938 17.8087 28.5739 17.7911 28.5495C17.7736 28.5252 17.7415 28.5053 17.7199 28.5053C17.6982 28.5053 17.6805 28.4953 17.6805 28.4832C17.6805 28.471 17.6628 28.461 17.6411 28.461C17.6195 28.461 17.5874 28.4411 17.5699 28.4168C17.5523 28.3924 17.5203 28.3725 17.4986 28.3725C17.4769 28.3725 17.4592 28.3626 17.4592 28.3504C17.4592 28.3382 17.4393 28.3283 17.415 28.3283C17.3906 28.3283 17.3707 28.3183 17.3707 28.3061C17.3707 28.294 17.3508 28.284 17.3265 28.284C17.3021 28.284 17.2822 28.2741 17.2822 28.2619C17.2822 28.2497 17.2623 28.2398 17.238 28.2398C17.2136 28.2398 17.1937 28.2298 17.1937 28.2176C17.1937 28.2055 17.1738 28.1955 17.1494 28.1955C17.1251 28.1955 17.1052 28.1856 17.1052 28.1734C17.1052 28.1612 17.0853 28.1513 17.0609 28.1513C17.0366 28.1513 17.0167 28.1413 17.0167 28.1291C17.0167 28.117 16.9868 28.107 16.9503 28.107C16.9138 28.107 16.8839 28.0971 16.8839 28.0849C16.8839 28.0727 16.8541 28.0628 16.8175 28.0628C16.781 28.0628 16.7512 28.0528 16.7512 28.0406C16.7512 28.0285 16.7312 28.0185 16.7069 28.0185C16.6826 28.0185 16.6627 28.0085 16.6627 27.9964C16.6627 27.9842 16.6328 27.9743 16.5963 27.9743C16.5598 27.9743 16.5299 27.9643 16.5299 27.9521C16.5299 27.94 16.5 27.93 16.4635 27.93C16.427 27.93 16.3971 27.92 16.3971 27.9079C16.3971 27.8957 16.3573 27.8857 16.3086 27.8857C16.2599 27.8857 16.2201 27.8758 16.2201 27.8636C16.2201 27.8515 16.1803 27.8415 16.1316 27.8415C16.0829 27.8415 16.0431 27.8315 16.0431 27.8194C16.0431 27.8071 15.9841 27.7972 15.9103 27.7972C15.8366 27.7972 15.7776 27.7874 15.7776 27.7751C15.7776 27.7625 15.7112 27.753 15.6227 27.753C15.5342 27.753 15.4678 27.7435 15.4678 27.7309C15.4678 27.7167 15.2539 27.7087 14.8704 27.7087C14.4868 27.7087 14.2729 27.7167 14.2729 27.7309ZM36.9311 28.7487C36.9311 28.7613 36.8647 28.7708 36.7762 28.7708C36.6877 28.7708 36.6213 28.7803 36.6213 28.7929C36.6213 28.8052 36.5623 28.815 36.4885 28.815C36.4148 28.815 36.3558 28.8249 36.3558 28.8372C36.3558 28.8493 36.3159 28.8593 36.2673 28.8593C36.2186 28.8593 36.1787 28.8693 36.1787 28.8814C36.1787 28.8936 36.1489 28.9035 36.1124 28.9035C36.0759 28.9035 36.046 28.9135 36.046 28.9257C36.046 28.9378 36.0161 28.9478 35.9796 28.9478C35.9431 28.9478 35.9132 28.9578 35.9132 28.9699C35.9132 28.9821 35.8833 28.9921 35.8468 28.9921C35.8103 28.9921 35.7805 29.002 35.7805 29.0142C35.7805 29.0263 35.7605 29.0363 35.7362 29.0363C35.7119 29.0363 35.6919 29.0463 35.6919 29.0584C35.6919 29.0706 35.6621 29.0806 35.6256 29.0806C35.5891 29.0806 35.5592 29.0905 35.5592 29.1027C35.5592 29.1149 35.5393 29.1248 35.5149 29.1248C35.4906 29.1248 35.4707 29.1348 35.4707 29.1469C35.4707 29.1591 35.4508 29.1691 35.4264 29.1691C35.4021 29.1691 35.3822 29.179 35.3822 29.1912C35.3822 29.2034 35.3623 29.2133 35.3379 29.2133C35.3136 29.2133 35.2937 29.2233 35.2937 29.2354C35.2937 29.2476 35.2737 29.2576 35.2494 29.2576C35.2251 29.2576 35.2052 29.2675 35.2052 29.2797C35.2052 29.2919 35.1852 29.3018 35.1609 29.3018C35.1366 29.3018 35.1166 29.3118 35.1166 29.3239C35.1166 29.3361 35.0989 29.3461 35.0773 29.3461C35.0556 29.3461 35.0236 29.366 35.006 29.3903C34.9885 29.4147 34.9564 29.4346 34.9347 29.4346C34.9131 29.4346 34.8954 29.4445 34.8954 29.4567C34.8954 29.4689 34.8776 29.4788 34.856 29.4788C34.8343 29.4788 34.8023 29.4987 34.7847 29.5231C34.7672 29.5474 34.7391 29.5673 34.7223 29.5673C34.7056 29.5673 34.6639 29.5972 34.6298 29.6337C34.5958 29.6702 34.5563 29.7001 34.5421 29.7001C34.5279 29.7001 34.4679 29.7499 34.4086 29.8107C34.3493 29.8716 34.2901 29.9213 34.277 29.9213C34.2457 29.9213 33.789 30.3783 33.789 30.4096C33.789 30.4229 33.7492 30.472 33.7005 30.5188C33.6518 30.5655 33.612 30.6155 33.612 30.6298C33.612 30.6442 33.5821 30.6838 33.5456 30.7179C33.5091 30.752 33.4792 30.7936 33.4792 30.8104C33.4792 30.8271 33.4593 30.8552 33.435 30.8728C33.4106 30.8903 33.3907 30.9202 33.3907 30.9391C33.3907 30.9581 33.3708 30.988 33.3465 31.0055C33.3221 31.0231 33.3022 31.0551 33.3022 31.0768C33.3022 31.0984 33.2923 31.1162 33.2801 31.1162C33.2679 31.1162 33.258 31.1339 33.258 31.1555C33.258 31.1772 33.2381 31.2092 33.2137 31.2268C33.1894 31.2443 33.1695 31.2764 33.1695 31.2981C33.1695 31.3197 33.1595 31.3374 33.1473 31.3374C33.1352 31.3374 33.1252 31.3573 33.1252 31.3817C33.1252 31.406 33.1152 31.4259 33.1031 31.4259C33.0909 31.4259 33.081 31.4458 33.081 31.4702C33.081 31.4945 33.071 31.5144 33.0588 31.5144C33.0467 31.5144 33.0367 31.5443 33.0367 31.5808C33.0367 31.6173 33.0267 31.6472 33.0146 31.6472C33.0024 31.6472 32.9924 31.6671 32.9924 31.6914C32.9924 31.7158 32.9825 31.7357 32.9703 31.7357C32.9581 31.7357 32.9482 31.7556 32.9482 31.7799C32.9482 31.8043 32.9382 31.8242 32.9261 31.8242C32.9139 31.8242 32.9039 31.8541 32.9039 31.8906C32.9039 31.9271 32.894 31.9569 32.8818 31.9569C32.8696 31.9569 32.8597 31.9868 32.8597 32.0233C32.8597 32.0598 32.8497 32.0897 32.8376 32.0897C32.8254 32.0897 32.8154 32.1196 32.8154 32.1561C32.8154 32.1926 32.8055 32.2225 32.7933 32.2225C32.7811 32.2225 32.7712 32.2623 32.7712 32.311C32.7712 32.3596 32.7612 32.3995 32.749 32.3995C32.7369 32.3995 32.7269 32.4393 32.7269 32.488C32.7269 32.5367 32.717 32.5765 32.7048 32.5765C32.6926 32.5765 32.6827 32.6263 32.6827 32.6871C32.6827 32.748 32.6727 32.7977 32.6605 32.7977C32.6479 32.7977 32.6384 32.8641 32.6384 32.9526C32.6384 33.0411 32.6289 33.1075 32.6163 33.1075C32.6022 33.1075 32.5942 33.2919 32.5942 33.6164C32.5942 33.9409 32.6022 34.1253 32.6163 34.1253C32.6289 34.1253 32.6384 34.1917 32.6384 34.2802C32.6384 34.3687 32.6479 34.4351 32.6605 34.4351C32.6727 34.4351 32.6827 34.4849 32.6827 34.5457C32.6827 34.6065 32.6926 34.6563 32.7048 34.6563C32.717 34.6563 32.7269 34.6962 32.7269 34.7448C32.7269 34.7935 32.7369 34.8333 32.749 34.8333C32.7612 34.8333 32.7712 34.8732 32.7712 34.9218C32.7712 34.9705 32.7811 35.0103 32.7933 35.0103C32.8055 35.0103 32.8154 35.0402 32.8154 35.0767C32.8154 35.1132 32.8254 35.1431 32.8376 35.1431C32.8497 35.1431 32.8597 35.173 32.8597 35.2095C32.8597 35.246 32.8696 35.2759 32.8818 35.2759C32.894 35.2759 32.9039 35.3057 32.9039 35.3422C32.9039 35.3787 32.9139 35.4086 32.9261 35.4086C32.9382 35.4086 32.9482 35.4285 32.9482 35.4529C32.9482 35.4772 32.9581 35.4971 32.9703 35.4971C32.9825 35.4971 32.9924 35.517 32.9924 35.5414C32.9924 35.5657 33.0024 35.5856 33.0146 35.5856C33.0267 35.5856 33.0367 35.6155 33.0367 35.652C33.0367 35.6885 33.0467 35.7184 33.0588 35.7184C33.071 35.7184 33.081 35.7383 33.081 35.7626C33.081 35.787 33.0909 35.8069 33.1031 35.8069C33.1152 35.8069 33.1252 35.8268 33.1252 35.8511C33.1252 35.8755 33.1352 35.8954 33.1473 35.8954C33.1595 35.8954 33.1695 35.9131 33.1695 35.9348C33.1695 35.9564 33.1894 35.9885 33.2137 36.006C33.2381 36.0236 33.258 36.0556 33.258 36.0773C33.258 36.0989 33.2679 36.1167 33.2801 36.1167C33.2923 36.1167 33.3022 36.1344 33.3022 36.156C33.3022 36.1777 33.3221 36.2097 33.3465 36.2273C33.3708 36.2448 33.3907 36.2747 33.3907 36.2937C33.3907 36.3126 33.4106 36.3425 33.435 36.36C33.4593 36.3776 33.4792 36.4057 33.4792 36.4224C33.4792 36.4392 33.5091 36.4808 33.5456 36.5149C33.5821 36.549 33.612 36.5886 33.612 36.603C33.612 36.6173 33.6518 36.6673 33.7005 36.7141C33.7492 36.7608 33.789 36.8099 33.789 36.8232C33.789 36.8546 34.2901 37.3557 34.3216 37.3557C34.3348 37.3557 34.3839 37.3955 34.4307 37.4442C34.4775 37.4929 34.5293 37.5327 34.5458 37.5327C34.5623 37.5327 34.5902 37.5526 34.6077 37.577C34.6253 37.6013 34.6533 37.6212 34.6701 37.6212C34.6869 37.6212 34.7285 37.6511 34.7626 37.6876C34.7967 37.7241 34.8405 37.754 34.86 37.754C34.8795 37.754 34.8954 37.7639 34.8954 37.7761C34.8954 37.7883 34.9131 37.7982 34.9347 37.7982C34.9564 37.7982 34.9885 37.8181 35.006 37.8425C35.0236 37.8668 35.0556 37.8867 35.0773 37.8867C35.0989 37.8867 35.1166 37.8967 35.1166 37.9089C35.1166 37.921 35.1366 37.931 35.1609 37.931C35.1852 37.931 35.2052 37.9409 35.2052 37.9531C35.2052 37.9653 35.2251 37.9752 35.2494 37.9752C35.2737 37.9752 35.2937 37.9852 35.2937 37.9974C35.2937 38.0095 35.3136 38.0195 35.3379 38.0195C35.3623 38.0195 35.3822 38.0295 35.3822 38.0416C35.3822 38.0538 35.4021 38.0637 35.4264 38.0637C35.4508 38.0637 35.4707 38.0737 35.4707 38.0859C35.4707 38.098 35.4906 38.108 35.5149 38.108C35.5393 38.108 35.5592 38.118 35.5592 38.1301C35.5592 38.1423 35.5891 38.1523 35.6256 38.1523C35.6621 38.1523 35.6919 38.1622 35.6919 38.1744C35.6919 38.1865 35.7119 38.1965 35.7362 38.1965C35.7605 38.1965 35.7805 38.2065 35.7805 38.2186C35.7805 38.2308 35.8103 38.2408 35.8468 38.2408C35.8833 38.2408 35.9132 38.2507 35.9132 38.2629C35.9132 38.2751 35.9431 38.285 35.9796 38.285C36.0161 38.285 36.046 38.295 36.046 38.3071C36.046 38.3193 36.0759 38.3293 36.1124 38.3293C36.1489 38.3293 36.1787 38.3392 36.1787 38.3514C36.1787 38.3636 36.2186 38.3735 36.2673 38.3735C36.3159 38.3735 36.3558 38.3835 36.3558 38.3956C36.3558 38.4078 36.4055 38.4178 36.4664 38.4178C36.5272 38.4178 36.577 38.4277 36.577 38.4399C36.577 38.4522 36.636 38.462 36.7098 38.462C36.7835 38.462 36.8426 38.4718 36.8426 38.4841C36.8426 38.4984 37.0712 38.5063 37.4842 38.5063C37.8973 38.5063 38.1259 38.4984 38.1259 38.4841C38.1259 38.4715 38.1923 38.462 38.2808 38.462C38.3693 38.462 38.4357 38.4525 38.4357 38.4399C38.4357 38.4277 38.4855 38.4178 38.5463 38.4178C38.6072 38.4178 38.657 38.4078 38.657 38.3956C38.657 38.3835 38.6968 38.3735 38.7455 38.3735C38.7942 38.3735 38.834 38.3636 38.834 38.3514C38.834 38.3392 38.8639 38.3293 38.9004 38.3293C38.9369 38.3293 38.9668 38.3193 38.9668 38.3071C38.9668 38.295 38.9966 38.285 39.0331 38.285C39.0697 38.285 39.0995 38.2751 39.0995 38.2629C39.0995 38.2507 39.1294 38.2408 39.1659 38.2408C39.2024 38.2408 39.2323 38.2308 39.2323 38.2186C39.2323 38.2065 39.2522 38.1965 39.2765 38.1965C39.3009 38.1965 39.3208 38.1865 39.3208 38.1744C39.3208 38.1622 39.3507 38.1523 39.3872 38.1523C39.4237 38.1523 39.4536 38.1423 39.4536 38.1301C39.4536 38.118 39.4735 38.108 39.4978 38.108C39.5222 38.108 39.5421 38.098 39.5421 38.0859C39.5421 38.0737 39.562 38.0637 39.5863 38.0637C39.6107 38.0637 39.6306 38.0538 39.6306 38.0416C39.6306 38.0295 39.6505 38.0195 39.6748 38.0195C39.6992 38.0195 39.7191 38.0095 39.7191 37.9974C39.7191 37.9852 39.739 37.9752 39.7633 37.9752C39.7877 37.9752 39.8076 37.9653 39.8076 37.9531C39.8076 37.9409 39.8275 37.931 39.8518 37.931C39.8762 37.931 39.8961 37.921 39.8961 37.9089C39.8961 37.8967 39.9138 37.8867 39.9355 37.8867C39.9571 37.8867 39.9892 37.8668 40.0067 37.8425C40.0243 37.8181 40.0563 37.7982 40.078 37.7982C40.0996 37.7982 40.1174 37.7883 40.1174 37.7761C40.1174 37.7639 40.1333 37.754 40.1528 37.754C40.1722 37.754 40.216 37.7241 40.2501 37.6876C40.2842 37.6511 40.3259 37.6212 40.3426 37.6212C40.3594 37.6212 40.3875 37.6013 40.405 37.577C40.4226 37.5526 40.4503 37.5327 40.4667 37.5327C40.483 37.5327 40.5449 37.4829 40.6042 37.4221C40.6634 37.3612 40.7227 37.3115 40.7358 37.3115C40.7669 37.3115 41.1795 36.8989 41.1795 36.8678C41.1795 36.8547 41.2293 36.7955 41.2901 36.7362C41.351 36.6769 41.4007 36.6168 41.4007 36.6027C41.4007 36.5885 41.4306 36.549 41.4671 36.5149C41.5036 36.4808 41.5335 36.4392 41.5335 36.4224C41.5335 36.4057 41.5534 36.3776 41.5778 36.36C41.6021 36.3425 41.622 36.3126 41.622 36.2937C41.622 36.2747 41.6419 36.2448 41.6663 36.2273C41.6906 36.2097 41.7105 36.1777 41.7105 36.156C41.7105 36.1344 41.7205 36.1167 41.7326 36.1167C41.7448 36.1167 41.7548 36.0967 41.7548 36.0724C41.7548 36.0481 41.7647 36.0281 41.7769 36.0281C41.7891 36.0281 41.799 36.0082 41.799 35.9839C41.799 35.9596 41.809 35.9396 41.8212 35.9396C41.8333 35.9396 41.8433 35.9197 41.8433 35.8954C41.8433 35.8711 41.8532 35.8511 41.8654 35.8511C41.8776 35.8511 41.8875 35.8312 41.8875 35.8069C41.8875 35.7825 41.8975 35.7626 41.9097 35.7626C41.9218 35.7626 41.9318 35.7427 41.9318 35.7184C41.9318 35.694 41.9417 35.6741 41.9539 35.6741C41.9661 35.6741 41.976 35.6542 41.976 35.6299C41.976 35.6055 41.986 35.5856 41.9982 35.5856C42.0103 35.5856 42.0203 35.5657 42.0203 35.5414C42.0203 35.517 42.0303 35.4971 42.0424 35.4971C42.0546 35.4971 42.0646 35.4772 42.0646 35.4529C42.0646 35.4285 42.0745 35.4086 42.0867 35.4086C42.0989 35.4086 42.1088 35.3787 42.1088 35.3422C42.1088 35.3057 42.1188 35.2759 42.1309 35.2759C42.1431 35.2759 42.1531 35.246 42.1531 35.2095C42.1531 35.173 42.163 35.1431 42.1752 35.1431C42.1874 35.1431 42.1973 35.1033 42.1973 35.0546C42.1973 35.0059 42.2073 34.9661 42.2194 34.9661C42.2316 34.9661 42.2416 34.9263 42.2416 34.8776C42.2416 34.8289 42.2515 34.7891 42.2637 34.7891C42.2759 34.7891 42.2858 34.7493 42.2858 34.7006C42.2858 34.6519 42.2958 34.6121 42.3079 34.6121C42.3201 34.6121 42.3301 34.5623 42.3301 34.5014C42.3301 34.4406 42.34 34.3908 42.3522 34.3908C42.3653 34.3908 42.3743 34.3097 42.3743 34.1917C42.3743 34.0737 42.3833 33.9925 42.3965 33.9925C42.4104 33.9925 42.4186 33.845 42.4186 33.5943C42.4186 33.3435 42.4104 33.196 42.3965 33.196C42.3836 33.196 42.3743 33.1223 42.3743 33.019C42.3743 32.9157 42.3651 32.842 42.3522 32.842C42.34 32.842 42.3301 32.7922 42.3301 32.7314C42.3301 32.6705 42.3201 32.6207 42.3079 32.6207C42.2958 32.6207 42.2858 32.5809 42.2858 32.5322C42.2858 32.4835 42.2759 32.4437 42.2637 32.4437C42.2515 32.4437 42.2416 32.4039 42.2416 32.3552C42.2416 32.3065 42.2316 32.2667 42.2194 32.2667C42.2073 32.2667 42.1973 32.2269 42.1973 32.1782C42.1973 32.1295 42.1874 32.0897 42.1752 32.0897C42.163 32.0897 42.1531 32.0598 42.1531 32.0233C42.1531 31.9868 42.1431 31.9569 42.1309 31.9569C42.1188 31.9569 42.1088 31.937 42.1088 31.9127C42.1088 31.8884 42.0989 31.8684 42.0867 31.8684C42.0745 31.8684 42.0646 31.8386 42.0646 31.8021C42.0646 31.7656 42.0546 31.7357 42.0424 31.7357C42.0303 31.7357 42.0203 31.7158 42.0203 31.6914C42.0203 31.6671 42.0103 31.6472 41.9982 31.6472C41.986 31.6472 41.976 31.6273 41.976 31.6029C41.976 31.5786 41.9661 31.5587 41.9539 31.5587C41.9417 31.5587 41.9318 31.5388 41.9318 31.5144C41.9318 31.4901 41.9218 31.4702 41.9097 31.4702C41.8975 31.4702 41.8875 31.4503 41.8875 31.4259C41.8875 31.4016 41.8776 31.3817 41.8654 31.3817C41.8532 31.3817 41.8433 31.3618 41.8433 31.3374C41.8433 31.3131 41.8333 31.2932 41.8212 31.2932C41.809 31.2932 41.799 31.2733 41.799 31.2489C41.799 31.2246 41.7891 31.2047 41.7769 31.2047C41.7647 31.2047 41.7548 31.1847 41.7548 31.1604C41.7548 31.1361 41.7448 31.1162 41.7326 31.1162C41.7205 31.1162 41.7105 31.0984 41.7105 31.0768C41.7105 31.0551 41.6906 31.0231 41.6663 31.0055C41.6419 30.988 41.622 30.9581 41.622 30.9391C41.622 30.9202 41.6021 30.8903 41.5778 30.8728C41.5534 30.8552 41.5335 30.8271 41.5335 30.8104C41.5335 30.7936 41.5036 30.752 41.4671 30.7179C41.4306 30.6838 41.4007 30.6444 41.4007 30.6303C41.4007 30.6163 41.341 30.5462 41.268 30.4745C41.195 30.4028 41.1352 30.3335 41.1352 30.3205C41.1352 30.2895 40.7668 29.9213 40.7358 29.9213C40.7227 29.9213 40.6634 29.8716 40.6042 29.8107C40.5449 29.7499 40.483 29.7001 40.4667 29.7001C40.4503 29.7001 40.4226 29.6802 40.405 29.6558C40.3875 29.6315 40.3576 29.6116 40.3386 29.6116C40.3197 29.6116 40.2898 29.5917 40.2723 29.5673C40.2547 29.543 40.2248 29.5231 40.2059 29.5231C40.1869 29.5231 40.157 29.5032 40.1395 29.4788C40.1219 29.4545 40.0899 29.4346 40.0682 29.4346C40.0466 29.4346 40.0289 29.4246 40.0289 29.4124C40.0289 29.4003 40.0111 29.3903 39.9895 29.3903C39.9678 29.3903 39.9358 29.3704 39.9182 29.3461C39.9007 29.3217 39.8686 29.3018 39.847 29.3018C39.8253 29.3018 39.8076 29.2919 39.8076 29.2797C39.8076 29.2675 39.7877 29.2576 39.7633 29.2576C39.739 29.2576 39.7191 29.2476 39.7191 29.2354C39.7191 29.2233 39.6992 29.2133 39.6748 29.2133C39.6505 29.2133 39.6306 29.2034 39.6306 29.1912C39.6306 29.179 39.6107 29.1691 39.5863 29.1691C39.562 29.1691 39.5421 29.1591 39.5421 29.1469C39.5421 29.1348 39.5222 29.1248 39.4978 29.1248C39.4735 29.1248 39.4536 29.1149 39.4536 29.1027C39.4536 29.0905 39.4237 29.0806 39.3872 29.0806C39.3507 29.0806 39.3208 29.0706 39.3208 29.0584C39.3208 29.0463 39.2909 29.0363 39.2544 29.0363C39.2179 29.0363 39.188 29.0263 39.188 29.0142C39.188 29.002 39.1681 28.9921 39.1438 28.9921C39.1194 28.9921 39.0995 28.9821 39.0995 28.9699C39.0995 28.9578 39.0697 28.9478 39.0331 28.9478C38.9966 28.9478 38.9668 28.9378 38.9668 28.9257C38.9668 28.9135 38.9269 28.9035 38.8783 28.9035C38.8296 28.9035 38.7897 28.8936 38.7897 28.8814C38.7897 28.8693 38.7499 28.8593 38.7012 28.8593C38.6526 28.8593 38.6127 28.8493 38.6127 28.8372C38.6127 28.825 38.5629 28.815 38.5021 28.815C38.4412 28.815 38.3915 28.8051 38.3915 28.7929C38.3915 28.7806 38.3324 28.7708 38.2587 28.7708C38.1849 28.7708 38.1259 28.761 38.1259 28.7487C38.1259 28.7345 37.912 28.7265 37.5285 28.7265C37.145 28.7265 36.9311 28.7345 36.9311 28.7487ZM15.1138 31.094C15.1138 31.1063 15.1728 31.1162 15.2465 31.1162C15.3203 31.1162 15.3793 31.126 15.3793 31.1383C15.3793 31.1505 15.4092 31.1604 15.4457 31.1604C15.4822 31.1604 15.512 31.1704 15.512 31.1825C15.512 31.1947 15.5419 31.2047 15.5784 31.2047C15.6149 31.2047 15.6448 31.2146 15.6448 31.2268C15.6448 31.239 15.6647 31.2489 15.6891 31.2489C15.7134 31.2489 15.7333 31.2589 15.7333 31.271C15.7333 31.2832 15.7532 31.2932 15.7776 31.2932C15.8019 31.2932 15.8218 31.3031 15.8218 31.3153C15.8218 31.3275 15.8395 31.3374 15.8612 31.3374C15.8828 31.3374 15.9149 31.3573 15.9325 31.3817C15.95 31.406 15.9799 31.4259 15.9988 31.4259C16.0178 31.4259 16.0477 31.4458 16.0652 31.4702C16.0828 31.4945 16.11 31.5144 16.1258 31.5144C16.1415 31.5144 16.229 31.5889 16.32 31.68C16.4111 31.7711 16.4856 31.8585 16.4856 31.8743C16.4856 31.89 16.5055 31.9173 16.5299 31.9348C16.5542 31.9524 16.5741 31.9822 16.5741 32.0012C16.5741 32.0202 16.5941 32.05 16.6184 32.0676C16.6427 32.0851 16.6627 32.1172 16.6627 32.1388C16.6627 32.1605 16.6726 32.1782 16.6848 32.1782C16.6969 32.1782 16.7069 32.2081 16.7069 32.2446C16.7069 32.2811 16.7169 32.311 16.729 32.311C16.7412 32.311 16.7512 32.3309 16.7512 32.3552C16.7512 32.3796 16.7611 32.3995 16.7733 32.3995C16.7855 32.3995 16.7954 32.4293 16.7954 32.4658C16.7954 32.5024 16.8054 32.5322 16.8175 32.5322C16.8297 32.5322 16.8397 32.582 16.8397 32.6429C16.8397 32.7037 16.8496 32.7535 16.8618 32.7535C16.8756 32.7535 16.8839 32.8862 16.8839 33.1075C16.8839 33.3288 16.8756 33.4615 16.8618 33.4615C16.8496 33.4615 16.8397 33.5014 16.8397 33.55C16.8397 33.5987 16.8297 33.6385 16.8175 33.6385C16.8054 33.6385 16.7954 33.6784 16.7954 33.727C16.7954 33.7757 16.7855 33.8155 16.7733 33.8155C16.7611 33.8155 16.7512 33.8355 16.7512 33.8598C16.7512 33.8841 16.7412 33.904 16.729 33.904C16.7169 33.904 16.7069 33.924 16.7069 33.9483C16.7069 33.9726 16.6969 33.9925 16.6848 33.9925C16.6726 33.9925 16.6627 34.0125 16.6627 34.0368C16.6627 34.0611 16.6527 34.0811 16.6405 34.0811C16.6284 34.0811 16.6184 34.0988 16.6184 34.1204C16.6184 34.1421 16.5985 34.1741 16.5741 34.1917C16.5498 34.2092 16.5299 34.2364 16.5299 34.2521C16.5299 34.2894 16.0744 34.7448 16.0372 34.7448C16.0215 34.7448 15.9943 34.7647 15.9767 34.7891C15.9592 34.8134 15.9271 34.8333 15.9054 34.8333C15.8838 34.8333 15.8661 34.8433 15.8661 34.8555C15.8661 34.8676 15.8462 34.8776 15.8218 34.8776C15.7975 34.8776 15.7776 34.8875 15.7776 34.8997C15.7776 34.9119 15.7577 34.9218 15.7333 34.9218C15.709 34.9218 15.6891 34.9318 15.6891 34.944C15.6891 34.9561 15.6592 34.9661 15.6227 34.9661C15.5862 34.9661 15.5563 34.9761 15.5563 34.9882C15.5563 35.0004 15.5364 35.0103 15.512 35.0103C15.4877 35.0103 15.4678 35.0203 15.4678 35.0325C15.4678 35.0446 15.428 35.0546 15.3793 35.0546C15.3306 35.0546 15.2908 35.0646 15.2908 35.0767C15.2908 35.0907 15.1432 35.0989 14.8925 35.0989C14.6417 35.0989 14.4942 35.0907 14.4942 35.0767C14.4942 35.0646 14.4544 35.0546 14.4057 35.0546C14.357 35.0546 14.3172 35.0446 14.3172 35.0325C14.3172 35.0203 14.2873 35.0103 14.2508 35.0103C14.2143 35.0103 14.1844 35.0004 14.1844 34.9882C14.1844 34.9761 14.1545 34.9661 14.118 34.9661C14.0815 34.9661 14.0517 34.9561 14.0517 34.944C14.0517 34.9318 14.0317 34.9218 14.0074 34.9218C13.9831 34.9218 13.9631 34.9119 13.9631 34.8997C13.9631 34.8875 13.9454 34.8776 13.9238 34.8776C13.9021 34.8776 13.8701 34.8577 13.8525 34.8333C13.835 34.809 13.8051 34.7891 13.7861 34.7891C13.7672 34.7891 13.7373 34.7692 13.7197 34.7448C13.7022 34.7205 13.675 34.7006 13.6592 34.7006C13.6218 34.7006 13.2993 34.3781 13.2993 34.3407C13.2993 34.325 13.2794 34.2977 13.2551 34.2802C13.2307 34.2626 13.2108 34.2328 13.2108 34.2138C13.2108 34.1948 13.1909 34.165 13.1666 34.1474C13.1422 34.1299 13.1223 34.0978 13.1223 34.0762C13.1223 34.0545 13.1124 34.0368 13.1002 34.0368C13.088 34.0368 13.0781 34.0169 13.0781 33.9925C13.0781 33.9682 13.0681 33.9483 13.0559 33.9483C13.0438 33.9483 13.0338 33.9284 13.0338 33.904C13.0338 33.8797 13.0239 33.8598 13.0117 33.8598C12.9995 33.8598 12.9896 33.8299 12.9896 33.7934C12.9896 33.7569 12.9796 33.727 12.9674 33.727C12.9553 33.727 12.9453 33.6872 12.9453 33.6385C12.9453 33.5899 12.9353 33.55 12.9232 33.55C12.9109 33.55 12.901 33.491 12.901 33.4173C12.901 33.3435 12.8912 33.2845 12.8789 33.2845C12.866 33.2845 12.8568 33.2108 12.8568 33.1075C12.8568 33.0042 12.866 32.9305 12.8789 32.9305C12.8916 32.9305 12.901 32.8641 12.901 32.7756C12.901 32.6871 12.9105 32.6207 12.9232 32.6207C12.9353 32.6207 12.9453 32.5909 12.9453 32.5544C12.9453 32.5178 12.9553 32.488 12.9674 32.488C12.9796 32.488 12.9896 32.4581 12.9896 32.4216C12.9896 32.3851 12.9995 32.3552 13.0117 32.3552C13.0239 32.3552 13.0338 32.3353 13.0338 32.311C13.0338 32.2866 13.0438 32.2667 13.0559 32.2667C13.0681 32.2667 13.0781 32.239 13.0781 32.2052C13.0781 32.1691 13.0963 32.1306 13.1223 32.1118C13.1467 32.0943 13.1666 32.0622 13.1666 32.0406C13.1666 32.0189 13.1765 32.0012 13.1887 32.0012C13.2009 32.0012 13.2108 31.9862 13.2108 31.9677C13.2108 31.9271 13.6633 31.4702 13.7036 31.4702C13.7193 31.4702 13.7465 31.4503 13.764 31.4259C13.7815 31.4016 13.8114 31.3817 13.8304 31.3817C13.8493 31.3817 13.8792 31.3618 13.8968 31.3374C13.9143 31.3131 13.9464 31.2932 13.968 31.2932C13.9897 31.2932 14.0074 31.2832 14.0074 31.271C14.0074 31.2589 14.0373 31.2489 14.0738 31.2489C14.1103 31.2489 14.1402 31.239 14.1402 31.2268C14.1402 31.2146 14.1601 31.2047 14.1844 31.2047C14.2088 31.2047 14.2287 31.1947 14.2287 31.1825C14.2287 31.1704 14.2685 31.1604 14.3172 31.1604C14.3659 31.1604 14.4057 31.1505 14.4057 31.1383C14.4057 31.126 14.4647 31.1162 14.5384 31.1162C14.6122 31.1162 14.6712 31.1063 14.6712 31.094C14.6712 31.0808 14.7597 31.0719 14.8925 31.0719C15.0252 31.0719 15.1138 31.0808 15.1138 31.094ZM37.7719 31.8021C37.7719 31.8142 37.8217 31.8242 37.8825 31.8242C37.9434 31.8242 37.9932 31.8341 37.9932 31.8463C37.9932 31.8585 38.023 31.8684 38.0595 31.8684C38.0961 31.8684 38.1259 31.8784 38.1259 31.8906C38.1259 31.9027 38.1458 31.9127 38.1702 31.9127C38.1945 31.9127 38.2144 31.9227 38.2144 31.9348C38.2144 31.947 38.2344 31.9569 38.2587 31.9569C38.283 31.9569 38.3029 31.9669 38.3029 31.9791C38.3029 31.9912 38.3229 32.0012 38.3472 32.0012C38.3715 32.0012 38.3915 32.0112 38.3915 32.0233C38.3915 32.0355 38.4114 32.0455 38.4357 32.0455C38.46 32.0455 38.48 32.0554 38.48 32.0676C38.48 32.0797 38.4957 32.0897 38.5149 32.0897C38.5341 32.0897 38.5881 32.1295 38.6349 32.1782C38.6816 32.2269 38.7311 32.2667 38.7448 32.2667C38.7773 32.2667 38.8783 32.368 38.8783 32.4006C38.8783 32.4146 38.9081 32.4539 38.9446 32.488C38.9811 32.5221 39.011 32.5637 39.011 32.5805C39.011 32.5972 39.0309 32.6253 39.0553 32.6429C39.0796 32.6604 39.0995 32.6925 39.0995 32.7141C39.0995 32.7358 39.1095 32.7535 39.1216 32.7535C39.1338 32.7535 39.1438 32.7734 39.1438 32.7977C39.1438 32.8221 39.1537 32.842 39.1659 32.842C39.1781 32.842 39.188 32.8619 39.188 32.8862C39.188 32.9106 39.198 32.9305 39.2102 32.9305C39.2223 32.9305 39.2323 32.9604 39.2323 32.9969C39.2323 33.0334 39.2422 33.0633 39.2544 33.0633C39.2666 33.0633 39.2765 33.1031 39.2765 33.1518C39.2765 33.2004 39.2865 33.2403 39.2987 33.2403C39.3125 33.2403 39.3208 33.3804 39.3208 33.6164C39.3208 33.8524 39.3125 33.9925 39.2987 33.9925C39.2865 33.9925 39.2765 34.0324 39.2765 34.0811C39.2765 34.1297 39.2666 34.1696 39.2544 34.1696C39.2422 34.1696 39.2323 34.1994 39.2323 34.2359C39.2323 34.2724 39.2223 34.3023 39.2102 34.3023C39.198 34.3023 39.188 34.3222 39.188 34.3466C39.188 34.3709 39.1781 34.3908 39.1659 34.3908C39.1537 34.3908 39.1438 34.4107 39.1438 34.4351C39.1438 34.4594 39.1338 34.4793 39.1216 34.4793C39.1095 34.4793 39.0995 34.4992 39.0995 34.5236C39.0995 34.5479 39.0896 34.5678 39.0774 34.5678C39.0652 34.5678 39.0553 34.5837 39.0553 34.6032C39.0553 34.6227 39.0254 34.6665 38.9889 34.7006C38.9524 34.7347 38.9225 34.7739 38.9225 34.7877C38.9225 34.82 38.7767 34.9661 38.7445 34.9661C38.7309 34.9661 38.6816 35.0059 38.6349 35.0546C38.5881 35.1033 38.5341 35.1431 38.5149 35.1431C38.4957 35.1431 38.48 35.1531 38.48 35.1652C38.48 35.1774 38.4622 35.1874 38.4406 35.1874C38.4189 35.1874 38.3869 35.2073 38.3693 35.2316C38.3518 35.2559 38.3197 35.2759 38.2981 35.2759C38.2764 35.2759 38.2587 35.2858 38.2587 35.298C38.2587 35.3102 38.2288 35.3201 38.1923 35.3201C38.1558 35.3201 38.1259 35.3301 38.1259 35.3422C38.1259 35.3544 38.0961 35.3644 38.0595 35.3644C38.023 35.3644 37.9932 35.3743 37.9932 35.3865C37.9932 35.3987 37.9434 35.4086 37.8825 35.4086C37.8217 35.4086 37.7719 35.4186 37.7719 35.4307C37.7719 35.4443 37.6686 35.4529 37.5064 35.4529C37.3441 35.4529 37.2408 35.4443 37.2408 35.4307C37.2408 35.4186 37.1911 35.4086 37.1302 35.4086C37.0694 35.4086 37.0196 35.3987 37.0196 35.3865C37.0196 35.3743 36.9897 35.3644 36.9532 35.3644C36.9167 35.3644 36.8868 35.3544 36.8868 35.3422C36.8868 35.3301 36.8669 35.3201 36.8426 35.3201C36.8182 35.3201 36.7983 35.3102 36.7983 35.298C36.7983 35.2858 36.7706 35.2759 36.7368 35.2759C36.7007 35.2759 36.6622 35.2576 36.6434 35.2316C36.6259 35.2073 36.5938 35.1874 36.5721 35.1874C36.5505 35.1874 36.5328 35.1774 36.5328 35.1652C36.5328 35.1531 36.5172 35.1431 36.4982 35.1431C36.4791 35.1431 36.415 35.0933 36.3558 35.0325C36.2965 34.9716 36.2324 34.9218 36.2134 34.9218C36.1943 34.9218 36.1787 34.9061 36.1787 34.8869C36.1787 34.8677 36.1389 34.8137 36.0902 34.767C36.0416 34.7202 36.0017 34.6684 36.0017 34.6519C36.0017 34.6354 35.9818 34.6075 35.9575 34.59C35.9331 34.5724 35.9132 34.5403 35.9132 34.5187C35.9132 34.497 35.9033 34.4793 35.8911 34.4793C35.8789 34.4793 35.869 34.4594 35.869 34.4351C35.869 34.4107 35.859 34.3908 35.8468 34.3908C35.8347 34.3908 35.8247 34.3609 35.8247 34.3244C35.8247 34.2879 35.8148 34.2581 35.8026 34.2581C35.7904 34.2581 35.7805 34.2381 35.7805 34.2138C35.7805 34.1895 35.7705 34.1696 35.7583 34.1696C35.7462 34.1696 35.7362 34.1297 35.7362 34.0811C35.7362 34.0324 35.7262 33.9925 35.7141 33.9925C35.7002 33.9925 35.6919 33.8524 35.6919 33.6164C35.6919 33.3804 35.7002 33.2403 35.7141 33.2403C35.7262 33.2403 35.7362 33.2104 35.7362 33.1739C35.7362 33.1374 35.7462 33.1075 35.7583 33.1075C35.7705 33.1075 35.7805 33.0677 35.7805 33.019C35.7805 32.9703 35.7904 32.9305 35.8026 32.9305C35.8148 32.9305 35.8247 32.9106 35.8247 32.8862C35.8247 32.8619 35.8347 32.842 35.8468 32.842C35.859 32.842 35.869 32.8221 35.869 32.7977C35.869 32.7734 35.8789 32.7535 35.8911 32.7535C35.9033 32.7535 35.9132 32.7358 35.9132 32.7141C35.9132 32.6925 35.9331 32.6604 35.9575 32.6429C35.9818 32.6253 36.0017 32.5981 36.0017 32.5824C36.0017 32.5422 36.4587 32.0897 36.4993 32.0897C36.5177 32.0897 36.5328 32.0797 36.5328 32.0676C36.5328 32.0554 36.5527 32.0455 36.577 32.0455C36.6014 32.0455 36.6213 32.0355 36.6213 32.0233C36.6213 32.0112 36.6412 32.0012 36.6655 32.0012C36.6899 32.0012 36.7098 31.9912 36.7098 31.9791C36.7098 31.9669 36.7297 31.9569 36.754 31.9569C36.7784 31.9569 36.7983 31.947 36.7983 31.9348C36.7983 31.9227 36.8182 31.9127 36.8426 31.9127C36.8669 31.9127 36.8868 31.9027 36.8868 31.8906C36.8868 31.8784 36.9167 31.8684 36.9532 31.8684C36.9897 31.8684 37.0196 31.8585 37.0196 31.8463C37.0196 31.834 37.0786 31.8242 37.1523 31.8242C37.2261 31.8242 37.2851 31.8144 37.2851 31.8021C37.2851 31.7887 37.381 31.7799 37.5285 31.7799C37.676 31.7799 37.7719 31.7887 37.7719 31.8021Z" fill="white"/>
</svg>
