<svg width="51" height="61" viewBox="0 0 51 61" fill="none" xmlns="http://www.w3.org/2000/svg">
<path d="M50.3656 5.45804V35.6223C50.3656 49.3948 39.1664 60.57 25.3644 60.57C11.5624 60.57 0.363281 49.3948 0.363281 35.6223V5.45804C8.06267 2.2932 16.5057 0.547075 25.3644 0.547075C34.2012 0.525248 42.6443 2.2932 50.3656 5.45804Z" fill="#FF7300"/>
<g clip-path="url(#clip0)">
<path d="M12.5446 28.4932C10.2455 28.4932 8.375 30.3636 8.375 32.6627C8.375 34.9618 10.2455 36.8323 12.5446 36.8323C14.8437 36.8323 16.7142 34.9618 16.7142 32.6627C16.7141 30.3636 14.8436 28.4932 12.5446 28.4932Z" fill="white"/>
<path d="M41.0089 30.2734V26.6127L24.6678 16.3008H17.1444L10.5195 25.3452V26.8351C11.1522 26.6151 11.8313 26.4952 12.538 26.4952C15.9356 26.4952 18.6997 29.2594 18.6997 32.6569C18.6997 33.1642 18.6376 33.6573 18.5215 34.1293H35.1195C35.5555 35.6833 36.9839 36.8265 38.6752 36.8265C40.7116 36.8265 42.3684 35.1697 42.3684 33.1332C42.3684 31.9814 41.838 30.9512 41.0089 30.2734ZM20.8706 26.9121L13.2019 25.0547L18.1547 18.293H20.8706V26.9121ZM30.1046 23.1129L28.2304 26.6059L29.9858 27.5478L30.4633 26.658L33.2476 28.0657L32.3774 29.6992L22.8627 27.3947V18.293H24.0919L34.8403 25.0758L34.1844 26.307L31.4055 24.902L31.8601 24.0549L30.1046 23.1129ZM39.0168 29.4565C38.9042 29.4461 38.7904 29.4401 38.6751 29.4401C37.6289 29.4401 36.6837 29.878 36.0111 30.5793L34.3765 30.1834L36.5295 26.1417L39.0168 27.7112V29.4565Z" fill="white"/>
</g>
<defs>
<clipPath id="clip0">
<rect width="34" height="34" fill="white" transform="translate(8.37109 9.5625)"/>
</clipPath>
</defs>
</svg>
