<svg width="51" height="61" viewBox="0 0 51 61" fill="none" xmlns="http://www.w3.org/2000/svg">
<path d="M50.7562 5.45804V35.6223C50.7562 49.3948 39.5571 60.57 25.7551 60.57C11.953 60.57 0.753906 49.3948 0.753906 35.6223V5.45804C8.4533 2.2932 16.8964 0.547075 25.7551 0.547075C34.5919 0.525248 43.0349 2.2932 50.7562 5.45804Z" fill="#FF7300"/>
<g clip-path="url(#clip0)">
<path d="M41.6485 28.6973H40.6221V26.6615C40.6221 26.501 40.5835 26.3428 40.5095 26.2003L38.5325 22.3914C38.3873 22.1118 38.1191 21.9168 37.8085 21.865L30.9736 20.7258L27.1104 15.3286C26.9223 15.066 26.6192 14.9102 26.2961 14.9102H20.6891C20.1361 14.9102 19.6878 15.3585 19.6878 15.9114V17.8394L12.1005 21.7846H9.64975C9.09676 21.7846 8.64844 22.2328 8.64844 22.7858V32.7355C8.64844 33.2884 9.09676 33.7368 9.64975 33.7368H9.90529C9.89858 33.6223 9.90018 33.6522 9.90018 32.8274C9.90018 32.1075 10.1867 31.4537 10.6511 30.9726C10.6643 30.9589 10.6772 30.9447 10.6908 30.9312C10.6886 30.2435 10.9492 29.5552 11.4727 29.0316L12.003 28.5014C12.5081 27.9963 13.1796 27.7181 13.8939 27.7181C13.8972 27.7181 13.9005 27.7181 13.9039 27.7181C14.3885 27.2308 15.0591 26.9288 15.7989 26.9288H16.5498C17.2895 26.9288 17.96 27.2308 18.4445 27.7179C18.4479 27.7179 18.4513 27.7179 18.4547 27.7179C19.1689 27.7179 19.8403 27.996 20.3453 28.501L20.8762 29.032C21.3812 29.5369 21.6594 30.2083 21.6594 30.9225C21.6594 30.9259 21.6594 30.9292 21.6594 30.9326C21.8901 31.1621 22.0787 31.4337 22.2138 31.7343C22.3641 32.0682 22.4485 32.438 22.4485 32.8274V33.5782C22.4485 33.6315 22.4465 33.6843 22.4434 33.7368H27.9281C27.9249 33.6843 27.923 33.6315 27.923 33.5782V32.8274C27.923 32.4381 28.0073 32.0683 28.1576 31.7343C28.2931 31.4331 28.4821 31.161 28.7136 30.9312C28.7114 30.2435 28.972 29.5551 29.4955 29.0316L30.0258 28.5013C30.5309 27.9962 31.2024 27.7181 31.9167 27.7181C31.92 27.7181 31.9233 27.7181 31.9267 27.7181C32.4113 27.2308 33.0819 26.9288 33.8217 26.9288H34.5725C35.3123 26.9288 35.9828 27.2307 36.4673 27.7179C36.4707 27.7179 36.4741 27.7179 36.4775 27.7179C37.1916 27.7179 37.8631 27.996 38.3681 28.501L38.6196 28.7525L38.899 29.0319C39.4189 29.5519 39.684 30.2341 39.6822 30.9326C39.9129 31.1621 40.1015 31.4337 40.2366 31.7342C40.3868 32.0682 40.4712 32.4379 40.4712 32.8273V33.5781C40.4712 33.6314 40.4693 33.6842 40.4661 33.7367H41.6487C42.2017 33.7367 42.65 33.2884 42.65 32.7354V29.6984C42.6498 29.1455 42.2015 28.6973 41.6485 28.6973ZM19.6879 24.1918H13.3465V23.3937L19.6879 20.0963V24.1918ZM25.9624 27.8586H23.3591C22.8061 27.8586 22.3578 27.4103 22.3578 26.8574C22.3578 26.3072 22.807 25.8561 23.3591 25.8561H25.9624C26.514 25.8562 26.9637 26.3069 26.9637 26.8574C26.9637 27.4103 26.5154 27.8586 25.9624 27.8586ZM29.4334 24.1918H21.6903V16.9126H25.7815L29.4334 22.0147V24.1918H29.4334Z" fill="white"/>
<path d="M19.7733 32.0306C19.7117 31.8412 19.6355 31.6586 19.5462 31.4836L19.5466 31.4832C19.8572 31.1726 19.8572 30.6691 19.5466 30.3585L19.0157 29.8276C18.8605 29.6723 18.6569 29.5946 18.4534 29.5946C18.2499 29.5946 18.0463 29.6723 17.8911 29.8276L17.8907 29.828C17.7157 29.7387 17.5331 29.6624 17.3437 29.6009C17.3437 29.1617 16.9876 28.8057 16.5484 28.8057H15.7976C15.3584 28.8057 15.0023 29.1617 15.0023 29.6009C14.813 29.6625 14.6303 29.7387 14.4554 29.828C14.3 29.6726 14.0964 29.5949 13.8926 29.5949C13.689 29.5949 13.4853 29.6726 13.3299 29.828L12.7997 30.3582C12.4889 30.6689 12.4889 31.1728 12.7997 31.4836C12.7104 31.6586 12.6342 31.8412 12.5726 32.0306C12.1334 32.0306 11.7773 32.3867 11.7773 32.8259V33.5767C11.7773 34.0159 12.1334 34.3719 12.5726 34.3719C12.6342 34.5613 12.7104 34.7439 12.7997 34.9189L12.7993 34.9193C12.4887 35.2299 12.4887 35.7335 12.7993 36.044L13.3302 36.5749C13.4854 36.7302 13.689 36.8079 13.8925 36.8079C14.096 36.8079 14.2996 36.7302 14.4548 36.5749L14.4552 36.5747C14.6302 36.6639 14.8128 36.7402 15.0022 36.8017C15.0022 37.2409 15.3583 37.597 15.7975 37.597H16.5483C16.9875 37.597 17.3435 37.2409 17.3435 36.8017C17.5329 36.7402 17.7156 36.6639 17.8905 36.5747L17.8909 36.5749C18.0462 36.7302 18.2497 36.8079 18.4533 36.8079C18.6568 36.8079 18.8603 36.7302 19.0156 36.5749L19.5465 36.044C19.8571 35.7335 19.8571 35.23 19.5465 34.9193L19.5461 34.9189C19.6353 34.7439 19.7116 34.5614 19.7731 34.3719C20.2123 34.3719 20.5684 34.0159 20.5684 33.5767V32.8259C20.5685 32.3867 20.2125 32.0306 19.7733 32.0306ZM16.1731 34.518C15.4459 34.518 14.8565 33.9285 14.8565 33.2013C14.8565 32.4742 15.4459 31.8847 16.1731 31.8847C16.9002 31.8847 17.4897 32.4742 17.4897 33.2013C17.4897 33.9284 16.9002 34.518 16.1731 34.518Z" fill="white"/>
<path d="M37.7967 32.0306C37.7352 31.8412 37.6589 31.6586 37.5697 31.4836L37.5701 31.4832C37.8806 31.1726 37.8806 30.6691 37.5701 30.3585L37.0392 29.8276C36.8839 29.6723 36.6804 29.5946 36.4768 29.5946C36.2733 29.5946 36.0698 29.6723 35.9145 29.8276L35.9141 29.828C35.7391 29.7387 35.5566 29.6624 35.3671 29.6009C35.3671 29.1617 35.0111 28.8057 34.5718 28.8057H33.8211C33.3819 28.8057 33.0258 29.1617 33.0258 29.6009C32.8364 29.6625 32.6538 29.7387 32.4788 29.828C32.3234 29.6726 32.1197 29.5949 31.9161 29.5949C31.7124 29.5949 31.5087 29.6726 31.3534 29.828L30.8231 30.3582C30.5124 30.6689 30.5124 31.1728 30.8231 31.4836C30.7338 31.6586 30.6577 31.8412 30.5961 32.0306C30.1569 32.0306 29.8008 32.3867 29.8008 32.8259V33.5767C29.8008 34.0159 30.1569 34.3719 30.5961 34.3719C30.6576 34.5613 30.7338 34.7439 30.8231 34.9189L30.8227 34.9193C30.5121 35.2299 30.5121 35.7335 30.8227 36.044L31.3536 36.5749C31.5089 36.7302 31.7124 36.8079 31.9159 36.8079C32.1195 36.8079 32.323 36.7302 32.4783 36.5749L32.4787 36.5747C32.6536 36.6639 32.8363 36.7402 33.0257 36.8017C33.0257 37.2409 33.3817 37.597 33.8209 37.597H34.5717C35.0109 37.597 35.367 37.2409 35.367 36.8017C35.5564 36.7402 35.739 36.6639 35.914 36.5747L35.9144 36.5749C36.0696 36.7302 36.2732 36.8079 36.4767 36.8079C36.6802 36.8079 36.8838 36.7302 37.039 36.5749L37.5699 36.044C37.8805 35.7335 37.8805 35.23 37.5699 34.9193L37.5695 34.9189C37.6588 34.7439 37.7351 34.5614 37.7966 34.3719C38.2358 34.3719 38.5919 34.0159 38.5919 33.5767V32.8259C38.592 32.3867 38.2359 32.0306 37.7967 32.0306ZM34.1965 34.518C33.4693 34.518 32.8799 33.9285 32.8799 33.2013C32.8799 32.4742 33.4694 31.8847 34.1965 31.8847C34.9237 31.8847 35.5131 32.4742 35.5131 33.2013C35.5131 33.9284 34.9237 34.518 34.1965 34.518Z" fill="white"/>
</g>
<defs>
<clipPath id="clip0">
<rect width="34.0016" height="34" fill="white" transform="translate(8.64844 9.25293)"/>
</clipPath>
</defs>
</svg>
