<svg width="51" height="61" viewBox="0 0 51 61" fill="none" xmlns="http://www.w3.org/2000/svg">
<path d="M50.1273 5.4971V35.6613C50.1273 49.4339 38.9282 60.609 25.1262 60.609C11.3241 60.609 0.125 49.4339 0.125 35.6613V5.4971C7.82439 2.33226 16.2675 0.586137 25.1262 0.586137C33.963 0.564311 42.406 2.33226 50.1273 5.4971Z" fill="#FF7300"/>
<g clip-path="url(#clip0)">
<path d="M19.9424 27.585L19.9336 36.7607H29.8457V27.585H19.9424Z" fill="white"/>
<path d="M18.228 27.8362V25.4326H10.4102V27.8362H12.0756V29.5354H10.4102V31.9098H12.0756V33.609H10.4102V35.7457H12.0756V37.445H10.4102V39.5956H18.228V37.445H16.5711V35.7457H18.228V33.609H16.5711V31.9098H18.228V29.5354H16.5711V27.8362H18.228Z" fill="white"/>
<path d="M33.5867 12.1436L28.3428 17.7859C27.8759 17.5058 27.3301 17.3444 26.7472 17.3444H23.0522C22.4999 17.3444 21.9813 17.4896 21.5312 17.7429L16.3314 12.1436H10.3594V13.8428H15.5904L20.3316 18.9483C20.083 19.3951 19.9409 19.9089 19.9409 20.4554V25.8839H29.8446L29.8583 20.4554C29.8583 19.9405 29.7319 19.4548 29.5094 19.0266L34.3272 13.8428H39.3607V12.1436H33.5867ZM26.1356 21.9272C25.994 22.2681 25.7284 22.5332 25.3877 22.674C25.218 22.7441 25.0411 22.7796 24.862 22.7796C24.3002 22.7796 23.7986 22.4441 23.5841 21.9249C23.4433 21.5841 23.4436 21.2088 23.585 20.8681C23.7266 20.5273 23.9922 20.2622 24.3332 20.1213C24.5028 20.0513 24.6798 20.0157 24.859 20.0157C25.4207 20.0157 25.9223 20.3511 26.1368 20.8703C26.2776 21.2111 26.2771 21.5865 26.1356 21.9272Z" fill="white"/>
<path d="M39.3572 27.8372V25.4336H31.582V27.8372H33.0761V29.5365H31.582V31.9108H33.0761V33.6101H31.582V35.7468H33.0761V37.446H31.582V39.5966H39.3572V37.446H37.5716V35.7468H39.3572V33.6101H37.5716V31.9108H39.3572V29.5365H37.5716V27.8372H39.3572Z" fill="white"/>
</g>
<defs>
<clipPath id="clip0">
<rect width="29.0013" height="29" fill="white" transform="translate(10.3555 11.3711)"/>
</clipPath>
</defs>
</svg>
