<svg width="40" height="40" viewBox="0 0 40 40" fill="none" xmlns="http://www.w3.org/2000/svg">
<circle cx="20" cy="20" r="20" fill="white"/>
<path d="M24 17C24.5523 17 25 16.5523 25 16C25 15.4477 24.5523 15 24 15C23.4477 15 23 15.4477 23 16C23 16.5523 23.4477 17 24 17Z" fill="black"/>
<path fill-rule="evenodd" clip-rule="evenodd" d="M20 16C17.8125 16 16 17.7812 16 20C16 22.2188 17.7812 24 20 24C22.2188 24 24 22.1875 24 20C24 17.8125 22.1875 16 20 16ZM20 22.5625C18.5938 22.5625 17.4375 21.4062 17.4375 20C17.4375 18.5938 18.5938 17.4375 20 17.4375C21.4062 17.4375 22.5625 18.5938 22.5625 20C22.5625 21.4062 21.4062 22.5625 20 22.5625Z" fill="black"/>
<path fill-rule="evenodd" clip-rule="evenodd" d="M23.3226 12C24.6774 12 25.871 12.4516 26.7097 13.3226C27.5484 14.1613 28 15.3226 28 16.6774V23.3226C28 24.7097 27.5484 25.9032 26.6774 26.7419C25.8387 27.5484 24.6774 28 23.2903 28H16.7097C15.3871 28 14.2258 27.5806 13.3548 26.7419C12.4516 25.871 12 24.6774 12 23.2903V16.6774C12 13.871 13.871 12 16.6774 12H23.3226ZM25.6452 25.6774C26.2258 25.129 26.5806 24.3226 26.5806 23.3226V16.6774C26.5806 15.7419 26.2581 14.9355 25.7097 14.3548C25.129 13.7742 24.3226 13.4839 23.3548 13.4839H16.7097C15.7419 13.4839 14.9032 13.7742 14.3548 14.3226C13.7742 14.9032 13.4839 15.7097 13.4839 16.6774V23.2903C13.4839 24.2903 13.7742 25.0968 14.3548 25.6774C14.9355 26.2258 15.7419 26.5161 16.7097 26.5161H23.2903C24.2581 26.5161 25.0645 26.2258 25.6452 25.6774Z" fill="black"/>
</svg>
