<svg width="47" height="78" viewBox="0 0 47 78" fill="none" xmlns="http://www.w3.org/2000/svg">
<g filter="url(#filter0_d)">
<rect width="29" height="40" transform="translate(9 4)" fill="white"/>
<path d="M23.5 64L19.6029 39.25L27.3971 39.25L23.5 64Z" fill="white"/>
<mask id="path-2-inside-1" fill="white">
<path fill-rule="evenodd" clip-rule="evenodd" d="M33.9978 8.27274C33.999 8.25886 33.9996 8.24495 33.9996 8.23102C33.9996 6.99886 29.2991 6 23.5007 6C17.7024 6 13.0019 6.99884 13.0018 8.23099H13V15.0553H33.9978V8.27274Z"/>
</mask>
<path fill-rule="evenodd" clip-rule="evenodd" d="M33.9978 8.27274C33.999 8.25886 33.9996 8.24495 33.9996 8.23102C33.9996 6.99886 29.2991 6 23.5007 6C17.7024 6 13.0019 6.99884 13.0018 8.23099H13V15.0553H33.9978V8.27274Z" fill="black"/>
<path d="M33.9978 8.27274L33.8666 8.26141V8.27274H33.9978ZM13.0018 8.23099V8.36222H13.133L13.133 8.23099L13.0018 8.23099ZM13 8.23099V8.09975H12.8688V8.23099H13ZM13 15.0553H12.8688V15.1865H13V15.0553ZM33.9978 15.0553V15.1865H34.1291V15.0553H33.9978ZM33.8684 8.23102C33.8684 8.24118 33.8679 8.25132 33.8671 8.26145L34.1286 8.28402C34.1301 8.2664 34.1309 8.24873 34.1309 8.23102H33.8684ZM23.5007 6.13124C26.3936 6.13124 29.0087 6.3805 30.8973 6.78182C31.8426 6.98271 32.5989 7.22026 33.1156 7.47987C33.3742 7.60979 33.5662 7.74196 33.6918 7.87242C33.8169 8.00236 33.8684 8.12183 33.8684 8.23102H34.1309C34.1309 8.03217 34.0354 7.85089 33.8809 7.69036C33.7268 7.53036 33.5062 7.38234 33.2335 7.24534C32.6877 6.97112 31.9064 6.72793 30.9518 6.52508C29.0405 6.11893 26.4062 5.86876 23.5007 5.86876V6.13124ZM13.133 8.23099C13.133 8.1218 13.1845 8.00233 13.3097 7.8724C13.4353 7.74193 13.6272 7.60977 13.8858 7.47985C14.4026 7.22024 15.1588 6.98269 16.1042 6.78181C17.9927 6.3805 20.6079 6.13124 23.5007 6.13124V5.86876C20.5952 5.86876 17.9609 6.11892 16.0496 6.52507C15.0951 6.72791 14.3138 6.9711 13.768 7.24532C13.4953 7.38231 13.2747 7.53033 13.1206 7.69033C12.966 7.85086 12.8706 8.03213 12.8706 8.23098L13.133 8.23099ZM13 8.36222H13.0018V8.09975H13V8.36222ZM13.1312 15.0553V8.23099H12.8688V15.0553H13.1312ZM33.9978 14.924H13V15.1865H33.9978V14.924ZM33.8666 8.27274V15.0553H34.1291V8.27274H33.8666Z" fill="black" mask="url(#path-2-inside-1)"/>
<path d="M33.9322 15.0551C33.9322 15.1546 33.8747 15.2619 33.7419 15.3755C33.6095 15.4887 33.4104 15.6009 33.1477 15.7096C32.6229 15.9267 31.8596 16.1237 30.9115 16.2896C29.0163 16.6213 26.3955 16.8268 23.4989 16.8268C20.6023 16.8268 17.9815 16.6213 16.0864 16.2896C15.1383 16.1237 14.3749 15.9267 13.8501 15.7096C13.5875 15.6009 13.3883 15.4887 13.2559 15.3755C13.1231 15.2619 13.0656 15.1546 13.0656 15.0551C13.0656 14.9556 13.1231 14.8483 13.2559 14.7347C13.3883 14.6215 13.5875 14.5092 13.8501 14.4006C14.3749 14.1834 15.1383 13.9865 16.0864 13.8205C17.9815 13.4889 20.6023 13.2834 23.4989 13.2834C26.3955 13.2834 29.0163 13.4889 30.9115 13.8205C31.8596 13.9865 32.6229 14.1834 33.1477 14.4006C33.4104 14.5092 33.6095 14.6215 33.7419 14.7347C33.8747 14.8483 33.9322 14.9556 33.9322 15.0551Z" fill="white" stroke="black" stroke-width="0.131236"/>
<path d="M16.5297 10.1634L13.5898 7.64059L14.1804 7.3125L16.5297 10.1634Z" fill="white" stroke="black" stroke-width="0.131236"/>
<path d="M19.4073 9.97101L15.5586 6.85266L16.5429 6.6558L19.4073 9.97101Z" fill="white"/>
<path d="M22.7965 10.2907L17.6584 6.45895L19.5613 6.2621L22.7965 10.2907Z" fill="white"/>
<path d="M25.7381 10.0989L21.0049 6.19648L22.9078 6.13086L25.7381 10.0989Z" fill="white"/>
<path d="M28.6157 10.2907L24.5483 6.13086L26.32 6.19648L28.6157 10.2907Z" fill="white"/>
<path d="M31.1735 10.0989L27.8292 6.32771L29.0103 6.45895L31.1735 10.0989Z" fill="white"/>
<path d="M33.4756 10.6105L31.1101 6.78704L32.2912 7.11513L33.4756 10.6105Z" fill="white"/>
<path d="M19.4073 9.97101L15.5586 6.85266L16.5429 6.6558L19.4073 9.97101Z" stroke="black" stroke-width="0.131236"/>
<path d="M22.7965 10.2907L17.6584 6.45895L19.5613 6.2621L22.7965 10.2907Z" stroke="black" stroke-width="0.131236"/>
<path d="M25.7381 10.0989L21.0049 6.19648L22.9078 6.13086L25.7381 10.0989Z" stroke="black" stroke-width="0.131236"/>
<path d="M28.6157 10.2907L24.5483 6.13086L26.32 6.19648L28.6157 10.2907Z" stroke="black" stroke-width="0.131236"/>
<path d="M31.1735 10.0989L27.8292 6.32771L29.0103 6.45895L31.1735 10.0989Z" stroke="black" stroke-width="0.131236"/>
<path d="M33.4756 10.6105L31.1101 6.78704L32.2912 7.11513L33.4756 10.6105Z" stroke="black" stroke-width="0.131236"/>
<path d="M15.5784 11.0948L13.1945 14.6616L14.179 14.2678C14.7722 13.0784 15.5784 11.0948 15.5784 11.0948Z" fill="white"/>
<path d="M18.7845 10.5698L15.0976 14.0054L16.41 13.7429L18.7845 10.5698Z" fill="white"/>
<path d="M21.7936 10.3615L17.9192 13.5461L19.6253 13.4149L21.7936 10.3615Z" fill="white"/>
<path d="M24.3471 10.6576L20.7408 13.3492L22.8406 13.2741L24.3471 10.6576Z" fill="white"/>
<path d="M26.9717 10.5072L23.9861 13.2741L25.5846 13.2993L26.9717 10.5072Z" fill="white"/>
<path d="M29.2704 10.7353L26.712 13.3492L27.8932 13.4149L29.2704 10.7353Z" fill="white"/>
<path d="M31.3895 10.1932L29.29 13.5496L30.2471 13.6926L31.3895 10.1932Z" fill="white"/>
<path d="M33.802 11.3185L31.3949 13.9026L32.0962 14.0416L33.802 11.3185Z" fill="white"/>
<path d="M15.5784 11.0948L13.1945 14.6616L14.179 14.2678C14.7722 13.0784 15.5784 11.0948 15.5784 11.0948Z" stroke="black" stroke-width="0.131236"/>
<path d="M18.7845 10.5698L15.0976 14.0054L16.41 13.7429L18.7845 10.5698Z" stroke="black" stroke-width="0.131236"/>
<path d="M21.7936 10.3615L17.9192 13.5461L19.6253 13.4149L21.7936 10.3615Z" stroke="black" stroke-width="0.131236"/>
<path d="M24.3471 10.6576L20.7408 13.3492L22.8406 13.2741L24.3471 10.6576Z" stroke="black" stroke-width="0.131236"/>
<path d="M26.9717 10.5072L23.9861 13.2741L25.5846 13.2993L26.9717 10.5072Z" stroke="black" stroke-width="0.131236"/>
<path d="M29.2704 10.7353L26.712 13.3492L27.8932 13.4149L29.2704 10.7353Z" stroke="black" stroke-width="0.131236"/>
<path d="M31.3895 10.1932L29.29 13.5496L30.2471 13.6926L31.3895 10.1932Z" stroke="black" stroke-width="0.131236"/>
<path d="M33.802 11.3185L31.3949 13.9026L32.0962 14.0416L33.802 11.3185Z" stroke="black" stroke-width="0.131236"/>
<ellipse cx="23.4985" cy="14.9899" rx="6.95553" ry="0.7218" fill="black"/>
<mask id="path-9-inside-2" fill="white">
<path fill-rule="evenodd" clip-rule="evenodd" d="M12.9983 39.2024C12.9983 39.2025 12.9983 39.2025 12.9983 39.2026C12.9983 40.4347 17.6988 41.4336 23.4972 41.4336C29.2956 41.4336 33.9961 40.4347 33.9961 39.2026C33.9961 39.2004 33.9961 39.1983 33.9961 39.1962V32.3782H12.9982V39.2024H12.9983Z"/>
</mask>
<path fill-rule="evenodd" clip-rule="evenodd" d="M12.9983 39.2024C12.9983 39.2025 12.9983 39.2025 12.9983 39.2026C12.9983 40.4347 17.6988 41.4336 23.4972 41.4336C29.2956 41.4336 33.9961 40.4347 33.9961 39.2026C33.9961 39.2004 33.9961 39.1983 33.9961 39.1962V32.3782H12.9982V39.2024H12.9983Z" fill="black"/>
<path d="M12.9983 39.2024H13.1295V39.0712H12.9983V39.2024ZM33.9961 39.1962H33.8648L33.8648 39.1979L33.9961 39.1962ZM33.9961 32.3782H34.1273V32.2469H33.9961V32.3782ZM12.9982 32.3782V32.2469H12.867V32.3782H12.9982ZM12.9982 39.2024H12.867V39.3337H12.9982V39.2024ZM13.1295 39.2026V39.2026V39.2026V39.2026V39.2026C13.1295 39.2026 13.1295 39.2026 13.1295 39.2026C13.1295 39.2026 13.1295 39.2026 13.1295 39.2026C13.1295 39.2026 13.1295 39.2026 13.1295 39.2026C13.1295 39.2026 13.1295 39.2026 13.1295 39.2026C13.1295 39.2026 13.1295 39.2026 13.1295 39.2026C13.1295 39.2026 13.1295 39.2026 13.1295 39.2026C13.1295 39.2026 13.1295 39.2026 13.1295 39.2026C13.1295 39.2026 13.1295 39.2026 13.1295 39.2026C13.1295 39.2026 13.1295 39.2026 13.1295 39.2026C13.1295 39.2026 13.1295 39.2026 13.1295 39.2026C13.1295 39.2026 13.1295 39.2026 13.1295 39.2026C13.1295 39.2026 13.1295 39.2026 13.1295 39.2026C13.1295 39.2026 13.1295 39.2026 13.1295 39.2026V39.2026V39.2026V39.2026V39.2026V39.2026V39.2026V39.2026C13.1295 39.2026 13.1295 39.2026 13.1295 39.2026C13.1295 39.2026 13.1295 39.2026 13.1295 39.2026C13.1295 39.2026 13.1295 39.2026 13.1295 39.2026C13.1295 39.2026 13.1295 39.2026 13.1295 39.2026C13.1295 39.2026 13.1295 39.2026 13.1295 39.2026C13.1295 39.2026 13.1295 39.2026 13.1295 39.2026C13.1295 39.2026 13.1295 39.2026 13.1295 39.2026C13.1295 39.2026 13.1295 39.2026 13.1295 39.2026C13.1295 39.2026 13.1295 39.2026 13.1295 39.2026C13.1295 39.2026 13.1295 39.2026 13.1295 39.2026C13.1295 39.2026 13.1295 39.2026 13.1295 39.2026C13.1295 39.2026 13.1295 39.2026 13.1295 39.2026C13.1295 39.2026 13.1295 39.2026 13.1295 39.2026V39.2026V39.2026V39.2026V39.2026V39.2026V39.2026V39.2026C13.1295 39.2026 13.1295 39.2026 13.1295 39.2026C13.1295 39.2026 13.1295 39.2026 13.1295 39.2026C13.1295 39.2026 13.1295 39.2026 13.1295 39.2026C13.1295 39.2026 13.1295 39.2026 13.1295 39.2026C13.1295 39.2026 13.1295 39.2026 13.1295 39.2026C13.1295 39.2026 13.1295 39.2026 13.1295 39.2026C13.1295 39.2026 13.1295 39.2026 13.1295 39.2026C13.1295 39.2026 13.1295 39.2026 13.1295 39.2026C13.1295 39.2026 13.1295 39.2026 13.1295 39.2026C13.1295 39.2026 13.1295 39.2026 13.1295 39.2026C13.1295 39.2026 13.1295 39.2026 13.1295 39.2026C13.1295 39.2026 13.1295 39.2026 13.1295 39.2026C13.1295 39.2026 13.1295 39.2026 13.1295 39.2026V39.2026V39.2026V39.2026V39.2026V39.2026V39.2026V39.2026C13.1295 39.2026 13.1295 39.2026 13.1295 39.2026C13.1295 39.2026 13.1295 39.2026 13.1295 39.2026C13.1295 39.2026 13.1295 39.2026 13.1295 39.2026C13.1295 39.2026 13.1295 39.2026 13.1295 39.2026C13.1295 39.2026 13.1295 39.2026 13.1295 39.2026C13.1295 39.2026 13.1295 39.2026 13.1295 39.2026C13.1295 39.2026 13.1295 39.2026 13.1295 39.2026C13.1295 39.2026 13.1295 39.2026 13.1295 39.2026C13.1295 39.2026 13.1295 39.2026 13.1295 39.2026C13.1295 39.2026 13.1295 39.2026 13.1295 39.2026C13.1295 39.2026 13.1295 39.2026 13.1295 39.2026C13.1295 39.2026 13.1295 39.2026 13.1295 39.2026C13.1295 39.2026 13.1295 39.2026 13.1295 39.2026V39.2026V39.2026V39.2026V39.2026V39.2026V39.2026V39.2026C13.1295 39.2026 13.1295 39.2026 13.1295 39.2026C13.1295 39.2026 13.1295 39.2026 13.1295 39.2026C13.1295 39.2026 13.1295 39.2026 13.1295 39.2026C13.1295 39.2026 13.1295 39.2026 13.1295 39.2026C13.1295 39.2026 13.1295 39.2026 13.1295 39.2026C13.1295 39.2026 13.1295 39.2026 13.1295 39.2026C13.1295 39.2026 13.1295 39.2026 13.1295 39.2026C13.1295 39.2026 13.1295 39.2026 13.1295 39.2026C13.1295 39.2026 13.1295 39.2026 13.1295 39.2026C13.1295 39.2026 13.1295 39.2026 13.1295 39.2026C13.1295 39.2026 13.1295 39.2026 13.1295 39.2026C13.1295 39.2026 13.1295 39.2026 13.1295 39.2026C13.1295 39.2026 13.1295 39.2026 13.1295 39.2026V39.2026V39.2026V39.2026V39.2025V39.2025V39.2025V39.2025C13.1295 39.2025 13.1295 39.2025 13.1295 39.2025C13.1295 39.2025 13.1295 39.2025 13.1295 39.2025C13.1295 39.2025 13.1295 39.2025 13.1295 39.2025C13.1295 39.2025 13.1295 39.2025 13.1295 39.2025C13.1295 39.2025 13.1295 39.2025 13.1295 39.2025C13.1295 39.2025 13.1295 39.2025 13.1295 39.2025C13.1295 39.2025 13.1295 39.2025 13.1295 39.2025C13.1295 39.2025 13.1295 39.2025 13.1295 39.2025C13.1295 39.2025 13.1295 39.2025 13.1295 39.2025C13.1295 39.2025 13.1295 39.2025 13.1295 39.2025C13.1295 39.2025 13.1295 39.2025 13.1295 39.2025C13.1295 39.2025 13.1295 39.2025 13.1295 39.2025C13.1295 39.2025 13.1295 39.2025 13.1295 39.2025V39.2025V39.2025V39.2025V39.2025V39.2025V39.2025C13.1295 39.2025 13.1295 39.2025 13.1295 39.2025C13.1295 39.2025 13.1295 39.2025 13.1295 39.2025C13.1295 39.2025 13.1295 39.2025 13.1295 39.2025C13.1295 39.2025 13.1295 39.2025 13.1295 39.2025C13.1295 39.2025 13.1295 39.2025 13.1295 39.2025C13.1295 39.2025 13.1295 39.2025 13.1295 39.2025C13.1295 39.2025 13.1295 39.2025 13.1295 39.2025C13.1295 39.2025 13.1295 39.2025 13.1295 39.2025C13.1295 39.2025 13.1295 39.2025 13.1295 39.2025C13.1295 39.2025 13.1295 39.2025 13.1295 39.2025C13.1295 39.2025 13.1295 39.2025 13.1295 39.2025C13.1295 39.2025 13.1295 39.2025 13.1295 39.2025C13.1295 39.2025 13.1295 39.2025 13.1295 39.2025V39.2025V39.2025V39.2025V39.2025V39.2025V39.2025V39.2025C13.1295 39.2025 13.1295 39.2025 13.1295 39.2025C13.1295 39.2025 13.1295 39.2025 13.1295 39.2025C13.1295 39.2025 13.1295 39.2025 13.1295 39.2025C13.1295 39.2025 13.1295 39.2025 13.1295 39.2025C13.1295 39.2025 13.1295 39.2025 13.1295 39.2025C13.1295 39.2025 13.1295 39.2025 13.1295 39.2025C13.1295 39.2025 13.1295 39.2025 13.1295 39.2025C13.1295 39.2025 13.1295 39.2025 13.1295 39.2025C13.1295 39.2025 13.1295 39.2025 13.1295 39.2025C13.1295 39.2025 13.1295 39.2025 13.1295 39.2025C13.1295 39.2025 13.1295 39.2025 13.1295 39.2025C13.1295 39.2025 13.1295 39.2025 13.1295 39.2025C13.1295 39.2025 13.1295 39.2025 13.1295 39.2025V39.2025V39.2025V39.2025V39.2025V39.2025V39.2025V39.2025C13.1295 39.2025 13.1295 39.2025 13.1295 39.2025C13.1295 39.2025 13.1295 39.2025 13.1295 39.2025C13.1295 39.2025 13.1295 39.2025 13.1295 39.2025C13.1295 39.2025 13.1295 39.2025 13.1295 39.2025C13.1295 39.2025 13.1295 39.2025 13.1295 39.2025C13.1295 39.2025 13.1295 39.2025 13.1295 39.2025C13.1295 39.2025 13.1295 39.2025 13.1295 39.2025C13.1295 39.2025 13.1295 39.2025 13.1295 39.2025C13.1295 39.2025 13.1295 39.2025 13.1295 39.2025C13.1295 39.2025 13.1295 39.2025 13.1295 39.2025C13.1295 39.2025 13.1295 39.2025 13.1295 39.2025C13.1295 39.2025 13.1295 39.2025 13.1295 39.2025V39.2025V39.2025V39.2025V39.2025V39.2025V39.2025V39.2025C13.1295 39.2025 13.1295 39.2025 13.1295 39.2025C13.1295 39.2025 13.1295 39.2025 13.1295 39.2025C13.1295 39.2025 13.1295 39.2025 13.1295 39.2025C13.1295 39.2025 13.1295 39.2025 13.1295 39.2025C13.1295 39.2025 13.1295 39.2025 13.1295 39.2025C13.1295 39.2025 13.1295 39.2025 13.1295 39.2025C13.1295 39.2025 13.1295 39.2025 13.1295 39.2025C13.1295 39.2025 13.1295 39.2025 13.1295 39.2025C13.1295 39.2025 13.1295 39.2025 13.1295 39.2025C13.1295 39.2025 13.1295 39.2025 13.1295 39.2025C13.1295 39.2025 13.1295 39.2025 13.1295 39.2025C13.1295 39.2025 13.1295 39.2025 13.1295 39.2025C13.1295 39.2025 13.1295 39.2025 13.1295 39.2025V39.2025V39.2025V39.2025V39.2025V39.2025V39.2025C13.1295 39.2025 13.1295 39.2025 13.1295 39.2025C13.1295 39.2025 13.1295 39.2025 13.1295 39.2025C13.1295 39.2025 13.1295 39.2025 13.1295 39.2025C13.1295 39.2025 13.1295 39.2025 13.1295 39.2025C13.1295 39.2025 13.1295 39.2025 13.1295 39.2025C13.1295 39.2025 13.1295 39.2025 13.1295 39.2025C13.1295 39.2025 13.1295 39.2025 13.1295 39.2025C13.1295 39.2025 13.1295 39.2025 13.1295 39.2025C13.1295 39.2025 13.1295 39.2025 13.1295 39.2025C13.1295 39.2025 13.1295 39.2025 13.1295 39.2025C13.1295 39.2025 13.1295 39.2025 13.1295 39.2025C13.1295 39.2025 13.1295 39.2025 13.1295 39.2025C13.1295 39.2025 13.1295 39.2025 13.1295 39.2025V39.2025V39.2025V39.2025V39.2025V39.2025V39.2025V39.2025C13.1295 39.2025 13.1295 39.2025 13.1295 39.2025C13.1295 39.2025 13.1295 39.2025 13.1295 39.2025C13.1295 39.2025 13.1295 39.2025 13.1295 39.2025C13.1295 39.2025 13.1295 39.2025 13.1295 39.2025C13.1295 39.2025 13.1295 39.2025 13.1295 39.2025C13.1295 39.2025 13.1295 39.2025 13.1295 39.2025C13.1295 39.2025 13.1295 39.2025 13.1295 39.2025C13.1295 39.2025 13.1295 39.2025 13.1295 39.2025C13.1295 39.2025 13.1295 39.2025 13.1295 39.2025C13.1295 39.2025 13.1295 39.2025 13.1295 39.2025C13.1295 39.2025 13.1295 39.2025 13.1295 39.2025C13.1295 39.2025 13.1295 39.2025 13.1295 39.2025V39.2025V39.2025V39.2025V39.2025V39.2025V39.2025V39.2025C13.1295 39.2025 13.1295 39.2025 13.1295 39.2025C13.1295 39.2025 13.1295 39.2025 13.1295 39.2025C13.1295 39.2025 13.1295 39.2025 13.1295 39.2025C13.1295 39.2025 13.1295 39.2025 13.1295 39.2025C13.1295 39.2025 13.1295 39.2025 13.1295 39.2025C13.1295 39.2025 13.1295 39.2025 13.1295 39.2025C13.1295 39.2025 13.1295 39.2025 13.1295 39.2025C13.1295 39.2025 13.1295 39.2025 13.1295 39.2025C13.1295 39.2025 13.1295 39.2025 13.1295 39.2025C13.1295 39.2025 13.1295 39.2025 13.1295 39.2025C13.1295 39.2025 13.1295 39.2025 13.1295 39.2025C13.1295 39.2025 13.1295 39.2025 13.1295 39.2025C13.1295 39.2025 13.1295 39.2025 13.1295 39.2025V39.2025V39.2025V39.2025V39.2025V39.2025V39.2025C13.1295 39.2025 13.1295 39.2025 13.1295 39.2025C13.1295 39.2025 13.1295 39.2025 13.1295 39.2025C13.1295 39.2025 13.1295 39.2025 13.1295 39.2025C13.1295 39.2025 13.1295 39.2025 13.1295 39.2025C13.1295 39.2025 13.1295 39.2025 13.1295 39.2025C13.1295 39.2025 13.1295 39.2025 13.1295 39.2025C13.1295 39.2025 13.1295 39.2025 13.1295 39.2025C13.1295 39.2025 13.1295 39.2025 13.1295 39.2025C13.1295 39.2025 13.1295 39.2025 13.1295 39.2025C13.1295 39.2025 13.1295 39.2025 13.1295 39.2025C13.1295 39.2025 13.1295 39.2025 13.1295 39.2025C13.1295 39.2025 13.1295 39.2025 13.1295 39.2025C13.1295 39.2025 13.1295 39.2025 13.1295 39.2025V39.2025V39.2025V39.2025V39.2025V39.2025V39.2025V39.2025C13.1295 39.2025 13.1295 39.2025 13.1295 39.2025C13.1295 39.2025 13.1295 39.2025 13.1295 39.2025C13.1295 39.2025 13.1295 39.2025 13.1295 39.2025C13.1295 39.2025 13.1295 39.2025 13.1295 39.2025C13.1295 39.2025 13.1295 39.2025 13.1295 39.2025C13.1295 39.2025 13.1295 39.2025 13.1295 39.2025C13.1295 39.2025 13.1295 39.2025 13.1295 39.2025C13.1295 39.2025 13.1295 39.2025 13.1295 39.2025C13.1295 39.2025 13.1295 39.2025 13.1295 39.2025C13.1295 39.2025 13.1295 39.2025 13.1295 39.2025C13.1295 39.2025 13.1295 39.2025 13.1295 39.2025C13.1295 39.2025 13.1295 39.2025 13.1295 39.2025V39.2025V39.2025V39.2025V39.2025V39.2025V39.2025V39.2025C13.1295 39.2025 13.1295 39.2025 13.1295 39.2025C13.1295 39.2025 13.1295 39.2025 13.1295 39.2025C13.1295 39.2025 13.1295 39.2025 13.1295 39.2025C13.1295 39.2025 13.1295 39.2025 13.1295 39.2025C13.1295 39.2025 13.1295 39.2025 13.1295 39.2025C13.1295 39.2025 13.1295 39.2025 13.1295 39.2025C13.1295 39.2025 13.1295 39.2025 13.1295 39.2025C13.1295 39.2025 13.1295 39.2025 13.1295 39.2025C13.1295 39.2025 13.1295 39.2025 13.1295 39.2025C13.1295 39.2025 13.1295 39.2025 13.1295 39.2025C13.1295 39.2025 13.1295 39.2025 13.1295 39.2025C13.1295 39.2025 13.1295 39.2025 13.1295 39.2025C13.1295 39.2025 13.1295 39.2025 13.1295 39.2025V39.2025V39.2025V39.2025V39.2025V39.2025V39.2025C13.1295 39.2025 13.1295 39.2025 13.1295 39.2025C13.1295 39.2025 13.1295 39.2025 13.1295 39.2025C13.1295 39.2025 13.1295 39.2025 13.1295 39.2025C13.1295 39.2025 13.1295 39.2025 13.1295 39.2025C13.1295 39.2025 13.1295 39.2025 13.1295 39.2025C13.1295 39.2025 13.1295 39.2025 13.1295 39.2025C13.1295 39.2025 13.1295 39.2025 13.1295 39.2025C13.1295 39.2025 13.1295 39.2025 13.1295 39.2025C13.1295 39.2025 13.1295 39.2025 13.1295 39.2025C13.1295 39.2025 13.1295 39.2025 13.1295 39.2025C13.1295 39.2025 13.1295 39.2025 13.1295 39.2025C13.1295 39.2025 13.1295 39.2025 13.1295 39.2025C13.1295 39.2025 13.1295 39.2025 13.1295 39.2025V39.2025V39.2025V39.2025V39.2025V39.2025V39.2025V39.2025C13.1295 39.2025 13.1295 39.2025 13.1295 39.2025C13.1295 39.2025 13.1295 39.2025 13.1295 39.2025C13.1295 39.2025 13.1295 39.2025 13.1295 39.2025C13.1295 39.2025 13.1295 39.2025 13.1295 39.2025C13.1295 39.2025 13.1295 39.2025 13.1295 39.2025C13.1295 39.2025 13.1295 39.2025 13.1295 39.2025C13.1295 39.2025 13.1295 39.2025 13.1295 39.2025C13.1295 39.2025 13.1295 39.2025 13.1295 39.2025C13.1295 39.2025 13.1295 39.2025 13.1295 39.2025C13.1295 39.2025 13.1295 39.2025 13.1295 39.2025C13.1295 39.2025 13.1295 39.2025 13.1295 39.2025C13.1295 39.2025 13.1295 39.2025 13.1295 39.2025V39.2025V39.2025V39.2025V39.2025V39.2025V39.2025V39.2025C13.1295 39.2025 13.1295 39.2025 13.1295 39.2025C13.1295 39.2025 13.1295 39.2025 13.1295 39.2025C13.1295 39.2025 13.1295 39.2025 13.1295 39.2025C13.1295 39.2025 13.1295 39.2025 13.1295 39.2025C13.1295 39.2025 13.1295 39.2025 13.1295 39.2025C13.1295 39.2025 13.1295 39.2025 13.1295 39.2025C13.1295 39.2025 13.1295 39.2025 13.1295 39.2025C13.1295 39.2025 13.1295 39.2025 13.1295 39.2025C13.1295 39.2025 13.1295 39.2025 13.1295 39.2025C13.1295 39.2025 13.1295 39.2025 13.1295 39.2025C13.1295 39.2025 13.1295 39.2025 13.1295 39.2025C13.1295 39.2025 13.1295 39.2025 13.1295 39.2025C13.1295 39.2025 13.1295 39.2025 13.1295 39.2025V39.2025V39.2025V39.2025V39.2025V39.2025V39.2025V39.2025C13.1295 39.2025 13.1295 39.2025 13.1295 39.2025C13.1295 39.2025 13.1295 39.2025 13.1295 39.2025C13.1295 39.2025 13.1295 39.2025 13.1295 39.2025C13.1295 39.2025 13.1295 39.2025 13.1295 39.2025C13.1295 39.2025 13.1295 39.2025 13.1295 39.2025C13.1295 39.2025 13.1295 39.2025 13.1295 39.2025C13.1295 39.2025 13.1295 39.2025 13.1295 39.2025C13.1295 39.2025 13.1295 39.2025 13.1295 39.2025C13.1295 39.2025 13.1295 39.2025 13.1295 39.2025C13.1295 39.2025 13.1295 39.2025 13.1295 39.2025C13.1295 39.2025 13.1295 39.2025 13.1295 39.2025C13.1295 39.2025 13.1295 39.2025 13.1295 39.2025C13.1295 39.2025 13.1295 39.2025 13.1295 39.2025V39.2025V39.2025V39.2025V39.2025V39.2025V39.2025C13.1295 39.2025 13.1295 39.2025 13.1295 39.2025C13.1295 39.2025 13.1295 39.2025 13.1295 39.2025C13.1295 39.2025 13.1295 39.2025 13.1295 39.2025C13.1295 39.2025 13.1295 39.2025 13.1295 39.2025C13.1295 39.2025 13.1295 39.2025 13.1295 39.2025C13.1295 39.2025 13.1295 39.2025 13.1295 39.2025C13.1295 39.2025 13.1295 39.2025 13.1295 39.2025C13.1295 39.2025 13.1295 39.2025 13.1295 39.2025C13.1295 39.2025 13.1295 39.2025 13.1295 39.2025C13.1295 39.2025 13.1295 39.2025 13.1295 39.2025C13.1295 39.2025 13.1295 39.2025 13.1295 39.2025C13.1295 39.2025 13.1295 39.2025 13.1295 39.2025C13.1295 39.2025 13.1295 39.2025 13.1295 39.2025V39.2025V39.2025V39.2025V39.2025V39.2025V39.2025V39.2025C13.1295 39.2025 13.1295 39.2025 13.1295 39.2025C13.1295 39.2025 13.1295 39.2025 13.1295 39.2025C13.1295 39.2025 13.1295 39.2025 13.1295 39.2025C13.1295 39.2025 13.1295 39.2025 13.1295 39.2025C13.1295 39.2025 13.1295 39.2025 13.1295 39.2025C13.1295 39.2025 13.1295 39.2025 13.1295 39.2025C13.1295 39.2025 13.1295 39.2025 13.1295 39.2025C13.1295 39.2025 13.1295 39.2025 13.1295 39.2025C13.1295 39.2025 13.1295 39.2025 13.1295 39.2025C13.1295 39.2025 13.1295 39.2025 13.1295 39.2025C13.1295 39.2025 13.1295 39.2025 13.1295 39.2025C13.1295 39.2025 13.1295 39.2025 13.1295 39.2025C13.1295 39.2025 13.1295 39.2025 13.1295 39.2025V39.2025V39.2025V39.2025V39.2025V39.2025V39.2025V39.2025C13.1295 39.2025 13.1295 39.2025 13.1295 39.2025C13.1295 39.2025 13.1295 39.2025 13.1295 39.2025C13.1295 39.2025 13.1295 39.2025 13.1295 39.2025C13.1295 39.2025 13.1295 39.2025 13.1295 39.2025C13.1295 39.2025 13.1295 39.2025 13.1295 39.2025C13.1295 39.2025 13.1295 39.2025 13.1295 39.2025C13.1295 39.2025 13.1295 39.2025 13.1295 39.2025C13.1295 39.2025 13.1295 39.2025 13.1295 39.2025C13.1295 39.2025 13.1295 39.2025 13.1295 39.2025C13.1295 39.2025 13.1295 39.2025 13.1295 39.2025C13.1295 39.2025 13.1295 39.2025 13.1295 39.2025C13.1295 39.2025 13.1295 39.2025 13.1295 39.2025C13.1295 39.2025 13.1295 39.2025 13.1295 39.2025V39.2025V39.2025V39.2025V39.2025V39.2025V39.2025V39.2025C13.1295 39.2025 13.1295 39.2025 13.1295 39.2025C13.1295 39.2025 13.1295 39.2025 13.1295 39.2025C13.1295 39.2025 13.1295 39.2025 13.1295 39.2025C13.1295 39.2025 13.1295 39.2025 13.1295 39.2025C13.1295 39.2025 13.1295 39.2025 13.1295 39.2025C13.1295 39.2025 13.1295 39.2025 13.1295 39.2025C13.1295 39.2025 13.1295 39.2025 13.1295 39.2025C13.1295 39.2025 13.1295 39.2025 13.1295 39.2025C13.1295 39.2025 13.1295 39.2025 13.1295 39.2025C13.1295 39.2025 13.1295 39.2025 13.1295 39.2025C13.1295 39.2025 13.1295 39.2025 13.1295 39.2025C13.1295 39.2025 13.1295 39.2025 13.1295 39.2025C13.1295 39.2025 13.1295 39.2025 13.1295 39.2025V39.2025V39.2025V39.2025V39.2025V39.2025V39.2025V39.2025C13.1295 39.2025 13.1295 39.2025 13.1295 39.2025C13.1295 39.2025 13.1295 39.2025 13.1295 39.2025C13.1295 39.2025 13.1295 39.2025 13.1295 39.2025C13.1295 39.2025 13.1295 39.2025 13.1295 39.2025C13.1295 39.2025 13.1295 39.2025 13.1295 39.2025C13.1295 39.2025 13.1295 39.2025 13.1295 39.2025C13.1295 39.2025 13.1295 39.2025 13.1295 39.2025C13.1295 39.2025 13.1295 39.2025 13.1295 39.2025C13.1295 39.2025 13.1295 39.2025 13.1295 39.2025C13.1295 39.2025 13.1295 39.2025 13.1295 39.2025C13.1295 39.2025 13.1295 39.2025 13.1295 39.2025C13.1295 39.2025 13.1295 39.2025 13.1295 39.2025C13.1295 39.2025 13.1295 39.2025 13.1295 39.2025V39.2025V39.2025V39.2025V39.2025V39.2025V39.2025V39.2025C13.1295 39.2025 13.1295 39.2025 13.1295 39.2025C13.1295 39.2025 13.1295 39.2025 13.1295 39.2025C13.1295 39.2025 13.1295 39.2025 13.1295 39.2025C13.1295 39.2025 13.1295 39.2025 13.1295 39.2025C13.1295 39.2025 13.1295 39.2025 13.1295 39.2025C13.1295 39.2024 13.1295 39.2024 13.1295 39.2024C13.1295 39.2024 13.1295 39.2024 13.1295 39.2024C13.1295 39.2024 13.1295 39.2024 13.1295 39.2024C13.1295 39.2024 13.1295 39.2024 13.1295 39.2024C13.1295 39.2024 13.1295 39.2024 13.1295 39.2024C13.1295 39.2024 13.1295 39.2024 13.1295 39.2024C13.1295 39.2024 13.1295 39.2024 13.1295 39.2024C13.1295 39.2024 13.1295 39.2024 13.1295 39.2024V39.2024V39.2024V39.2024V39.2024H12.867V39.2024V39.2024V39.2024V39.2024C12.867 39.2024 12.867 39.2024 12.867 39.2024C12.867 39.2024 12.867 39.2024 12.867 39.2024C12.867 39.2024 12.867 39.2024 12.867 39.2024C12.867 39.2024 12.867 39.2024 12.867 39.2024C12.867 39.2024 12.867 39.2024 12.867 39.2024C12.867 39.2024 12.867 39.2024 12.867 39.2024C12.867 39.2024 12.867 39.2024 12.867 39.2024C12.867 39.2024 12.867 39.2024 12.867 39.2025C12.867 39.2025 12.867 39.2025 12.867 39.2025C12.867 39.2025 12.867 39.2025 12.867 39.2025C12.867 39.2025 12.867 39.2025 12.867 39.2025C12.867 39.2025 12.867 39.2025 12.867 39.2025C12.867 39.2025 12.867 39.2025 12.867 39.2025V39.2025V39.2025V39.2025V39.2025V39.2025V39.2025V39.2025C12.867 39.2025 12.867 39.2025 12.867 39.2025C12.867 39.2025 12.867 39.2025 12.867 39.2025C12.867 39.2025 12.867 39.2025 12.867 39.2025C12.867 39.2025 12.867 39.2025 12.867 39.2025C12.867 39.2025 12.867 39.2025 12.867 39.2025C12.867 39.2025 12.867 39.2025 12.867 39.2025C12.867 39.2025 12.867 39.2025 12.867 39.2025C12.867 39.2025 12.867 39.2025 12.867 39.2025C12.867 39.2025 12.867 39.2025 12.867 39.2025C12.867 39.2025 12.867 39.2025 12.867 39.2025C12.867 39.2025 12.867 39.2025 12.867 39.2025C12.867 39.2025 12.867 39.2025 12.867 39.2025C12.867 39.2025 12.867 39.2025 12.867 39.2025V39.2025V39.2025V39.2025V39.2025V39.2025V39.2025V39.2025C12.867 39.2025 12.867 39.2025 12.867 39.2025C12.867 39.2025 12.867 39.2025 12.867 39.2025C12.867 39.2025 12.867 39.2025 12.867 39.2025C12.867 39.2025 12.867 39.2025 12.867 39.2025C12.867 39.2025 12.867 39.2025 12.867 39.2025C12.867 39.2025 12.867 39.2025 12.867 39.2025C12.867 39.2025 12.867 39.2025 12.867 39.2025C12.867 39.2025 12.867 39.2025 12.867 39.2025C12.867 39.2025 12.867 39.2025 12.867 39.2025C12.867 39.2025 12.867 39.2025 12.867 39.2025C12.867 39.2025 12.867 39.2025 12.867 39.2025C12.867 39.2025 12.867 39.2025 12.867 39.2025C12.867 39.2025 12.867 39.2025 12.867 39.2025V39.2025V39.2025V39.2025V39.2025V39.2025V39.2025V39.2025C12.867 39.2025 12.867 39.2025 12.867 39.2025C12.867 39.2025 12.867 39.2025 12.867 39.2025C12.867 39.2025 12.867 39.2025 12.867 39.2025C12.867 39.2025 12.867 39.2025 12.867 39.2025C12.867 39.2025 12.867 39.2025 12.867 39.2025C12.867 39.2025 12.867 39.2025 12.867 39.2025C12.867 39.2025 12.867 39.2025 12.867 39.2025C12.867 39.2025 12.867 39.2025 12.867 39.2025C12.867 39.2025 12.867 39.2025 12.867 39.2025C12.867 39.2025 12.867 39.2025 12.867 39.2025C12.867 39.2025 12.867 39.2025 12.867 39.2025C12.867 39.2025 12.867 39.2025 12.867 39.2025C12.867 39.2025 12.867 39.2025 12.867 39.2025V39.2025V39.2025V39.2025V39.2025V39.2025V39.2025V39.2025C12.867 39.2025 12.867 39.2025 12.867 39.2025C12.867 39.2025 12.867 39.2025 12.867 39.2025C12.867 39.2025 12.867 39.2025 12.867 39.2025C12.867 39.2025 12.867 39.2025 12.867 39.2025C12.867 39.2025 12.867 39.2025 12.867 39.2025C12.867 39.2025 12.867 39.2025 12.867 39.2025C12.867 39.2025 12.867 39.2025 12.867 39.2025C12.867 39.2025 12.867 39.2025 12.867 39.2025C12.867 39.2025 12.867 39.2025 12.867 39.2025C12.867 39.2025 12.867 39.2025 12.867 39.2025C12.867 39.2025 12.867 39.2025 12.867 39.2025C12.867 39.2025 12.867 39.2025 12.867 39.2025C12.867 39.2025 12.867 39.2025 12.867 39.2025V39.2025V39.2025V39.2025V39.2025V39.2025V39.2025V39.2025C12.867 39.2025 12.867 39.2025 12.867 39.2025C12.867 39.2025 12.867 39.2025 12.867 39.2025C12.867 39.2025 12.867 39.2025 12.867 39.2025C12.867 39.2025 12.867 39.2025 12.867 39.2025C12.867 39.2025 12.867 39.2025 12.867 39.2025C12.867 39.2025 12.867 39.2025 12.867 39.2025C12.867 39.2025 12.867 39.2025 12.867 39.2025C12.867 39.2025 12.867 39.2025 12.867 39.2025C12.867 39.2025 12.867 39.2025 12.867 39.2025C12.867 39.2025 12.867 39.2025 12.867 39.2025C12.867 39.2025 12.867 39.2025 12.867 39.2025C12.867 39.2025 12.867 39.2025 12.867 39.2025C12.867 39.2025 12.867 39.2025 12.867 39.2025V39.2025V39.2025V39.2025V39.2025V39.2025V39.2025C12.867 39.2025 12.867 39.2025 12.867 39.2025C12.867 39.2025 12.867 39.2025 12.867 39.2025C12.867 39.2025 12.867 39.2025 12.867 39.2025C12.867 39.2025 12.867 39.2025 12.867 39.2025C12.867 39.2025 12.867 39.2025 12.867 39.2025C12.867 39.2025 12.867 39.2025 12.867 39.2025C12.867 39.2025 12.867 39.2025 12.867 39.2025C12.867 39.2025 12.867 39.2025 12.867 39.2025C12.867 39.2025 12.867 39.2025 12.867 39.2025C12.867 39.2025 12.867 39.2025 12.867 39.2025C12.867 39.2025 12.867 39.2025 12.867 39.2025C12.867 39.2025 12.867 39.2025 12.867 39.2025C12.867 39.2025 12.867 39.2025 12.867 39.2025V39.2025V39.2025V39.2025V39.2025V39.2025V39.2025V39.2025C12.867 39.2025 12.867 39.2025 12.867 39.2025C12.867 39.2025 12.867 39.2025 12.867 39.2025C12.867 39.2025 12.867 39.2025 12.867 39.2025C12.867 39.2025 12.867 39.2025 12.867 39.2025C12.867 39.2025 12.867 39.2025 12.867 39.2025C12.867 39.2025 12.867 39.2025 12.867 39.2025C12.867 39.2025 12.867 39.2025 12.867 39.2025C12.867 39.2025 12.867 39.2025 12.867 39.2025C12.867 39.2025 12.867 39.2025 12.867 39.2025C12.867 39.2025 12.867 39.2025 12.867 39.2025C12.867 39.2025 12.867 39.2025 12.867 39.2025C12.867 39.2025 12.867 39.2025 12.867 39.2025C12.867 39.2025 12.867 39.2025 12.867 39.2025V39.2025V39.2025V39.2025V39.2025V39.2025V39.2025V39.2025C12.867 39.2025 12.867 39.2025 12.867 39.2025C12.867 39.2025 12.867 39.2025 12.867 39.2025C12.867 39.2025 12.867 39.2025 12.867 39.2025C12.867 39.2025 12.867 39.2025 12.867 39.2025C12.867 39.2025 12.867 39.2025 12.867 39.2025C12.867 39.2025 12.867 39.2025 12.867 39.2025C12.867 39.2025 12.867 39.2025 12.867 39.2025C12.867 39.2025 12.867 39.2025 12.867 39.2025C12.867 39.2025 12.867 39.2025 12.867 39.2025C12.867 39.2025 12.867 39.2025 12.867 39.2025C12.867 39.2025 12.867 39.2025 12.867 39.2025C12.867 39.2025 12.867 39.2025 12.867 39.2025V39.2025V39.2025V39.2025V39.2025V39.2025V39.2025V39.2025C12.867 39.2025 12.867 39.2025 12.867 39.2025C12.867 39.2025 12.867 39.2025 12.867 39.2025C12.867 39.2025 12.867 39.2025 12.867 39.2025C12.867 39.2025 12.867 39.2025 12.867 39.2025C12.867 39.2025 12.867 39.2025 12.867 39.2025C12.867 39.2025 12.867 39.2025 12.867 39.2025C12.867 39.2025 12.867 39.2025 12.867 39.2025C12.867 39.2025 12.867 39.2025 12.867 39.2025C12.867 39.2025 12.867 39.2025 12.867 39.2025C12.867 39.2025 12.867 39.2025 12.867 39.2025C12.867 39.2025 12.867 39.2025 12.867 39.2025C12.867 39.2025 12.867 39.2025 12.867 39.2025C12.867 39.2025 12.867 39.2025 12.867 39.2025V39.2025V39.2025V39.2025V39.2025V39.2025V39.2025C12.867 39.2025 12.867 39.2025 12.867 39.2025C12.867 39.2025 12.867 39.2025 12.867 39.2025C12.867 39.2025 12.867 39.2025 12.867 39.2025C12.867 39.2025 12.867 39.2025 12.867 39.2025C12.867 39.2025 12.867 39.2025 12.867 39.2025C12.867 39.2025 12.867 39.2025 12.867 39.2025C12.867 39.2025 12.867 39.2025 12.867 39.2025C12.867 39.2025 12.867 39.2025 12.867 39.2025C12.867 39.2025 12.867 39.2025 12.867 39.2025C12.867 39.2025 12.867 39.2025 12.867 39.2025C12.867 39.2025 12.867 39.2025 12.867 39.2025C12.867 39.2025 12.867 39.2025 12.867 39.2025C12.867 39.2025 12.867 39.2025 12.867 39.2025V39.2025V39.2025V39.2025V39.2025V39.2025V39.2025V39.2025C12.867 39.2025 12.867 39.2025 12.867 39.2025C12.867 39.2025 12.867 39.2025 12.867 39.2025C12.867 39.2025 12.867 39.2025 12.867 39.2025C12.867 39.2025 12.867 39.2025 12.867 39.2025C12.867 39.2025 12.867 39.2025 12.867 39.2025C12.867 39.2025 12.867 39.2025 12.867 39.2025C12.867 39.2025 12.867 39.2025 12.867 39.2025C12.867 39.2025 12.867 39.2025 12.867 39.2025C12.867 39.2025 12.867 39.2025 12.867 39.2025C12.867 39.2025 12.867 39.2025 12.867 39.2025C12.867 39.2025 12.867 39.2025 12.867 39.2025C12.867 39.2025 12.867 39.2025 12.867 39.2025V39.2025V39.2025V39.2025V39.2025V39.2025V39.2025V39.2025C12.867 39.2025 12.867 39.2025 12.867 39.2025C12.867 39.2025 12.867 39.2025 12.867 39.2025C12.867 39.2025 12.867 39.2025 12.867 39.2025C12.867 39.2025 12.867 39.2025 12.867 39.2025C12.867 39.2025 12.867 39.2025 12.867 39.2025C12.867 39.2025 12.867 39.2025 12.867 39.2025C12.867 39.2025 12.867 39.2025 12.867 39.2025C12.867 39.2025 12.867 39.2025 12.867 39.2025C12.867 39.2025 12.867 39.2025 12.867 39.2025C12.867 39.2025 12.867 39.2025 12.867 39.2025C12.867 39.2025 12.867 39.2025 12.867 39.2025C12.867 39.2025 12.867 39.2025 12.867 39.2025C12.867 39.2025 12.867 39.2025 12.867 39.2025V39.2025V39.2025V39.2025V39.2025V39.2025V39.2025C12.867 39.2025 12.867 39.2025 12.867 39.2025C12.867 39.2025 12.867 39.2025 12.867 39.2025C12.867 39.2025 12.867 39.2025 12.867 39.2025C12.867 39.2025 12.867 39.2025 12.867 39.2025C12.867 39.2025 12.867 39.2025 12.867 39.2025C12.867 39.2025 12.867 39.2025 12.867 39.2025C12.867 39.2025 12.867 39.2025 12.867 39.2025C12.867 39.2025 12.867 39.2025 12.867 39.2025C12.867 39.2025 12.867 39.2025 12.867 39.2025C12.867 39.2025 12.867 39.2025 12.867 39.2025C12.867 39.2025 12.867 39.2025 12.867 39.2025C12.867 39.2025 12.867 39.2025 12.867 39.2025C12.867 39.2025 12.867 39.2025 12.867 39.2025V39.2025V39.2025V39.2025V39.2025V39.2025V39.2025V39.2025C12.867 39.2025 12.867 39.2025 12.867 39.2025C12.867 39.2025 12.867 39.2025 12.867 39.2025C12.867 39.2025 12.867 39.2025 12.867 39.2025C12.867 39.2025 12.867 39.2025 12.867 39.2025C12.867 39.2025 12.867 39.2025 12.867 39.2025C12.867 39.2025 12.867 39.2025 12.867 39.2025C12.867 39.2025 12.867 39.2025 12.867 39.2025C12.867 39.2025 12.867 39.2025 12.867 39.2025C12.867 39.2025 12.867 39.2025 12.867 39.2025C12.867 39.2025 12.867 39.2025 12.867 39.2025C12.867 39.2025 12.867 39.2025 12.867 39.2025C12.867 39.2025 12.867 39.2025 12.867 39.2025V39.2025V39.2025V39.2025V39.2025V39.2025V39.2025V39.2025C12.867 39.2025 12.867 39.2025 12.867 39.2025C12.867 39.2025 12.867 39.2025 12.867 39.2025C12.867 39.2025 12.867 39.2025 12.867 39.2025C12.867 39.2025 12.867 39.2025 12.867 39.2025C12.867 39.2025 12.867 39.2025 12.867 39.2025C12.867 39.2025 12.867 39.2025 12.867 39.2025C12.867 39.2025 12.867 39.2025 12.867 39.2025C12.867 39.2025 12.867 39.2025 12.867 39.2025C12.867 39.2025 12.867 39.2025 12.867 39.2025C12.867 39.2025 12.867 39.2025 12.867 39.2025C12.867 39.2025 12.867 39.2025 12.867 39.2025C12.867 39.2025 12.867 39.2025 12.867 39.2025C12.867 39.2025 12.867 39.2025 12.867 39.2025V39.2025V39.2025V39.2025V39.2025V39.2025V39.2025C12.867 39.2025 12.867 39.2025 12.867 39.2025C12.867 39.2025 12.867 39.2025 12.867 39.2025C12.867 39.2025 12.867 39.2025 12.867 39.2025C12.867 39.2025 12.867 39.2025 12.867 39.2025C12.867 39.2025 12.867 39.2025 12.867 39.2025C12.867 39.2025 12.867 39.2025 12.867 39.2025C12.867 39.2025 12.867 39.2025 12.867 39.2025C12.867 39.2025 12.867 39.2025 12.867 39.2025C12.867 39.2025 12.867 39.2025 12.867 39.2025C12.867 39.2025 12.867 39.2025 12.867 39.2025C12.867 39.2025 12.867 39.2025 12.867 39.2025C12.867 39.2025 12.867 39.2025 12.867 39.2025C12.867 39.2025 12.867 39.2025 12.867 39.2025V39.2025V39.2025V39.2025V39.2025V39.2025V39.2025V39.2025C12.867 39.2025 12.867 39.2025 12.867 39.2025C12.867 39.2025 12.867 39.2025 12.867 39.2025C12.867 39.2025 12.867 39.2025 12.867 39.2025C12.867 39.2025 12.867 39.2025 12.867 39.2025C12.867 39.2025 12.867 39.2025 12.867 39.2025C12.867 39.2025 12.867 39.2025 12.867 39.2025C12.867 39.2025 12.867 39.2025 12.867 39.2025C12.867 39.2025 12.867 39.2025 12.867 39.2025C12.867 39.2025 12.867 39.2025 12.867 39.2025C12.867 39.2025 12.867 39.2025 12.867 39.2025C12.867 39.2025 12.867 39.2025 12.867 39.2025C12.867 39.2025 12.867 39.2025 12.867 39.2025V39.2025V39.2025V39.2025V39.2025V39.2025V39.2025V39.2025C12.867 39.2025 12.867 39.2025 12.867 39.2025C12.867 39.2025 12.867 39.2025 12.867 39.2025C12.867 39.2025 12.867 39.2025 12.867 39.2025C12.867 39.2025 12.867 39.2025 12.867 39.2025C12.867 39.2025 12.867 39.2025 12.867 39.2025C12.867 39.2025 12.867 39.2025 12.867 39.2025C12.867 39.2025 12.867 39.2025 12.867 39.2025C12.867 39.2025 12.867 39.2025 12.867 39.2025C12.867 39.2025 12.867 39.2025 12.867 39.2025C12.867 39.2025 12.867 39.2025 12.867 39.2025C12.867 39.2025 12.867 39.2025 12.867 39.2025C12.867 39.2025 12.867 39.2025 12.867 39.2025C12.867 39.2025 12.867 39.2025 12.867 39.2025V39.2025V39.2025V39.2025V39.2025V39.2025V39.2025V39.2025C12.867 39.2025 12.867 39.2025 12.867 39.2025C12.867 39.2025 12.867 39.2025 12.867 39.2025C12.867 39.2025 12.867 39.2025 12.867 39.2025C12.867 39.2025 12.867 39.2025 12.867 39.2025C12.867 39.2025 12.867 39.2025 12.867 39.2025C12.867 39.2025 12.867 39.2025 12.867 39.2025C12.867 39.2025 12.867 39.2025 12.867 39.2025C12.867 39.2025 12.867 39.2025 12.867 39.2025C12.867 39.2025 12.867 39.2025 12.867 39.2025C12.867 39.2025 12.867 39.2025 12.867 39.2025C12.867 39.2025 12.867 39.2025 12.867 39.2025C12.867 39.2025 12.867 39.2025 12.867 39.2025C12.867 39.2025 12.867 39.2025 12.867 39.2025V39.2025V39.2025V39.2025V39.2025V39.2025V39.2025C12.867 39.2025 12.867 39.2025 12.867 39.2025C12.867 39.2025 12.867 39.2025 12.867 39.2025C12.867 39.2025 12.867 39.2025 12.867 39.2025C12.867 39.2025 12.867 39.2025 12.867 39.2025C12.867 39.2025 12.867 39.2025 12.867 39.2025C12.867 39.2025 12.867 39.2025 12.867 39.2025C12.867 39.2025 12.867 39.2025 12.867 39.2025C12.867 39.2025 12.867 39.2025 12.867 39.2025C12.867 39.2025 12.867 39.2025 12.867 39.2025C12.867 39.2025 12.867 39.2025 12.867 39.2025C12.867 39.2025 12.867 39.2025 12.867 39.2025C12.867 39.2025 12.867 39.2025 12.867 39.2025C12.867 39.2025 12.867 39.2025 12.867 39.2025V39.2025V39.2025V39.2025V39.2026V39.2026V39.2026V39.2026C12.867 39.2026 12.867 39.2026 12.867 39.2026C12.867 39.2026 12.867 39.2026 12.867 39.2026C12.867 39.2026 12.867 39.2026 12.867 39.2026C12.867 39.2026 12.867 39.2026 12.867 39.2026C12.867 39.2026 12.867 39.2026 12.867 39.2026C12.867 39.2026 12.867 39.2026 12.867 39.2026C12.867 39.2026 12.867 39.2026 12.867 39.2026C12.867 39.2026 12.867 39.2026 12.867 39.2026C12.867 39.2026 12.867 39.2026 12.867 39.2026C12.867 39.2026 12.867 39.2026 12.867 39.2026C12.867 39.2026 12.867 39.2026 12.867 39.2026C12.867 39.2026 12.867 39.2026 12.867 39.2026C12.867 39.2026 12.867 39.2026 12.867 39.2026V39.2026V39.2026V39.2026V39.2026V39.2026V39.2026V39.2026C12.867 39.2026 12.867 39.2026 12.867 39.2026C12.867 39.2026 12.867 39.2026 12.867 39.2026C12.867 39.2026 12.867 39.2026 12.867 39.2026C12.867 39.2026 12.867 39.2026 12.867 39.2026C12.867 39.2026 12.867 39.2026 12.867 39.2026C12.867 39.2026 12.867 39.2026 12.867 39.2026C12.867 39.2026 12.867 39.2026 12.867 39.2026C12.867 39.2026 12.867 39.2026 12.867 39.2026C12.867 39.2026 12.867 39.2026 12.867 39.2026C12.867 39.2026 12.867 39.2026 12.867 39.2026C12.867 39.2026 12.867 39.2026 12.867 39.2026C12.867 39.2026 12.867 39.2026 12.867 39.2026C12.867 39.2026 12.867 39.2026 12.867 39.2026V39.2026V39.2026V39.2026V39.2026V39.2026V39.2026V39.2026C12.867 39.2026 12.867 39.2026 12.867 39.2026C12.867 39.2026 12.867 39.2026 12.867 39.2026C12.867 39.2026 12.867 39.2026 12.867 39.2026C12.867 39.2026 12.867 39.2026 12.867 39.2026C12.867 39.2026 12.867 39.2026 12.867 39.2026C12.867 39.2026 12.867 39.2026 12.867 39.2026C12.867 39.2026 12.867 39.2026 12.867 39.2026C12.867 39.2026 12.867 39.2026 12.867 39.2026C12.867 39.2026 12.867 39.2026 12.867 39.2026C12.867 39.2026 12.867 39.2026 12.867 39.2026C12.867 39.2026 12.867 39.2026 12.867 39.2026C12.867 39.2026 12.867 39.2026 12.867 39.2026C12.867 39.2026 12.867 39.2026 12.867 39.2026V39.2026V39.2026V39.2026V39.2026V39.2026V39.2026V39.2026C12.867 39.2026 12.867 39.2026 12.867 39.2026C12.867 39.2026 12.867 39.2026 12.867 39.2026C12.867 39.2026 12.867 39.2026 12.867 39.2026C12.867 39.2026 12.867 39.2026 12.867 39.2026C12.867 39.2026 12.867 39.2026 12.867 39.2026C12.867 39.2026 12.867 39.2026 12.867 39.2026C12.867 39.2026 12.867 39.2026 12.867 39.2026C12.867 39.2026 12.867 39.2026 12.867 39.2026C12.867 39.2026 12.867 39.2026 12.867 39.2026C12.867 39.2026 12.867 39.2026 12.867 39.2026C12.867 39.2026 12.867 39.2026 12.867 39.2026C12.867 39.2026 12.867 39.2026 12.867 39.2026C12.867 39.2026 12.867 39.2026 12.867 39.2026V39.2026V39.2026V39.2026V39.2026V39.2026V39.2026V39.2026C12.867 39.2026 12.867 39.2026 12.867 39.2026C12.867 39.2026 12.867 39.2026 12.867 39.2026C12.867 39.2026 12.867 39.2026 12.867 39.2026C12.867 39.2026 12.867 39.2026 12.867 39.2026C12.867 39.2026 12.867 39.2026 12.867 39.2026C12.867 39.2026 12.867 39.2026 12.867 39.2026C12.867 39.2026 12.867 39.2026 12.867 39.2026C12.867 39.2026 12.867 39.2026 12.867 39.2026C12.867 39.2026 12.867 39.2026 12.867 39.2026C12.867 39.2026 12.867 39.2026 12.867 39.2026C12.867 39.2026 12.867 39.2026 12.867 39.2026C12.867 39.2026 12.867 39.2026 12.867 39.2026C12.867 39.2026 12.867 39.2026 12.867 39.2026V39.2026V39.2026V39.2026V39.2026H13.1295ZM23.4972 41.3024C20.6043 41.3024 17.9892 41.0531 16.1006 40.6518C15.1553 40.4509 14.399 40.2133 13.8822 39.9537C13.6237 39.8238 13.4317 39.6916 13.3061 39.5612C13.181 39.4312 13.1295 39.3118 13.1295 39.2026H12.867C12.867 39.4014 12.9625 39.5827 13.117 39.7432C13.2711 39.9032 13.4917 40.0513 13.7644 40.1883C14.3102 40.4625 15.0915 40.7057 16.0461 40.9085C17.9574 41.3147 20.5917 41.5648 23.4972 41.5648V41.3024ZM33.8649 39.2026C33.8649 39.3118 33.8134 39.4312 33.6883 39.5612C33.5626 39.6916 33.3707 39.8238 33.1121 39.9537C32.5954 40.2133 31.8391 40.4509 30.8938 40.6518C29.0052 41.0531 26.39 41.3024 23.4972 41.3024V41.5648C26.4027 41.5648 29.037 41.3147 30.9483 40.9085C31.9029 40.7057 32.6841 40.4625 33.23 40.1883C33.5026 40.0513 33.7232 39.9032 33.8773 39.7432C34.0319 39.5827 34.1273 39.4014 34.1273 39.2026H33.8649ZM33.8648 39.1979C33.8648 39.1995 33.8649 39.201 33.8649 39.2026H34.1273C34.1273 39.1999 34.1273 39.1972 34.1273 39.1945L33.8648 39.1979ZM33.8648 32.3782V39.1962H34.1273V32.3782H33.8648ZM12.9982 32.5094H33.9961V32.2469H12.9982V32.5094ZM13.1295 39.2024V32.3782H12.867V39.2024H13.1295ZM12.9983 39.0712H12.9982V39.3337H12.9983V39.0712Z" fill="black" mask="url(#path-9-inside-2)"/>
<path d="M13.0639 32.378C13.0639 32.2785 13.1214 32.1712 13.2542 32.0576C13.3866 31.9444 13.5857 31.8322 13.8484 31.7235C14.3732 31.5064 15.1365 31.3094 16.0846 31.1435C17.9798 30.8118 20.6006 30.6063 23.4972 30.6063C26.3938 30.6063 29.0145 30.8118 30.9097 31.1435C31.8578 31.3094 32.6212 31.5064 33.146 31.7235C33.4086 31.8322 33.6078 31.9444 33.7401 32.0576C33.873 32.1712 33.9305 32.2785 33.9305 32.378C33.9305 32.4775 33.873 32.5848 33.7401 32.6984C33.6078 32.8116 33.4086 32.9239 33.146 33.0326C32.6212 33.2497 31.8578 33.4466 30.9097 33.6126C29.0145 33.9442 26.3938 34.1497 23.4972 34.1497C20.6006 34.1497 17.9798 33.9442 16.0846 33.6126C15.1365 33.4466 14.3732 33.2497 13.8484 33.0326C13.5857 32.9239 13.3866 32.8116 13.2542 32.6984C13.1214 32.5848 13.0639 32.4775 13.0639 32.378Z" fill="white" stroke="black" stroke-width="0.131236"/>
<path d="M16.4594 37.2702L13.5195 39.793L14.1101 40.1211L16.4594 37.2702Z" fill="white" stroke="black" stroke-width="0.131236"/>
<path d="M19.3378 37.4621L15.4922 40.5148L16.4734 40.7773L19.3378 37.4621Z" fill="white"/>
<path d="M22.727 37.1424L17.5889 40.9742L19.4918 41.171L22.727 37.1424Z" fill="white"/>
<path d="M25.6686 37.3342L20.8729 41.2366L22.7102 41.3022L25.6686 37.3342Z" fill="white"/>
<path d="M28.5462 37.1424L24.4788 41.3022L26.188 41.2366L28.5462 37.1424Z" fill="white"/>
<path d="M31.1041 37.3342L27.6972 41.171L28.8783 41.0398L31.1041 37.3342Z" fill="white"/>
<path d="M33.4062 36.8226L30.9781 40.6461L32.1592 40.3836L33.4062 36.8226Z" fill="white"/>
<path d="M19.3378 37.4621L15.4922 40.5148L16.4734 40.7773L19.3378 37.4621Z" stroke="black" stroke-width="0.131236"/>
<path d="M22.727 37.1424L17.5889 40.9742L19.4918 41.171L22.727 37.1424Z" stroke="black" stroke-width="0.131236"/>
<path d="M25.6686 37.3342L20.8729 41.2366L22.7102 41.3022L25.6686 37.3342Z" stroke="black" stroke-width="0.131236"/>
<path d="M28.5462 37.1424L24.4788 41.3022L26.188 41.2366L28.5462 37.1424Z" stroke="black" stroke-width="0.131236"/>
<path d="M31.1041 37.3342L27.6972 41.171L28.8783 41.0398L31.1041 37.3342Z" stroke="black" stroke-width="0.131236"/>
<path d="M33.4062 36.8226L30.9781 40.6461L32.1592 40.3836L33.4062 36.8226Z" stroke="black" stroke-width="0.131236"/>
<ellipse cx="23.4976" cy="32.4437" rx="6.95553" ry="0.7218" transform="rotate(-180 23.4976 32.4437)" fill="black"/>
<path d="M15.6301 36.4805L13.3281 32.7722L14.3124 33.2971C14.8871 34.492 15.6301 36.4805 15.6301 36.4805Z" fill="white"/>
<path d="M18.8295 37.0542L15.2967 33.494L16.4778 33.6908L18.8295 37.0542Z" fill="white"/>
<path d="M21.8369 37.3092L17.9214 33.8877L19.6275 34.0845L21.8369 37.3092Z" fill="white"/>
<path d="M24.3964 37.0542L20.8086 34.1502L22.6459 34.2158L24.3964 37.0542Z" fill="white"/>
<path d="M27.0199 37.2455L24.0239 34.2158L25.5331 34.1858L27.0199 37.2455Z" fill="white"/>
<path d="M29.3235 37.0542L26.6486 34.1502L27.8297 34.0583L29.3235 37.0542Z" fill="white"/>
<path d="M31.4351 37.6279L29.2077 33.8877L30.192 33.7565L31.4351 37.6279Z" fill="white"/>
<path d="M33.8666 36.5443L31.3075 33.6121L32.2262 33.3627L33.8666 36.5443Z" fill="white"/>
<path d="M15.6301 36.4805L13.3281 32.7722L14.3124 33.2971C14.8871 34.492 15.6301 36.4805 15.6301 36.4805Z" stroke="black" stroke-width="0.131236"/>
<path d="M18.8295 37.0542L15.2967 33.494L16.4778 33.6908L18.8295 37.0542Z" stroke="black" stroke-width="0.131236"/>
<path d="M21.8369 37.3092L17.9214 33.8877L19.6275 34.0845L21.8369 37.3092Z" stroke="black" stroke-width="0.131236"/>
<path d="M24.3964 37.0542L20.8086 34.1502L22.6459 34.2158L24.3964 37.0542Z" stroke="black" stroke-width="0.131236"/>
<path d="M27.0199 37.2455L24.0239 34.2158L25.5331 34.1858L27.0199 37.2455Z" stroke="black" stroke-width="0.131236"/>
<path d="M29.3235 37.0542L26.6486 34.1502L27.8297 34.0583L29.3235 37.0542Z" stroke="black" stroke-width="0.131236"/>
<path d="M31.4351 37.6279L29.2077 33.8877L30.192 33.7565L31.4351 37.6279Z" stroke="black" stroke-width="0.131236"/>
<path d="M33.8666 36.5443L31.3075 33.6121L32.2262 33.3627L33.8666 36.5443Z" stroke="black" stroke-width="0.131236"/>
<path d="M21.2694 14.2681C17.7242 14.2681 14.519 14.4357 14.3552 14.9258C14.3446 14.9446 14.3419 14.9702 14.3453 15.0078V17.5263H15.6884V21.2229L14.4094 21.8623V25.827L15.6981 26.4665V30.1115C15.6981 30.1235 15.6861 30.1354 15.6741 30.1235H14.3457V32.3296C14.3457 32.344 14.3451 32.3577 14.3445 32.3707C14.3439 32.3853 14.3433 32.3989 14.3437 32.4112C14.209 32.6821 17.6564 33.1661 21.3129 33.1661C23.0743 33.1661 25.6656 33.1005 26.4531 33.1005C26.5023 33.1005 26.5275 32.833 26.5204 32.6878C26.5196 32.6702 26.5188 32.6541 26.5188 32.6412V30.0595H19.5252V26.4665L20.8755 25.8169H22.1879V25.2263H22.8485V22.4703H22.1879V21.8798H20.8755L19.5252 21.2229V17.5263H26.5188L26.5195 14.7715C26.5195 14.6397 26.5195 14.3993 26.4532 14.3993C26.4532 14.3993 26.4532 14.3337 26.125 14.3337C25.6656 14.2681 23.1746 14.2681 21.2695 14.2681H21.2694Z" fill="black"/>
<path d="M22.9766 22.2461L22.9786 25.4434" stroke="black" stroke-width="0.131236" stroke-miterlimit="10"/>
<path d="M22.2101 22.4396H22.8473V25.25H22.2101V22.4396Z" stroke="white" stroke-width="0.131236"/>
<path d="M15.6202 21.2231L14.4062 21.8626V25.8273L15.6202 26.4668H19.5849L20.8009 25.8273V21.8626L19.5849 21.2231H15.6202Z" stroke="white" stroke-width="0.131236"/>
<path d="M22.2076 21.8628H20.8008V25.8275H22.2076V21.8628Z" stroke="white" stroke-width="0.131236"/>
</g>
<defs>
<filter id="filter0_d" x="0.428571" y="0.571428" width="46.1429" height="77.1429" filterUnits="userSpaceOnUse" color-interpolation-filters="sRGB">
<feFlood flood-opacity="0" result="BackgroundImageFix"/>
<feColorMatrix in="SourceAlpha" type="matrix" values="0 0 0 0 0 0 0 0 0 0 0 0 0 0 0 0 0 0 127 0"/>
<feOffset dy="5.14286"/>
<feGaussianBlur stdDeviation="4.28571"/>
<feColorMatrix type="matrix" values="0 0 0 0 0 0 0 0 0 0 0 0 0 0 0 0 0 0 0.45 0"/>
<feBlend mode="normal" in2="BackgroundImageFix" result="effect1_dropShadow"/>
<feBlend mode="normal" in="SourceGraphic" in2="effect1_dropShadow" result="shape"/>
</filter>
</defs>
</svg>
