<svg width="37" height="37" viewBox="0 0 37 37" fill="none" xmlns="http://www.w3.org/2000/svg">
<path d="M18.4612 32.8714C26.3812 32.8714 32.8017 26.4372 32.8017 18.5002C32.8017 10.5631 26.3812 4.12891 18.4612 4.12891C10.5412 4.12891 4.12073 10.5631 4.12073 18.5002C4.12073 26.4372 10.5412 32.8714 18.4612 32.8714Z" fill="url(#paint0_linear)"/>
<g clip-path="url(#clip0)">
<path d="M25.7184 25.3252H11.1154C10.8009 25.3252 10.5041 25.1871 10.3015 24.9455C10.099 24.7047 10.0147 24.3881 10.0692 24.0778L11.9442 13.4528C12.0334 12.9442 12.474 12.5752 12.9904 12.5752H23.8435C24.3598 12.5752 24.8004 12.9442 24.8897 13.4528L26.7646 24.0778C26.8192 24.3881 26.7349 24.7047 26.5323 24.9455C26.3297 25.1871 26.0329 25.3252 25.7184 25.3252ZM12.9904 13.2835C12.8183 13.2835 12.6716 13.4068 12.6412 13.5761L10.7662 24.2011C10.7414 24.342 10.8045 24.4433 10.8441 24.4901C10.8838 24.5375 10.9716 24.6169 11.1154 24.6169H25.7184C25.8622 24.6169 25.95 24.5375 25.9897 24.4901C26.0294 24.4433 26.0924 24.342 26.0676 24.2011L24.1927 13.5761C24.1622 13.4068 24.0156 13.2835 23.8435 13.2835H12.9904Z" fill="white"/>
<path d="M18.4189 13.2826C17.0518 13.2826 15.9397 12.1705 15.9397 10.8034C15.9397 9.4363 17.0518 8.32422 18.4189 8.32422C19.7859 8.32422 20.898 9.4363 20.898 10.8034C20.898 12.1705 19.7859 13.2826 18.4189 13.2826ZM18.4189 9.03255C17.4428 9.03255 16.648 9.8273 16.648 10.8034C16.648 11.7795 17.4428 12.5742 18.4189 12.5742C19.3949 12.5742 20.1897 11.7795 20.1897 10.8034C20.1897 9.8273 19.3949 9.03255 18.4189 9.03255Z" fill="white"/>
<path d="M14.5229 21.7819C14.3274 21.7819 14.1687 21.6232 14.1687 21.4277V16.4694C14.1687 16.2739 14.3274 16.1152 14.5229 16.1152C14.7184 16.1152 14.877 16.2739 14.877 16.4694V21.4277C14.877 21.6232 14.7184 21.7819 14.5229 21.7819Z" fill="white"/>
<path d="M20.8978 21.7819C19.9217 21.7819 19.127 20.9879 19.127 20.0111V17.8861C19.127 16.91 19.9217 16.1152 20.8978 16.1152C21.8739 16.1152 22.6686 16.91 22.6686 17.8861C22.6686 18.0816 22.51 18.2402 22.3145 18.2402C22.119 18.2402 21.9603 18.0816 21.9603 17.8861C21.9603 17.3003 21.4836 16.8236 20.8978 16.8236C20.312 16.8236 19.8353 17.3003 19.8353 17.8861V20.0111C19.8353 20.5969 20.312 21.0736 20.8978 21.0736C21.4836 21.0736 21.9603 20.5969 21.9603 20.0111V19.6569H20.8978C20.7023 19.6569 20.5436 19.4982 20.5436 19.3027C20.5436 19.1072 20.7023 18.9486 20.8978 18.9486H22.3145C22.51 18.9486 22.6686 19.1072 22.6686 19.3027V20.0111C22.6686 20.9879 21.8739 21.7819 20.8978 21.7819Z" fill="white"/>
<path d="M17.3562 21.8269C17.2719 21.8269 17.1883 21.7972 17.1203 21.737L14.287 19.2139C14.2119 19.1466 14.1687 19.0503 14.1687 18.9483C14.1687 18.8463 14.2133 18.7499 14.2898 18.6834L17.1232 16.2042C17.2698 16.0753 17.4929 16.0894 17.6232 16.2375C17.7522 16.3848 17.7373 16.6079 17.59 16.7376L15.0584 18.9518L17.5921 21.2093C17.738 21.3396 17.7515 21.5627 17.6211 21.7094C17.5503 21.7873 17.454 21.8269 17.3562 21.8269Z" fill="white"/>
</g>
<defs>
<linearGradient id="paint0_linear" x1="3.89168" y1="18.5001" x2="33.0047" y2="18.5001" gradientUnits="userSpaceOnUse">
<stop stop-color="#29C3B4"/>
<stop offset="1" stop-color="#69EE80"/>
</linearGradient>
<clipPath id="clip0">
<rect width="17" height="17" fill="white" transform="translate(9.91797 8.32422)"/>
</clipPath>
</defs>
</svg>
