<svg width="268" height="119" viewBox="0 0 268 119" fill="none" xmlns="http://www.w3.org/2000/svg">
<path d="M68.5 6.25H261.983C265.296 6.25 267.983 8.93629 267.983 12.25V35.498H68.5V6.25Z" fill="white"/>
<path d="M80.4922 28.9482H92.4422C92.4422 28.9482 115.631 81.009 118.239 85.2361C120.846 89.4632 121.287 83.3345 121.287 83.3345V112.588H112.776L80.4922 54.9006V28.9482Z" fill="black"/>
<path d="M80.4922 70.9727H86.1785C86.1785 70.9727 100.271 102.798 101.012 107.875C101.754 112.952 97.3039 112.58 97.3039 112.58H80.4922V70.9727Z" fill="black"/>
<path d="M107.07 28.9473H121.287V49.7541V70.767C121.287 70.767 118.691 57.5103 115.879 49.3049C113.066 41.0996 107.07 28.9473 107.07 28.9473Z" fill="black"/>
<path d="M123.969 28.9473L143.82 112.587H156.734L160.955 84.7378C160.955 84.7378 158.987 90.9867 156.734 85.9811C154.48 80.9755 140.658 28.9473 140.658 28.9473H123.969Z" fill="black"/>
<path d="M147.039 28.9473H166.612C166.612 28.9473 177.658 81.4833 180.32 85.2351C182.982 88.9869 184.482 81.9878 184.482 81.9878L181.982 112.587H168.151L147.039 28.9473Z" fill="black"/>
<path d="M173.617 28.9473H189.688L184.541 67.8295C184.541 67.8295 183.074 55.8087 180.941 48.186C178.807 40.5633 173.617 28.9473 173.617 28.9473Z" fill="black"/>
<path d="M194.225 43.3679H204.321C204.321 43.3679 206.417 42.9625 207.393 42.094C208.369 41.2255 209.06 40.6276 209.06 39.4537C209.06 35.3335 209.06 28.9473 209.06 28.9473H191.547L194.225 33.6855V43.3679Z" fill="black"/>
<path d="M194.232 48.3379H209.06V80.4495V112.587H191.5L194.232 106.992V48.3379Z" fill="black"/>
<path d="M211.938 28.9473H229.657C229.657 28.9473 267.979 107.27 267.979 109.296C267.979 111.321 266.531 112.387 264.875 112.587H249.85L211.938 28.9473Z" fill="black"/>
<path d="M246.969 28.9473H263.864L251.098 62.6078C251.098 62.6078 251.922 52.7999 251.098 46.1968C250.274 39.5937 246.969 28.9473 246.969 28.9473Z" fill="black"/>
<path d="M228.004 72.5537L233.84 109.106C233.876 111.285 231.936 112.462 230.115 112.587H213.477L228.004 72.5537Z" fill="black"/>
<path d="M81.006 18.0811C80.8608 18.0811 80.7155 18.0107 80.6429 17.9403C80.6429 17.8699 80.5703 17.7292 80.5703 17.6588C80.5703 17.5884 80.6429 17.4476 80.7155 17.3069L83.1117 14.2102L83.4747 13.8583L85.653 11.0431C85.7256 10.9727 85.8709 10.9023 86.0161 10.9023C86.1613 10.9023 86.2339 10.9727 86.3065 11.0431C86.3791 11.1135 86.4517 11.2542 86.4517 11.3246C86.4517 11.4654 86.4517 11.5358 86.3791 11.6765L84.0556 14.6325L83.6199 14.9844L81.369 17.9403C81.2238 18.0107 81.1512 18.0811 81.006 18.0811ZM85.9435 18.0811C85.8709 18.0811 85.7983 18.0811 85.7256 18.0107C85.653 18.0107 85.653 17.9403 85.5804 17.8699L83.4021 14.914L83.0391 14.6325L80.7881 11.6765C80.7155 11.6061 80.7155 11.4654 80.7155 11.3246C80.7155 11.1839 80.7881 11.1135 80.8608 11.0431C80.9334 10.9727 81.0786 10.9023 81.1512 10.9023C81.2964 10.9023 81.4416 10.9727 81.5142 11.0431L83.6199 13.8583L83.983 14.1398L86.3065 17.3069C86.3791 17.3773 86.3791 17.518 86.3791 17.6588C86.3791 17.7292 86.3791 17.8699 86.3065 17.9403C86.2339 18.0107 86.0887 18.0811 85.9435 18.0811Z" fill="black"/>
<path d="M94.7289 18.1515C94.148 18.1515 93.6397 18.0811 93.204 17.87C92.7684 17.6588 92.3327 17.4477 92.0423 17.0958C91.6792 16.7439 91.4614 16.392 91.2436 15.8994C91.0257 15.4771 90.9531 14.9844 90.9531 14.4214C90.9531 13.8584 91.0257 13.3657 91.2436 12.9434C91.4614 12.5211 91.6792 12.0989 92.0423 11.8173C92.4053 11.5358 92.7684 11.2543 93.204 11.0432C93.6397 10.832 94.2206 10.832 94.7289 10.832C95.3097 10.832 95.818 10.9024 96.2537 11.1135C96.6893 11.3247 97.125 11.5358 97.4154 11.8877C97.7785 12.2396 97.9963 12.5915 98.2141 13.0138C98.432 13.4361 98.5046 13.9287 98.5046 14.4918C98.5046 15.0548 98.432 15.5475 98.2141 15.9697C97.9963 16.392 97.7785 16.8143 97.4154 17.1662C97.0524 17.5181 96.6893 17.7292 96.2537 17.9404C95.818 18.0811 95.3097 18.1515 94.7289 18.1515ZM94.7289 17.3069C95.1645 17.3069 95.5276 17.2366 95.8906 17.0958C96.2537 16.955 96.5441 16.7439 96.7619 16.4624C96.9798 16.1809 97.1976 15.8994 97.3428 15.5475C97.488 15.1956 97.5607 14.8437 97.5607 14.4214C97.5607 13.9991 97.488 13.6472 97.3428 13.2953C97.1976 12.9434 96.9798 12.6619 96.7619 12.3804C96.5441 12.2396 96.2537 12.0285 95.8906 11.8877C95.5276 11.747 95.1645 11.6766 94.7289 11.6766C94.2932 11.6766 93.9301 11.747 93.5671 11.8877C93.204 12.0285 92.9136 12.2396 92.6958 12.4508C92.4779 12.7323 92.2601 13.0138 92.1149 13.3657C91.9697 13.7176 91.8971 14.0695 91.8971 14.4918C91.8971 14.914 91.9697 15.2659 92.1149 15.6178C92.2601 15.9697 92.4779 16.2513 92.6958 16.5328C92.9136 16.8143 93.2767 16.955 93.5671 17.0958C93.9301 17.2366 94.3658 17.3069 94.7289 17.3069Z" fill="black"/>
<path d="M106.13 18.1515C105.767 18.1515 105.403 18.0811 105.113 18.0107C104.823 17.9404 104.46 17.7996 104.169 17.6588C103.879 17.5181 103.733 17.3069 103.588 17.0958C103.588 16.955 103.588 16.8847 103.588 16.7439C103.588 16.6032 103.661 16.5328 103.733 16.4624C103.806 16.392 103.951 16.392 104.024 16.392C104.169 16.392 104.242 16.4624 104.314 16.6032C104.46 16.8143 104.75 16.955 105.04 17.0958C105.331 17.2366 105.694 17.3069 106.13 17.3069C106.493 17.3069 106.783 17.2366 107.001 17.1662C107.291 17.0254 107.437 16.8847 107.582 16.6735C107.727 16.4624 107.8 16.2513 107.8 15.9697C107.8 15.6178 107.654 15.2659 107.437 15.0548C107.146 14.8437 106.856 14.7029 106.42 14.7029H105.767C105.621 14.7029 105.549 14.6325 105.476 14.5621C105.403 14.4918 105.331 14.351 105.331 14.2806C105.331 14.1399 105.403 14.0695 105.476 13.9991C105.549 13.9287 105.621 13.8584 105.767 13.8584H106.275C106.638 13.8584 106.856 13.788 107.146 13.5768C107.291 13.3657 107.437 13.0842 107.437 12.7323C107.437 12.3804 107.291 12.0989 107.074 11.8877C106.856 11.6766 106.42 11.6766 105.984 11.6766C105.694 11.6766 105.403 11.747 105.113 11.8173C104.823 11.8877 104.605 12.0989 104.387 12.31C104.314 12.4508 104.169 12.5211 104.024 12.5915C103.879 12.6619 103.806 12.5915 103.661 12.5211C103.588 12.4508 103.516 12.3804 103.516 12.2396C103.516 12.0989 103.516 12.0285 103.588 11.9581C103.806 11.6062 104.169 11.3247 104.532 11.1135C104.968 10.9728 105.476 10.832 105.984 10.832C106.42 10.832 106.856 10.9024 107.219 11.0432C107.582 11.1839 107.872 11.3951 108.017 11.6766C108.163 11.9581 108.308 12.2396 108.308 12.5915C108.308 12.873 108.235 13.0842 108.09 13.2953C107.945 13.5065 107.8 13.7176 107.654 13.8584C107.437 13.9991 107.291 14.1399 107.074 14.2102C106.928 14.351 106.783 14.351 106.638 14.351V14.0695C106.783 14.0695 107.001 14.0695 107.219 14.1399C107.437 14.2102 107.727 14.2806 107.945 14.4214C108.163 14.5621 108.381 14.7733 108.526 14.9844C108.671 15.2659 108.744 15.5475 108.744 15.8994C108.744 16.3216 108.598 16.6735 108.381 17.0254C108.163 17.4477 107.872 17.6588 107.437 17.87C107.074 18.0811 106.638 18.1515 106.13 18.1515Z" fill="black"/>
<path d="M118.618 18.0811C118.473 18.0811 118.328 18.0107 118.255 17.9403C118.182 17.8699 118.11 17.7292 118.11 17.5884V15.3363H116.295V15.1955C115.786 15.1955 115.423 15.1251 115.06 14.914C114.697 14.7028 114.407 14.4917 114.189 14.2102C113.971 13.9287 113.898 13.5768 113.898 13.1545C113.898 12.7322 113.971 12.3099 114.189 11.958C114.407 11.6061 114.697 11.3246 115.06 11.1839C115.423 10.9727 115.859 10.9023 116.295 10.9023H118.545C118.691 10.9023 118.836 10.9727 118.909 11.0431C119.054 11.1135 119.054 11.2542 119.054 11.395V17.5884C119.054 17.7292 118.981 17.8699 118.909 17.9403C118.836 18.0107 118.691 18.0811 118.618 18.0811ZM114.407 18.0811C114.189 18.0811 114.044 18.0107 113.971 17.8699C113.898 17.7292 113.898 17.518 114.044 17.3773L115.568 14.9844L116.512 15.2659L114.842 17.8699C114.77 17.9403 114.697 18.0107 114.625 18.0107C114.552 18.0107 114.479 18.0811 114.407 18.0811ZM116.295 14.4917H118.11V11.8173H116.295C116.004 11.8173 115.786 11.8877 115.568 11.958C115.351 12.0284 115.133 12.2396 115.06 12.4507C114.915 12.6618 114.842 12.873 114.842 13.2249C114.842 13.5064 114.915 13.7175 115.06 13.9287C115.205 14.1398 115.351 14.2806 115.568 14.3509C115.786 14.4213 116.004 14.4917 116.295 14.4917Z" fill="black"/>
<path d="M125.368 18.0811C125.222 18.0811 125.077 18.0107 125.005 17.9403C124.932 17.8699 124.859 17.7292 124.859 17.5884V11.395C124.859 11.2542 124.932 11.1135 125.005 11.0431C125.077 10.9727 125.222 10.9023 125.368 10.9023C125.513 10.9023 125.658 10.9727 125.731 11.0431C125.803 11.1135 125.876 11.2542 125.876 11.395V16.6031L130.378 11.1135C130.45 10.9727 130.596 10.9727 130.741 10.9727C130.886 10.9727 131.031 11.0431 131.104 11.1135C131.176 11.1839 131.249 11.3246 131.249 11.4654V17.6588C131.249 17.7995 131.176 17.9403 131.104 18.0107C131.031 18.0811 130.886 18.1514 130.741 18.1514C130.596 18.1514 130.45 18.0811 130.378 18.0107C130.305 17.9403 130.233 17.7995 130.233 17.6588V12.3803L125.731 17.8699C125.658 17.9403 125.658 17.9403 125.585 18.0107C125.513 18.0811 125.44 18.0811 125.368 18.0811Z" fill="black"/>
<path d="M137.571 18.0811C137.426 18.0811 137.28 18.0107 137.208 17.9403C137.135 17.8699 137.062 17.7292 137.062 17.5884V11.395C137.062 11.2542 137.135 11.1135 137.208 11.0431C137.28 10.9727 137.426 10.9023 137.571 10.9023C137.716 10.9023 137.861 10.9727 137.934 11.0431C138.006 11.1135 138.079 11.2542 138.079 11.395V13.999H142.436V11.395C142.436 11.2542 142.508 11.1135 142.581 11.0431C142.654 10.9727 142.799 10.9023 142.944 10.9023C143.089 10.9023 143.234 10.9727 143.307 11.0431C143.38 11.1135 143.452 11.2542 143.452 11.395V17.5884C143.452 17.7292 143.38 17.8699 143.307 17.9403C143.234 18.0107 143.089 18.0811 142.944 18.0811C142.799 18.0811 142.654 18.0107 142.581 17.9403C142.508 17.8699 142.436 17.7292 142.436 17.5884V14.8436H138.079V17.5884C138.079 17.7292 138.006 17.8699 137.934 17.9403C137.789 18.0107 137.716 18.0811 137.571 18.0811Z" fill="black"/>
<path d="M156.375 18.0811C156.23 18.0811 156.085 18.0107 156.012 17.9403C155.94 17.8699 155.867 17.7292 155.867 17.5884V11.395C155.867 11.2542 155.94 11.1135 156.012 11.0431C156.085 10.9727 156.23 10.9023 156.375 10.9023H160.369C160.514 10.9023 160.587 10.9727 160.659 11.0431C160.732 11.1135 160.805 11.2542 160.805 11.395C160.805 11.5358 160.732 11.6061 160.659 11.6765C160.587 11.7469 160.442 11.8173 160.369 11.8173H156.884V13.8583H159.062C159.498 13.8583 159.933 13.9287 160.296 14.1398C160.659 14.3509 160.95 14.5621 161.168 14.8436C161.386 15.1251 161.458 15.477 161.458 15.8993C161.458 16.3216 161.386 16.6735 161.168 17.0254C160.95 17.3773 160.659 17.5884 160.296 17.7995C159.933 18.0107 159.498 18.0811 159.062 18.0811H156.375ZM156.884 17.1661H159.062C159.352 17.1661 159.57 17.0957 159.861 17.0254C160.079 16.955 160.224 16.8142 160.369 16.6031C160.514 16.3919 160.587 16.1808 160.587 15.8993C160.587 15.6178 160.514 15.4066 160.369 15.1955C160.224 14.9844 160.079 14.914 159.861 14.7732C159.643 14.7028 159.352 14.6325 159.062 14.6325H156.884V17.1661Z" fill="black"/>
<path d="M167.336 18.0811C167.191 18.0811 167.046 18.0107 166.973 17.9403C166.901 17.8699 166.828 17.7292 166.828 17.5884V11.395C166.828 11.2542 166.901 11.1135 166.973 11.0431C167.046 10.9727 167.191 10.9023 167.336 10.9023H171.62C171.766 10.9023 171.911 10.9727 171.983 11.0431C172.056 11.1135 172.129 11.2542 172.129 11.395C172.129 11.5358 172.056 11.6061 171.983 11.6765C171.911 11.7469 171.766 11.8173 171.62 11.8173H167.845V14.0694H170.531C170.676 14.0694 170.822 14.1398 170.894 14.2102C170.967 14.2806 171.04 14.4213 171.04 14.4917C171.04 14.5621 170.967 14.7028 170.894 14.7732C170.822 14.8436 170.676 14.914 170.531 14.914H167.845V17.1661H171.62C171.766 17.1661 171.911 17.2365 171.983 17.3069C172.056 17.3773 172.129 17.518 172.129 17.5884C172.129 17.7292 172.056 17.7995 171.983 17.9403C171.911 18.0811 171.766 18.0811 171.62 18.0811H167.336Z" fill="black"/>
<path d="M179.534 18.1516C179.17 18.1516 178.807 18.0813 178.517 18.0109C178.227 17.9405 177.864 17.7997 177.573 17.659C177.283 17.5182 177.137 17.3071 176.992 17.0959C176.992 16.9552 176.992 16.8848 176.992 16.744C176.992 16.6033 177.065 16.5329 177.137 16.4625C177.21 16.3921 177.355 16.3921 177.428 16.3921C177.573 16.3921 177.646 16.4625 177.718 16.6033C177.864 16.8144 178.154 16.9552 178.444 17.0959C178.735 17.2367 179.098 17.3071 179.534 17.3071C179.897 17.3071 180.187 17.2367 180.405 17.1663C180.695 17.0256 180.841 16.8848 180.986 16.6737C181.131 16.4625 181.204 16.2514 181.204 15.9699C181.204 15.618 181.058 15.2661 180.841 15.0549C180.55 14.8438 180.26 14.703 179.824 14.703H179.17C179.025 14.703 178.953 14.6327 178.88 14.5623C178.807 14.4919 178.735 14.3511 178.735 14.2808C178.735 14.14 178.807 14.0696 178.88 13.9992C178.953 13.9289 179.025 13.8585 179.17 13.8585H179.679C180.042 13.8585 180.26 13.7881 180.55 13.577C180.768 13.3658 180.913 13.0843 180.913 12.7324C180.913 12.3805 180.768 12.099 180.55 11.8879C180.332 11.6767 179.969 11.6063 179.534 11.6063C179.243 11.6063 178.953 11.6767 178.662 11.7471C178.372 11.8175 178.154 12.0286 177.936 12.2398C177.864 12.3805 177.718 12.4509 177.573 12.5213C177.428 12.5917 177.355 12.5213 177.21 12.4509C177.137 12.3805 177.065 12.3101 177.065 12.1694C177.065 12.0286 177.065 11.9582 177.137 11.8879C177.355 11.536 177.718 11.2544 178.081 11.0433C178.444 10.8322 178.953 10.6914 179.534 10.6914C179.969 10.6914 180.405 10.7618 180.768 10.9025C181.131 11.0433 181.421 11.2544 181.567 11.536C181.712 11.8175 181.857 12.099 181.857 12.4509C181.857 12.7324 181.784 12.9436 181.639 13.1547C181.494 13.3658 181.349 13.577 181.204 13.7177C180.986 13.8585 180.841 13.9992 180.623 14.0696C180.332 14.3511 180.114 14.3511 179.969 14.3511V14.0696C180.114 14.0696 180.332 14.0696 180.55 14.14C180.768 14.2104 181.058 14.2808 181.276 14.4215C181.494 14.5623 181.712 14.7734 181.857 14.9846C182.002 15.2661 182.075 15.5476 182.075 15.8995C182.075 16.3218 181.93 16.6737 181.712 17.0256C181.494 17.3775 181.204 17.5886 180.768 17.7997C180.477 18.0813 179.969 18.1516 179.534 18.1516Z" fill="black"/>
<path d="M187.305 19.6987C187.16 19.6987 187.015 19.6283 186.942 19.5579C186.869 19.4875 186.797 19.3468 186.797 19.2061V17.7283C186.797 17.5875 186.869 17.4468 186.942 17.3764C187.015 17.3061 187.16 17.2357 187.305 17.2357H193.985C194.131 17.2357 194.276 17.3061 194.348 17.3764C194.421 17.4468 194.494 17.5875 194.494 17.7283V19.2764C194.494 19.4172 194.421 19.5579 194.348 19.6283C194.276 19.6987 194.131 19.769 193.985 19.769C193.84 19.769 193.695 19.6987 193.622 19.6283C193.55 19.5579 193.477 19.4172 193.477 19.2764V18.1505H187.813V19.2764C187.813 19.4172 187.741 19.5579 187.668 19.6283C187.596 19.6987 187.45 19.6987 187.305 19.6987ZM188.322 17.7987L187.45 17.3764L190.137 11.2542C190.21 11.0431 190.355 10.9023 190.573 10.9023C190.79 10.9023 190.936 11.0431 191.008 11.2542L193.695 17.3764L192.896 17.7283L190.5 12.0986H190.645L188.322 17.7987Z" fill="black"/>
<path d="M202.916 18.1516C202.335 18.1516 201.827 18.0812 201.392 17.8701C200.956 17.6589 200.52 17.4478 200.23 17.0959C199.867 16.744 199.649 16.3921 199.431 15.8994C199.213 15.4771 199.141 14.9845 199.141 14.4215C199.141 13.8584 199.213 13.3658 199.431 12.9435C199.649 12.5212 199.867 12.0989 200.23 11.8174C200.593 11.5359 200.956 11.2544 201.392 11.0432C201.827 10.8321 202.335 10.7617 202.916 10.7617C203.497 10.7617 204.006 10.8321 204.441 11.0432C204.877 11.2544 205.312 11.4655 205.603 11.8174C205.966 12.1693 206.184 12.5212 206.402 12.9435C206.619 13.3658 206.692 13.8584 206.692 14.4215C206.692 14.9845 206.619 15.4771 206.402 15.8994C206.184 16.3217 205.966 16.744 205.603 17.0959C205.24 17.4478 204.877 17.6589 204.441 17.8701C204.006 18.0812 203.497 18.1516 202.916 18.1516ZM202.916 17.307C203.352 17.307 203.715 17.2366 204.078 17.0959C204.441 16.9551 204.732 16.744 204.949 16.5328C205.167 16.3217 205.385 15.9698 205.53 15.6179C205.676 15.266 205.748 14.9141 205.748 14.4918C205.748 14.0696 205.676 13.7177 205.53 13.3658C205.385 13.0139 205.167 12.7323 204.949 12.4508C204.732 12.1693 204.369 12.0286 204.078 11.8878C203.715 11.747 203.352 11.6767 202.916 11.6767C202.481 11.6767 202.118 11.747 201.755 11.8878C201.392 12.0286 201.101 12.2397 200.883 12.4508C200.665 12.7323 200.448 13.0139 200.302 13.3658C200.157 13.7177 200.085 14.0696 200.085 14.4918C200.085 14.9141 200.157 15.266 200.302 15.6179C200.448 15.9698 200.665 16.2513 200.883 16.5328C201.101 16.8144 201.464 16.9551 201.755 17.0959C202.19 17.2366 202.553 17.307 202.916 17.307Z" fill="black"/>
<path d="M212.649 18.0811C212.504 18.0811 212.358 18.0107 212.286 17.9403C212.213 17.8699 212.141 17.7292 212.141 17.5884V11.395C212.141 11.2542 212.213 11.1135 212.286 11.0431C212.358 10.9727 212.504 10.9023 212.649 10.9023H214.537C215.045 10.9023 215.408 10.9727 215.771 11.1839C216.134 11.395 216.425 11.6765 216.642 12.0284C216.86 12.3803 216.933 12.8026 216.933 13.2249C216.933 13.6471 216.86 14.0694 216.642 14.4213C216.425 14.7732 216.134 15.0547 215.771 15.2659C215.408 15.477 214.972 15.5474 214.537 15.5474H213.157V17.518C213.157 17.6588 213.085 17.7995 213.012 17.8699C212.867 18.0107 212.794 18.0811 212.649 18.0811ZM213.157 14.7028H214.537C214.827 14.7028 215.118 14.6325 215.336 14.4917C215.553 14.3509 215.699 14.2102 215.844 13.999C215.989 13.7879 216.062 13.5064 216.062 13.2952C216.062 13.0137 215.989 12.7322 215.844 12.5211C215.699 12.3099 215.553 12.0988 215.336 12.0284C215.118 11.8877 214.827 11.8173 214.537 11.8173H213.157V14.7028Z" fill="black"/>
<path d="M225.354 18.1516C224.773 18.1516 224.265 18.0812 223.829 17.8701C223.393 17.6589 222.958 17.4478 222.667 17.0959C222.304 16.744 222.086 16.3921 221.869 15.8994C221.651 15.4771 221.578 14.9845 221.578 14.4215C221.578 13.8584 221.651 13.3658 221.869 12.9435C222.086 12.5212 222.304 12.0989 222.667 11.8174C223.03 11.5359 223.393 11.2544 223.829 11.0432C224.265 10.8321 224.773 10.7617 225.354 10.7617C225.935 10.7617 226.443 10.8321 226.879 11.0432C227.314 11.2544 227.75 11.4655 228.04 11.8174C228.403 12.1693 228.621 12.5212 228.839 12.9435C229.057 13.3658 229.13 13.8584 229.13 14.4215C229.13 14.9845 229.057 15.4771 228.839 15.8994C228.621 16.3217 228.403 16.744 228.04 17.0959C227.677 17.4478 227.314 17.6589 226.879 17.8701C226.443 18.0812 225.935 18.1516 225.354 18.1516ZM225.354 17.307C225.79 17.307 226.153 17.2366 226.516 17.0959C226.879 16.9551 227.169 16.744 227.387 16.5328C227.605 16.3217 227.823 15.9698 227.968 15.6179C228.113 15.266 228.186 14.9141 228.186 14.4918C228.186 14.0696 228.113 13.7177 227.968 13.3658C227.823 13.0139 227.605 12.7323 227.387 12.4508C227.169 12.1693 226.806 12.0286 226.516 11.8878C226.153 11.747 225.79 11.6767 225.354 11.6767C224.918 11.6767 224.555 11.747 224.192 11.8878C223.829 12.0286 223.539 12.2397 223.321 12.4508C223.103 12.7323 222.885 13.0139 222.74 13.3658C222.595 13.7177 222.522 14.0696 222.522 14.4918C222.522 14.9141 222.595 15.266 222.74 15.6179C222.885 15.9698 223.103 16.2513 223.321 16.5328C223.539 16.8144 223.829 16.9551 224.192 17.0959C224.555 17.2366 224.918 17.307 225.354 17.307Z" fill="black"/>
<path d="M233.778 17.9403C233.705 17.8699 233.633 17.7292 233.633 17.6588C233.633 17.5884 233.705 17.4476 233.778 17.3773L236.102 14.4213L234.068 11.7469C233.996 11.6765 233.923 11.5358 233.923 11.4654C233.923 11.395 233.923 11.2542 234.068 11.1839C234.141 11.1135 234.286 11.0431 234.432 11.0431C234.577 11.0431 234.722 11.1135 234.795 11.1839L237.263 14.5621L234.577 18.0811C234.504 18.1514 234.359 18.2218 234.214 18.2218C233.996 18.0811 233.851 18.0107 233.778 17.9403ZM238.28 18.0811C238.135 18.0811 237.989 18.0107 237.917 17.9403C237.844 17.8699 237.772 17.7292 237.772 17.5884V14.8436H236.247V13.999H237.772V11.395C237.772 11.2542 237.844 11.1135 237.917 11.0431C237.989 10.9727 238.135 10.9023 238.28 10.9023C238.425 10.9023 238.57 10.9727 238.643 11.0431C238.716 11.1135 238.788 11.2542 238.788 11.395V13.999H240.313V14.8436H238.788V17.5884C238.788 17.7292 238.716 17.8699 238.643 17.9403C238.57 18.0107 238.425 18.0811 238.28 18.0811ZM242.854 17.9403C242.782 18.0107 242.636 18.0811 242.491 18.0811C242.346 18.0811 242.201 18.0107 242.128 17.9403L239.369 14.4213L241.91 11.0431C241.983 10.9023 242.128 10.9023 242.273 10.9023C242.419 10.9023 242.564 10.9727 242.636 11.0431C242.709 11.1135 242.782 11.2542 242.782 11.3246C242.782 11.395 242.709 11.5358 242.636 11.6061L240.531 14.3509L242.854 17.3069C242.927 17.3773 243 17.518 243 17.5884C243 17.7292 243 17.8699 242.854 17.9403Z" fill="black"/>
<path d="M248.733 18.0811C248.587 18.0811 248.442 18.0107 248.369 17.9403C248.297 17.8699 248.297 17.7292 248.297 17.5884V11.3246C248.297 11.1839 248.369 11.1135 248.442 11.0431C248.515 10.9727 248.66 10.9023 248.805 10.9023C248.95 10.9023 249.096 10.9727 249.168 11.0431C249.241 11.1135 249.313 11.2542 249.313 11.3246V13.6471H251.274C251.782 13.6471 252.145 13.7175 252.508 13.9287C252.871 14.1398 253.162 14.3509 253.38 14.7028C253.597 15.0547 253.67 15.4066 253.67 15.8289C253.67 16.2512 253.597 16.6735 253.38 17.0254C253.162 17.3773 252.871 17.6588 252.508 17.7995C252.145 18.0107 251.71 18.0811 251.274 18.0811H248.733ZM249.241 17.1661H251.201C251.492 17.1661 251.782 17.0957 252 17.0254C252.218 16.955 252.363 16.7438 252.508 16.5327C252.653 16.3216 252.726 16.1104 252.726 15.7585C252.726 15.477 252.653 15.1955 252.508 14.9844C252.363 14.7732 252.218 14.6325 252 14.5621C251.782 14.4917 251.492 14.4213 251.201 14.4213H249.241V17.1661Z" fill="black"/>
<path d="M263.329 18.0811C263.184 18.0811 263.039 18.0107 262.966 17.9403C262.893 17.8699 262.821 17.7292 262.821 17.5884V15.3363H261.006V15.1955C260.497 15.1955 260.134 15.1251 259.771 14.914C259.408 14.7732 259.118 14.4917 258.9 14.2102C258.682 13.9287 258.609 13.5768 258.609 13.1545C258.609 12.7322 258.682 12.3099 258.9 11.958C259.118 11.6061 259.408 11.3246 259.771 11.1839C260.134 10.9727 260.57 10.9023 261.006 10.9023H263.256C263.402 10.9023 263.547 10.9727 263.619 11.0431C263.692 11.1135 263.765 11.2542 263.765 11.395V17.5884C263.765 17.7292 263.692 17.8699 263.619 17.9403C263.619 18.0107 263.474 18.0811 263.329 18.0811ZM259.118 18.0811C258.9 18.0811 258.755 18.0107 258.682 17.8699C258.609 17.7292 258.609 17.518 258.755 17.3773L260.279 14.9844L261.223 15.2659L259.553 17.9403C259.481 18.0107 259.408 18.0811 259.335 18.0811C259.263 18.0811 259.19 18.0811 259.118 18.0811ZM261.078 14.4917H262.893V11.8173H261.078C260.788 11.8173 260.57 11.8877 260.352 11.958C260.134 12.0284 259.916 12.2396 259.771 12.4507C259.626 12.6618 259.553 12.873 259.553 13.2249C259.553 13.5064 259.626 13.7175 259.771 13.9287C259.916 14.1398 260.062 14.2806 260.279 14.3509C260.497 14.4213 260.788 14.4917 261.078 14.4917Z" fill="black"/>
<mask id="path-29-inside-1" fill="white">
<path fill-rule="evenodd" clip-rule="evenodd" d="M4.98254 111.294C4.98224 111.306 4.98209 111.319 4.98209 111.331C4.98209 115.295 20.1069 118.509 38.7643 118.509C57.4216 118.509 72.5464 115.295 72.5464 111.331C72.5464 111.331 72.5464 111.33 72.5464 111.33H72.5469V89.3742H4.98254V111.294Z"/>
</mask>
<path fill-rule="evenodd" clip-rule="evenodd" d="M4.98254 111.294C4.98224 111.306 4.98209 111.319 4.98209 111.331C4.98209 115.295 20.1069 118.509 38.7643 118.509C57.4216 118.509 72.5464 115.295 72.5464 111.331C72.5464 111.331 72.5464 111.33 72.5464 111.33H72.5469V89.3742H4.98254V111.294Z" fill="black"/>
<path d="M4.98254 111.294L5.19846 111.299V111.294H4.98254ZM72.5464 111.33V111.114H72.3303L72.3305 111.33L72.5464 111.33ZM72.5469 111.33V111.546H72.7628V111.33H72.5469ZM72.5469 89.3742H72.7628V89.1583H72.5469V89.3742ZM4.98254 89.3742V89.1583H4.76662V89.3742H4.98254ZM5.19801 111.331C5.19801 111.32 5.19814 111.309 5.1984 111.299L4.76668 111.288C4.76634 111.303 4.76617 111.317 4.76617 111.331H5.19801ZM38.7643 118.293C29.446 118.293 21.0162 117.49 14.9215 116.195C11.8724 115.547 9.41935 114.779 7.73379 113.932C6.89064 113.508 6.25055 113.071 5.82394 112.628C5.39818 112.186 5.19801 111.753 5.19801 111.331H4.76617C4.76617 111.9 5.03865 112.435 5.5129 112.927C5.98631 113.419 6.67361 113.883 7.53993 114.318C9.27332 115.189 11.7675 115.967 14.8318 116.618C20.9639 117.921 29.4252 118.725 38.7643 118.725V118.293ZM72.3305 111.331C72.3305 111.753 72.1303 112.186 71.7046 112.628C71.278 113.071 70.6379 113.508 69.7947 113.932C68.1092 114.779 65.6561 115.547 62.607 116.195C56.5123 117.49 48.0825 118.293 38.7643 118.293V118.725C48.1034 118.725 56.5647 117.921 62.6967 116.618C65.761 115.967 68.2552 115.189 69.9886 114.318C70.8549 113.883 71.5422 113.419 72.0156 112.927C72.4899 112.435 72.7624 111.9 72.7624 111.331H72.3305ZM72.3305 111.33C72.3305 111.33 72.3305 111.331 72.3305 111.331H72.7624C72.7624 111.331 72.7624 111.33 72.7624 111.33L72.3305 111.33ZM72.5469 111.114H72.5464V111.546H72.5469V111.114ZM72.331 89.3742V111.33H72.7628V89.3742H72.331ZM4.98254 89.5901H72.5469V89.1583H4.98254V89.5901ZM5.19846 111.294V89.3742H4.76662V111.294H5.19846Z" fill="black" mask="url(#path-29-inside-1)"/>
<path d="M5.0905 89.376C5.0905 89.0129 5.30052 88.6417 5.73904 88.2667C6.17675 87.8925 6.82871 87.5265 7.67857 87.1749C9.37736 86.4721 11.8421 85.8369 14.8957 85.3025C21.0013 84.2342 29.4403 83.5728 38.7647 83.5728C48.0891 83.5728 56.5282 84.2342 62.6337 85.3025C65.6873 85.8369 68.1521 86.4721 69.8508 87.1749C70.7007 87.5265 71.3527 87.8925 71.7904 88.2667C72.2289 88.6417 72.4389 89.0129 72.4389 89.376C72.4389 89.7391 72.2289 90.1103 71.7904 90.4852C71.3527 90.8595 70.7007 91.2255 69.8508 91.5771C68.1521 92.2799 65.6873 92.9151 62.6337 93.4494C56.5282 94.5178 48.0891 95.1791 38.7647 95.1791C29.4403 95.1791 21.0013 94.5178 14.8957 93.4494C11.8421 92.9151 9.37736 92.2799 7.67857 91.5771C6.82871 91.2255 6.17675 90.8595 5.73904 90.4852C5.30052 90.1103 5.0905 89.7391 5.0905 89.376Z" fill="white" stroke="black" stroke-width="0.215922"/>
<path d="M16.1237 105.114L6.66406 113.231L8.56431 114.286L16.1237 105.114Z" fill="white" stroke="black" stroke-width="0.215922"/>
<path d="M25.3819 105.732L13.0078 115.554L16.165 116.398L25.3819 105.732Z" fill="white"/>
<path d="M36.2872 104.703L19.7543 117.031L25.8774 117.665L36.2872 104.703Z" fill="white"/>
<path d="M45.7522 105.321L30.3212 117.876L36.2331 118.087L45.7522 105.321Z" fill="white"/>
<path d="M55.0115 104.703L41.9239 118.087L47.4234 117.876L55.0115 104.703Z" fill="white"/>
<path d="M63.2419 105.321L52.2796 117.665L56.0801 117.242L63.2419 105.321Z" fill="white"/>
<path d="M70.6493 103.675L62.8365 115.976L66.637 115.131L70.6493 103.675Z" fill="white"/>
<path d="M25.3819 105.732L13.0078 115.554L16.165 116.398L25.3819 105.732Z" stroke="black" stroke-width="0.215922"/>
<path d="M36.2872 104.703L19.7543 117.031L25.8774 117.665L36.2872 104.703Z" stroke="black" stroke-width="0.215922"/>
<path d="M45.7522 105.321L30.3212 117.876L36.2331 118.087L45.7522 105.321Z" stroke="black" stroke-width="0.215922"/>
<path d="M55.0115 104.703L41.9239 118.087L47.4234 117.876L55.0115 104.703Z" stroke="black" stroke-width="0.215922"/>
<path d="M63.2419 105.321L52.2796 117.665L56.0801 117.242L63.2419 105.321Z" stroke="black" stroke-width="0.215922"/>
<path d="M70.6493 103.675L62.8365 115.976L66.637 115.131L70.6493 103.675Z" stroke="black" stroke-width="0.215922"/>
<ellipse cx="38.7677" cy="89.5867" rx="22.3807" ry="2.32252" transform="rotate(-180 38.7677 89.5867)" fill="black"/>
<path d="M13.446 102.572L6.03906 90.6414L9.20614 92.3303C11.0555 96.1746 13.446 102.572 13.446 102.572Z" fill="white"/>
<path d="M23.7406 104.418L12.3732 92.9636L16.1737 93.597L23.7406 104.418Z" fill="white"/>
<path d="M33.4176 105.238L20.8188 94.2303L26.3084 94.8637L33.4176 105.238Z" fill="white"/>
<path d="M41.6533 104.418L30.1089 95.0748L36.0207 95.2859L41.6533 104.418Z" fill="white"/>
<path d="M50.0949 105.033L40.4547 95.2859L45.3108 95.1894L50.0949 105.033Z" fill="white"/>
<path d="M57.507 104.418L48.9002 95.0748L52.7007 94.7792L57.507 104.418Z" fill="white"/>
<path d="M64.3015 106.264L57.1346 94.2303L60.3017 93.8081L64.3015 106.264Z" fill="white"/>
<path d="M72.1254 102.777L63.891 93.3436L66.847 92.5414L72.1254 102.777Z" fill="white"/>
<path d="M13.446 102.572L6.03906 90.6414L9.20614 92.3303C11.0555 96.1746 13.446 102.572 13.446 102.572Z" stroke="black" stroke-width="0.215922"/>
<path d="M23.7406 104.418L12.3732 92.9636L16.1737 93.597L23.7406 104.418Z" stroke="black" stroke-width="0.215922"/>
<path d="M33.4176 105.238L20.8188 94.2303L26.3084 94.8637L33.4176 105.238Z" stroke="black" stroke-width="0.215922"/>
<path d="M41.6533 104.418L30.1089 95.0748L36.0207 95.2859L41.6533 104.418Z" stroke="black" stroke-width="0.215922"/>
<path d="M50.0949 105.033L40.4547 95.2859L45.3108 95.1894L50.0949 105.033Z" stroke="black" stroke-width="0.215922"/>
<path d="M57.507 104.418L48.9002 95.0748L52.7007 94.7792L57.507 104.418Z" stroke="black" stroke-width="0.215922"/>
<path d="M64.3015 106.264L57.1346 94.2303L60.3017 93.8081L64.3015 106.264Z" stroke="black" stroke-width="0.215922"/>
<path d="M72.1254 102.777L63.891 93.3436L66.847 92.5414L72.1254 102.777Z" stroke="black" stroke-width="0.215922"/>
<mask id="path-36-outside-2" maskUnits="userSpaceOnUse" x="0.984375" y="0.498047" width="76" height="37" fill="black">
<rect fill="white" x="0.984375" y="0.498047" width="76" height="37"/>
<path fill-rule="evenodd" clip-rule="evenodd" d="M69.2129 15.498C71.3121 14.491 72.4814 13.3616 72.4814 12.1686C72.4814 7.93226 57.738 4.49805 38.9689 4.49805C20.1998 4.49805 4.98438 7.93226 4.98438 12.1686C4.98438 13.3616 6.19111 14.491 8.34412 15.498H4.98438V33.498H72.4843V15.498H69.2129Z"/>
</mask>
<path fill-rule="evenodd" clip-rule="evenodd" d="M69.2129 15.498C71.3121 14.491 72.4814 13.3616 72.4814 12.1686C72.4814 7.93226 57.738 4.49805 38.9689 4.49805C20.1998 4.49805 4.98438 7.93226 4.98438 12.1686C4.98438 13.3616 6.19111 14.491 8.34412 15.498H4.98438V33.498H72.4843V15.498H69.2129Z" fill="black"/>
<path d="M69.2129 15.498L67.4828 11.8915L69.2129 19.498V15.498ZM8.34412 15.498V19.498L10.0388 11.8748L8.34412 15.498ZM4.98438 15.498V11.498H0.984375V15.498H4.98438ZM4.98438 33.498H0.984375V37.498H4.98438V33.498ZM72.4843 33.498V37.498H76.4843V33.498H72.4843ZM72.4843 15.498H76.4843V11.498H72.4843V15.498ZM68.4814 12.1686C68.4814 11.7907 68.5786 11.4843 68.677 11.2842C68.7673 11.1008 68.8418 11.0386 68.7993 11.0814C68.7577 11.1231 68.6421 11.227 68.4119 11.3783C68.1849 11.5276 67.8797 11.7012 67.4828 11.8915L70.943 19.1045C72.2091 18.4972 73.4709 17.7282 74.4695 16.7248C75.4811 15.7083 76.4814 14.172 76.4814 12.1686H68.4814ZM38.9689 8.49805C48.1489 8.49805 56.2105 9.34122 61.8666 10.6428C64.7268 11.301 66.7512 12.0274 67.963 12.6911C68.2503 12.8485 68.4596 12.9851 68.6055 13.0939C68.6772 13.1474 68.7284 13.1903 68.7627 13.2213C68.7972 13.2523 68.8108 13.268 68.8096 13.2665C68.8092 13.2661 68.4814 12.8812 68.4814 12.1686H76.4814C76.4814 10.3968 75.6929 8.97799 74.813 7.97888C73.9561 7.00606 72.8742 6.25966 71.806 5.67463C69.6669 4.50295 66.8324 3.57647 63.6606 2.84658C57.2527 1.37198 48.5581 0.498047 38.9689 0.498047V8.49805ZM8.98438 12.1686C8.98438 12.5204 8.90199 12.8158 8.80759 13.0256C8.76279 13.1252 8.71908 13.1974 8.68832 13.2428C8.67287 13.2656 8.66028 13.2823 8.65176 13.2931C8.64325 13.3038 8.6384 13.3092 8.63822 13.3094C8.63805 13.3096 8.64205 13.3051 8.65106 13.2963C8.66006 13.2875 8.67354 13.2749 8.69215 13.2585C8.72982 13.2255 8.78504 13.1805 8.86154 13.125C9.01702 13.0122 9.23779 12.8722 9.53822 12.7118C10.8021 12.0374 12.8946 11.3066 15.8189 10.6465C21.6029 9.34104 29.7897 8.49805 38.9689 8.49805V0.498047C29.3789 0.498047 20.5735 1.37216 14.0575 2.84285C10.8319 3.5709 7.94739 4.49296 5.77188 5.65388C4.68737 6.23261 3.5861 6.97124 2.71141 7.93602C1.81589 8.92379 0.984375 10.3561 0.984375 12.1686H8.98438ZM10.0388 11.8748C9.62612 11.6818 9.30645 11.5048 9.06685 11.3515C8.82374 11.196 8.69884 11.0875 8.65138 11.0411C8.60228 10.9932 8.67895 11.0538 8.77397 11.2412C8.87811 11.4465 8.98438 11.768 8.98438 12.1686H0.984375C0.984375 14.2171 2.03782 15.7646 3.06236 16.765C4.07969 17.7584 5.36269 18.5195 6.64942 19.1213L10.0388 11.8748ZM4.98438 19.498H8.34412V11.498H4.98438V19.498ZM8.98438 33.498V15.498H0.984375V33.498H8.98438ZM72.4843 29.498H4.98438V37.498H72.4843V29.498ZM68.4843 15.498V33.498H76.4843V15.498H68.4843ZM69.2129 19.498H72.4843V11.498H69.2129V19.498Z" fill="white" mask="url(#path-36-outside-2)"/>
<mask id="path-38-inside-3" fill="white">
<path fill-rule="evenodd" clip-rule="evenodd" d="M72.5487 11.6767C72.5487 11.6764 72.5487 11.6761 72.5487 11.6758C72.5487 7.71165 57.4239 4.49805 38.7665 4.49805C20.1092 4.49805 4.98438 7.71165 4.98438 11.6758C4.98438 11.6761 4.98437 11.6764 4.98438 11.6767V33.6323H72.5487V11.6767Z"/>
</mask>
<path fill-rule="evenodd" clip-rule="evenodd" d="M72.5487 11.6767C72.5487 11.6764 72.5487 11.6761 72.5487 11.6758C72.5487 7.71165 57.4239 4.49805 38.7665 4.49805C20.1092 4.49805 4.98438 7.71165 4.98438 11.6758C4.98438 11.6761 4.98437 11.6764 4.98438 11.6767V33.6323H72.5487V11.6767Z" fill="black"/>
<path d="M4.98438 11.6767H5.2003L5.2003 11.6766L4.98438 11.6767ZM4.98438 33.6323H4.76845V33.8482H4.98438V33.6323ZM72.5487 33.6323V33.8482H72.7646V33.6323H72.5487ZM72.3328 11.6758C72.3328 11.6758 72.3328 11.6758 72.3328 11.6758C72.3328 11.6758 72.3328 11.6758 72.3328 11.6758C72.3328 11.6758 72.3328 11.6758 72.3328 11.6758C72.3328 11.6758 72.3328 11.6758 72.3328 11.6758C72.3328 11.6758 72.3328 11.6758 72.3328 11.6758C72.3328 11.6758 72.3328 11.6758 72.3328 11.6758C72.3328 11.6758 72.3328 11.6758 72.3328 11.6758C72.3328 11.6758 72.3328 11.6758 72.3328 11.6758C72.3328 11.6759 72.3328 11.6759 72.3328 11.6759C72.3328 11.6759 72.3328 11.6759 72.3328 11.6759C72.3328 11.6759 72.3328 11.6759 72.3328 11.6759C72.3328 11.6759 72.3328 11.6759 72.3328 11.6759C72.3328 11.6759 72.3328 11.6759 72.3328 11.6759C72.3328 11.6759 72.3328 11.6759 72.3328 11.6759C72.3328 11.6759 72.3328 11.6759 72.3328 11.6759C72.3328 11.6759 72.3328 11.6759 72.3328 11.6759C72.3328 11.6759 72.3328 11.6759 72.3328 11.6759C72.3328 11.6759 72.3328 11.6759 72.3328 11.6759C72.3328 11.6759 72.3328 11.6759 72.3328 11.6759C72.3328 11.6759 72.3328 11.6759 72.3328 11.6759C72.3328 11.6759 72.3328 11.6759 72.3328 11.6759C72.3328 11.6759 72.3328 11.6759 72.3328 11.6759C72.3328 11.6759 72.3328 11.6759 72.3328 11.6759C72.3328 11.6759 72.3328 11.6759 72.3328 11.6759C72.3328 11.6759 72.3328 11.6759 72.3328 11.6759C72.3328 11.6759 72.3328 11.6759 72.3328 11.6759C72.3328 11.6759 72.3328 11.6759 72.3328 11.6759C72.3328 11.6759 72.3328 11.6759 72.3328 11.6759C72.3328 11.6759 72.3328 11.6759 72.3328 11.6759C72.3328 11.6759 72.3328 11.6759 72.3328 11.6759C72.3328 11.6759 72.3328 11.6759 72.3328 11.6759C72.3328 11.6759 72.3328 11.6759 72.3328 11.6759C72.3328 11.6759 72.3328 11.6759 72.3328 11.6759C72.3328 11.6759 72.3328 11.6759 72.3328 11.6759C72.3328 11.6759 72.3328 11.6759 72.3328 11.6759C72.3328 11.6759 72.3328 11.6759 72.3328 11.6759C72.3328 11.6759 72.3328 11.6759 72.3328 11.6759C72.3328 11.6759 72.3328 11.6759 72.3328 11.6759C72.3328 11.6759 72.3328 11.6759 72.3328 11.6759C72.3328 11.6759 72.3328 11.6759 72.3328 11.6759C72.3328 11.6759 72.3328 11.6759 72.3328 11.6759C72.3328 11.6759 72.3328 11.6759 72.3328 11.6759C72.3328 11.6759 72.3328 11.6759 72.3328 11.6759C72.3328 11.6759 72.3328 11.6759 72.3328 11.6759C72.3328 11.6759 72.3328 11.6759 72.3328 11.6759C72.3328 11.6759 72.3328 11.6759 72.3328 11.6759C72.3328 11.6759 72.3328 11.6759 72.3328 11.6759C72.3328 11.6759 72.3328 11.6759 72.3328 11.6759C72.3328 11.6759 72.3328 11.6759 72.3328 11.6759C72.3328 11.6759 72.3328 11.6759 72.3328 11.6759C72.3328 11.6759 72.3328 11.6759 72.3328 11.6759C72.3328 11.6759 72.3328 11.6759 72.3328 11.6759C72.3328 11.6759 72.3328 11.6759 72.3328 11.6759C72.3328 11.6759 72.3328 11.6759 72.3328 11.6759C72.3328 11.6759 72.3328 11.6759 72.3328 11.6759C72.3328 11.6759 72.3328 11.6759 72.3328 11.6759C72.3328 11.6759 72.3328 11.6759 72.3328 11.6759C72.3328 11.6759 72.3328 11.6759 72.3328 11.6759C72.3328 11.6759 72.3328 11.6759 72.3328 11.6759C72.3328 11.6759 72.3328 11.6759 72.3328 11.6759C72.3328 11.6759 72.3328 11.6759 72.3328 11.6759C72.3328 11.6759 72.3328 11.6759 72.3328 11.6759C72.3328 11.6759 72.3328 11.6759 72.3328 11.6759C72.3328 11.6759 72.3328 11.6759 72.3328 11.6759C72.3328 11.6759 72.3328 11.6759 72.3328 11.6759C72.3328 11.6759 72.3328 11.6759 72.3328 11.6759C72.3328 11.6759 72.3328 11.6759 72.3328 11.6759C72.3328 11.6759 72.3328 11.6759 72.3328 11.6759C72.3328 11.6759 72.3328 11.6759 72.3328 11.6759C72.3328 11.676 72.3328 11.676 72.3328 11.676C72.3328 11.676 72.3328 11.676 72.3328 11.676C72.3328 11.676 72.3328 11.676 72.3328 11.676C72.3328 11.676 72.3328 11.676 72.3328 11.676C72.3328 11.676 72.3328 11.676 72.3328 11.676C72.3328 11.676 72.3328 11.676 72.3328 11.676C72.3328 11.676 72.3328 11.676 72.3328 11.676C72.3328 11.676 72.3328 11.676 72.3328 11.676C72.3328 11.676 72.3328 11.676 72.3328 11.676C72.3328 11.676 72.3328 11.676 72.3328 11.676C72.3328 11.676 72.3328 11.676 72.3328 11.676C72.3328 11.676 72.3328 11.676 72.3328 11.676C72.3328 11.676 72.3328 11.676 72.3328 11.676C72.3328 11.676 72.3328 11.676 72.3328 11.676C72.3328 11.676 72.3328 11.676 72.3328 11.676C72.3328 11.676 72.3328 11.676 72.3328 11.676C72.3328 11.676 72.3328 11.676 72.3328 11.676C72.3328 11.676 72.3328 11.676 72.3328 11.676C72.3328 11.676 72.3328 11.676 72.3328 11.676C72.3328 11.676 72.3328 11.676 72.3328 11.676C72.3328 11.676 72.3328 11.676 72.3328 11.676C72.3328 11.676 72.3328 11.676 72.3328 11.676C72.3328 11.676 72.3328 11.676 72.3328 11.676C72.3328 11.676 72.3328 11.676 72.3328 11.676C72.3328 11.676 72.3328 11.676 72.3328 11.676C72.3328 11.676 72.3328 11.676 72.3328 11.676C72.3328 11.676 72.3328 11.676 72.3328 11.676C72.3328 11.676 72.3328 11.676 72.3328 11.676C72.3328 11.676 72.3328 11.676 72.3328 11.676C72.3328 11.676 72.3328 11.676 72.3328 11.676C72.3328 11.676 72.3328 11.676 72.3328 11.676C72.3328 11.676 72.3328 11.676 72.3328 11.676C72.3328 11.676 72.3328 11.676 72.3328 11.676C72.3328 11.676 72.3328 11.676 72.3328 11.676C72.3328 11.676 72.3328 11.676 72.3328 11.676C72.3328 11.676 72.3328 11.676 72.3328 11.676C72.3328 11.676 72.3328 11.676 72.3328 11.676C72.3328 11.676 72.3328 11.676 72.3328 11.676C72.3328 11.676 72.3328 11.676 72.3328 11.676C72.3328 11.676 72.3328 11.676 72.3328 11.676C72.3328 11.676 72.3328 11.676 72.3328 11.676C72.3328 11.676 72.3328 11.676 72.3328 11.676C72.3328 11.676 72.3328 11.676 72.3328 11.676C72.3328 11.676 72.3328 11.676 72.3328 11.676C72.3328 11.676 72.3328 11.676 72.3328 11.676C72.3328 11.676 72.3328 11.676 72.3328 11.676C72.3328 11.676 72.3328 11.676 72.3328 11.676C72.3328 11.676 72.3328 11.676 72.3328 11.676C72.3328 11.676 72.3328 11.676 72.3328 11.676C72.3328 11.676 72.3328 11.676 72.3328 11.676C72.3328 11.676 72.3328 11.676 72.3328 11.676C72.3328 11.676 72.3328 11.676 72.3328 11.676C72.3328 11.676 72.3328 11.676 72.3328 11.676C72.3328 11.676 72.3328 11.676 72.3328 11.676C72.3328 11.676 72.3328 11.676 72.3328 11.676C72.3328 11.676 72.3328 11.676 72.3328 11.676C72.3328 11.676 72.3328 11.676 72.3328 11.676C72.3328 11.676 72.3328 11.676 72.3328 11.676C72.3328 11.676 72.3328 11.676 72.3328 11.676C72.3328 11.676 72.3328 11.676 72.3328 11.676C72.3328 11.676 72.3328 11.676 72.3328 11.676C72.3328 11.676 72.3328 11.6761 72.3328 11.6761C72.3328 11.6761 72.3328 11.6761 72.3328 11.6761C72.3328 11.6761 72.3328 11.6761 72.3328 11.6761C72.3328 11.6761 72.3328 11.6761 72.3328 11.6761C72.3328 11.6761 72.3328 11.6761 72.3328 11.6761C72.3328 11.6761 72.3328 11.6761 72.3328 11.6761C72.3328 11.6761 72.3328 11.6761 72.3328 11.6761C72.3328 11.6761 72.3328 11.6761 72.3328 11.6761C72.3328 11.6761 72.3328 11.6761 72.3328 11.6761C72.3328 11.6761 72.3328 11.6761 72.3328 11.6761C72.3328 11.6761 72.3328 11.6761 72.3328 11.6761C72.3328 11.6761 72.3328 11.6761 72.3328 11.6761C72.3328 11.6761 72.3328 11.6761 72.3328 11.6761C72.3328 11.6761 72.3328 11.6761 72.3328 11.6761C72.3328 11.6761 72.3328 11.6761 72.3328 11.6761C72.3328 11.6761 72.3328 11.6761 72.3328 11.6761C72.3328 11.6761 72.3328 11.6761 72.3328 11.6761C72.3328 11.6761 72.3328 11.6761 72.3328 11.6761C72.3328 11.6761 72.3328 11.6761 72.3328 11.6761C72.3328 11.6761 72.3328 11.6761 72.3328 11.6761C72.3328 11.6761 72.3328 11.6761 72.3328 11.6761C72.3328 11.6761 72.3328 11.6761 72.3328 11.6761C72.3328 11.6761 72.3328 11.6761 72.3328 11.6761C72.3328 11.6761 72.3328 11.6761 72.3328 11.6761C72.3328 11.6761 72.3328 11.6761 72.3328 11.6761C72.3328 11.6761 72.3328 11.6761 72.3328 11.6761C72.3328 11.6761 72.3328 11.6761 72.3328 11.6761C72.3328 11.6761 72.3328 11.6761 72.3328 11.6761C72.3328 11.6761 72.3328 11.6761 72.3328 11.6761C72.3328 11.6761 72.3328 11.6761 72.3328 11.6761C72.3328 11.6761 72.3328 11.6761 72.3328 11.6761C72.3328 11.6761 72.3328 11.6761 72.3328 11.6761C72.3328 11.6761 72.3328 11.6761 72.3328 11.6761C72.3328 11.6761 72.3328 11.6761 72.3328 11.6761C72.3328 11.6761 72.3328 11.6761 72.3328 11.6761C72.3328 11.6761 72.3328 11.6761 72.3328 11.6761C72.3328 11.6761 72.3328 11.6761 72.3328 11.6761C72.3328 11.6761 72.3328 11.6761 72.3328 11.6761C72.3328 11.6761 72.3328 11.6761 72.3328 11.6761C72.3328 11.6761 72.3328 11.6761 72.3328 11.6761C72.3328 11.6761 72.3328 11.6761 72.3328 11.6761C72.3328 11.6761 72.3328 11.6761 72.3328 11.6761C72.3328 11.6761 72.3328 11.6761 72.3328 11.6761C72.3328 11.6761 72.3328 11.6761 72.3328 11.6761C72.3328 11.6761 72.3328 11.6761 72.3328 11.6761C72.3328 11.6761 72.3328 11.6761 72.3328 11.6761C72.3328 11.6761 72.3328 11.6761 72.3328 11.6761C72.3328 11.6761 72.3328 11.6761 72.3328 11.6761C72.3328 11.6761 72.3328 11.6761 72.3328 11.6761C72.3328 11.6761 72.3328 11.6761 72.3328 11.6761C72.3328 11.6761 72.3328 11.6761 72.3328 11.6761C72.3328 11.6761 72.3328 11.6761 72.3328 11.6761C72.3328 11.6761 72.3328 11.6761 72.3328 11.6761C72.3328 11.6761 72.3328 11.6761 72.3328 11.6761C72.3328 11.6761 72.3328 11.6761 72.3328 11.6761C72.3328 11.6761 72.3328 11.6761 72.3328 11.6761C72.3328 11.6761 72.3328 11.6761 72.3328 11.6761C72.3328 11.6761 72.3328 11.6761 72.3328 11.6761C72.3328 11.6761 72.3328 11.6761 72.3328 11.6761C72.3328 11.6761 72.3328 11.6761 72.3328 11.6761C72.3328 11.6761 72.3328 11.6761 72.3328 11.6761C72.3328 11.6761 72.3328 11.6761 72.3328 11.6762C72.3328 11.6762 72.3328 11.6762 72.3328 11.6762C72.3328 11.6762 72.3328 11.6762 72.3328 11.6762C72.3328 11.6762 72.3328 11.6762 72.3328 11.6762C72.3328 11.6762 72.3328 11.6762 72.3328 11.6762C72.3328 11.6762 72.3328 11.6762 72.3328 11.6762C72.3328 11.6762 72.3328 11.6762 72.3328 11.6762C72.3328 11.6762 72.3328 11.6762 72.3328 11.6762C72.3328 11.6762 72.3328 11.6762 72.3328 11.6762C72.3328 11.6762 72.3328 11.6762 72.3328 11.6762C72.3328 11.6762 72.3328 11.6762 72.3328 11.6762C72.3328 11.6762 72.3328 11.6762 72.3328 11.6762C72.3328 11.6762 72.3328 11.6762 72.3328 11.6762C72.3328 11.6762 72.3328 11.6762 72.3328 11.6762C72.3328 11.6762 72.3328 11.6762 72.3328 11.6762C72.3328 11.6762 72.3328 11.6762 72.3328 11.6762C72.3328 11.6762 72.3328 11.6762 72.3328 11.6762C72.3328 11.6762 72.3328 11.6762 72.3328 11.6762C72.3328 11.6762 72.3328 11.6762 72.3328 11.6762C72.3328 11.6762 72.3328 11.6762 72.3328 11.6762C72.3328 11.6762 72.3328 11.6762 72.3328 11.6762C72.3328 11.6762 72.3328 11.6762 72.3328 11.6762C72.3328 11.6762 72.3328 11.6762 72.3328 11.6762C72.3328 11.6762 72.3328 11.6762 72.3328 11.6762C72.3328 11.6762 72.3328 11.6762 72.3328 11.6762C72.3328 11.6762 72.3328 11.6762 72.3328 11.6762C72.3328 11.6762 72.3328 11.6762 72.3328 11.6762C72.3328 11.6762 72.3328 11.6762 72.3328 11.6762C72.3328 11.6762 72.3328 11.6762 72.3328 11.6762C72.3328 11.6762 72.3328 11.6762 72.3328 11.6762C72.3328 11.6762 72.3328 11.6762 72.3328 11.6762C72.3328 11.6762 72.3328 11.6762 72.3328 11.6762C72.3328 11.6762 72.3328 11.6762 72.3328 11.6762C72.3328 11.6762 72.3328 11.6762 72.3328 11.6762C72.3328 11.6762 72.3328 11.6762 72.3328 11.6762C72.3328 11.6762 72.3328 11.6762 72.3328 11.6762C72.3328 11.6762 72.3328 11.6762 72.3328 11.6762C72.3328 11.6762 72.3328 11.6762 72.3328 11.6762C72.3328 11.6762 72.3328 11.6762 72.3328 11.6762C72.3328 11.6762 72.3328 11.6762 72.3328 11.6762C72.3328 11.6762 72.3328 11.6762 72.3328 11.6762C72.3328 11.6762 72.3328 11.6762 72.3328 11.6762C72.3328 11.6762 72.3328 11.6762 72.3328 11.6762C72.3328 11.6762 72.3328 11.6762 72.3328 11.6762C72.3328 11.6762 72.3328 11.6762 72.3328 11.6762C72.3328 11.6762 72.3328 11.6762 72.3328 11.6762C72.3328 11.6762 72.3328 11.6762 72.3328 11.6762C72.3328 11.6762 72.3328 11.6762 72.3328 11.6762C72.3328 11.6762 72.3328 11.6762 72.3328 11.6762C72.3328 11.6762 72.3328 11.6762 72.3328 11.6762C72.3328 11.6762 72.3328 11.6762 72.3328 11.6762C72.3328 11.6762 72.3328 11.6762 72.3328 11.6762C72.3328 11.6762 72.3328 11.6762 72.3328 11.6762C72.3328 11.6762 72.3328 11.6762 72.3328 11.6762C72.3328 11.6762 72.3328 11.6762 72.3328 11.6762C72.3328 11.6762 72.3328 11.6762 72.3328 11.6762C72.3328 11.6762 72.3328 11.6762 72.3328 11.6762C72.3328 11.6762 72.3328 11.6762 72.3328 11.6762C72.3328 11.6762 72.3328 11.6762 72.3328 11.6762C72.3328 11.6762 72.3328 11.6762 72.3328 11.6762C72.3328 11.6762 72.3328 11.6762 72.3328 11.6762C72.3328 11.6762 72.3328 11.6762 72.3328 11.6762C72.3328 11.6763 72.3328 11.6763 72.3328 11.6763C72.3328 11.6763 72.3328 11.6763 72.3328 11.6763C72.3328 11.6763 72.3328 11.6763 72.3328 11.6763C72.3328 11.6763 72.3328 11.6763 72.3328 11.6763C72.3328 11.6763 72.3328 11.6763 72.3328 11.6763C72.3328 11.6763 72.3328 11.6763 72.3328 11.6763C72.3328 11.6763 72.3328 11.6763 72.3328 11.6763C72.3328 11.6763 72.3328 11.6763 72.3328 11.6763C72.3328 11.6763 72.3328 11.6763 72.3328 11.6763C72.3328 11.6763 72.3328 11.6763 72.3328 11.6763C72.3328 11.6763 72.3328 11.6763 72.3328 11.6763C72.3328 11.6763 72.3328 11.6763 72.3328 11.6763C72.3328 11.6763 72.3328 11.6763 72.3328 11.6763C72.3328 11.6763 72.3328 11.6763 72.3328 11.6763C72.3328 11.6763 72.3328 11.6763 72.3328 11.6763C72.3328 11.6763 72.3328 11.6763 72.3328 11.6763C72.3328 11.6763 72.3328 11.6763 72.3328 11.6763C72.3328 11.6763 72.3328 11.6763 72.3328 11.6763C72.3328 11.6763 72.3328 11.6763 72.3328 11.6763C72.3328 11.6763 72.3328 11.6763 72.3328 11.6763C72.3328 11.6763 72.3328 11.6763 72.3328 11.6763C72.3328 11.6763 72.3328 11.6763 72.3328 11.6763C72.3328 11.6763 72.3328 11.6763 72.3328 11.6763C72.3328 11.6763 72.3328 11.6763 72.3328 11.6763C72.3328 11.6763 72.3328 11.6763 72.3328 11.6763C72.3328 11.6763 72.3328 11.6763 72.3328 11.6763C72.3328 11.6763 72.3328 11.6763 72.3328 11.6763C72.3328 11.6763 72.3328 11.6763 72.3328 11.6763C72.3328 11.6763 72.3328 11.6763 72.3328 11.6763C72.3328 11.6763 72.3328 11.6763 72.3328 11.6763C72.3328 11.6763 72.3328 11.6763 72.3328 11.6763C72.3328 11.6763 72.3328 11.6763 72.3328 11.6763C72.3328 11.6763 72.3328 11.6763 72.3328 11.6763C72.3328 11.6763 72.3328 11.6763 72.3328 11.6763C72.3328 11.6763 72.3328 11.6763 72.3328 11.6763C72.3328 11.6763 72.3328 11.6763 72.3328 11.6763C72.3328 11.6763 72.3328 11.6763 72.3328 11.6763C72.3328 11.6763 72.3328 11.6763 72.3328 11.6763C72.3328 11.6763 72.3328 11.6763 72.3328 11.6763C72.3328 11.6763 72.3328 11.6763 72.3328 11.6763C72.3328 11.6763 72.3328 11.6763 72.3328 11.6763C72.3328 11.6763 72.3328 11.6763 72.3328 11.6763C72.3328 11.6763 72.3328 11.6763 72.3328 11.6763C72.3328 11.6763 72.3328 11.6763 72.3328 11.6763C72.3328 11.6763 72.3328 11.6763 72.3328 11.6763C72.3328 11.6763 72.3328 11.6763 72.3328 11.6763C72.3328 11.6763 72.3328 11.6763 72.3328 11.6763C72.3328 11.6763 72.3328 11.6763 72.3328 11.6763C72.3328 11.6763 72.3328 11.6763 72.3328 11.6763C72.3328 11.6763 72.3328 11.6763 72.3328 11.6763C72.3328 11.6763 72.3328 11.6763 72.3328 11.6763C72.3328 11.6763 72.3328 11.6763 72.3328 11.6763C72.3328 11.6763 72.3328 11.6763 72.3328 11.6763C72.3328 11.6763 72.3328 11.6763 72.3328 11.6763C72.3328 11.6763 72.3328 11.6763 72.3328 11.6763C72.3328 11.6763 72.3328 11.6763 72.3328 11.6763C72.3328 11.6763 72.3328 11.6763 72.3328 11.6763C72.3328 11.6763 72.3328 11.6763 72.3328 11.6763C72.3328 11.6763 72.3328 11.6763 72.3328 11.6763C72.3328 11.6763 72.3328 11.6763 72.3328 11.6763C72.3328 11.6763 72.3328 11.6763 72.3328 11.6763C72.3328 11.6764 72.3328 11.6764 72.3328 11.6764C72.3328 11.6764 72.3328 11.6764 72.3328 11.6764C72.3328 11.6764 72.3328 11.6764 72.3328 11.6764C72.3328 11.6764 72.3328 11.6764 72.3328 11.6764C72.3328 11.6764 72.3328 11.6764 72.3328 11.6764C72.3328 11.6764 72.3328 11.6764 72.3328 11.6764C72.3328 11.6764 72.3328 11.6764 72.3328 11.6764C72.3328 11.6764 72.3328 11.6764 72.3328 11.6764C72.3328 11.6764 72.3328 11.6764 72.3328 11.6764C72.3328 11.6764 72.3328 11.6764 72.3328 11.6764C72.3328 11.6764 72.3328 11.6764 72.3328 11.6764C72.3328 11.6764 72.3328 11.6764 72.3328 11.6764C72.3328 11.6764 72.3328 11.6764 72.3328 11.6764C72.3328 11.6764 72.3328 11.6764 72.3328 11.6764C72.3328 11.6764 72.3328 11.6764 72.3328 11.6764C72.3328 11.6764 72.3328 11.6764 72.3328 11.6764C72.3328 11.6764 72.3328 11.6764 72.3328 11.6764C72.3328 11.6764 72.3328 11.6764 72.3328 11.6764C72.3328 11.6764 72.3328 11.6764 72.3328 11.6764C72.3328 11.6764 72.3328 11.6764 72.3328 11.6764C72.3328 11.6764 72.3328 11.6764 72.3328 11.6764C72.3328 11.6764 72.3328 11.6764 72.3328 11.6764C72.3328 11.6764 72.3328 11.6764 72.3328 11.6764C72.3328 11.6764 72.3328 11.6764 72.3328 11.6764C72.3328 11.6764 72.3328 11.6764 72.3328 11.6764C72.3328 11.6764 72.3328 11.6764 72.3328 11.6764C72.3328 11.6764 72.3328 11.6764 72.3328 11.6764C72.3328 11.6764 72.3328 11.6764 72.3328 11.6764C72.3328 11.6764 72.3328 11.6764 72.3328 11.6764C72.3328 11.6764 72.3328 11.6764 72.3328 11.6764C72.3328 11.6764 72.3328 11.6764 72.3328 11.6764C72.3328 11.6764 72.3328 11.6764 72.3328 11.6764C72.3328 11.6764 72.3328 11.6764 72.3328 11.6764C72.3328 11.6764 72.3328 11.6764 72.3328 11.6764C72.3328 11.6764 72.3328 11.6764 72.3328 11.6764C72.3328 11.6764 72.3328 11.6764 72.3328 11.6764C72.3328 11.6764 72.3328 11.6764 72.3328 11.6764C72.3328 11.6764 72.3328 11.6764 72.3328 11.6764C72.3328 11.6764 72.3328 11.6764 72.3328 11.6764C72.3328 11.6764 72.3328 11.6764 72.3328 11.6764C72.3328 11.6764 72.3328 11.6764 72.3328 11.6764C72.3328 11.6764 72.3328 11.6764 72.3328 11.6764C72.3328 11.6764 72.3328 11.6764 72.3328 11.6764C72.3328 11.6764 72.3328 11.6764 72.3328 11.6764C72.3328 11.6764 72.3328 11.6764 72.3328 11.6764C72.3328 11.6764 72.3328 11.6764 72.3328 11.6764C72.3328 11.6764 72.3328 11.6764 72.3328 11.6764C72.3328 11.6764 72.3328 11.6764 72.3328 11.6764C72.3328 11.6764 72.3328 11.6764 72.3328 11.6764C72.3328 11.6764 72.3328 11.6764 72.3328 11.6764C72.3328 11.6764 72.3328 11.6764 72.3328 11.6764C72.3328 11.6764 72.3328 11.6764 72.3328 11.6764C72.3328 11.6764 72.3328 11.6764 72.3328 11.6764C72.3328 11.6764 72.3328 11.6764 72.3328 11.6764C72.3328 11.6764 72.3328 11.6764 72.3328 11.6764C72.3328 11.6764 72.3328 11.6764 72.3328 11.6764C72.3328 11.6764 72.3328 11.6764 72.3328 11.6764C72.3328 11.6764 72.3328 11.6764 72.3328 11.6764C72.3328 11.6764 72.3328 11.6764 72.3328 11.6764C72.3328 11.6764 72.3328 11.6764 72.3328 11.6764C72.3328 11.6764 72.3328 11.6764 72.3328 11.6764C72.3328 11.6764 72.3328 11.6765 72.3328 11.6765C72.3328 11.6765 72.3328 11.6765 72.3328 11.6765C72.3328 11.6765 72.3328 11.6765 72.3328 11.6765C72.3328 11.6765 72.3328 11.6765 72.3328 11.6765C72.3328 11.6765 72.3328 11.6765 72.3328 11.6765C72.3328 11.6765 72.3328 11.6765 72.3328 11.6765C72.3328 11.6765 72.3328 11.6765 72.3328 11.6765C72.3328 11.6765 72.3328 11.6765 72.3328 11.6765C72.3328 11.6765 72.3328 11.6765 72.3328 11.6765C72.3328 11.6765 72.3328 11.6765 72.3328 11.6765C72.3328 11.6765 72.3328 11.6765 72.3328 11.6765C72.3328 11.6765 72.3328 11.6765 72.3328 11.6765C72.3328 11.6765 72.3328 11.6765 72.3328 11.6765C72.3328 11.6765 72.3328 11.6765 72.3328 11.6765C72.3328 11.6765 72.3328 11.6765 72.3328 11.6765C72.3328 11.6765 72.3328 11.6765 72.3328 11.6765C72.3328 11.6765 72.3328 11.6765 72.3328 11.6765C72.3328 11.6765 72.3328 11.6765 72.3328 11.6765C72.3328 11.6765 72.3328 11.6765 72.3328 11.6765C72.3328 11.6765 72.3328 11.6765 72.3328 11.6765C72.3328 11.6765 72.3328 11.6765 72.3328 11.6765C72.3328 11.6765 72.3328 11.6765 72.3328 11.6765C72.3328 11.6765 72.3328 11.6765 72.3328 11.6765C72.3328 11.6765 72.3328 11.6765 72.3328 11.6765C72.3328 11.6765 72.3328 11.6765 72.3328 11.6765C72.3328 11.6765 72.3328 11.6765 72.3328 11.6765C72.3328 11.6765 72.3328 11.6765 72.3328 11.6765C72.3328 11.6765 72.3328 11.6765 72.3328 11.6765C72.3328 11.6765 72.3328 11.6765 72.3328 11.6765C72.3328 11.6765 72.3328 11.6765 72.3328 11.6765C72.3328 11.6765 72.3328 11.6765 72.3328 11.6765C72.3328 11.6765 72.3328 11.6765 72.3328 11.6765C72.3328 11.6765 72.3328 11.6765 72.3328 11.6765C72.3328 11.6765 72.3328 11.6765 72.3328 11.6765C72.3328 11.6765 72.3328 11.6765 72.3328 11.6765C72.3328 11.6765 72.3328 11.6765 72.3328 11.6765C72.3328 11.6765 72.3328 11.6765 72.3328 11.6765C72.3328 11.6765 72.3328 11.6765 72.3328 11.6765C72.3328 11.6765 72.3328 11.6765 72.3328 11.6765C72.3328 11.6765 72.3328 11.6765 72.3328 11.6765C72.3328 11.6765 72.3328 11.6765 72.3328 11.6765C72.3328 11.6765 72.3328 11.6765 72.3328 11.6765C72.3328 11.6765 72.3328 11.6765 72.3328 11.6765C72.3328 11.6765 72.3328 11.6765 72.3328 11.6765C72.3328 11.6765 72.3328 11.6765 72.3328 11.6765C72.3328 11.6765 72.3328 11.6765 72.3328 11.6765C72.3328 11.6765 72.3328 11.6765 72.3328 11.6765C72.3328 11.6765 72.3328 11.6765 72.3328 11.6765C72.3328 11.6765 72.3328 11.6765 72.3328 11.6765C72.3328 11.6765 72.3328 11.6765 72.3328 11.6765C72.3328 11.6765 72.3328 11.6765 72.3328 11.6765C72.3328 11.6765 72.3328 11.6765 72.3328 11.6765C72.3328 11.6765 72.3328 11.6765 72.3328 11.6765C72.3328 11.6765 72.3328 11.6765 72.3328 11.6765C72.3328 11.6765 72.3328 11.6765 72.3328 11.6765C72.3328 11.6765 72.3328 11.6765 72.3328 11.6765C72.3328 11.6765 72.3328 11.6765 72.3328 11.6765C72.3328 11.6765 72.3328 11.6765 72.3328 11.6765C72.3328 11.6765 72.3328 11.6765 72.3328 11.6765C72.3328 11.6765 72.3328 11.6765 72.3328 11.6765C72.3328 11.6765 72.3328 11.6765 72.3328 11.6765C72.3328 11.6765 72.3328 11.6765 72.3328 11.6766C72.3328 11.6766 72.3328 11.6766 72.3328 11.6766C72.3328 11.6766 72.3328 11.6766 72.3328 11.6766C72.3328 11.6766 72.3328 11.6766 72.3328 11.6766C72.3328 11.6766 72.3328 11.6766 72.3328 11.6766C72.3328 11.6766 72.3328 11.6766 72.3328 11.6766C72.3328 11.6766 72.3328 11.6766 72.3328 11.6766C72.3328 11.6766 72.3328 11.6766 72.3328 11.6766C72.3328 11.6766 72.3328 11.6766 72.3328 11.6766C72.3328 11.6766 72.3328 11.6766 72.3328 11.6766C72.3328 11.6766 72.3328 11.6766 72.3328 11.6766C72.3328 11.6766 72.3328 11.6766 72.3328 11.6766C72.3328 11.6766 72.3328 11.6766 72.3328 11.6766C72.3328 11.6766 72.3328 11.6766 72.3328 11.6766C72.3328 11.6766 72.3328 11.6766 72.3328 11.6766C72.3328 11.6766 72.3328 11.6766 72.3328 11.6766C72.3328 11.6766 72.3328 11.6766 72.3328 11.6766C72.3328 11.6766 72.3328 11.6766 72.3328 11.6766C72.3328 11.6766 72.3328 11.6766 72.3328 11.6766C72.3328 11.6766 72.3328 11.6766 72.3328 11.6766C72.3328 11.6766 72.3328 11.6766 72.3328 11.6766C72.3328 11.6766 72.3328 11.6766 72.3328 11.6766C72.3328 11.6766 72.3328 11.6766 72.3328 11.6766C72.3328 11.6766 72.3328 11.6766 72.3328 11.6766C72.3328 11.6766 72.3328 11.6766 72.3328 11.6766C72.3328 11.6766 72.3328 11.6766 72.3328 11.6766C72.3328 11.6766 72.3328 11.6766 72.3328 11.6766C72.3328 11.6766 72.3328 11.6766 72.3328 11.6766C72.3328 11.6766 72.3328 11.6766 72.3328 11.6766C72.3328 11.6766 72.3328 11.6766 72.3328 11.6766C72.3328 11.6766 72.3328 11.6766 72.3328 11.6766C72.3328 11.6766 72.3328 11.6766 72.3328 11.6766C72.3328 11.6766 72.3328 11.6766 72.3328 11.6766C72.3328 11.6766 72.3328 11.6766 72.3328 11.6766C72.3328 11.6766 72.3328 11.6766 72.3328 11.6766C72.3328 11.6766 72.3328 11.6766 72.3328 11.6766C72.3328 11.6766 72.3328 11.6766 72.3328 11.6766C72.3328 11.6766 72.3328 11.6766 72.3328 11.6766C72.3328 11.6766 72.3328 11.6766 72.3328 11.6766C72.3328 11.6766 72.3328 11.6766 72.3328 11.6766C72.3328 11.6766 72.3328 11.6766 72.3328 11.6766C72.3328 11.6766 72.3328 11.6766 72.3328 11.6766C72.3328 11.6766 72.3328 11.6766 72.3328 11.6766C72.3328 11.6766 72.3328 11.6766 72.3328 11.6766C72.3328 11.6766 72.3328 11.6766 72.3328 11.6766C72.3328 11.6766 72.3328 11.6766 72.3328 11.6766C72.3328 11.6766 72.3328 11.6766 72.3328 11.6766C72.3328 11.6766 72.3328 11.6766 72.3328 11.6766C72.3328 11.6766 72.3328 11.6766 72.3328 11.6766C72.3328 11.6766 72.3328 11.6766 72.3328 11.6766C72.3328 11.6766 72.3328 11.6766 72.3328 11.6766C72.3328 11.6766 72.3328 11.6766 72.3328 11.6766C72.3328 11.6766 72.3328 11.6766 72.3328 11.6766C72.3328 11.6766 72.3328 11.6766 72.3328 11.6766C72.3328 11.6766 72.3328 11.6766 72.3328 11.6766C72.3328 11.6766 72.3328 11.6766 72.3328 11.6766C72.3328 11.6766 72.3328 11.6766 72.3328 11.6766C72.3328 11.6766 72.3328 11.6766 72.3328 11.6766C72.3328 11.6766 72.3328 11.6766 72.3328 11.6766C72.3328 11.6766 72.3328 11.6766 72.3328 11.6766C72.3328 11.6766 72.3328 11.6766 72.3328 11.6766C72.3328 11.6766 72.3328 11.6766 72.3328 11.6767C72.3328 11.6767 72.3328 11.6767 72.3328 11.6767C72.3328 11.6767 72.3328 11.6767 72.3328 11.6767C72.3328 11.6767 72.3328 11.6767 72.3328 11.6767C72.3328 11.6767 72.3328 11.6767 72.3328 11.6767C72.3328 11.6767 72.3328 11.6767 72.3328 11.6767C72.3328 11.6767 72.3328 11.6767 72.3328 11.6767C72.3328 11.6767 72.3328 11.6767 72.3328 11.6767C72.3328 11.6767 72.3328 11.6767 72.3328 11.6767C72.3328 11.6767 72.3328 11.6767 72.3328 11.6767C72.3328 11.6767 72.3328 11.6767 72.3328 11.6767C72.3328 11.6767 72.3328 11.6767 72.3328 11.6767C72.3328 11.6767 72.3328 11.6767 72.3328 11.6767C72.3328 11.6767 72.3328 11.6767 72.3328 11.6767C72.3328 11.6767 72.3328 11.6767 72.3328 11.6767H72.7646C72.7646 11.6767 72.7646 11.6767 72.7646 11.6767C72.7646 11.6767 72.7646 11.6767 72.7646 11.6767C72.7646 11.6767 72.7646 11.6767 72.7646 11.6767C72.7646 11.6767 72.7646 11.6767 72.7646 11.6767C72.7646 11.6767 72.7646 11.6767 72.7646 11.6767C72.7646 11.6767 72.7646 11.6767 72.7646 11.6767C72.7646 11.6767 72.7646 11.6767 72.7646 11.6767C72.7646 11.6767 72.7646 11.6767 72.7646 11.6767C72.7646 11.6767 72.7646 11.6767 72.7646 11.6767C72.7646 11.6767 72.7646 11.6767 72.7646 11.6767C72.7646 11.6767 72.7646 11.6767 72.7646 11.6767C72.7646 11.6767 72.7646 11.6767 72.7646 11.6767C72.7646 11.6767 72.7646 11.6767 72.7646 11.6767C72.7646 11.6767 72.7646 11.6767 72.7646 11.6767C72.7646 11.6766 72.7646 11.6766 72.7646 11.6766C72.7646 11.6766 72.7646 11.6766 72.7646 11.6766C72.7646 11.6766 72.7646 11.6766 72.7646 11.6766C72.7646 11.6766 72.7646 11.6766 72.7646 11.6766C72.7646 11.6766 72.7646 11.6766 72.7646 11.6766C72.7646 11.6766 72.7646 11.6766 72.7646 11.6766C72.7646 11.6766 72.7646 11.6766 72.7646 11.6766C72.7646 11.6766 72.7646 11.6766 72.7646 11.6766C72.7646 11.6766 72.7646 11.6766 72.7646 11.6766C72.7646 11.6766 72.7646 11.6766 72.7646 11.6766C72.7646 11.6766 72.7646 11.6766 72.7646 11.6766C72.7646 11.6766 72.7646 11.6766 72.7646 11.6766C72.7646 11.6766 72.7646 11.6766 72.7646 11.6766C72.7646 11.6766 72.7646 11.6766 72.7646 11.6766C72.7646 11.6766 72.7646 11.6766 72.7646 11.6766C72.7646 11.6766 72.7646 11.6766 72.7646 11.6766C72.7646 11.6766 72.7646 11.6766 72.7646 11.6766C72.7646 11.6766 72.7646 11.6766 72.7646 11.6766C72.7646 11.6766 72.7646 11.6766 72.7646 11.6766C72.7646 11.6766 72.7646 11.6766 72.7646 11.6766C72.7646 11.6766 72.7646 11.6766 72.7646 11.6766C72.7646 11.6766 72.7646 11.6766 72.7646 11.6766C72.7646 11.6766 72.7646 11.6766 72.7646 11.6766C72.7646 11.6766 72.7646 11.6766 72.7646 11.6766C72.7646 11.6766 72.7646 11.6766 72.7646 11.6766C72.7646 11.6766 72.7646 11.6766 72.7646 11.6766C72.7646 11.6766 72.7646 11.6766 72.7646 11.6766C72.7646 11.6766 72.7646 11.6766 72.7646 11.6766C72.7646 11.6766 72.7646 11.6766 72.7646 11.6766C72.7646 11.6766 72.7646 11.6766 72.7646 11.6766C72.7646 11.6766 72.7646 11.6766 72.7646 11.6766C72.7646 11.6766 72.7646 11.6766 72.7646 11.6766C72.7646 11.6766 72.7646 11.6766 72.7646 11.6766C72.7646 11.6766 72.7646 11.6766 72.7646 11.6766C72.7646 11.6766 72.7646 11.6766 72.7646 11.6766C72.7646 11.6766 72.7646 11.6766 72.7646 11.6766C72.7646 11.6766 72.7646 11.6766 72.7646 11.6766C72.7646 11.6766 72.7646 11.6766 72.7646 11.6766C72.7646 11.6766 72.7646 11.6766 72.7646 11.6766C72.7646 11.6766 72.7646 11.6766 72.7646 11.6766C72.7646 11.6766 72.7646 11.6766 72.7646 11.6766C72.7646 11.6766 72.7646 11.6766 72.7646 11.6766C72.7646 11.6766 72.7646 11.6766 72.7646 11.6766C72.7646 11.6766 72.7646 11.6766 72.7646 11.6766C72.7646 11.6766 72.7646 11.6766 72.7646 11.6766C72.7646 11.6766 72.7646 11.6766 72.7646 11.6766C72.7646 11.6766 72.7646 11.6766 72.7646 11.6766C72.7646 11.6766 72.7646 11.6766 72.7646 11.6766C72.7646 11.6766 72.7646 11.6766 72.7646 11.6766C72.7646 11.6766 72.7646 11.6766 72.7646 11.6766C72.7646 11.6766 72.7646 11.6766 72.7646 11.6766C72.7646 11.6766 72.7646 11.6766 72.7646 11.6766C72.7646 11.6766 72.7646 11.6766 72.7646 11.6766C72.7646 11.6766 72.7646 11.6766 72.7646 11.6766C72.7646 11.6766 72.7646 11.6766 72.7646 11.6766C72.7646 11.6766 72.7646 11.6766 72.7646 11.6766C72.7646 11.6766 72.7646 11.6766 72.7646 11.6766C72.7646 11.6766 72.7646 11.6766 72.7646 11.6766C72.7646 11.6766 72.7646 11.6766 72.7646 11.6766C72.7646 11.6766 72.7646 11.6766 72.7646 11.6766C72.7646 11.6766 72.7646 11.6766 72.7646 11.6766C72.7646 11.6765 72.7646 11.6765 72.7646 11.6765C72.7646 11.6765 72.7646 11.6765 72.7646 11.6765C72.7646 11.6765 72.7646 11.6765 72.7646 11.6765C72.7646 11.6765 72.7646 11.6765 72.7646 11.6765C72.7646 11.6765 72.7646 11.6765 72.7646 11.6765C72.7646 11.6765 72.7646 11.6765 72.7646 11.6765C72.7646 11.6765 72.7646 11.6765 72.7646 11.6765C72.7646 11.6765 72.7646 11.6765 72.7646 11.6765C72.7646 11.6765 72.7646 11.6765 72.7646 11.6765C72.7646 11.6765 72.7646 11.6765 72.7646 11.6765C72.7646 11.6765 72.7646 11.6765 72.7646 11.6765C72.7646 11.6765 72.7646 11.6765 72.7646 11.6765C72.7646 11.6765 72.7646 11.6765 72.7646 11.6765C72.7646 11.6765 72.7646 11.6765 72.7646 11.6765C72.7646 11.6765 72.7646 11.6765 72.7646 11.6765C72.7646 11.6765 72.7646 11.6765 72.7646 11.6765C72.7646 11.6765 72.7646 11.6765 72.7646 11.6765C72.7646 11.6765 72.7646 11.6765 72.7646 11.6765C72.7646 11.6765 72.7646 11.6765 72.7646 11.6765C72.7646 11.6765 72.7646 11.6765 72.7646 11.6765C72.7646 11.6765 72.7646 11.6765 72.7646 11.6765C72.7646 11.6765 72.7646 11.6765 72.7646 11.6765C72.7646 11.6765 72.7646 11.6765 72.7646 11.6765C72.7646 11.6765 72.7646 11.6765 72.7646 11.6765C72.7646 11.6765 72.7646 11.6765 72.7646 11.6765C72.7646 11.6765 72.7646 11.6765 72.7646 11.6765C72.7646 11.6765 72.7646 11.6765 72.7646 11.6765C72.7646 11.6765 72.7646 11.6765 72.7646 11.6765C72.7646 11.6765 72.7646 11.6765 72.7646 11.6765C72.7646 11.6765 72.7646 11.6765 72.7646 11.6765C72.7646 11.6765 72.7646 11.6765 72.7646 11.6765C72.7646 11.6765 72.7646 11.6765 72.7646 11.6765C72.7646 11.6765 72.7646 11.6765 72.7646 11.6765C72.7646 11.6765 72.7646 11.6765 72.7646 11.6765C72.7646 11.6765 72.7646 11.6765 72.7646 11.6765C72.7646 11.6765 72.7646 11.6765 72.7646 11.6765C72.7646 11.6765 72.7646 11.6765 72.7646 11.6765C72.7646 11.6765 72.7646 11.6765 72.7646 11.6765C72.7646 11.6765 72.7646 11.6765 72.7646 11.6765C72.7646 11.6765 72.7646 11.6765 72.7646 11.6765C72.7646 11.6765 72.7646 11.6765 72.7646 11.6765C72.7646 11.6765 72.7646 11.6765 72.7646 11.6765C72.7646 11.6765 72.7646 11.6765 72.7646 11.6765C72.7646 11.6765 72.7646 11.6765 72.7646 11.6765C72.7646 11.6765 72.7646 11.6765 72.7646 11.6765C72.7646 11.6765 72.7646 11.6765 72.7646 11.6765C72.7646 11.6765 72.7646 11.6765 72.7646 11.6765C72.7646 11.6765 72.7646 11.6765 72.7646 11.6765C72.7646 11.6765 72.7646 11.6765 72.7646 11.6765C72.7646 11.6765 72.7646 11.6765 72.7646 11.6765C72.7646 11.6765 72.7646 11.6765 72.7646 11.6765C72.7646 11.6765 72.7646 11.6765 72.7646 11.6765C72.7646 11.6765 72.7646 11.6765 72.7646 11.6765C72.7646 11.6765 72.7646 11.6765 72.7646 11.6765C72.7646 11.6765 72.7646 11.6765 72.7646 11.6765C72.7646 11.6765 72.7646 11.6765 72.7646 11.6765C72.7646 11.6765 72.7646 11.6765 72.7646 11.6765C72.7646 11.6765 72.7646 11.6765 72.7646 11.6765C72.7646 11.6765 72.7646 11.6765 72.7646 11.6765C72.7646 11.6765 72.7646 11.6765 72.7646 11.6765C72.7646 11.6765 72.7646 11.6765 72.7646 11.6765C72.7646 11.6765 72.7646 11.6764 72.7646 11.6764C72.7646 11.6764 72.7646 11.6764 72.7646 11.6764C72.7646 11.6764 72.7646 11.6764 72.7646 11.6764C72.7646 11.6764 72.7646 11.6764 72.7646 11.6764C72.7646 11.6764 72.7646 11.6764 72.7646 11.6764C72.7646 11.6764 72.7646 11.6764 72.7646 11.6764C72.7646 11.6764 72.7646 11.6764 72.7646 11.6764C72.7646 11.6764 72.7646 11.6764 72.7646 11.6764C72.7646 11.6764 72.7646 11.6764 72.7646 11.6764C72.7646 11.6764 72.7646 11.6764 72.7646 11.6764C72.7646 11.6764 72.7646 11.6764 72.7646 11.6764C72.7646 11.6764 72.7646 11.6764 72.7646 11.6764C72.7646 11.6764 72.7646 11.6764 72.7646 11.6764C72.7646 11.6764 72.7646 11.6764 72.7646 11.6764C72.7646 11.6764 72.7646 11.6764 72.7646 11.6764C72.7646 11.6764 72.7646 11.6764 72.7646 11.6764C72.7646 11.6764 72.7646 11.6764 72.7646 11.6764C72.7646 11.6764 72.7646 11.6764 72.7646 11.6764C72.7646 11.6764 72.7646 11.6764 72.7646 11.6764C72.7646 11.6764 72.7646 11.6764 72.7646 11.6764C72.7646 11.6764 72.7646 11.6764 72.7646 11.6764C72.7646 11.6764 72.7646 11.6764 72.7646 11.6764C72.7646 11.6764 72.7646 11.6764 72.7646 11.6764C72.7646 11.6764 72.7646 11.6764 72.7646 11.6764C72.7646 11.6764 72.7646 11.6764 72.7646 11.6764C72.7646 11.6764 72.7646 11.6764 72.7646 11.6764C72.7646 11.6764 72.7646 11.6764 72.7646 11.6764C72.7646 11.6764 72.7646 11.6764 72.7646 11.6764C72.7646 11.6764 72.7646 11.6764 72.7646 11.6764C72.7646 11.6764 72.7646 11.6764 72.7646 11.6764C72.7646 11.6764 72.7646 11.6764 72.7646 11.6764C72.7646 11.6764 72.7646 11.6764 72.7646 11.6764C72.7646 11.6764 72.7646 11.6764 72.7646 11.6764C72.7646 11.6764 72.7646 11.6764 72.7646 11.6764C72.7646 11.6764 72.7646 11.6764 72.7646 11.6764C72.7646 11.6764 72.7646 11.6764 72.7646 11.6764C72.7646 11.6764 72.7646 11.6764 72.7646 11.6764C72.7646 11.6764 72.7646 11.6764 72.7646 11.6764C72.7646 11.6764 72.7646 11.6764 72.7646 11.6764C72.7646 11.6764 72.7646 11.6764 72.7646 11.6764C72.7646 11.6764 72.7646 11.6764 72.7646 11.6764C72.7646 11.6764 72.7646 11.6764 72.7646 11.6764C72.7646 11.6764 72.7646 11.6764 72.7646 11.6764C72.7646 11.6764 72.7646 11.6764 72.7646 11.6764C72.7646 11.6764 72.7646 11.6764 72.7646 11.6764C72.7646 11.6764 72.7646 11.6764 72.7646 11.6764C72.7646 11.6764 72.7646 11.6764 72.7646 11.6764C72.7646 11.6764 72.7646 11.6764 72.7646 11.6764C72.7646 11.6764 72.7646 11.6764 72.7646 11.6764C72.7646 11.6764 72.7646 11.6764 72.7646 11.6764C72.7646 11.6764 72.7646 11.6764 72.7646 11.6764C72.7646 11.6764 72.7646 11.6764 72.7646 11.6764C72.7646 11.6764 72.7646 11.6764 72.7646 11.6764C72.7646 11.6764 72.7646 11.6764 72.7646 11.6764C72.7646 11.6764 72.7646 11.6764 72.7646 11.6764C72.7646 11.6764 72.7646 11.6764 72.7646 11.6764C72.7646 11.6764 72.7646 11.6764 72.7646 11.6764C72.7646 11.6764 72.7646 11.6764 72.7646 11.6764C72.7646 11.6764 72.7646 11.6764 72.7646 11.6764C72.7646 11.6764 72.7646 11.6764 72.7646 11.6764C72.7646 11.6764 72.7646 11.6764 72.7646 11.6764C72.7646 11.6764 72.7646 11.6764 72.7646 11.6763C72.7646 11.6763 72.7646 11.6763 72.7646 11.6763C72.7646 11.6763 72.7646 11.6763 72.7646 11.6763C72.7646 11.6763 72.7646 11.6763 72.7646 11.6763C72.7646 11.6763 72.7646 11.6763 72.7646 11.6763C72.7646 11.6763 72.7646 11.6763 72.7646 11.6763C72.7646 11.6763 72.7646 11.6763 72.7646 11.6763C72.7646 11.6763 72.7646 11.6763 72.7646 11.6763C72.7646 11.6763 72.7646 11.6763 72.7646 11.6763C72.7646 11.6763 72.7646 11.6763 72.7646 11.6763C72.7646 11.6763 72.7646 11.6763 72.7646 11.6763C72.7646 11.6763 72.7646 11.6763 72.7646 11.6763C72.7646 11.6763 72.7646 11.6763 72.7646 11.6763C72.7646 11.6763 72.7646 11.6763 72.7646 11.6763C72.7646 11.6763 72.7646 11.6763 72.7646 11.6763C72.7646 11.6763 72.7646 11.6763 72.7646 11.6763C72.7646 11.6763 72.7646 11.6763 72.7646 11.6763C72.7646 11.6763 72.7646 11.6763 72.7646 11.6763C72.7646 11.6763 72.7646 11.6763 72.7646 11.6763C72.7646 11.6763 72.7646 11.6763 72.7646 11.6763C72.7646 11.6763 72.7646 11.6763 72.7646 11.6763C72.7646 11.6763 72.7646 11.6763 72.7646 11.6763C72.7646 11.6763 72.7646 11.6763 72.7646 11.6763C72.7646 11.6763 72.7646 11.6763 72.7646 11.6763C72.7646 11.6763 72.7646 11.6763 72.7646 11.6763C72.7646 11.6763 72.7646 11.6763 72.7646 11.6763C72.7646 11.6763 72.7646 11.6763 72.7646 11.6763C72.7646 11.6763 72.7646 11.6763 72.7646 11.6763C72.7646 11.6763 72.7646 11.6763 72.7646 11.6763C72.7646 11.6763 72.7646 11.6763 72.7646 11.6763C72.7646 11.6763 72.7646 11.6763 72.7646 11.6763C72.7646 11.6763 72.7646 11.6763 72.7646 11.6763C72.7646 11.6763 72.7646 11.6763 72.7646 11.6763C72.7646 11.6763 72.7646 11.6763 72.7646 11.6763C72.7646 11.6763 72.7646 11.6763 72.7646 11.6763C72.7646 11.6763 72.7646 11.6763 72.7646 11.6763C72.7646 11.6763 72.7646 11.6763 72.7646 11.6763C72.7646 11.6763 72.7646 11.6763 72.7646 11.6763C72.7646 11.6763 72.7646 11.6763 72.7646 11.6763C72.7646 11.6763 72.7646 11.6763 72.7646 11.6763C72.7646 11.6763 72.7646 11.6763 72.7646 11.6763C72.7646 11.6763 72.7646 11.6763 72.7646 11.6763C72.7646 11.6763 72.7646 11.6763 72.7646 11.6763C72.7646 11.6763 72.7646 11.6763 72.7646 11.6763C72.7646 11.6763 72.7646 11.6763 72.7646 11.6763C72.7646 11.6763 72.7646 11.6763 72.7646 11.6763C72.7646 11.6763 72.7646 11.6763 72.7646 11.6763C72.7646 11.6763 72.7646 11.6763 72.7646 11.6763C72.7646 11.6763 72.7646 11.6763 72.7646 11.6763C72.7646 11.6763 72.7646 11.6763 72.7646 11.6763C72.7646 11.6763 72.7646 11.6763 72.7646 11.6763C72.7646 11.6763 72.7646 11.6763 72.7646 11.6763C72.7646 11.6763 72.7646 11.6763 72.7646 11.6763C72.7646 11.6763 72.7646 11.6763 72.7646 11.6763C72.7646 11.6763 72.7646 11.6763 72.7646 11.6763C72.7646 11.6763 72.7646 11.6763 72.7646 11.6763C72.7646 11.6763 72.7646 11.6763 72.7646 11.6763C72.7646 11.6763 72.7646 11.6763 72.7646 11.6763C72.7646 11.6763 72.7646 11.6763 72.7646 11.6763C72.7646 11.6763 72.7646 11.6763 72.7646 11.6763C72.7646 11.6763 72.7646 11.6763 72.7646 11.6763C72.7646 11.6763 72.7646 11.6763 72.7646 11.6762C72.7646 11.6762 72.7646 11.6762 72.7646 11.6762C72.7646 11.6762 72.7646 11.6762 72.7646 11.6762C72.7646 11.6762 72.7646 11.6762 72.7646 11.6762C72.7646 11.6762 72.7646 11.6762 72.7646 11.6762C72.7646 11.6762 72.7646 11.6762 72.7646 11.6762C72.7646 11.6762 72.7646 11.6762 72.7646 11.6762C72.7646 11.6762 72.7646 11.6762 72.7646 11.6762C72.7646 11.6762 72.7646 11.6762 72.7646 11.6762C72.7646 11.6762 72.7646 11.6762 72.7646 11.6762C72.7646 11.6762 72.7646 11.6762 72.7646 11.6762C72.7646 11.6762 72.7646 11.6762 72.7646 11.6762C72.7646 11.6762 72.7646 11.6762 72.7646 11.6762C72.7646 11.6762 72.7646 11.6762 72.7646 11.6762C72.7646 11.6762 72.7646 11.6762 72.7646 11.6762C72.7646 11.6762 72.7646 11.6762 72.7646 11.6762C72.7646 11.6762 72.7646 11.6762 72.7646 11.6762C72.7646 11.6762 72.7646 11.6762 72.7646 11.6762C72.7646 11.6762 72.7646 11.6762 72.7646 11.6762C72.7646 11.6762 72.7646 11.6762 72.7646 11.6762C72.7646 11.6762 72.7646 11.6762 72.7646 11.6762C72.7646 11.6762 72.7646 11.6762 72.7646 11.6762C72.7646 11.6762 72.7646 11.6762 72.7646 11.6762C72.7646 11.6762 72.7646 11.6762 72.7646 11.6762C72.7646 11.6762 72.7646 11.6762 72.7646 11.6762C72.7646 11.6762 72.7646 11.6762 72.7646 11.6762C72.7646 11.6762 72.7646 11.6762 72.7646 11.6762C72.7646 11.6762 72.7646 11.6762 72.7646 11.6762C72.7646 11.6762 72.7646 11.6762 72.7646 11.6762C72.7646 11.6762 72.7646 11.6762 72.7646 11.6762C72.7646 11.6762 72.7646 11.6762 72.7646 11.6762C72.7646 11.6762 72.7646 11.6762 72.7646 11.6762C72.7646 11.6762 72.7646 11.6762 72.7646 11.6762C72.7646 11.6762 72.7646 11.6762 72.7646 11.6762C72.7646 11.6762 72.7646 11.6762 72.7646 11.6762C72.7646 11.6762 72.7646 11.6762 72.7646 11.6762C72.7646 11.6762 72.7646 11.6762 72.7646 11.6762C72.7646 11.6762 72.7646 11.6762 72.7646 11.6762C72.7646 11.6762 72.7646 11.6762 72.7646 11.6762C72.7646 11.6762 72.7646 11.6762 72.7646 11.6762C72.7646 11.6762 72.7646 11.6762 72.7646 11.6762C72.7646 11.6762 72.7646 11.6762 72.7646 11.6762C72.7646 11.6762 72.7646 11.6762 72.7646 11.6762C72.7646 11.6762 72.7646 11.6762 72.7646 11.6762C72.7646 11.6762 72.7646 11.6762 72.7646 11.6762C72.7646 11.6762 72.7646 11.6762 72.7646 11.6762C72.7646 11.6762 72.7646 11.6762 72.7646 11.6762C72.7646 11.6762 72.7646 11.6762 72.7646 11.6762C72.7646 11.6762 72.7646 11.6762 72.7646 11.6762C72.7646 11.6762 72.7646 11.6762 72.7646 11.6762C72.7646 11.6762 72.7646 11.6762 72.7646 11.6762C72.7646 11.6762 72.7646 11.6762 72.7646 11.6762C72.7646 11.6762 72.7646 11.6762 72.7646 11.6762C72.7646 11.6762 72.7646 11.6762 72.7646 11.6762C72.7646 11.6762 72.7646 11.6762 72.7646 11.6762C72.7646 11.6762 72.7646 11.6762 72.7646 11.6762C72.7646 11.6762 72.7646 11.6762 72.7646 11.6762C72.7646 11.6762 72.7646 11.6762 72.7646 11.6762C72.7646 11.6762 72.7646 11.6762 72.7646 11.6762C72.7646 11.6762 72.7646 11.6762 72.7646 11.6762C72.7646 11.6762 72.7646 11.6762 72.7646 11.6762C72.7646 11.6762 72.7646 11.6762 72.7646 11.6762C72.7646 11.6761 72.7646 11.6761 72.7646 11.6761C72.7646 11.6761 72.7646 11.6761 72.7646 11.6761C72.7646 11.6761 72.7646 11.6761 72.7646 11.6761C72.7646 11.6761 72.7646 11.6761 72.7646 11.6761C72.7646 11.6761 72.7646 11.6761 72.7646 11.6761C72.7646 11.6761 72.7646 11.6761 72.7646 11.6761C72.7646 11.6761 72.7646 11.6761 72.7646 11.6761C72.7646 11.6761 72.7646 11.6761 72.7646 11.6761C72.7646 11.6761 72.7646 11.6761 72.7646 11.6761C72.7646 11.6761 72.7646 11.6761 72.7646 11.6761C72.7646 11.6761 72.7646 11.6761 72.7646 11.6761C72.7646 11.6761 72.7646 11.6761 72.7646 11.6761C72.7646 11.6761 72.7646 11.6761 72.7646 11.6761C72.7646 11.6761 72.7646 11.6761 72.7646 11.6761C72.7646 11.6761 72.7646 11.6761 72.7646 11.6761C72.7646 11.6761 72.7646 11.6761 72.7646 11.6761C72.7646 11.6761 72.7646 11.6761 72.7646 11.6761C72.7646 11.6761 72.7646 11.6761 72.7646 11.6761C72.7646 11.6761 72.7646 11.6761 72.7646 11.6761C72.7646 11.6761 72.7646 11.6761 72.7646 11.6761C72.7646 11.6761 72.7646 11.6761 72.7646 11.6761C72.7646 11.6761 72.7646 11.6761 72.7646 11.6761C72.7646 11.6761 72.7646 11.6761 72.7646 11.6761C72.7646 11.6761 72.7646 11.6761 72.7646 11.6761C72.7646 11.6761 72.7646 11.6761 72.7646 11.6761C72.7646 11.6761 72.7646 11.6761 72.7646 11.6761C72.7646 11.6761 72.7646 11.6761 72.7646 11.6761C72.7646 11.6761 72.7646 11.6761 72.7646 11.6761C72.7646 11.6761 72.7646 11.6761 72.7646 11.6761C72.7646 11.6761 72.7646 11.6761 72.7646 11.6761C72.7646 11.6761 72.7646 11.6761 72.7646 11.6761C72.7646 11.6761 72.7646 11.6761 72.7646 11.6761C72.7646 11.6761 72.7646 11.6761 72.7646 11.6761C72.7646 11.6761 72.7646 11.6761 72.7646 11.6761C72.7646 11.6761 72.7646 11.6761 72.7646 11.6761C72.7646 11.6761 72.7646 11.6761 72.7646 11.6761C72.7646 11.6761 72.7646 11.6761 72.7646 11.6761C72.7646 11.6761 72.7646 11.6761 72.7646 11.6761C72.7646 11.6761 72.7646 11.6761 72.7646 11.6761C72.7646 11.6761 72.7646 11.6761 72.7646 11.6761C72.7646 11.6761 72.7646 11.6761 72.7646 11.6761C72.7646 11.6761 72.7646 11.6761 72.7646 11.6761C72.7646 11.6761 72.7646 11.6761 72.7646 11.6761C72.7646 11.6761 72.7646 11.6761 72.7646 11.6761C72.7646 11.6761 72.7646 11.6761 72.7646 11.6761C72.7646 11.6761 72.7646 11.6761 72.7646 11.6761C72.7646 11.6761 72.7646 11.6761 72.7646 11.6761C72.7646 11.6761 72.7646 11.6761 72.7646 11.6761C72.7646 11.6761 72.7646 11.6761 72.7646 11.6761C72.7646 11.6761 72.7646 11.6761 72.7646 11.6761C72.7646 11.6761 72.7646 11.6761 72.7646 11.6761C72.7646 11.6761 72.7646 11.6761 72.7646 11.6761C72.7646 11.6761 72.7646 11.6761 72.7646 11.6761C72.7646 11.6761 72.7646 11.6761 72.7646 11.6761C72.7646 11.6761 72.7646 11.6761 72.7646 11.6761C72.7646 11.6761 72.7646 11.6761 72.7646 11.6761C72.7646 11.6761 72.7646 11.6761 72.7646 11.6761C72.7646 11.6761 72.7646 11.6761 72.7646 11.6761C72.7646 11.6761 72.7646 11.6761 72.7646 11.6761C72.7646 11.6761 72.7646 11.6761 72.7646 11.6761C72.7646 11.6761 72.7646 11.6761 72.7646 11.6761C72.7646 11.6761 72.7646 11.676 72.7646 11.676C72.7646 11.676 72.7646 11.676 72.7646 11.676C72.7646 11.676 72.7646 11.676 72.7646 11.676C72.7646 11.676 72.7646 11.676 72.7646 11.676C72.7646 11.676 72.7646 11.676 72.7646 11.676C72.7646 11.676 72.7646 11.676 72.7646 11.676C72.7646 11.676 72.7646 11.676 72.7646 11.676C72.7646 11.676 72.7646 11.676 72.7646 11.676C72.7646 11.676 72.7646 11.676 72.7646 11.676C72.7646 11.676 72.7646 11.676 72.7646 11.676C72.7646 11.676 72.7646 11.676 72.7646 11.676C72.7646 11.676 72.7646 11.676 72.7646 11.676C72.7646 11.676 72.7646 11.676 72.7646 11.676C72.7646 11.676 72.7646 11.676 72.7646 11.676C72.7646 11.676 72.7646 11.676 72.7646 11.676C72.7646 11.676 72.7646 11.676 72.7646 11.676C72.7646 11.676 72.7646 11.676 72.7646 11.676C72.7646 11.676 72.7646 11.676 72.7646 11.676C72.7646 11.676 72.7646 11.676 72.7646 11.676C72.7646 11.676 72.7646 11.676 72.7646 11.676C72.7646 11.676 72.7646 11.676 72.7646 11.676C72.7646 11.676 72.7646 11.676 72.7646 11.676C72.7646 11.676 72.7646 11.676 72.7646 11.676C72.7646 11.676 72.7646 11.676 72.7646 11.676C72.7646 11.676 72.7646 11.676 72.7646 11.676C72.7646 11.676 72.7646 11.676 72.7646 11.676C72.7646 11.676 72.7646 11.676 72.7646 11.676C72.7646 11.676 72.7646 11.676 72.7646 11.676C72.7646 11.676 72.7646 11.676 72.7646 11.676C72.7646 11.676 72.7646 11.676 72.7646 11.676C72.7646 11.676 72.7646 11.676 72.7646 11.676C72.7646 11.676 72.7646 11.676 72.7646 11.676C72.7646 11.676 72.7646 11.676 72.7646 11.676C72.7646 11.676 72.7646 11.676 72.7646 11.676C72.7646 11.676 72.7646 11.676 72.7646 11.676C72.7646 11.676 72.7646 11.676 72.7646 11.676C72.7646 11.676 72.7646 11.676 72.7646 11.676C72.7646 11.676 72.7646 11.676 72.7646 11.676C72.7646 11.676 72.7646 11.676 72.7646 11.676C72.7646 11.676 72.7646 11.676 72.7646 11.676C72.7646 11.676 72.7646 11.676 72.7646 11.676C72.7646 11.676 72.7646 11.676 72.7646 11.676C72.7646 11.676 72.7646 11.676 72.7646 11.676C72.7646 11.676 72.7646 11.676 72.7646 11.676C72.7646 11.676 72.7646 11.676 72.7646 11.676C72.7646 11.676 72.7646 11.676 72.7646 11.676C72.7646 11.676 72.7646 11.676 72.7646 11.676C72.7646 11.676 72.7646 11.676 72.7646 11.676C72.7646 11.676 72.7646 11.676 72.7646 11.676C72.7646 11.676 72.7646 11.676 72.7646 11.676C72.7646 11.676 72.7646 11.676 72.7646 11.676C72.7646 11.676 72.7646 11.676 72.7646 11.676C72.7646 11.676 72.7646 11.676 72.7646 11.676C72.7646 11.676 72.7646 11.676 72.7646 11.676C72.7646 11.676 72.7646 11.676 72.7646 11.676C72.7646 11.676 72.7646 11.676 72.7646 11.676C72.7646 11.676 72.7646 11.676 72.7646 11.676C72.7646 11.676 72.7646 11.676 72.7646 11.676C72.7646 11.676 72.7646 11.676 72.7646 11.676C72.7646 11.676 72.7646 11.676 72.7646 11.676C72.7646 11.676 72.7646 11.676 72.7646 11.676C72.7646 11.676 72.7646 11.676 72.7646 11.6759C72.7646 11.6759 72.7646 11.6759 72.7646 11.6759C72.7646 11.6759 72.7646 11.6759 72.7646 11.6759C72.7646 11.6759 72.7646 11.6759 72.7646 11.6759C72.7646 11.6759 72.7646 11.6759 72.7646 11.6759C72.7646 11.6759 72.7646 11.6759 72.7646 11.6759C72.7646 11.6759 72.7646 11.6759 72.7646 11.6759C72.7646 11.6759 72.7646 11.6759 72.7646 11.6759C72.7646 11.6759 72.7646 11.6759 72.7646 11.6759C72.7646 11.6759 72.7646 11.6759 72.7646 11.6759C72.7646 11.6759 72.7646 11.6759 72.7646 11.6759C72.7646 11.6759 72.7646 11.6759 72.7646 11.6759C72.7646 11.6759 72.7646 11.6759 72.7646 11.6759C72.7646 11.6759 72.7646 11.6759 72.7646 11.6759C72.7646 11.6759 72.7646 11.6759 72.7646 11.6759C72.7646 11.6759 72.7646 11.6759 72.7646 11.6759C72.7646 11.6759 72.7646 11.6759 72.7646 11.6759C72.7646 11.6759 72.7646 11.6759 72.7646 11.6759C72.7646 11.6759 72.7646 11.6759 72.7646 11.6759C72.7646 11.6759 72.7646 11.6759 72.7646 11.6759C72.7646 11.6759 72.7646 11.6759 72.7646 11.6759C72.7646 11.6759 72.7646 11.6759 72.7646 11.6759C72.7646 11.6759 72.7646 11.6759 72.7646 11.6759C72.7646 11.6759 72.7646 11.6759 72.7646 11.6759C72.7646 11.6759 72.7646 11.6759 72.7646 11.6759C72.7646 11.6759 72.7646 11.6759 72.7646 11.6759C72.7646 11.6759 72.7646 11.6759 72.7646 11.6759C72.7646 11.6759 72.7646 11.6759 72.7646 11.6759C72.7646 11.6759 72.7646 11.6759 72.7646 11.6759C72.7646 11.6759 72.7646 11.6759 72.7646 11.6759C72.7646 11.6759 72.7646 11.6759 72.7646 11.6759C72.7646 11.6759 72.7646 11.6759 72.7646 11.6759C72.7646 11.6759 72.7646 11.6759 72.7646 11.6759C72.7646 11.6759 72.7646 11.6759 72.7646 11.6759C72.7646 11.6759 72.7646 11.6759 72.7646 11.6759C72.7646 11.6759 72.7646 11.6759 72.7646 11.6759C72.7646 11.6759 72.7646 11.6759 72.7646 11.6759C72.7646 11.6759 72.7646 11.6759 72.7646 11.6759C72.7646 11.6759 72.7646 11.6759 72.7646 11.6759C72.7646 11.6759 72.7646 11.6759 72.7646 11.6759C72.7646 11.6759 72.7646 11.6759 72.7646 11.6759C72.7646 11.6759 72.7646 11.6759 72.7646 11.6759C72.7646 11.6759 72.7646 11.6759 72.7646 11.6759C72.7646 11.6759 72.7646 11.6759 72.7646 11.6759C72.7646 11.6759 72.7646 11.6759 72.7646 11.6759C72.7646 11.6759 72.7646 11.6759 72.7646 11.6759C72.7646 11.6759 72.7646 11.6759 72.7646 11.6759C72.7646 11.6759 72.7646 11.6759 72.7646 11.6759C72.7646 11.6759 72.7646 11.6759 72.7646 11.6759C72.7646 11.6759 72.7646 11.6759 72.7646 11.6759C72.7646 11.6759 72.7646 11.6759 72.7646 11.6759C72.7646 11.6759 72.7646 11.6759 72.7646 11.6759C72.7646 11.6759 72.7646 11.6759 72.7646 11.6759C72.7646 11.6759 72.7646 11.6759 72.7646 11.6759C72.7646 11.6759 72.7646 11.6759 72.7646 11.6759C72.7646 11.6759 72.7646 11.6759 72.7646 11.6759C72.7646 11.6759 72.7646 11.6759 72.7646 11.6759C72.7646 11.6759 72.7646 11.6759 72.7646 11.6759C72.7646 11.6759 72.7646 11.6759 72.7646 11.6759C72.7646 11.6759 72.7646 11.6759 72.7646 11.6759C72.7646 11.6759 72.7646 11.6759 72.7646 11.6759C72.7646 11.6759 72.7646 11.6759 72.7646 11.6758C72.7646 11.6758 72.7646 11.6758 72.7646 11.6758C72.7646 11.6758 72.7646 11.6758 72.7646 11.6758C72.7646 11.6758 72.7646 11.6758 72.7646 11.6758C72.7646 11.6758 72.7646 11.6758 72.7646 11.6758C72.7646 11.6758 72.7646 11.6758 72.7646 11.6758C72.7646 11.6758 72.7646 11.6758 72.7646 11.6758C72.7646 11.6758 72.7646 11.6758 72.7646 11.6758C72.7646 11.6758 72.7646 11.6758 72.7646 11.6758H72.3328ZM38.7665 4.71397C48.0848 4.71397 56.5146 5.51663 62.6093 6.81158C65.6584 7.45943 68.1115 8.22813 69.797 9.07486C70.6402 9.49841 71.2803 9.93609 71.7069 10.379C72.1326 10.8211 72.3328 11.2541 72.3328 11.6758H72.7646C72.7646 11.1065 72.4921 10.5719 72.0179 10.0795C71.5445 9.58792 70.8572 9.12417 69.9909 8.68897C68.2575 7.81822 65.7633 7.04024 62.699 6.38917C56.5669 5.08627 48.1056 4.28213 38.7665 4.28213V4.71397ZM5.2003 11.6758C5.2003 11.2541 5.40046 10.8211 5.82623 10.379C6.25284 9.93609 6.89293 9.49841 7.73607 9.07486C9.42163 8.22813 11.8747 7.45943 14.9238 6.81158C21.0185 5.51663 29.4483 4.71397 38.7665 4.71397V4.28213C29.4274 4.28213 20.9661 5.08627 14.8341 6.38917C11.7698 7.04024 9.2756 7.81822 7.54222 8.68897C6.67589 9.12417 5.9886 9.58792 5.51519 10.0795C5.04094 10.5719 4.76845 11.1065 4.76845 11.6758H5.2003ZM5.2003 11.6766C5.2003 11.6763 5.2003 11.6763 5.2003 11.6758H4.76845C4.76845 11.676 4.76845 11.6764 4.76845 11.6768L5.2003 11.6766ZM5.2003 33.6323V11.6767H4.76845V33.6323H5.2003ZM72.5487 33.4163H4.98438V33.8482H72.5487V33.4163ZM72.3328 11.6767V33.6323H72.7646V11.6767H72.3328Z" fill="black" mask="url(#path-38-inside-3)"/>
<path d="M72.4408 33.6308C72.4408 33.994 72.2307 34.3651 71.7922 34.7401C71.3545 35.1144 70.7025 35.4804 69.8527 35.832C68.1539 36.5347 65.6892 37.17 62.6355 37.7043C56.53 38.7726 48.091 39.434 38.7665 39.434C29.4421 39.434 21.0031 38.7726 14.8976 37.7043C11.8439 37.17 9.3792 36.5347 7.68042 35.832C6.83055 35.4804 6.17859 35.1144 5.74087 34.7401C5.30236 34.3651 5.09234 33.994 5.09234 33.6308C5.09234 33.2677 5.30236 32.8966 5.74087 32.5216C6.17859 32.1473 6.83055 31.7813 7.68042 31.4297C9.3792 30.727 11.8439 30.0917 14.8976 29.5574C21.0031 28.4891 29.4421 27.8277 38.7665 27.8277C48.091 27.8277 56.53 28.4891 62.6355 29.5574C65.6892 30.0917 68.1539 30.727 69.8527 31.4297C70.7025 31.7813 71.3545 32.1473 71.7922 32.5216C72.2307 32.8966 72.4408 33.2677 72.4408 33.6308Z" fill="white" stroke="black" stroke-width="0.215922"/>
<path d="M16.3424 17.8927L6.88281 9.77626L8.78306 8.7207L16.3424 17.8927Z" fill="white" stroke="black" stroke-width="0.215922"/>
<path d="M25.6028 17.2747L13.2188 7.24215L16.3858 6.60881L25.6028 17.2747Z" fill="white"/>
<path d="M36.5081 18.3034L19.9752 5.97548L26.0982 5.34214L36.5081 18.3034Z" fill="white"/>
<path d="M45.9731 17.6862L30.7433 5.13103L36.8663 4.91992L45.9731 17.6862Z" fill="white"/>
<path d="M55.2323 18.3034L42.1447 4.91992L47.8455 5.13103L55.2323 18.3034Z" fill="white"/>
<path d="M63.4627 17.6862L52.7017 5.55326L56.5022 5.97548L63.4627 17.6862Z" fill="white"/>
<path d="M70.8701 19.3321L63.2586 7.03104L67.0591 8.08659L70.8701 19.3321Z" fill="white"/>
<path d="M25.6028 17.2747L13.2188 7.24215L16.3858 6.60881L25.6028 17.2747Z" stroke="black" stroke-width="0.215922"/>
<path d="M36.5081 18.3034L19.9752 5.97548L26.0982 5.34214L36.5081 18.3034Z" stroke="black" stroke-width="0.215922"/>
<path d="M45.9731 17.6862L30.7433 5.13103L36.8663 4.91992L45.9731 17.6862Z" stroke="black" stroke-width="0.215922"/>
<path d="M55.2323 18.3034L42.1447 4.91992L47.8455 5.13103L55.2323 18.3034Z" stroke="black" stroke-width="0.215922"/>
<path d="M63.4627 17.6862L52.7017 5.55326L56.5022 5.97548L63.4627 17.6862Z" stroke="black" stroke-width="0.215922"/>
<path d="M70.8701 19.3321L63.2586 7.03104L67.0591 8.08659L70.8701 19.3321Z" stroke="black" stroke-width="0.215922"/>
<path d="M13.2887 20.8893L5.61797 32.3645L8.48535 30.9978C10.3941 27.1709 13.2887 20.8893 13.2887 20.8893Z" fill="white"/>
<path d="M23.6047 19.2002L11.9854 29.9978L15.9643 29.4089L23.6047 19.2002Z" fill="white"/>
<path d="M33.2872 18.5299L20.9854 28.4978L26.3101 28.3533L33.2872 18.5299Z" fill="white"/>
<path d="M41.5036 19.4826L29.9854 27.9978L36.4854 27.9978L41.5036 19.4826Z" fill="white"/>
<path d="M49.9485 18.9986L40.3418 27.9004L45.4852 27.9816L49.9485 18.9986Z" fill="white"/>
<path d="M57.3452 19.7325L49.1131 28.1422L52.9136 28.3533L57.3452 19.7325Z" fill="white"/>
<path d="M64.1637 17.9883L57.4081 28.787L60.4877 29.2471L64.1637 17.9883Z" fill="white"/>
<path d="M71.9265 21.6087L64.1812 29.9226L66.4377 30.3698L71.9265 21.6087Z" fill="white"/>
<path d="M13.2887 20.8893L5.61797 32.3645L8.48535 30.9978C10.3941 27.1709 13.2887 20.8893 13.2887 20.8893Z" stroke="black" stroke-width="0.215922"/>
<path d="M23.6047 19.2002L11.9854 29.9978L15.9643 29.4089L23.6047 19.2002Z" stroke="black" stroke-width="0.215922"/>
<path d="M33.2872 18.5299L20.9854 28.4978L26.3101 28.3533L33.2872 18.5299Z" stroke="black" stroke-width="0.215922"/>
<path d="M41.5036 19.4826L29.9854 27.9978L36.4854 27.9978L41.5036 19.4826Z" stroke="black" stroke-width="0.215922"/>
<path d="M49.9485 18.9986L40.3418 27.9004L45.4852 27.9816L49.9485 18.9986Z" stroke="black" stroke-width="0.215922"/>
<path d="M57.3452 19.7325L49.1131 28.1422L52.9136 28.3533L57.3452 19.7325Z" stroke="black" stroke-width="0.215922"/>
<path d="M64.1637 17.9883L57.4081 28.787L60.4877 29.2471L64.1637 17.9883Z" stroke="black" stroke-width="0.215922"/>
<path d="M71.9265 21.6087L64.1812 29.9226L66.4377 30.3698L71.9265 21.6087Z" stroke="black" stroke-width="0.215922"/>
<ellipse cx="38.7635" cy="33.4202" rx="22.3807" ry="2.32252" fill="black"/>
<path d="M31.586 31.0977C20.1788 31.0977 9.86566 31.6371 9.33852 33.2137C9.30423 33.2743 9.29559 33.3565 9.30661 33.4777V41.5802H13.6282V53.4731L9.513 55.5305V68.286L13.6595 70.3433V82.0702C13.6595 82.1087 13.6209 82.1473 13.5824 82.1087H9.30775V89.2066C9.30775 89.2528 9.30587 89.2971 9.30409 89.3388C9.30208 89.3858 9.30021 89.4296 9.30135 89.469C8.86804 90.3405 19.9608 91.8978 31.7263 91.8978C37.3939 91.8978 45.7319 91.6867 48.2656 91.6867C48.4239 91.6867 48.505 90.8261 48.4824 90.3591C48.4796 90.3023 48.4771 90.2506 48.4771 90.2089V81.903H25.9738V70.3433L30.3188 68.2533H34.5416V66.3533H36.6672V57.4866H34.5416V55.5866H30.3188L25.9738 53.4731V41.5802H48.4771L48.4794 32.7173C48.4794 32.2934 48.4794 31.5199 48.266 31.5199C48.266 31.5199 48.266 31.3088 47.2099 31.3088C45.7319 31.0977 37.7167 31.0977 31.5866 31.0977H31.586Z" fill="black"/>
<path d="M37.0781 56.7656L37.0846 67.0523" stroke="black" stroke-width="0.215922" stroke-miterlimit="10"/>
<path d="M34.5064 57.2847H36.7628V66.5326H34.5064V57.2847Z" stroke="white" stroke-width="0.215922"/>
<path d="M13.4141 53.4736L9.50781 55.531V68.2865L13.4141 70.3438H26.1712L30.0839 68.2865V55.531L26.1712 53.4736H13.4141Z" stroke="white" stroke-width="0.215922"/>
<path d="M34.6127 55.5303H30.0859V68.2858H34.6127V55.5303Z" stroke="white" stroke-width="0.215922"/>
</svg>
