<svg width="207" height="90" viewBox="0 0 207 90" fill="none" xmlns="http://www.w3.org/2000/svg">
<path d="M59.4297 19.2463H68.8352C68.8352 19.2463 87.0868 60.2272 89.1391 63.5547C91.1914 66.8821 91.5383 62.0578 91.5383 62.0578V85.0852H84.8391L59.4297 39.6753V19.2463Z" fill="black"/>
<path d="M59.4297 52.3279H63.9052C63.9052 52.3279 74.9968 77.3796 75.5805 81.3762C76.1643 85.3728 72.6617 85.0804 72.6617 85.0804H59.4297V52.3279Z" fill="black"/>
<path d="M80.3516 19.2458H91.5409V35.6245V52.1653C91.5409 52.1653 89.4982 41.7299 87.2846 35.2709C85.071 28.8118 80.3516 19.2458 80.3516 19.2458Z" fill="black"/>
<path d="M93.6484 19.2458L109.273 85.0847H119.437L122.759 63.1627C122.759 63.1627 121.211 68.0817 119.437 64.1414C117.663 60.2011 106.784 19.2458 106.784 19.2458H93.6484Z" fill="black"/>
<path d="M111.812 19.2458H127.218C127.218 19.2458 135.912 60.6008 138.007 63.5542C140.102 66.5075 141.283 60.998 141.283 60.998L139.315 85.0847H128.429L111.812 19.2458Z" fill="black"/>
<path d="M132.727 19.2458H145.375L141.325 49.8529C141.325 49.8529 140.17 40.3905 138.491 34.3901C136.811 28.3897 132.727 19.2458 132.727 19.2458Z" fill="black"/>
<path d="M148.944 30.5974H156.89C156.89 30.5974 158.54 30.2783 159.308 29.5946C160.076 28.911 160.62 28.4403 160.62 27.5162C160.62 24.273 160.62 19.2458 160.62 19.2458H146.836L148.944 22.9756V30.5974Z" fill="black"/>
<path d="M148.947 34.509H160.618V59.7864V85.0841H146.797L148.947 80.6802V34.509Z" fill="black"/>
<path d="M162.891 19.2458H176.837C176.837 19.2458 206.999 80.8999 206.999 82.4941C206.999 84.0883 205.86 84.9275 204.556 85.0847H192.731L162.891 19.2458Z" fill="black"/>
<path d="M190.461 19.2458H203.758L193.711 45.7425C193.711 45.7425 194.36 38.022 193.711 32.8242C193.062 27.6264 190.461 19.2458 190.461 19.2458Z" fill="black"/>
<path d="M175.528 53.5708L180.121 82.3434C180.149 84.059 178.622 84.9859 177.189 85.0837H164.094L175.528 53.5708Z" fill="black"/>
<g clip-path="url(#clip0)">
<path d="M59.8351 10.689C59.7208 10.689 59.6065 10.6336 59.5493 10.5782C59.5493 10.5228 59.4922 10.412 59.4922 10.3566C59.4922 10.3012 59.5493 10.1904 59.6065 10.0797L61.4924 7.64233L61.7782 7.36536L63.4927 5.14961C63.5498 5.09421 63.6641 5.03882 63.7784 5.03882C63.8927 5.03882 63.9499 5.09421 64.007 5.14961C64.0642 5.205 64.1213 5.31579 64.1213 5.37118C64.1213 5.48197 64.1213 5.53736 64.0642 5.64815L62.2354 7.97469L61.8925 8.25166L60.1208 10.5782C60.0065 10.6336 59.9494 10.689 59.8351 10.689ZM63.7213 10.689C63.6641 10.689 63.607 10.689 63.5498 10.6336C63.4927 10.6336 63.4927 10.5782 63.4355 10.5228L61.721 8.19627L61.4353 7.97469L59.6636 5.64815C59.6065 5.59276 59.6065 5.48197 59.6065 5.37118C59.6065 5.26039 59.6636 5.205 59.7208 5.14961C59.7779 5.09421 59.8922 5.03882 59.9494 5.03882C60.0637 5.03882 60.178 5.09421 60.2351 5.14961L61.8925 7.36536L62.1782 7.58693L64.007 10.0797C64.0642 10.1351 64.0642 10.2458 64.0642 10.3566C64.0642 10.412 64.0642 10.5228 64.007 10.5782C63.9499 10.6336 63.8356 10.689 63.7213 10.689Z" fill="black"/>
<path d="M70.6358 10.7448C70.1786 10.7448 69.7786 10.6895 69.4357 10.5233C69.0928 10.3571 68.7499 10.1909 68.5213 9.91394C68.2356 9.63697 68.0641 9.36 67.8927 8.97224C67.7212 8.63988 67.6641 8.25212 67.6641 7.80897C67.6641 7.36582 67.7212 6.97806 67.8927 6.6457C68.0641 6.31334 68.2356 5.98098 68.5213 5.7594C68.8071 5.53783 69.0928 5.31625 69.4357 5.15007C69.7786 4.98389 70.2358 4.98389 70.6358 4.98389C71.093 4.98389 71.4931 5.03928 71.836 5.20546C72.1789 5.37164 72.5218 5.53783 72.7504 5.81479C73.0361 6.09176 73.2076 6.36873 73.379 6.7011C73.5505 7.03346 73.6076 7.42122 73.6076 7.86437C73.6076 8.30752 73.5505 8.69527 73.379 9.02764C73.2076 9.36 73.0361 9.69236 72.7504 9.96933C72.4646 10.2463 72.1789 10.4125 71.836 10.5787C71.4931 10.6895 71.093 10.7448 70.6358 10.7448ZM70.6358 10.0801C70.9787 10.0801 71.2645 10.0247 71.5502 9.91394C71.836 9.80315 72.0646 9.63697 72.236 9.41539C72.4075 9.19382 72.5789 8.97224 72.6932 8.69527C72.8075 8.4183 72.8647 8.14134 72.8647 7.80897C72.8647 7.47661 72.8075 7.19964 72.6932 6.92267C72.5789 6.6457 72.4075 6.42413 72.236 6.20255C72.0646 6.09176 71.836 5.92558 71.5502 5.81479C71.2645 5.70401 70.9787 5.64861 70.6358 5.64861C70.2929 5.64861 70.0072 5.70401 69.7214 5.81479C69.4357 5.92558 69.2071 6.09176 69.0357 6.25794C68.8642 6.47952 68.6928 6.7011 68.5785 6.97806C68.4642 7.25503 68.407 7.532 68.407 7.86437C68.407 8.19673 68.4642 8.4737 68.5785 8.75067C68.6928 9.02764 68.8642 9.24921 69.0357 9.47079C69.2071 9.69236 69.4928 9.80315 69.7214 9.91394C70.0072 10.0247 70.3501 10.0801 70.6358 10.0801Z" fill="black"/>
<path d="M79.6121 10.7448C79.3263 10.7448 79.0406 10.6895 78.812 10.6341C78.5834 10.5787 78.2976 10.4679 78.069 10.3571C77.8404 10.2463 77.7261 10.0801 77.6118 9.91394C77.6118 9.80315 77.6118 9.74776 77.6118 9.63697C77.6118 9.52618 77.669 9.47079 77.7261 9.41539C77.7833 9.36 77.8976 9.36 77.9547 9.36C78.069 9.36 78.1262 9.41539 78.1833 9.52618C78.2976 9.69236 78.5262 9.80315 78.7548 9.91394C78.9834 10.0247 79.2692 10.0801 79.6121 10.0801C79.8978 10.0801 80.1264 10.0247 80.2979 9.96933C80.5265 9.85854 80.6408 9.74776 80.7551 9.58158C80.8694 9.41539 80.9265 9.24921 80.9265 9.02764C80.9265 8.75067 80.8122 8.4737 80.6408 8.30752C80.4122 8.14134 80.1836 8.03055 79.8407 8.03055H79.3263C79.212 8.03055 79.1549 7.97515 79.0977 7.91976C79.0406 7.86437 78.9834 7.75358 78.9834 7.69818C78.9834 7.5874 79.0406 7.532 79.0977 7.47661C79.1549 7.42122 79.212 7.36582 79.3263 7.36582H79.7264C80.0121 7.36582 80.1836 7.31043 80.4122 7.14425C80.5265 6.97807 80.6408 6.75649 80.6408 6.47952C80.6408 6.20255 80.5265 5.98098 80.355 5.81479C80.1836 5.64861 79.8407 5.64861 79.4978 5.64861C79.2692 5.64861 79.0406 5.70401 78.812 5.7594C78.5834 5.81479 78.4119 5.98098 78.2405 6.14716C78.1833 6.25794 78.069 6.31334 77.9547 6.36873C77.8404 6.42413 77.7833 6.36873 77.669 6.31334C77.6118 6.25795 77.5547 6.20255 77.5547 6.09176C77.5547 5.98098 77.5547 5.92558 77.6118 5.87019C77.7833 5.59322 78.069 5.37164 78.3548 5.20546C78.6977 5.09467 79.0977 4.98389 79.4978 4.98389C79.8407 4.98389 80.1836 5.03928 80.4693 5.15007C80.7551 5.26086 80.9837 5.42704 81.098 5.64861C81.2123 5.87019 81.3266 6.09176 81.3266 6.36873C81.3266 6.59031 81.2694 6.75649 81.1551 6.92267C81.0408 7.08885 80.9265 7.25503 80.8122 7.36582C80.6408 7.47661 80.5265 7.5874 80.355 7.64279C80.2407 7.75358 80.1264 7.75358 80.0121 7.75358V7.532C80.1264 7.532 80.2979 7.532 80.4693 7.5874C80.6408 7.64279 80.8694 7.69818 81.0408 7.80897C81.2123 7.91976 81.3837 8.08594 81.498 8.25212C81.6123 8.4737 81.6695 8.69527 81.6695 8.97224C81.6695 9.30461 81.5552 9.58158 81.3837 9.85854C81.2123 10.1909 80.9837 10.3571 80.6408 10.5233C80.355 10.6895 80.0121 10.7448 79.6121 10.7448Z" fill="black"/>
<path d="M89.4413 10.689C89.327 10.689 89.2127 10.6336 89.1555 10.5782C89.0984 10.5228 89.0412 10.412 89.0412 10.3012V8.52863H87.6125V8.41784C87.2124 8.41784 86.9267 8.36245 86.641 8.19627C86.3552 8.03009 86.1266 7.8639 85.9552 7.64233C85.7837 7.42075 85.7266 7.14378 85.7266 6.81142C85.7266 6.47906 85.7837 6.14669 85.9552 5.86973C86.1266 5.59276 86.3552 5.37118 86.641 5.26039C86.9267 5.09421 87.2696 5.03882 87.6125 5.03882H89.3841C89.4984 5.03882 89.6127 5.09421 89.6699 5.14961C89.7842 5.205 89.7842 5.31579 89.7842 5.42658V10.3012C89.7842 10.412 89.727 10.5228 89.6699 10.5782C89.6127 10.6336 89.4984 10.689 89.4413 10.689ZM86.1266 10.689C85.9552 10.689 85.8409 10.6336 85.7837 10.5228C85.7266 10.412 85.7266 10.2458 85.8409 10.1351L87.041 8.25166L87.7839 8.47324L86.4695 10.5228C86.4124 10.5782 86.3552 10.6336 86.2981 10.6336C86.2409 10.6336 86.1838 10.689 86.1266 10.689ZM87.6125 7.8639H89.0412V5.75894H87.6125C87.3839 5.75894 87.2124 5.81433 87.041 5.86973C86.8696 5.92512 86.6981 6.0913 86.641 6.25748C86.5267 6.42366 86.4695 6.58985 86.4695 6.86681C86.4695 7.08839 86.5267 7.25457 86.641 7.42075C86.7553 7.58693 86.8696 7.69772 87.041 7.75312C87.2124 7.80851 87.3839 7.8639 87.6125 7.8639Z" fill="black"/>
<path d="M94.7516 10.689C94.6373 10.689 94.523 10.6336 94.4659 10.5782C94.4087 10.5228 94.3516 10.412 94.3516 10.3012V5.42658C94.3516 5.31579 94.4087 5.205 94.4659 5.14961C94.523 5.09421 94.6373 5.03882 94.7516 5.03882C94.8659 5.03882 94.9802 5.09421 95.0374 5.14961C95.0945 5.205 95.1517 5.31579 95.1517 5.42658V9.52572L98.6949 5.205C98.7521 5.09421 98.8664 5.09421 98.9807 5.09421C99.095 5.09421 99.2093 5.14961 99.2664 5.205C99.3236 5.26039 99.3807 5.37118 99.3807 5.48197V10.3566C99.3807 10.4674 99.3236 10.5782 99.2664 10.6336C99.2093 10.689 99.095 10.7444 98.9807 10.7444C98.8664 10.7444 98.7521 10.689 98.6949 10.6336C98.6378 10.5782 98.5806 10.4674 98.5806 10.3566V6.20209L95.0374 10.5228C94.9802 10.5782 94.9802 10.5782 94.9231 10.6336C94.8659 10.689 94.8088 10.689 94.7516 10.689Z" fill="black"/>
<path d="M104.353 10.689C104.239 10.689 104.125 10.6336 104.067 10.5782C104.01 10.5228 103.953 10.412 103.953 10.3012V5.42658C103.953 5.31579 104.01 5.205 104.067 5.14961C104.125 5.09421 104.239 5.03882 104.353 5.03882C104.467 5.03882 104.582 5.09421 104.639 5.14961C104.696 5.205 104.753 5.31579 104.753 5.42658V7.47615H108.182V5.42658C108.182 5.31579 108.239 5.205 108.297 5.14961C108.354 5.09421 108.468 5.03882 108.582 5.03882C108.697 5.03882 108.811 5.09421 108.868 5.14961C108.925 5.205 108.982 5.31579 108.982 5.42658V10.3012C108.982 10.412 108.925 10.5228 108.868 10.5782C108.811 10.6336 108.697 10.689 108.582 10.689C108.468 10.689 108.354 10.6336 108.297 10.5782C108.239 10.5228 108.182 10.412 108.182 10.3012V8.14087H104.753V10.3012C104.753 10.412 104.696 10.5228 104.639 10.5782C104.525 10.6336 104.467 10.689 104.353 10.689Z" fill="black"/>
<path d="M119.158 10.689C119.044 10.689 118.929 10.6336 118.872 10.5782C118.815 10.5228 118.758 10.412 118.758 10.3012V5.42658C118.758 5.31579 118.815 5.205 118.872 5.14961C118.929 5.09421 119.044 5.03882 119.158 5.03882H122.301C122.415 5.03882 122.473 5.09421 122.53 5.14961C122.587 5.205 122.644 5.31579 122.644 5.42658C122.644 5.53736 122.587 5.59276 122.53 5.64815C122.473 5.70354 122.358 5.75894 122.301 5.75894H119.558V7.36536H121.272C121.615 7.36536 121.958 7.42075 122.244 7.58693C122.53 7.75312 122.758 7.9193 122.93 8.14087C123.101 8.36245 123.158 8.63942 123.158 8.97178C123.158 9.30414 123.101 9.58111 122.93 9.85808C122.758 10.1351 122.53 10.3012 122.244 10.4674C121.958 10.6336 121.615 10.689 121.272 10.689H119.158ZM119.558 9.96887H121.272C121.501 9.96887 121.672 9.91348 121.901 9.85808C122.072 9.80269 122.187 9.6919 122.301 9.52572C122.415 9.35954 122.473 9.19336 122.473 8.97178C122.473 8.7502 122.415 8.58402 122.301 8.41784C122.187 8.25166 122.072 8.19627 121.901 8.08548C121.73 8.03009 121.501 7.97469 121.272 7.97469H119.558V9.96887Z" fill="black"/>
<path d="M127.783 10.689C127.669 10.689 127.554 10.6336 127.497 10.5782C127.44 10.5228 127.383 10.412 127.383 10.3012V5.42658C127.383 5.31579 127.44 5.205 127.497 5.14961C127.554 5.09421 127.669 5.03882 127.783 5.03882H131.155C131.269 5.03882 131.383 5.09421 131.44 5.14961C131.498 5.205 131.555 5.31579 131.555 5.42658C131.555 5.53736 131.498 5.59276 131.44 5.64815C131.383 5.70354 131.269 5.75894 131.155 5.75894H128.183V7.53154H130.297C130.412 7.53154 130.526 7.58693 130.583 7.64233C130.64 7.69772 130.697 7.80851 130.697 7.8639C130.697 7.9193 130.64 8.03009 130.583 8.08548C130.526 8.14087 130.412 8.19627 130.297 8.19627H128.183V9.96887H131.155C131.269 9.96887 131.383 10.0243 131.44 10.0797C131.498 10.1351 131.555 10.2458 131.555 10.3012C131.555 10.412 131.498 10.4674 131.44 10.5782C131.383 10.689 131.269 10.689 131.155 10.689H127.783Z" fill="black"/>
<path d="M137.383 10.745C137.097 10.745 136.812 10.6896 136.583 10.6343C136.354 10.5789 136.069 10.4681 135.84 10.3573C135.611 10.2465 135.497 10.0803 135.383 9.91413C135.383 9.80334 135.383 9.74795 135.383 9.63716C135.383 9.52637 135.44 9.47098 135.497 9.41559C135.554 9.36019 135.669 9.36019 135.726 9.36019C135.84 9.36019 135.897 9.41559 135.954 9.52637C136.069 9.69256 136.297 9.80334 136.526 9.91413C136.754 10.0249 137.04 10.0803 137.383 10.0803C137.669 10.0803 137.897 10.0249 138.069 9.96952C138.297 9.85874 138.412 9.74795 138.526 9.58177C138.64 9.41559 138.697 9.2494 138.697 9.02783C138.697 8.75086 138.583 8.47389 138.412 8.30771C138.183 8.14153 137.955 8.03074 137.612 8.03074H137.097C136.983 8.03074 136.926 7.97535 136.869 7.91995C136.812 7.86456 136.754 7.75377 136.754 7.69838C136.754 7.58759 136.812 7.5322 136.869 7.4768C136.926 7.42141 136.983 7.36601 137.097 7.36601H137.497C137.783 7.36601 137.955 7.31062 138.183 7.14444C138.355 6.97826 138.469 6.75668 138.469 6.47971C138.469 6.20274 138.355 5.98117 138.183 5.81499C138.012 5.6488 137.726 5.59341 137.383 5.59341C137.154 5.59341 136.926 5.6488 136.697 5.7042C136.469 5.75959 136.297 5.92577 136.126 6.09196C136.069 6.20274 135.954 6.25814 135.84 6.31353C135.726 6.36892 135.669 6.31353 135.554 6.25814C135.497 6.20274 135.44 6.14735 135.44 6.03656C135.44 5.92577 135.44 5.87038 135.497 5.81499C135.669 5.53802 135.954 5.31644 136.24 5.15026C136.526 4.98408 136.926 4.87329 137.383 4.87329C137.726 4.87329 138.069 4.92868 138.355 5.03947C138.64 5.15026 138.869 5.31644 138.983 5.53802C139.098 5.75959 139.212 5.98117 139.212 6.25814C139.212 6.47971 139.155 6.64589 139.04 6.81208C138.926 6.97826 138.812 7.14444 138.697 7.25523C138.526 7.36601 138.412 7.4768 138.24 7.5322C138.012 7.75377 137.84 7.75377 137.726 7.75377V7.5322C137.84 7.5322 138.012 7.5322 138.183 7.58759C138.355 7.64298 138.583 7.69838 138.755 7.80916C138.926 7.91995 139.098 8.08613 139.212 8.25232C139.326 8.47389 139.383 8.69547 139.383 8.97244C139.383 9.3048 139.269 9.58177 139.098 9.85874C138.926 10.1357 138.697 10.3019 138.355 10.4681C138.126 10.6896 137.726 10.745 137.383 10.745Z" fill="black"/>
<path d="M143.502 11.963C143.387 11.963 143.273 11.9077 143.216 11.8523C143.159 11.7969 143.102 11.6861 143.102 11.5753V10.412C143.102 10.3012 143.159 10.1904 143.216 10.1351C143.273 10.0797 143.387 10.0243 143.502 10.0243H148.759C148.874 10.0243 148.988 10.0797 149.045 10.1351C149.102 10.1904 149.159 10.3012 149.159 10.412V11.6307C149.159 11.7415 149.102 11.8523 149.045 11.9077C148.988 11.963 148.874 12.0184 148.759 12.0184C148.645 12.0184 148.531 11.963 148.474 11.9077C148.416 11.8523 148.359 11.7415 148.359 11.6307V10.7444H143.902V11.6307C143.902 11.7415 143.845 11.8523 143.787 11.9077C143.73 11.963 143.616 11.963 143.502 11.963ZM144.302 10.4674L143.616 10.1351L145.73 5.31579C145.788 5.14961 145.902 5.03882 146.073 5.03882C146.245 5.03882 146.359 5.14961 146.416 5.31579L148.531 10.1351L147.902 10.412L146.016 5.98051H146.13L144.302 10.4674Z" fill="black"/>
<path d="M155.792 10.7446C155.335 10.7446 154.935 10.6892 154.592 10.523C154.249 10.3568 153.906 10.1906 153.678 9.91367C153.392 9.6367 153.22 9.35973 153.049 8.97197C152.877 8.63961 152.82 8.25185 152.82 7.8087C152.82 7.36555 152.877 6.97779 153.049 6.64543C153.22 6.31307 153.392 5.98071 153.678 5.75913C153.963 5.53755 154.249 5.31598 154.592 5.1498C154.935 4.98362 155.335 4.92822 155.792 4.92822C156.249 4.92822 156.649 4.98362 156.992 5.1498C157.335 5.31598 157.678 5.48216 157.907 5.75913C158.192 6.0361 158.364 6.31307 158.535 6.64543C158.707 6.97779 158.764 7.36555 158.764 7.8087C158.764 8.25185 158.707 8.63961 158.535 8.97197C158.364 9.30434 158.192 9.6367 157.907 9.91367C157.621 10.1906 157.335 10.3568 156.992 10.523C156.649 10.6892 156.249 10.7446 155.792 10.7446ZM155.792 10.0798C156.135 10.0798 156.421 10.0245 156.706 9.91367C156.992 9.80288 157.221 9.6367 157.392 9.47052C157.564 9.30434 157.735 9.02737 157.849 8.7504C157.964 8.47343 158.021 8.19646 158.021 7.8641C158.021 7.53173 157.964 7.25476 157.849 6.97779C157.735 6.70083 157.564 6.47925 157.392 6.25767C157.221 6.0361 156.935 5.92531 156.706 5.81452C156.421 5.70374 156.135 5.64834 155.792 5.64834C155.449 5.64834 155.163 5.70374 154.878 5.81452C154.592 5.92531 154.363 6.09149 154.192 6.25767C154.02 6.47925 153.849 6.70083 153.735 6.97779C153.62 7.25476 153.563 7.53173 153.563 7.8641C153.563 8.19646 153.62 8.47343 153.735 8.7504C153.849 9.02737 154.02 9.24894 154.192 9.47052C154.363 9.69209 154.649 9.80288 154.878 9.91367C155.221 10.0245 155.506 10.0798 155.792 10.0798Z" fill="black"/>
<path d="M163.447 10.689C163.333 10.689 163.218 10.6336 163.161 10.5782C163.104 10.5228 163.047 10.412 163.047 10.3012V5.42658C163.047 5.31579 163.104 5.205 163.161 5.14961C163.218 5.09421 163.333 5.03882 163.447 5.03882H164.933C165.333 5.03882 165.619 5.09421 165.904 5.26039C166.19 5.42658 166.419 5.64815 166.59 5.92512C166.762 6.20209 166.819 6.53445 166.819 6.86681C166.819 7.19918 166.762 7.53154 166.59 7.80851C166.419 8.08548 166.19 8.30705 165.904 8.47324C165.619 8.63942 165.276 8.69481 164.933 8.69481H163.847V10.2458C163.847 10.3566 163.79 10.4674 163.733 10.5228C163.618 10.6336 163.561 10.689 163.447 10.689ZM163.847 8.03009H164.933C165.161 8.03009 165.39 7.97469 165.561 7.8639C165.733 7.75312 165.847 7.64233 165.962 7.47615C166.076 7.30997 166.133 7.08839 166.133 6.92221C166.133 6.70063 166.076 6.47906 165.962 6.31288C165.847 6.1467 165.733 5.98051 165.561 5.92512C165.39 5.81433 165.161 5.75894 164.933 5.75894H163.847V8.03009Z" fill="black"/>
<path d="M173.448 10.7446C172.991 10.7446 172.591 10.6892 172.248 10.523C171.905 10.3568 171.562 10.1906 171.334 9.91367C171.048 9.6367 170.877 9.35973 170.705 8.97197C170.534 8.63961 170.477 8.25185 170.477 7.8087C170.477 7.36555 170.534 6.97779 170.705 6.64543C170.877 6.31307 171.048 5.98071 171.334 5.75913C171.62 5.53755 171.905 5.31598 172.248 5.1498C172.591 4.98362 172.991 4.92822 173.448 4.92822C173.906 4.92822 174.306 4.98362 174.648 5.1498C174.991 5.31598 175.334 5.48216 175.563 5.75913C175.849 6.0361 176.02 6.31307 176.192 6.64543C176.363 6.97779 176.42 7.36555 176.42 7.8087C176.42 8.25185 176.363 8.63961 176.192 8.97197C176.02 9.30434 175.849 9.6367 175.563 9.91367C175.277 10.1906 174.991 10.3568 174.648 10.523C174.306 10.6892 173.906 10.7446 173.448 10.7446ZM173.448 10.0798C173.791 10.0798 174.077 10.0245 174.363 9.91367C174.648 9.80288 174.877 9.6367 175.049 9.47052C175.22 9.30434 175.391 9.02737 175.506 8.7504C175.62 8.47343 175.677 8.19646 175.677 7.8641C175.677 7.53173 175.62 7.25476 175.506 6.97779C175.391 6.70083 175.22 6.47925 175.049 6.25767C174.877 6.0361 174.591 5.92531 174.363 5.81452C174.077 5.70374 173.791 5.64834 173.448 5.64834C173.105 5.64834 172.82 5.70374 172.534 5.81452C172.248 5.92531 172.02 6.09149 171.848 6.25767C171.677 6.47925 171.505 6.70083 171.391 6.97779C171.277 7.25476 171.22 7.53173 171.22 7.8641C171.22 8.19646 171.277 8.47343 171.391 8.7504C171.505 9.02737 171.677 9.24894 171.848 9.47052C172.02 9.69209 172.248 9.80288 172.534 9.91367C172.82 10.0245 173.105 10.0798 173.448 10.0798Z" fill="black"/>
<path d="M180.075 10.5782C180.018 10.5228 179.961 10.412 179.961 10.3566C179.961 10.3012 180.018 10.1904 180.075 10.1351L181.904 7.80851L180.304 5.70354C180.247 5.64815 180.19 5.53736 180.19 5.48197C180.19 5.42658 180.19 5.31579 180.304 5.26039C180.361 5.205 180.475 5.14961 180.59 5.14961C180.704 5.14961 180.818 5.205 180.875 5.26039L182.818 7.9193L180.704 10.689C180.647 10.7444 180.532 10.7998 180.418 10.7998C180.247 10.689 180.132 10.6336 180.075 10.5782ZM183.619 10.689C183.504 10.689 183.39 10.6336 183.333 10.5782C183.276 10.5228 183.218 10.412 183.218 10.3012V8.14087H182.018V7.47615H183.218V5.42658C183.218 5.31579 183.276 5.205 183.333 5.14961C183.39 5.09421 183.504 5.03882 183.619 5.03882C183.733 5.03882 183.847 5.09421 183.904 5.14961C183.961 5.205 184.019 5.31579 184.019 5.42658V7.47615H185.219V8.14087H184.019V10.3012C184.019 10.412 183.961 10.5228 183.904 10.5782C183.847 10.6336 183.733 10.689 183.619 10.689ZM187.219 10.5782C187.162 10.6336 187.047 10.689 186.933 10.689C186.819 10.689 186.705 10.6336 186.647 10.5782L184.476 7.80851L186.476 5.14961C186.533 5.03882 186.647 5.03882 186.762 5.03882C186.876 5.03882 186.99 5.09421 187.047 5.14961C187.105 5.205 187.162 5.31579 187.162 5.37118C187.162 5.42658 187.105 5.53736 187.047 5.59276L185.39 7.75312L187.219 10.0797C187.276 10.1351 187.333 10.2458 187.333 10.3012C187.333 10.412 187.333 10.5228 187.219 10.5782Z" fill="black"/>
<path d="M191.851 10.689C191.736 10.689 191.622 10.6336 191.565 10.5782C191.508 10.5228 191.508 10.412 191.508 10.3012V5.37118C191.508 5.26039 191.565 5.205 191.622 5.14961C191.679 5.09421 191.794 5.03882 191.908 5.03882C192.022 5.03882 192.136 5.09421 192.194 5.14961C192.251 5.205 192.308 5.31579 192.308 5.37118V7.19918H193.851C194.251 7.19918 194.537 7.25457 194.822 7.42075C195.108 7.58693 195.337 7.75312 195.508 8.03009C195.68 8.30705 195.737 8.58402 195.737 8.91639C195.737 9.24875 195.68 9.58111 195.508 9.85808C195.337 10.1351 195.108 10.3566 194.822 10.4674C194.537 10.6336 194.194 10.689 193.851 10.689H191.851ZM192.251 9.96887H193.794C194.022 9.96887 194.251 9.91348 194.422 9.85808C194.594 9.80269 194.708 9.63651 194.822 9.47032C194.937 9.30414 194.994 9.13796 194.994 8.86099C194.994 8.63942 194.937 8.41784 194.822 8.25166C194.708 8.08548 194.594 7.97469 194.422 7.9193C194.251 7.8639 194.022 7.80851 193.794 7.80851H192.251V9.96887Z" fill="black"/>
<path d="M203.34 10.689C203.225 10.689 203.111 10.6336 203.054 10.5782C202.997 10.5228 202.94 10.412 202.94 10.3012V8.52863H201.511V8.41784C201.111 8.41784 200.825 8.36245 200.539 8.19627C200.254 8.08548 200.025 7.8639 199.854 7.64233C199.682 7.42075 199.625 7.14378 199.625 6.81142C199.625 6.47906 199.682 6.14669 199.854 5.86973C200.025 5.59276 200.254 5.37118 200.539 5.26039C200.825 5.09421 201.168 5.03882 201.511 5.03882H203.283C203.397 5.03882 203.511 5.09421 203.568 5.14961C203.625 5.205 203.683 5.31579 203.683 5.42658V10.3012C203.683 10.412 203.625 10.5228 203.568 10.5782C203.568 10.6336 203.454 10.689 203.34 10.689ZM200.025 10.689C199.854 10.689 199.739 10.6336 199.682 10.5228C199.625 10.412 199.625 10.2458 199.739 10.1351L200.939 8.25166L201.682 8.47324L200.368 10.5782C200.311 10.6336 200.254 10.689 200.196 10.689C200.139 10.689 200.082 10.689 200.025 10.689ZM201.568 7.8639H202.997V5.75894H201.568C201.339 5.75894 201.168 5.81433 200.997 5.86973C200.825 5.92512 200.654 6.0913 200.539 6.25748C200.425 6.42366 200.368 6.58985 200.368 6.86681C200.368 7.08839 200.425 7.25457 200.539 7.42075C200.654 7.58693 200.768 7.69772 200.939 7.75312C201.111 7.80851 201.339 7.8639 201.568 7.8639Z" fill="black"/>
</g>
<mask id="path-28-inside-1" fill="white">
<path fill-rule="evenodd" clip-rule="evenodd" d="M53.1781 5.73513C53.18 5.70686 53.181 5.67854 53.181 5.65017C53.181 2.52967 41.2767 0 26.592 0C11.9082 0 0.00446198 2.52935 0.00294499 5.64957H0V22.9325H53.1781V5.73513Z"/>
</mask>
<path fill-rule="evenodd" clip-rule="evenodd" d="M53.1781 5.73513C53.18 5.70686 53.181 5.67854 53.181 5.65017C53.181 2.52967 41.2767 0 26.592 0C11.9082 0 0.00446198 2.52935 0.00294499 5.64957H0V22.9325H53.1781V5.73513Z" fill="black"/>
<path d="M53.1781 5.73513L53.0081 5.72335V5.73513H53.1781ZM0.00294499 5.64957V5.81952H0.172808L0.172891 5.64966L0.00294499 5.64957ZM0 5.64957V5.47963H-0.169946V5.64957H0ZM0 22.9325H-0.169946V23.1024H0V22.9325ZM53.1781 22.9325V23.1024H53.348V22.9325H53.1781ZM53.0111 5.65017C53.0111 5.67461 53.0102 5.69901 53.0085 5.72337L53.3476 5.74689C53.3499 5.71472 53.351 5.68247 53.351 5.65017H53.0111ZM26.592 0.169946C33.9261 0.169946 40.561 0.801781 45.358 1.82113C47.7578 2.3311 49.6886 2.9362 51.0152 3.60273C51.6788 3.93613 52.1826 4.28066 52.5184 4.62935C52.8535 4.97735 53.0111 5.31816 53.0111 5.65017H53.351C53.351 5.20206 53.1365 4.78121 52.7632 4.39358C52.3906 4.00664 51.8497 3.64158 51.1678 3.29901C49.8035 2.61358 47.8404 2.00117 45.4286 1.48866C40.6022 0.463053 33.9425 -0.169946 26.592 -0.169946V0.169946ZM0.172891 5.64966C0.173052 5.31767 0.330754 4.97687 0.666002 4.62888C1.00191 4.28022 1.50581 3.93572 2.1695 3.60235C3.49631 2.93589 5.42711 2.33085 7.82694 1.82094C12.6238 0.8017 19.2583 0.169946 26.592 0.169946V-0.169946C19.2419 -0.169946 12.5826 0.462972 7.75629 1.48847C5.34452 2.00092 3.38137 2.61326 2.01693 3.29862C1.335 3.64115 0.793957 4.00617 0.421225 4.39306C0.0478384 4.78063 -0.166783 5.20143 -0.167001 5.64949L0.172891 5.64966ZM0 5.81952H0.00294499V5.47963H0V5.81952ZM0.169946 22.9325V5.64957H-0.169946V22.9325H0.169946ZM53.1781 22.7625H0V23.1024H53.1781V22.7625ZM53.0081 5.73513V22.9325H53.348V5.73513H53.0081Z" fill="black" mask="url(#path-28-inside-1)"/>
<path d="M53.0931 22.9321C53.0931 23.218 52.9278 23.5102 52.5827 23.8053C52.2381 24.0999 51.725 24.3881 51.0561 24.6648C49.719 25.218 47.7791 25.7181 45.3757 26.1387C40.5702 26.9796 33.928 27.5002 26.589 27.5002C19.25 27.5002 12.6079 26.9796 7.8024 26.1387C5.39895 25.7181 3.45905 25.218 2.12198 24.6648C1.45308 24.3881 0.939936 24.0999 0.595422 23.8053C0.250283 23.5102 0.084973 23.218 0.084973 22.9321C0.084973 22.6463 0.250283 22.3541 0.595422 22.059C0.939936 21.7643 1.45308 21.4762 2.12198 21.1995C3.45905 20.6463 5.39895 20.1462 7.8024 19.7256C12.6079 18.8846 19.25 18.364 26.589 18.364C33.928 18.364 40.5702 18.8846 45.3757 19.7256C47.7791 20.1462 49.719 20.6463 51.0561 21.1995C51.725 21.4762 52.2381 21.7643 52.5827 22.059C52.9278 22.3541 53.0931 22.6463 53.0931 22.9321Z" fill="white" stroke="black" stroke-width="0.169946"/>
<path d="M8.9376 10.5429L1.49219 4.15391L2.98782 3.323L8.9376 10.5429Z" fill="white" stroke="black" stroke-width="0.169946"/>
<path d="M16.2315 10.0574L6.48438 2.16003L8.9771 1.66148L16.2315 10.0574Z" fill="white"/>
<path d="M24.8148 10.8672L11.8022 1.16294L16.6214 0.664394L24.8148 10.8672Z" fill="white"/>
<path d="M32.2644 10.3813L20.2774 0.498213L25.0967 0.332031L32.2644 10.3813Z" fill="white"/>
<path d="M39.5521 10.8672L29.2512 0.332031L33.7381 0.498213L39.5521 10.8672Z" fill="white"/>
<path d="M46.0301 10.3813L37.5603 0.830576L40.5516 1.16294L46.0301 10.3813Z" fill="white"/>
<path d="M51.8602 11.6769L45.8694 1.99385L48.8607 2.82475L51.8602 11.6769Z" fill="white"/>
<path d="M16.2315 10.0574L6.48438 2.16003L8.9771 1.66148L16.2315 10.0574Z" stroke="black" stroke-width="0.169946"/>
<path d="M24.8148 10.8672L11.8022 1.16294L16.6214 0.664394L24.8148 10.8672Z" stroke="black" stroke-width="0.169946"/>
<path d="M32.2644 10.3813L20.2774 0.498213L25.0967 0.332031L32.2644 10.3813Z" stroke="black" stroke-width="0.169946"/>
<path d="M39.5521 10.8672L29.2512 0.332031L33.7381 0.498213L39.5521 10.8672Z" stroke="black" stroke-width="0.169946"/>
<path d="M46.0301 10.3813L37.5603 0.830576L40.5516 1.16294L46.0301 10.3813Z" stroke="black" stroke-width="0.169946"/>
<path d="M51.8602 11.6769L45.8694 1.99385L48.8607 2.82475L51.8602 11.6769Z" stroke="black" stroke-width="0.169946"/>
<path d="M6.53491 12.9025L0.497496 21.9355L2.99065 20.9383C4.493 17.9258 6.53491 12.9025 6.53491 12.9025Z" fill="white"/>
<path d="M14.6543 11.5729L5.31721 20.2737L8.64084 19.6089L14.6543 11.5729Z" fill="white"/>
<path d="M22.2752 11.0453L12.463 19.1104L16.7837 18.778L22.2752 11.0453Z" fill="white"/>
<path d="M28.7421 11.7952L19.6088 18.6118L24.9266 18.4215L28.7421 11.7952Z" fill="white"/>
<path d="M35.3889 11.4142L27.8277 18.4215L31.8759 18.4854L35.3889 11.4142Z" fill="white"/>
<path d="M41.2106 11.992L34.7313 18.6118L37.7226 18.778L41.2106 11.992Z" fill="white"/>
<path d="M46.5773 10.6189L41.2601 19.1194L43.684 19.4816L46.5773 10.6189Z" fill="white"/>
<path d="M52.6871 13.4688L46.591 20.0133L48.3671 20.3653L52.6871 13.4688Z" fill="white"/>
<path d="M6.53491 12.9025L0.497496 21.9355L2.99065 20.9383C4.493 17.9258 6.53491 12.9025 6.53491 12.9025Z" stroke="black" stroke-width="0.169946"/>
<path d="M14.6543 11.5729L5.31721 20.2737L8.64084 19.6089L14.6543 11.5729Z" stroke="black" stroke-width="0.169946"/>
<path d="M22.2752 11.0453L12.463 19.1104L16.7837 18.778L22.2752 11.0453Z" stroke="black" stroke-width="0.169946"/>
<path d="M28.7421 11.7952L19.6088 18.6118L24.9266 18.4215L28.7421 11.7952Z" stroke="black" stroke-width="0.169946"/>
<path d="M35.3889 11.4142L27.8277 18.4215L31.8759 18.4854L35.3889 11.4142Z" stroke="black" stroke-width="0.169946"/>
<path d="M41.2106 11.992L34.7313 18.6118L37.7226 18.778L41.2106 11.992Z" stroke="black" stroke-width="0.169946"/>
<path d="M46.5773 10.6189L41.2601 19.1194L43.684 19.4816L46.5773 10.6189Z" stroke="black" stroke-width="0.169946"/>
<path d="M52.6871 13.4688L46.591 20.0133L48.3671 20.3653L52.6871 13.4688Z" stroke="black" stroke-width="0.169946"/>
<ellipse cx="26.5918" cy="22.7667" rx="17.6152" ry="1.828" fill="black"/>
<mask id="path-35-inside-2" fill="white">
<path fill-rule="evenodd" clip-rule="evenodd" d="M0.00160599 84.0874C0.00160599 87.2079 11.9059 89.7375 26.5906 89.7375C41.2754 89.7375 53.1797 87.2079 53.1797 84.0874C53.1797 84.0831 53.1797 84.0789 53.1796 84.0746V66.8045H0.00154114V84.0874L0.00160599 84.0874Z"/>
</mask>
<path fill-rule="evenodd" clip-rule="evenodd" d="M0.00160599 84.0874C0.00160599 87.2079 11.9059 89.7375 26.5906 89.7375C41.2754 89.7375 53.1797 87.2079 53.1797 84.0874C53.1797 84.0831 53.1797 84.0789 53.1796 84.0746V66.8045H0.00154114V84.0874L0.00160599 84.0874Z" fill="black"/>
<path d="M0.00160599 84.0874H0.171551V83.9584L0.0473366 83.9237L0.00160599 84.0874ZM53.1796 84.0746H53.0097L53.0097 84.0764L53.1796 84.0746ZM53.1796 66.8045H53.3496V66.6345H53.1796V66.8045ZM0.00154114 66.8045V66.6345H-0.168407V66.8045H0.00154114ZM0.00154114 84.0874H-0.168407V84.2163L-0.0441933 84.251L0.00154114 84.0874ZM26.5906 89.5676C19.2565 89.5676 12.6216 88.9358 7.82468 87.9164C5.42482 87.4064 3.49406 86.8013 2.1674 86.1348C1.50378 85.8014 0.999985 85.4569 0.664215 85.1082C0.329102 84.7602 0.171551 84.4194 0.171551 84.0874H-0.168343C-0.168343 84.5355 0.0461159 84.9563 0.419384 85.344C0.791992 85.7309 1.33294 86.096 2.01481 86.4385C3.3791 87.124 5.34222 87.7364 7.75403 88.2489C12.5804 89.2745 19.2401 89.9075 26.5906 89.9075V89.5676ZM53.0097 84.0874C53.0097 84.4194 52.8522 84.7602 52.5171 85.1082C52.1813 85.4569 51.6775 85.8014 51.0139 86.1348C49.6872 86.8013 47.7565 87.4064 45.3566 87.9164C40.5597 88.9358 33.9248 89.5676 26.5906 89.5676V89.9075C33.9412 89.9075 40.6009 89.2745 45.4273 88.2489C47.8391 87.7364 49.8022 87.124 51.1665 86.4385C51.8483 86.096 52.3893 85.7309 52.7619 85.344C53.1352 84.9563 53.3496 84.5355 53.3496 84.0874H53.0097ZM53.0097 84.0764C53.0097 84.0801 53.0097 84.0837 53.0097 84.0874H53.3496C53.3496 84.0825 53.3496 84.0777 53.3496 84.0729L53.0097 84.0764ZM53.0097 66.8045V84.0746H53.3496V66.8045H53.0097ZM0.00154114 66.9744H53.1796V66.6345H0.00154114V66.9744ZM0.171486 84.0874V66.8045H-0.168407V84.0874H0.171486ZM0.0473366 83.9237L0.0472717 83.9237L-0.0441933 84.251L-0.0441284 84.2511L0.0473366 83.9237Z" fill="black" mask="url(#path-35-inside-2)"/>
<path d="M0.0865784 66.8047C0.0865784 66.5188 0.251888 66.2267 0.597027 65.9315C0.941544 65.6369 1.45469 65.3488 2.12359 65.072C3.46066 64.5188 5.40056 64.0188 7.804 63.5982C12.6095 62.7572 19.2516 62.2366 26.5906 62.2366C33.9297 62.2366 40.5718 62.7572 45.3773 63.5982C47.7807 64.0188 49.7206 64.5188 51.0577 65.072C51.7266 65.3488 52.2398 65.6369 52.5843 65.9315C52.9294 66.2267 53.0947 66.5188 53.0947 66.8047C53.0947 67.0905 52.9294 67.3827 52.5843 67.6779C52.2398 67.9725 51.7266 68.2606 51.0577 68.5374C49.7206 69.0906 47.7807 69.5906 45.3773 70.0112C40.5718 70.8522 33.9297 71.3728 26.5906 71.3728C19.2516 71.3728 12.6095 70.8522 7.804 70.0112C5.40056 69.5906 3.46066 69.0906 2.12359 68.5374C1.45469 68.2606 0.941544 67.9725 0.597027 67.6779C0.251888 67.3827 0.0865784 67.0905 0.0865784 66.8047Z" fill="white" stroke="black" stroke-width="0.169946"/>
<path d="M8.76572 79.1941L1.32031 85.5832L2.81595 86.4141L8.76572 79.1941Z" fill="white" stroke="black" stroke-width="0.169946"/>
<path d="M16.0518 79.6794L6.3125 87.4106L8.79743 88.0753L16.0518 79.6794Z" fill="white"/>
<path d="M24.6351 78.8697L11.6225 88.5739L16.4418 89.0724L24.6351 78.8697Z" fill="white"/>
<path d="M32.0848 79.3555L19.9394 89.2386L24.5925 89.4048L32.0848 79.3555Z" fill="white"/>
<path d="M39.3724 78.8697L29.0716 89.4048L33.4001 89.2386L39.3724 78.8697Z" fill="white"/>
<path d="M45.8504 79.3555L37.2223 89.0724L40.2135 88.7401L45.8504 79.3555Z" fill="white"/>
<path d="M51.6806 78.0599L45.5313 87.743L48.5226 87.0782L51.6806 78.0599Z" fill="white"/>
<path d="M16.0518 79.6794L6.3125 87.4106L8.79743 88.0753L16.0518 79.6794Z" stroke="black" stroke-width="0.169946"/>
<path d="M24.6351 78.8697L11.6225 88.5739L16.4418 89.0724L24.6351 78.8697Z" stroke="black" stroke-width="0.169946"/>
<path d="M32.0848 79.3555L19.9394 89.2386L24.5925 89.4048L32.0848 79.3555Z" stroke="black" stroke-width="0.169946"/>
<path d="M39.3724 78.8697L29.0716 89.4048L33.4001 89.2386L39.3724 78.8697Z" stroke="black" stroke-width="0.169946"/>
<path d="M45.8504 79.3555L37.2223 89.0724L40.2135 88.7401L45.8504 79.3555Z" stroke="black" stroke-width="0.169946"/>
<path d="M51.6806 78.0599L45.5313 87.743L48.5226 87.0782L51.6806 78.0599Z" stroke="black" stroke-width="0.169946"/>
<ellipse cx="26.5879" cy="66.9711" rx="17.6152" ry="1.828" transform="rotate(-180 26.5879 66.9711)" fill="black"/>
<path d="M6.6579 77.1919L0.828125 67.8002L3.32085 69.1297C4.77642 72.1558 6.6579 77.1919 6.6579 77.1919Z" fill="white"/>
<path d="M14.7605 78.6448L5.81357 69.6282L8.80484 70.1268L14.7605 78.6448Z" fill="white"/>
<path d="M22.377 79.2905L12.4608 70.6253L16.7816 71.1239L22.377 79.2905Z" fill="white"/>
<path d="M28.8591 78.6448L19.7728 71.29L24.4259 71.4562L28.8591 78.6448Z" fill="white"/>
<path d="M35.5033 79.1291L27.9157 71.4562L31.7379 71.3802L35.5033 79.1291Z" fill="white"/>
<path d="M41.3372 78.6448L34.563 71.29L37.5542 71.0574L41.3372 78.6448Z" fill="white"/>
<path d="M46.6849 80.0977L41.0441 70.6253L43.5368 70.2929L46.6849 80.0977Z" fill="white"/>
<path d="M52.8429 77.3533L46.3619 69.9273L48.6884 69.2959L52.8429 77.3533Z" fill="white"/>
<path d="M6.6579 77.1919L0.828125 67.8002L3.32085 69.1297C4.77642 72.1558 6.6579 77.1919 6.6579 77.1919Z" stroke="black" stroke-width="0.169946"/>
<path d="M14.7605 78.6448L5.81357 69.6282L8.80484 70.1268L14.7605 78.6448Z" stroke="black" stroke-width="0.169946"/>
<path d="M22.377 79.2905L12.4608 70.6253L16.7816 71.1239L22.377 79.2905Z" stroke="black" stroke-width="0.169946"/>
<path d="M28.8591 78.6448L19.7728 71.29L24.4259 71.4562L28.8591 78.6448Z" stroke="black" stroke-width="0.169946"/>
<path d="M35.5033 79.1291L27.9157 71.4562L31.7379 71.3802L35.5033 79.1291Z" stroke="black" stroke-width="0.169946"/>
<path d="M41.3372 78.6448L34.563 71.29L37.5542 71.0574L41.3372 78.6448Z" stroke="black" stroke-width="0.169946"/>
<path d="M46.6849 80.0977L41.0441 70.6253L43.5368 70.2929L46.6849 80.0977Z" stroke="black" stroke-width="0.169946"/>
<path d="M52.8429 77.3533L46.3619 69.9273L48.6884 69.2959L52.8429 77.3533Z" stroke="black" stroke-width="0.169946"/>
<path d="M20.94 20.9387C11.9617 20.9387 3.84445 21.3633 3.42955 22.6044C3.40257 22.6521 3.39577 22.7169 3.40443 22.8122V29.1903H6.80585V38.5521L3.56688 40.1716V50.2124L6.83046 51.8319V61.063C6.83046 61.0933 6.80012 61.1237 6.76979 61.0933H3.40534V66.6806C3.40534 66.7169 3.40385 66.7518 3.40245 66.7846C3.40087 66.8217 3.3994 66.8561 3.4003 66.8872C3.05925 67.5732 11.7901 68.799 21.0504 68.799C25.5112 68.799 32.0738 68.6328 34.068 68.6328C34.1926 68.6328 34.2564 67.9554 34.2386 67.5878C34.2365 67.5431 34.2345 67.5024 34.2345 67.4695V60.9314H16.5228V51.8319L19.9426 50.1867H23.2662V48.691H24.9392V41.7114H23.2662V40.2158H19.9426L16.5228 38.5521V29.1903H34.2345L34.2363 22.2137C34.2363 21.88 34.2363 21.2711 34.0683 21.2711C34.0683 21.2711 34.0683 21.1049 33.2371 21.1049C32.0738 20.9387 25.7652 20.9387 20.9404 20.9387H20.94Z" fill="black"/>
<path d="M25.2656 41.1443L25.2707 49.2417" stroke="black" stroke-width="0.169946" stroke-miterlimit="10"/>
<path d="M23.2412 41.5527H25.0172V48.8324H23.2412V41.5527Z" stroke="white" stroke-width="0.169946"/>
<path d="M6.637 38.552L3.5625 40.1715V50.2123L6.637 51.8318H16.6778L19.7574 50.2123V40.1715L16.6778 38.552H6.637Z" stroke="white" stroke-width="0.169946"/>
<path d="M23.3207 40.1711H19.7578V50.212H23.3207V40.1711Z" stroke="white" stroke-width="0.169946"/>
<defs>
<clipPath id="clip0">
<rect width="144.246" height="6.97962" fill="white" transform="translate(59.4922 4.98535)"/>
</clipPath>
</defs>
</svg>
