<svg width="207" height="90" viewBox="0 0 207 90" fill="none" xmlns="http://www.w3.org/2000/svg">
<path d="M59.4302 19.2471H68.8357C68.8357 19.2471 87.0873 60.228 89.1396 63.5554C91.1919 66.8829 91.5388 62.0585 91.5388 62.0585V85.086H84.8396L59.4302 39.6761V19.2471Z" fill="black"/>
<path d="M59.4307 52.3281H63.9062C63.9062 52.3281 74.9977 77.3799 75.5815 81.3765C76.1653 85.3731 72.6627 85.0806 72.6627 85.0806H59.4307V52.3281Z" fill="black"/>
<path d="M80.3491 19.2461H91.5385V35.6247V52.1655C91.5385 52.1655 89.4957 41.7301 87.2821 35.2711C85.0685 28.8121 80.3491 19.2461 80.3491 19.2461Z" fill="black"/>
<path d="M93.6475 19.2461L109.272 85.085H119.436L122.758 63.163C122.758 63.163 121.21 68.0819 119.436 64.1416C117.662 60.2013 106.783 19.2461 106.783 19.2461H93.6475Z" fill="black"/>
<path d="M111.81 19.2461H127.215C127.215 19.2461 135.909 60.6011 138.004 63.5544C140.099 66.5078 141.28 60.9983 141.28 60.9983L139.312 85.085H128.427L111.81 19.2461Z" fill="black"/>
<path d="M132.729 19.2461H145.378L141.327 49.8532C141.327 49.8532 140.172 40.3907 138.493 34.3903C136.814 28.3899 132.729 19.2461 132.729 19.2461Z" fill="black"/>
<path d="M148.945 30.5976H156.891C156.891 30.5976 158.541 30.2786 159.309 29.5949C160.077 28.9112 160.621 28.4406 160.621 27.5165C160.621 24.2732 160.621 19.2461 160.621 19.2461H146.837L148.945 22.9759V30.5976Z" fill="black"/>
<path d="M148.95 34.5098H160.621V59.7872V85.0849H146.8L148.95 80.6809V34.5098Z" fill="black"/>
<path d="M162.892 19.2461H176.838C176.838 19.2461 207 80.9001 207 82.4943C207 84.0886 205.861 84.9278 204.557 85.085H192.732L162.892 19.2461Z" fill="black"/>
<path d="M190.459 19.2461H203.756L193.709 45.7428C193.709 45.7428 194.358 38.0223 193.709 32.8245C193.06 27.6267 190.459 19.2461 190.459 19.2461Z" fill="black"/>
<path d="M175.532 53.5713L180.126 82.3439C180.154 84.0595 178.627 84.9864 177.194 85.0842H164.098L175.532 53.5713Z" fill="black"/>
<g clip-path="url(#clip0)">
<path d="M59.8365 10.6892C59.7223 10.6892 59.608 10.6338 59.5508 10.5784C59.5508 10.5231 59.4937 10.4123 59.4937 10.3569C59.4937 10.3015 59.5508 10.1907 59.608 10.0799L61.4939 7.64257L61.7796 7.3656L63.4941 5.14985C63.5513 5.09446 63.6656 5.03906 63.7799 5.03906C63.8942 5.03906 63.9513 5.09446 64.0085 5.14985C64.0656 5.20524 64.1228 5.31603 64.1228 5.37143C64.1228 5.48221 64.1228 5.53761 64.0656 5.64839L62.2368 7.97494L61.8939 8.2519L60.1223 10.5784C60.008 10.6338 59.9508 10.6892 59.8365 10.6892ZM63.7227 10.6892C63.6656 10.6892 63.6084 10.6892 63.5513 10.6338C63.4941 10.6338 63.4941 10.5784 63.437 10.5231L61.7225 8.19651L61.4367 7.97494L59.6651 5.64839C59.608 5.593 59.608 5.48221 59.608 5.37143C59.608 5.26064 59.6651 5.20524 59.7223 5.14985C59.7794 5.09446 59.8937 5.03906 59.9508 5.03906C60.0651 5.03906 60.1794 5.09446 60.2366 5.14985L61.8939 7.3656L62.1797 7.58718L64.0085 10.0799C64.0656 10.1353 64.0656 10.2461 64.0656 10.3569C64.0656 10.4123 64.0656 10.5231 64.0085 10.5784C63.9513 10.6338 63.837 10.6892 63.7227 10.6892Z" fill="black"/>
<path d="M70.6368 10.7444C70.1796 10.7444 69.7796 10.689 69.4367 10.5228C69.0938 10.3566 68.7509 10.1904 68.5223 9.91345C68.2365 9.63648 68.0651 9.35951 67.8936 8.97175C67.7222 8.63939 67.665 8.25163 67.665 7.80848C67.665 7.36533 67.7222 6.97758 67.8936 6.64521C68.0651 6.31285 68.2365 5.98049 68.5223 5.75891C68.808 5.53734 69.0938 5.31576 69.4367 5.14958C69.7796 4.9834 70.2368 4.9834 70.6368 4.9834C71.094 4.9834 71.4941 5.03879 71.837 5.20497C72.1799 5.37116 72.5228 5.53734 72.7514 5.81431C73.0371 6.09128 73.2085 6.36824 73.38 6.70061C73.5514 7.03297 73.6086 7.42073 73.6086 7.86388C73.6086 8.30703 73.5514 8.69479 73.38 9.02715C73.2085 9.35951 73.0371 9.69187 72.7514 9.96884C72.4656 10.2458 72.1799 10.412 71.837 10.5782C71.4941 10.689 71.094 10.7444 70.6368 10.7444ZM70.6368 10.0796C70.9797 10.0796 71.2655 10.0242 71.5512 9.91345C71.837 9.80266 72.0656 9.63648 72.237 9.41491C72.4085 9.19333 72.5799 8.97175 72.6942 8.69479C72.8085 8.41782 72.8657 8.14085 72.8657 7.80848C72.8657 7.47612 72.8085 7.19915 72.6942 6.92218C72.5799 6.64521 72.4085 6.42364 72.237 6.20206C72.0656 6.09128 71.837 5.92509 71.5512 5.81431C71.2655 5.70352 70.9797 5.64812 70.6368 5.64812C70.2939 5.64812 70.0082 5.70352 69.7224 5.81431C69.4367 5.92509 69.2081 6.09128 69.0366 6.25746C68.8652 6.47903 68.6937 6.70061 68.5794 6.97758C68.4651 7.25455 68.408 7.53151 68.408 7.86388C68.408 8.19624 68.4651 8.47321 68.5794 8.75018C68.6937 9.02715 68.8652 9.24872 69.0366 9.4703C69.2081 9.69187 69.4938 9.80266 69.7224 9.91345C70.0082 10.0242 70.3511 10.0796 70.6368 10.0796Z" fill="black"/>
<path d="M79.6101 10.7444C79.3244 10.7444 79.0386 10.689 78.81 10.6336C78.5814 10.5782 78.2957 10.4674 78.0671 10.3566C77.8385 10.2458 77.7242 10.0796 77.6099 9.91345C77.6099 9.80266 77.6099 9.74727 77.6099 9.63648C77.6099 9.52569 77.667 9.4703 77.7242 9.41491C77.7813 9.35951 77.8956 9.35951 77.9528 9.35951C78.0671 9.35951 78.1242 9.41491 78.1814 9.52569C78.2957 9.69187 78.5243 9.80266 78.7529 9.91345C78.9815 10.0242 79.2672 10.0796 79.6101 10.0796C79.8959 10.0796 80.1245 10.0242 80.2959 9.96884C80.5245 9.85806 80.6388 9.74727 80.7531 9.58109C80.8674 9.41491 80.9246 9.24872 80.9246 9.02715C80.9246 8.75018 80.8103 8.47321 80.6388 8.30703C80.4102 8.14085 80.1816 8.03006 79.8387 8.03006H79.3244C79.2101 8.03006 79.1529 7.97467 79.0958 7.91927C79.0386 7.86388 78.9815 7.75309 78.9815 7.6977C78.9815 7.58691 79.0386 7.53152 79.0958 7.47612C79.1529 7.42073 79.2101 7.36533 79.3244 7.36533H79.7244C80.0102 7.36533 80.1816 7.30994 80.4102 7.14376C80.5245 6.97758 80.6388 6.756 80.6388 6.47903C80.6388 6.20206 80.5245 5.98049 80.3531 5.81431C80.1816 5.64812 79.8387 5.64812 79.4958 5.64812C79.2672 5.64812 79.0386 5.70352 78.81 5.75891C78.5814 5.81431 78.41 5.98049 78.2385 6.14667C78.1814 6.25746 78.0671 6.31285 77.9528 6.36824C77.8385 6.42364 77.7813 6.36824 77.667 6.31285C77.6099 6.25746 77.5527 6.20206 77.5527 6.09128C77.5527 5.98049 77.5527 5.92509 77.6099 5.8697C77.7813 5.59273 78.0671 5.37116 78.3528 5.20497C78.6957 5.09419 79.0958 4.9834 79.4958 4.9834C79.8387 4.9834 80.1816 5.03879 80.4674 5.14958C80.7531 5.26037 80.9817 5.42655 81.096 5.64812C81.2103 5.8697 81.3246 6.09128 81.3246 6.36824C81.3246 6.58982 81.2675 6.756 81.1532 6.92218C81.0389 7.08836 80.9246 7.25455 80.8103 7.36533C80.6388 7.47612 80.5245 7.58691 80.3531 7.6423C80.2388 7.75309 80.1245 7.75309 80.0102 7.75309V7.53151C80.1245 7.53151 80.2959 7.53151 80.4674 7.58691C80.6388 7.6423 80.8674 7.6977 81.0389 7.80848C81.2103 7.91927 81.3818 8.08545 81.4961 8.25164C81.6104 8.47321 81.6675 8.69479 81.6675 8.97175C81.6675 9.30412 81.5532 9.58109 81.3818 9.85806C81.2103 10.1904 80.9817 10.3566 80.6388 10.5228C80.3531 10.689 80.0102 10.7444 79.6101 10.7444Z" fill="black"/>
<path d="M89.4393 10.6892C89.325 10.6892 89.2107 10.6338 89.1536 10.5784C89.0964 10.5231 89.0393 10.4123 89.0393 10.3015V8.52887H87.6105V8.41809C87.2105 8.41809 86.9247 8.36269 86.639 8.19651C86.3533 8.03033 86.1247 7.86415 85.9532 7.64257C85.7818 7.421 85.7246 7.14403 85.7246 6.81166C85.7246 6.4793 85.7818 6.14694 85.9532 5.86997C86.1247 5.593 86.3533 5.37143 86.639 5.26064C86.9247 5.09446 87.2676 5.03906 87.6105 5.03906H89.3822C89.4965 5.03906 89.6108 5.09446 89.6679 5.14985C89.7822 5.20524 89.7822 5.31603 89.7822 5.42682V10.3015C89.7822 10.4123 89.7251 10.5231 89.6679 10.5784C89.6108 10.6338 89.4965 10.6892 89.4393 10.6892ZM86.1247 10.6892C85.9532 10.6892 85.8389 10.6338 85.7818 10.5231C85.7246 10.4123 85.7246 10.2461 85.8389 10.1353L87.039 8.2519L87.782 8.47348L86.4676 10.5231C86.4104 10.5784 86.3533 10.6338 86.2961 10.6338C86.239 10.6338 86.1818 10.6892 86.1247 10.6892ZM87.6105 7.86415H89.0393V5.75918H87.6105C87.3819 5.75918 87.2105 5.81458 87.039 5.86997C86.8676 5.92536 86.6962 6.09155 86.639 6.25773C86.5247 6.42391 86.4676 6.59009 86.4676 6.86706C86.4676 7.08863 86.5247 7.25482 86.639 7.421C86.7533 7.58718 86.8676 7.69797 87.039 7.75336C87.2105 7.80875 87.3819 7.86415 87.6105 7.86415Z" fill="black"/>
<path d="M94.7545 10.6892C94.6402 10.6892 94.5259 10.6338 94.4688 10.5784C94.4116 10.5231 94.3545 10.4123 94.3545 10.3015V5.42682C94.3545 5.31603 94.4116 5.20524 94.4688 5.14985C94.5259 5.09446 94.6402 5.03906 94.7545 5.03906C94.8688 5.03906 94.9831 5.09446 95.0403 5.14985C95.0974 5.20524 95.1546 5.31603 95.1546 5.42682V9.52596L98.6979 5.20524C98.755 5.09446 98.8693 5.09446 98.9836 5.09446C99.0979 5.09446 99.2122 5.14985 99.2694 5.20524C99.3265 5.26064 99.3837 5.37143 99.3837 5.48221V10.3569C99.3837 10.4677 99.3265 10.5784 99.2694 10.6338C99.2122 10.6892 99.0979 10.7446 98.9836 10.7446C98.8693 10.7446 98.755 10.6892 98.6979 10.6338C98.6407 10.5784 98.5836 10.4677 98.5836 10.3569V6.20233L95.0403 10.5231C94.9831 10.5784 94.9831 10.5784 94.926 10.6338C94.8688 10.6892 94.8117 10.6892 94.7545 10.6892Z" fill="black"/>
<path d="M104.356 10.6892C104.241 10.6892 104.127 10.6338 104.07 10.5784C104.013 10.5231 103.956 10.4123 103.956 10.3015V5.42682C103.956 5.31603 104.013 5.20524 104.07 5.14985C104.127 5.09446 104.241 5.03906 104.356 5.03906C104.47 5.03906 104.584 5.09446 104.641 5.14985C104.699 5.20524 104.756 5.31603 104.756 5.42682V7.47639H108.185V5.42682C108.185 5.31603 108.242 5.20524 108.299 5.14985C108.356 5.09446 108.47 5.03906 108.585 5.03906C108.699 5.03906 108.813 5.09446 108.87 5.14985C108.928 5.20524 108.985 5.31603 108.985 5.42682V10.3015C108.985 10.4123 108.928 10.5231 108.87 10.5784C108.813 10.6338 108.699 10.6892 108.585 10.6892C108.47 10.6892 108.356 10.6338 108.299 10.5784C108.242 10.5231 108.185 10.4123 108.185 10.3015V8.14112H104.756V10.3015C104.756 10.4123 104.699 10.5231 104.641 10.5784C104.527 10.6338 104.47 10.6892 104.356 10.6892Z" fill="black"/>
<path d="M119.156 10.6892C119.042 10.6892 118.928 10.6338 118.871 10.5784C118.813 10.5231 118.756 10.4123 118.756 10.3015V5.42682C118.756 5.31603 118.813 5.20524 118.871 5.14985C118.928 5.09446 119.042 5.03906 119.156 5.03906H122.3C122.414 5.03906 122.471 5.09446 122.528 5.14985C122.585 5.20524 122.643 5.31603 122.643 5.42682C122.643 5.53761 122.585 5.593 122.528 5.64839C122.471 5.70379 122.357 5.75918 122.3 5.75918H119.556V7.3656H121.271C121.614 7.3656 121.957 7.421 122.242 7.58718C122.528 7.75336 122.757 7.91954 122.928 8.14112C123.1 8.36269 123.157 8.63966 123.157 8.97202C123.157 9.30439 123.1 9.58136 122.928 9.85833C122.757 10.1353 122.528 10.3015 122.242 10.4677C121.957 10.6338 121.614 10.6892 121.271 10.6892H119.156ZM119.556 9.96911H121.271C121.5 9.96911 121.671 9.91372 121.9 9.85833C122.071 9.80293 122.185 9.69214 122.3 9.52596C122.414 9.35978 122.471 9.1936 122.471 8.97202C122.471 8.75045 122.414 8.58427 122.3 8.41809C122.185 8.2519 122.071 8.19651 121.9 8.08572C121.728 8.03033 121.5 7.97494 121.271 7.97494H119.556V9.96911Z" fill="black"/>
<path d="M127.787 10.6892C127.673 10.6892 127.559 10.6338 127.502 10.5784C127.444 10.5231 127.387 10.4123 127.387 10.3015V5.42682C127.387 5.31603 127.444 5.20524 127.502 5.14985C127.559 5.09446 127.673 5.03906 127.787 5.03906H131.159C131.273 5.03906 131.388 5.09446 131.445 5.14985C131.502 5.20524 131.559 5.31603 131.559 5.42682C131.559 5.53761 131.502 5.593 131.445 5.64839C131.388 5.70379 131.273 5.75918 131.159 5.75918H128.187V7.53178H130.302C130.416 7.53178 130.53 7.58718 130.588 7.64257C130.645 7.69797 130.702 7.80875 130.702 7.86415C130.702 7.91954 130.645 8.03033 130.588 8.08572C130.53 8.14112 130.416 8.19651 130.302 8.19651H128.187V9.96911H131.159C131.273 9.96911 131.388 10.0245 131.445 10.0799C131.502 10.1353 131.559 10.2461 131.559 10.3015C131.559 10.4123 131.502 10.4677 131.445 10.5784C131.388 10.6892 131.273 10.6892 131.159 10.6892H127.787Z" fill="black"/>
<path d="M137.388 10.7448C137.103 10.7448 136.817 10.6894 136.588 10.634C136.36 10.5786 136.074 10.4678 135.845 10.357C135.617 10.2462 135.502 10.0801 135.388 9.91389C135.388 9.8031 135.388 9.7477 135.388 9.63692C135.388 9.52613 135.445 9.47074 135.502 9.41534C135.56 9.35995 135.674 9.35995 135.731 9.35995C135.845 9.35995 135.903 9.41534 135.96 9.52613C136.074 9.69231 136.303 9.8031 136.531 9.91389C136.76 10.0247 137.046 10.0801 137.388 10.0801C137.674 10.0801 137.903 10.0247 138.074 9.96928C138.303 9.85849 138.417 9.74771 138.531 9.58152C138.646 9.41534 138.703 9.24916 138.703 9.02759C138.703 8.75062 138.589 8.47365 138.417 8.30747C138.189 8.14128 137.96 8.0305 137.617 8.0305H137.103C136.988 8.0305 136.931 7.9751 136.874 7.91971C136.817 7.86431 136.76 7.75353 136.76 7.69813C136.76 7.58735 136.817 7.53195 136.874 7.47656C136.931 7.42116 136.988 7.36577 137.103 7.36577H137.503C137.788 7.36577 137.96 7.31038 138.189 7.14419C138.36 6.97801 138.474 6.75644 138.474 6.47947C138.474 6.2025 138.36 5.98092 138.189 5.81474C138.017 5.64856 137.731 5.59317 137.388 5.59317C137.16 5.59317 136.931 5.64856 136.703 5.70395C136.474 5.75935 136.303 5.92553 136.131 6.09171C136.074 6.2025 135.96 6.25789 135.845 6.31329C135.731 6.36868 135.674 6.31329 135.56 6.25789C135.502 6.2025 135.445 6.14711 135.445 6.03632C135.445 5.92553 135.445 5.87014 135.502 5.81474C135.674 5.53777 135.96 5.3162 136.245 5.15002C136.531 4.98383 136.931 4.87305 137.388 4.87305C137.731 4.87305 138.074 4.92844 138.36 5.03923C138.646 5.15002 138.874 5.3162 138.989 5.53777C139.103 5.75935 139.217 5.98092 139.217 6.25789C139.217 6.47947 139.16 6.64565 139.046 6.81183C138.931 6.97801 138.817 7.14419 138.703 7.25498C138.531 7.36577 138.417 7.47656 138.246 7.53195C138.017 7.75353 137.846 7.75353 137.731 7.75353V7.53195C137.846 7.53195 138.017 7.53195 138.189 7.58735C138.36 7.64274 138.589 7.69813 138.76 7.80892C138.931 7.91971 139.103 8.08589 139.217 8.25207C139.332 8.47365 139.389 8.69522 139.389 8.97219C139.389 9.30455 139.274 9.58152 139.103 9.85849C138.931 10.1355 138.703 10.3016 138.36 10.4678C138.131 10.6894 137.731 10.7448 137.388 10.7448Z" fill="black"/>
<path d="M143.503 11.9633C143.389 11.9633 143.274 11.9079 143.217 11.8525C143.16 11.7971 143.103 11.6863 143.103 11.5755V10.4123C143.103 10.3015 143.16 10.1907 143.217 10.1353C143.274 10.0799 143.389 10.0245 143.503 10.0245H148.761C148.875 10.0245 148.989 10.0799 149.047 10.1353C149.104 10.1907 149.161 10.3015 149.161 10.4123V11.6309C149.161 11.7417 149.104 11.8525 149.047 11.9079C148.989 11.9633 148.875 12.0187 148.761 12.0187C148.647 12.0187 148.532 11.9633 148.475 11.9079C148.418 11.8525 148.361 11.7417 148.361 11.6309V10.7446H143.903V11.6309C143.903 11.7417 143.846 11.8525 143.789 11.9079C143.732 11.9633 143.617 11.9633 143.503 11.9633ZM144.303 10.4677L143.617 10.1353L145.732 5.31603C145.789 5.14985 145.903 5.03906 146.075 5.03906C146.246 5.03906 146.361 5.14985 146.418 5.31603L148.532 10.1353L147.904 10.4123L146.018 5.98076H146.132L144.303 10.4677Z" fill="black"/>
<path d="M155.79 10.7441C155.333 10.7441 154.933 10.6887 154.59 10.5225C154.247 10.3563 153.904 10.1901 153.676 9.91318C153.39 9.63621 153.218 9.35924 153.047 8.97148C152.876 8.63912 152.818 8.25136 152.818 7.80821C152.818 7.36506 152.876 6.97731 153.047 6.64494C153.218 6.31258 153.39 5.98022 153.676 5.75864C153.961 5.53707 154.247 5.31549 154.59 5.14931C154.933 4.98313 155.333 4.92773 155.79 4.92773C156.247 4.92773 156.647 4.98313 156.99 5.14931C157.333 5.31549 157.676 5.48167 157.905 5.75864C158.19 6.03561 158.362 6.31258 158.533 6.64494C158.705 6.97731 158.762 7.36506 158.762 7.80821C158.762 8.25136 158.705 8.63912 158.533 8.97148C158.362 9.30385 158.19 9.63621 157.905 9.91318C157.619 10.1901 157.333 10.3563 156.99 10.5225C156.647 10.6887 156.247 10.7441 155.79 10.7441ZM155.79 10.0794C156.133 10.0794 156.419 10.024 156.705 9.91318C156.99 9.80239 157.219 9.63621 157.39 9.47003C157.562 9.30385 157.733 9.02688 157.848 8.74991C157.962 8.47294 158.019 8.19597 158.019 7.86361C158.019 7.53124 157.962 7.25428 157.848 6.97731C157.733 6.70034 157.562 6.47876 157.39 6.25719C157.219 6.03561 156.933 5.92482 156.705 5.81404C156.419 5.70325 156.133 5.64785 155.79 5.64785C155.447 5.64785 155.161 5.70325 154.876 5.81404C154.59 5.92482 154.361 6.091 154.19 6.25719C154.018 6.47876 153.847 6.70034 153.733 6.97731C153.618 7.25428 153.561 7.53124 153.561 7.86361C153.561 8.19597 153.618 8.47294 153.733 8.74991C153.847 9.02688 154.018 9.24845 154.19 9.47003C154.361 9.69161 154.647 9.80239 154.876 9.91318C155.219 10.024 155.504 10.0794 155.79 10.0794Z" fill="black"/>
<path d="M163.448 10.6892C163.334 10.6892 163.22 10.6338 163.163 10.5784C163.105 10.5231 163.048 10.4123 163.048 10.3015V5.42682C163.048 5.31603 163.105 5.20524 163.163 5.14985C163.22 5.09446 163.334 5.03906 163.448 5.03906H164.934C165.334 5.03906 165.62 5.09446 165.906 5.26064C166.192 5.42682 166.42 5.64839 166.592 5.92536C166.763 6.20233 166.82 6.5347 166.82 6.86706C166.82 7.19942 166.763 7.53178 166.592 7.80875C166.42 8.08572 166.192 8.3073 165.906 8.47348C165.62 8.63966 165.277 8.69506 164.934 8.69506H163.848V10.2461C163.848 10.3569 163.791 10.4677 163.734 10.5231C163.62 10.6338 163.563 10.6892 163.448 10.6892ZM163.848 8.03033H164.934C165.163 8.03033 165.391 7.97494 165.563 7.86415C165.734 7.75336 165.849 7.64257 165.963 7.47639C166.077 7.31021 166.134 7.08863 166.134 6.92245C166.134 6.70088 166.077 6.4793 165.963 6.31312C165.849 6.14694 165.734 5.98076 165.563 5.92536C165.391 5.81458 165.163 5.75918 164.934 5.75918H163.848V8.03033Z" fill="black"/>
<path d="M173.449 10.7441C172.992 10.7441 172.592 10.6887 172.249 10.5225C171.906 10.3563 171.563 10.1901 171.335 9.91318C171.049 9.63621 170.878 9.35924 170.706 8.97148C170.535 8.63912 170.478 8.25136 170.478 7.80821C170.478 7.36506 170.535 6.97731 170.706 6.64494C170.878 6.31258 171.049 5.98022 171.335 5.75864C171.621 5.53707 171.906 5.31549 172.249 5.14931C172.592 4.98313 172.992 4.92773 173.449 4.92773C173.907 4.92773 174.307 4.98313 174.649 5.14931C174.992 5.31549 175.335 5.48167 175.564 5.75864C175.85 6.03561 176.021 6.31258 176.192 6.64494C176.364 6.97731 176.421 7.36506 176.421 7.80821C176.421 8.25136 176.364 8.63912 176.192 8.97148C176.021 9.30385 175.85 9.63621 175.564 9.91318C175.278 10.1901 174.992 10.3563 174.649 10.5225C174.307 10.6887 173.907 10.7441 173.449 10.7441ZM173.449 10.0794C173.792 10.0794 174.078 10.024 174.364 9.91318C174.649 9.80239 174.878 9.63621 175.049 9.47003C175.221 9.30385 175.392 9.02688 175.507 8.74991C175.621 8.47294 175.678 8.19597 175.678 7.86361C175.678 7.53124 175.621 7.25428 175.507 6.97731C175.392 6.70034 175.221 6.47876 175.049 6.25719C174.878 6.03561 174.592 5.92482 174.364 5.81404C174.078 5.70325 173.792 5.64785 173.449 5.64785C173.106 5.64785 172.821 5.70325 172.535 5.81404C172.249 5.92482 172.021 6.091 171.849 6.25719C171.678 6.47876 171.506 6.70034 171.392 6.97731C171.278 7.25428 171.22 7.53124 171.22 7.86361C171.22 8.19597 171.278 8.47294 171.392 8.74991C171.506 9.02688 171.678 9.24845 171.849 9.47003C172.021 9.69161 172.249 9.80239 172.535 9.91318C172.821 10.024 173.106 10.0794 173.449 10.0794Z" fill="black"/>
<path d="M180.079 10.5784C180.022 10.5231 179.965 10.4123 179.965 10.3569C179.965 10.3015 180.022 10.1907 180.079 10.1353L181.908 7.80875L180.308 5.70379C180.251 5.64839 180.193 5.53761 180.193 5.48221C180.193 5.42682 180.193 5.31603 180.308 5.26064C180.365 5.20524 180.479 5.14985 180.593 5.14985C180.708 5.14985 180.822 5.20524 180.879 5.26064L182.822 7.91954L180.708 10.6892C180.651 10.7446 180.536 10.8 180.422 10.8C180.251 10.6892 180.136 10.6338 180.079 10.5784ZM183.622 10.6892C183.508 10.6892 183.394 10.6338 183.337 10.5784C183.28 10.5231 183.222 10.4123 183.222 10.3015V8.14112H182.022V7.47639H183.222V5.42682C183.222 5.31603 183.28 5.20524 183.337 5.14985C183.394 5.09446 183.508 5.03906 183.622 5.03906C183.737 5.03906 183.851 5.09446 183.908 5.14985C183.965 5.20524 184.022 5.31603 184.022 5.42682V7.47639H185.223V8.14112H184.022V10.3015C184.022 10.4123 183.965 10.5231 183.908 10.5784C183.851 10.6338 183.737 10.6892 183.622 10.6892ZM187.223 10.5784C187.166 10.6338 187.051 10.6892 186.937 10.6892C186.823 10.6892 186.709 10.6338 186.651 10.5784L184.48 7.80875L186.48 5.14985C186.537 5.03906 186.651 5.03906 186.766 5.03906C186.88 5.03906 186.994 5.09446 187.051 5.14985C187.109 5.20524 187.166 5.31603 187.166 5.37143C187.166 5.42682 187.109 5.53761 187.051 5.593L185.394 7.75336L187.223 10.0799C187.28 10.1353 187.337 10.2461 187.337 10.3015C187.337 10.4123 187.337 10.5231 187.223 10.5784Z" fill="black"/>
<path d="M191.851 10.6892C191.737 10.6892 191.623 10.6338 191.565 10.5784C191.508 10.5231 191.508 10.4123 191.508 10.3015V5.37143C191.508 5.26064 191.565 5.20524 191.623 5.14985C191.68 5.09446 191.794 5.03906 191.908 5.03906C192.023 5.03906 192.137 5.09446 192.194 5.14985C192.251 5.20524 192.308 5.31603 192.308 5.37143V7.19942H193.851C194.251 7.19942 194.537 7.25482 194.823 7.421C195.109 7.58718 195.337 7.75336 195.509 8.03033C195.68 8.3073 195.737 8.58427 195.737 8.91663C195.737 9.24899 195.68 9.58136 195.509 9.85833C195.337 10.1353 195.109 10.3569 194.823 10.4677C194.537 10.6338 194.194 10.6892 193.851 10.6892H191.851ZM192.251 9.96911H193.794C194.023 9.96911 194.251 9.91372 194.423 9.85833C194.594 9.80293 194.709 9.63675 194.823 9.47057C194.937 9.30439 194.994 9.13821 194.994 8.86124C194.994 8.63966 194.937 8.41809 194.823 8.2519C194.709 8.08572 194.594 7.97494 194.423 7.91954C194.251 7.86415 194.023 7.80875 193.794 7.80875H192.251V9.96911Z" fill="black"/>
<path d="M203.339 10.6892C203.224 10.6892 203.11 10.6338 203.053 10.5784C202.996 10.5231 202.939 10.4123 202.939 10.3015V8.52887H201.51V8.41809C201.11 8.41809 200.824 8.36269 200.538 8.19651C200.253 8.08572 200.024 7.86415 199.853 7.64257C199.681 7.421 199.624 7.14403 199.624 6.81166C199.624 6.4793 199.681 6.14694 199.853 5.86997C200.024 5.593 200.253 5.37143 200.538 5.26064C200.824 5.09446 201.167 5.03906 201.51 5.03906H203.282C203.396 5.03906 203.51 5.09446 203.567 5.14985C203.624 5.20524 203.682 5.31603 203.682 5.42682V10.3015C203.682 10.4123 203.624 10.5231 203.567 10.5784C203.567 10.6338 203.453 10.6892 203.339 10.6892ZM200.024 10.6892C199.853 10.6892 199.738 10.6338 199.681 10.5231C199.624 10.4123 199.624 10.2461 199.738 10.1353L200.938 8.2519L201.681 8.47348L200.367 10.5784C200.31 10.6338 200.253 10.6892 200.196 10.6892C200.138 10.6892 200.081 10.6892 200.024 10.6892ZM201.567 7.86415H202.996V5.75918H201.567C201.339 5.75918 201.167 5.81458 200.996 5.86997C200.824 5.92536 200.653 6.09155 200.538 6.25773C200.424 6.42391 200.367 6.59009 200.367 6.86706C200.367 7.08863 200.424 7.25482 200.538 7.421C200.653 7.58718 200.767 7.69797 200.938 7.75336C201.11 7.80875 201.339 7.86415 201.567 7.86415Z" fill="black"/>
</g>
<mask id="path-28-inside-1" fill="white">
<path fill-rule="evenodd" clip-rule="evenodd" d="M53.1781 5.73513C53.18 5.70686 53.181 5.67854 53.181 5.65017C53.181 2.52967 41.2767 0 26.592 0C11.9082 0 0.00446198 2.52935 0.00294499 5.64957H0V22.9325H53.1781V5.73513Z"/>
</mask>
<path fill-rule="evenodd" clip-rule="evenodd" d="M53.1781 5.73513C53.18 5.70686 53.181 5.67854 53.181 5.65017C53.181 2.52967 41.2767 0 26.592 0C11.9082 0 0.00446198 2.52935 0.00294499 5.64957H0V22.9325H53.1781V5.73513Z" fill="black"/>
<path d="M53.1781 5.73513L53.0081 5.72335V5.73513H53.1781ZM0.00294499 5.64957V5.81952H0.172808L0.172891 5.64966L0.00294499 5.64957ZM0 5.64957V5.47963H-0.169946V5.64957H0ZM0 22.9325H-0.169946V23.1024H0V22.9325ZM53.1781 22.9325V23.1024H53.348V22.9325H53.1781ZM53.0111 5.65017C53.0111 5.67461 53.0102 5.69901 53.0085 5.72337L53.3476 5.74689C53.3499 5.71472 53.351 5.68247 53.351 5.65017H53.0111ZM26.592 0.169946C33.9261 0.169946 40.561 0.801781 45.358 1.82113C47.7578 2.3311 49.6886 2.9362 51.0152 3.60273C51.6788 3.93613 52.1826 4.28066 52.5184 4.62935C52.8535 4.97735 53.0111 5.31816 53.0111 5.65017H53.351C53.351 5.20206 53.1365 4.78121 52.7632 4.39358C52.3906 4.00664 51.8497 3.64158 51.1678 3.29901C49.8035 2.61358 47.8404 2.00117 45.4286 1.48866C40.6022 0.463053 33.9425 -0.169946 26.592 -0.169946V0.169946ZM0.172891 5.64966C0.173052 5.31767 0.330754 4.97687 0.666002 4.62888C1.00191 4.28022 1.50581 3.93572 2.1695 3.60235C3.49631 2.93589 5.42711 2.33085 7.82694 1.82094C12.6238 0.8017 19.2583 0.169946 26.592 0.169946V-0.169946C19.2419 -0.169946 12.5826 0.462972 7.75629 1.48847C5.34452 2.00092 3.38137 2.61326 2.01693 3.29862C1.335 3.64115 0.793957 4.00617 0.421225 4.39306C0.0478384 4.78063 -0.166783 5.20143 -0.167001 5.64949L0.172891 5.64966ZM0 5.81952H0.00294499V5.47963H0V5.81952ZM0.169946 22.9325V5.64957H-0.169946V22.9325H0.169946ZM53.1781 22.7625H0V23.1024H53.1781V22.7625ZM53.0081 5.73513V22.9325H53.348V5.73513H53.0081Z" fill="black" mask="url(#path-28-inside-1)"/>
<path d="M53.0931 22.9324C53.0931 23.2182 52.9278 23.5104 52.5827 23.8056C52.2381 24.1002 51.725 24.3883 51.0561 24.6651C49.719 25.2183 47.7791 25.7183 45.3757 26.1389C40.5702 26.9799 33.928 27.5005 26.589 27.5005C19.25 27.5005 12.6079 26.9799 7.8024 26.1389C5.39895 25.7183 3.45905 25.2183 2.12198 24.6651C1.45308 24.3883 0.939936 24.1002 0.595422 23.8056C0.250283 23.5104 0.084973 23.2182 0.084973 22.9324C0.084973 22.6465 0.250283 22.3544 0.595422 22.0592C0.939936 21.7646 1.45308 21.4765 2.12198 21.1997C3.45905 20.6465 5.39895 20.1465 7.8024 19.7259C12.6079 18.8849 19.25 18.3643 26.589 18.3643C33.928 18.3643 40.5702 18.8849 45.3757 19.7259C47.7791 20.1465 49.719 20.6465 51.0561 21.1997C51.725 21.4765 52.2381 21.7646 52.5827 22.0592C52.9278 22.3544 53.0931 22.6465 53.0931 22.9324Z" fill="white" stroke="black" stroke-width="0.169946"/>
<path d="M8.94101 10.5432L1.49561 4.15415L2.99124 3.32324L8.94101 10.5432Z" fill="white" stroke="black" stroke-width="0.169946"/>
<path d="M16.2286 10.0574L6.48145 2.16003L8.97417 1.66148L16.2286 10.0574Z" fill="white"/>
<path d="M24.8119 10.8672L11.7993 1.16294L16.6185 0.664394L24.8119 10.8672Z" fill="white"/>
<path d="M32.2615 10.3813L20.2745 0.498213L25.0938 0.332031L32.2615 10.3813Z" fill="white"/>
<path d="M39.5492 10.8672L29.2483 0.332031L33.7352 0.498213L39.5492 10.8672Z" fill="white"/>
<path d="M46.0271 10.3813L37.5574 0.830576L40.5487 1.16294L46.0271 10.3813Z" fill="white"/>
<path d="M51.8573 11.6769L45.8665 1.99385L48.8577 2.82475L51.8573 11.6769Z" fill="white"/>
<path d="M16.2286 10.0574L6.48145 2.16003L8.97417 1.66148L16.2286 10.0574Z" stroke="black" stroke-width="0.169946"/>
<path d="M24.8119 10.8672L11.7993 1.16294L16.6185 0.664394L24.8119 10.8672Z" stroke="black" stroke-width="0.169946"/>
<path d="M32.2615 10.3813L20.2745 0.498213L25.0938 0.332031L32.2615 10.3813Z" stroke="black" stroke-width="0.169946"/>
<path d="M39.5492 10.8672L29.2483 0.332031L33.7352 0.498213L39.5492 10.8672Z" stroke="black" stroke-width="0.169946"/>
<path d="M46.0271 10.3813L37.5574 0.830576L40.5487 1.16294L46.0271 10.3813Z" stroke="black" stroke-width="0.169946"/>
<path d="M51.8573 11.6769L45.8665 1.99385L48.8577 2.82475L51.8573 11.6769Z" stroke="black" stroke-width="0.169946"/>
<path d="M6.5354 12.9022L0.497984 21.9352L2.99114 20.938C4.49349 17.9256 6.5354 12.9022 6.5354 12.9022Z" fill="white"/>
<path d="M14.6548 11.5727L5.3177 20.2734L8.64133 19.6087L14.6548 11.5727Z" fill="white"/>
<path d="M22.2757 11.045L12.4635 19.1101L16.7842 18.7778L22.2757 11.045Z" fill="white"/>
<path d="M28.7426 11.795L19.6093 18.6116L24.9271 18.4213L28.7426 11.795Z" fill="white"/>
<path d="M35.3893 11.4139L27.8282 18.4213L31.8764 18.4851L35.3893 11.4139Z" fill="white"/>
<path d="M41.2111 11.9917L34.7318 18.6116L37.7231 18.7778L41.2111 11.9917Z" fill="white"/>
<path d="M46.5778 10.6187L41.2606 19.1191L43.6844 19.4813L46.5778 10.6187Z" fill="white"/>
<path d="M52.6876 13.4686L46.5915 20.0131L48.3676 20.3651L52.6876 13.4686Z" fill="white"/>
<path d="M6.5354 12.9022L0.497984 21.9352L2.99114 20.938C4.49349 17.9256 6.5354 12.9022 6.5354 12.9022Z" stroke="black" stroke-width="0.169946"/>
<path d="M14.6548 11.5727L5.3177 20.2734L8.64133 19.6087L14.6548 11.5727Z" stroke="black" stroke-width="0.169946"/>
<path d="M22.2757 11.045L12.4635 19.1101L16.7842 18.7778L22.2757 11.045Z" stroke="black" stroke-width="0.169946"/>
<path d="M28.7426 11.795L19.6093 18.6116L24.9271 18.4213L28.7426 11.795Z" stroke="black" stroke-width="0.169946"/>
<path d="M35.3893 11.4139L27.8282 18.4213L31.8764 18.4851L35.3893 11.4139Z" stroke="black" stroke-width="0.169946"/>
<path d="M41.2111 11.9917L34.7318 18.6116L37.7231 18.7778L41.2111 11.9917Z" stroke="black" stroke-width="0.169946"/>
<path d="M46.5778 10.6187L41.2606 19.1191L43.6844 19.4813L46.5778 10.6187Z" stroke="black" stroke-width="0.169946"/>
<path d="M52.6876 13.4686L46.5915 20.0131L48.3676 20.3651L52.6876 13.4686Z" stroke="black" stroke-width="0.169946"/>
<ellipse cx="26.5889" cy="22.7665" rx="17.6152" ry="1.828" fill="black"/>
<mask id="path-35-inside-2" fill="white">
<path fill-rule="evenodd" clip-rule="evenodd" d="M0.000629425 84.0871C0.000629425 87.2076 11.9049 89.7373 26.5897 89.7373C41.2744 89.7373 53.1787 87.2076 53.1787 84.0871C53.1787 84.0829 53.1787 84.0786 53.1786 84.0744V66.8042H0.000564575V84.0871L0.000629425 84.0871Z"/>
</mask>
<path fill-rule="evenodd" clip-rule="evenodd" d="M0.000629425 84.0871C0.000629425 87.2076 11.9049 89.7373 26.5897 89.7373C41.2744 89.7373 53.1787 87.2076 53.1787 84.0871C53.1787 84.0829 53.1787 84.0786 53.1786 84.0744V66.8042H0.000564575V84.0871L0.000629425 84.0871Z" fill="black"/>
<path d="M0.000629425 84.0871H0.170574V83.9582L0.04636 83.9235L0.000629425 84.0871ZM53.1786 84.0744H53.0087L53.0087 84.0762L53.1786 84.0744ZM53.1786 66.8042H53.3486V66.6343H53.1786V66.8042ZM0.000564575 66.8042V66.6343H-0.169384V66.8042H0.000564575ZM0.000564575 84.0871H-0.169384V84.2161L-0.0451698 84.2508L0.000564575 84.0871ZM26.5897 89.5674C19.2555 89.5674 12.6206 88.9355 7.8237 87.9162C5.42384 87.4062 3.49308 86.8011 2.16642 86.1346C1.50281 85.8012 0.999008 85.4566 0.663239 85.108C0.328125 84.76 0.170574 84.4191 0.170574 84.0871H-0.169319C-0.169319 84.5352 0.0451393 84.9561 0.418407 85.3437C0.791016 85.7307 1.33197 86.0957 2.01383 86.4383C3.37813 87.1237 5.34125 87.7361 7.75305 88.2486C12.5795 89.2743 19.2391 89.9073 26.5897 89.9073V89.5674ZM53.0088 84.0871C53.0088 84.4191 52.8512 84.76 52.5161 85.108C52.1803 85.4566 51.6765 85.8012 51.0129 86.1346C49.6863 86.8011 47.7555 87.4062 45.3556 87.9162C40.5587 88.9355 33.9238 89.5674 26.5897 89.5674V89.9073C33.9402 89.9073 40.5999 89.2743 45.4263 88.2486C47.8381 87.7361 49.8012 87.1237 51.1655 86.4383C51.8474 86.0957 52.3883 85.7307 52.7609 85.3437C53.1342 84.9561 53.3487 84.5352 53.3487 84.0871H53.0088ZM53.0087 84.0762C53.0087 84.0798 53.0088 84.0835 53.0088 84.0871H53.3487C53.3487 84.0823 53.3486 84.0775 53.3486 84.0726L53.0087 84.0762ZM53.0087 66.8042V84.0744H53.3486V66.8042H53.0087ZM0.000564575 66.9742H53.1786V66.6343H0.000564575V66.9742ZM0.170509 84.0871V66.8042H-0.169384V84.0871H0.170509ZM0.04636 83.9235L0.0462952 83.9234L-0.0451698 84.2508L-0.045105 84.2508L0.04636 83.9235Z" fill="black" mask="url(#path-35-inside-2)"/>
<path d="M0.0856018 66.8049C0.0856018 66.5191 0.250912 66.2269 0.59605 65.9317C0.940567 65.6371 1.45371 65.349 2.12262 65.0723C3.45968 64.519 5.39958 64.019 7.80303 63.5984C12.6085 62.7574 19.2507 62.2368 26.5897 62.2368C33.9287 62.2368 40.5708 62.7574 45.3763 63.5984C47.7798 64.019 49.7197 64.519 51.0567 65.0723C51.7256 65.349 52.2388 65.6371 52.5833 65.9317C52.9284 66.2269 53.0937 66.5191 53.0937 66.8049C53.0937 67.0908 52.9284 67.3829 52.5833 67.6781C52.2388 67.9727 51.7256 68.2608 51.0567 68.5376C49.7197 69.0908 47.7798 69.5908 45.3763 70.0115C40.5708 70.8524 33.9287 71.373 26.5897 71.373C19.2507 71.373 12.6085 70.8524 7.80303 70.0115C5.39958 69.5908 3.45968 69.0908 2.12262 68.5376C1.45371 68.2608 0.940567 67.9727 0.59605 67.6781C0.250912 67.3829 0.0856018 67.0908 0.0856018 66.8049Z" fill="white" stroke="black" stroke-width="0.169946"/>
<path d="M8.76767 79.1941L1.32227 85.5832L2.8179 86.4141L8.76767 79.1941Z" fill="white" stroke="black" stroke-width="0.169946"/>
<path d="M16.0543 79.6789L6.31494 87.4101L8.79987 88.0748L16.0543 79.6789Z" fill="white"/>
<path d="M24.6376 78.8692L11.625 88.5734L16.4442 89.0719L24.6376 78.8692Z" fill="white"/>
<path d="M32.0872 79.355L19.9418 89.2381L24.5949 89.4043L32.0872 79.355Z" fill="white"/>
<path d="M39.3749 78.8692L29.074 89.4043L33.4025 89.2381L39.3749 78.8692Z" fill="white"/>
<path d="M45.8528 79.355L37.2247 89.0719L40.216 88.7396L45.8528 79.355Z" fill="white"/>
<path d="M51.683 78.0594L45.5338 87.7425L48.525 87.0778L51.683 78.0594Z" fill="white"/>
<path d="M16.0543 79.6789L6.31494 87.4101L8.79987 88.0748L16.0543 79.6789Z" stroke="black" stroke-width="0.169946"/>
<path d="M24.6376 78.8692L11.625 88.5734L16.4442 89.0719L24.6376 78.8692Z" stroke="black" stroke-width="0.169946"/>
<path d="M32.0872 79.355L19.9418 89.2381L24.5949 89.4043L32.0872 79.355Z" stroke="black" stroke-width="0.169946"/>
<path d="M39.3749 78.8692L29.074 89.4043L33.4025 89.2381L39.3749 78.8692Z" stroke="black" stroke-width="0.169946"/>
<path d="M45.8528 79.355L37.2247 89.0719L40.216 88.7396L45.8528 79.355Z" stroke="black" stroke-width="0.169946"/>
<path d="M51.683 78.0594L45.5338 87.7425L48.525 87.0778L51.683 78.0594Z" stroke="black" stroke-width="0.169946"/>
<ellipse cx="26.5893" cy="66.9708" rx="17.6152" ry="1.828" transform="rotate(-180 26.5893 66.9708)" fill="black"/>
<path d="M6.66034 77.1919L0.830566 67.8002L3.32329 69.1297C4.77886 72.1558 6.66034 77.1919 6.66034 77.1919Z" fill="white"/>
<path d="M14.763 78.6448L5.81601 69.6282L8.80728 70.1268L14.763 78.6448Z" fill="white"/>
<path d="M22.3795 79.2905L12.4633 70.6253L16.784 71.1239L22.3795 79.2905Z" fill="white"/>
<path d="M28.8616 78.6448L19.7753 71.29L24.4283 71.4562L28.8616 78.6448Z" fill="white"/>
<path d="M35.5057 79.1291L27.9182 71.4562L31.7403 71.3802L35.5057 79.1291Z" fill="white"/>
<path d="M41.3396 78.6448L34.5654 71.29L37.5567 71.0574L41.3396 78.6448Z" fill="white"/>
<path d="M46.6874 80.0977L41.0465 70.6253L43.5392 70.2929L46.6874 80.0977Z" fill="white"/>
<path d="M52.8454 77.3533L46.3643 69.9273L48.6908 69.2959L52.8454 77.3533Z" fill="white"/>
<path d="M6.66034 77.1919L0.830566 67.8002L3.32329 69.1297C4.77886 72.1558 6.66034 77.1919 6.66034 77.1919Z" stroke="black" stroke-width="0.169946"/>
<path d="M14.763 78.6448L5.81601 69.6282L8.80728 70.1268L14.763 78.6448Z" stroke="black" stroke-width="0.169946"/>
<path d="M22.3795 79.2905L12.4633 70.6253L16.784 71.1239L22.3795 79.2905Z" stroke="black" stroke-width="0.169946"/>
<path d="M28.8616 78.6448L19.7753 71.29L24.4283 71.4562L28.8616 78.6448Z" stroke="black" stroke-width="0.169946"/>
<path d="M35.5057 79.1291L27.9182 71.4562L31.7403 71.3802L35.5057 79.1291Z" stroke="black" stroke-width="0.169946"/>
<path d="M41.3396 78.6448L34.5654 71.29L37.5567 71.0574L41.3396 78.6448Z" stroke="black" stroke-width="0.169946"/>
<path d="M46.6874 80.0977L41.0465 70.6253L43.5392 70.2929L46.6874 80.0977Z" stroke="black" stroke-width="0.169946"/>
<path d="M52.8454 77.3533L46.3643 69.9273L48.6908 69.2959L52.8454 77.3533Z" stroke="black" stroke-width="0.169946"/>
<path d="M20.939 20.9385C11.9607 20.9385 3.84348 21.3631 3.42857 22.6042C3.40159 22.6518 3.39479 22.7166 3.40346 22.812V29.1901H6.80488V38.5519L3.5659 40.1714V50.2122L6.82948 51.8317V61.0627C6.82948 61.0931 6.79915 61.1234 6.76881 61.0931H3.40436V66.6803C3.40436 66.7167 3.40287 66.7515 3.40147 66.7844C3.39989 66.8214 3.39843 66.8559 3.39932 66.8869C3.05828 67.573 11.7891 68.7988 21.0494 68.7988C25.5102 68.7988 32.0728 68.6326 34.067 68.6326C34.1917 68.6326 34.2554 67.9552 34.2376 67.5875C34.2355 67.5428 34.2335 67.5021 34.2335 67.4693V60.9311H16.5218V51.8317L19.9416 50.1864H23.2652V48.6908H24.9382V41.7112H23.2652V40.2155H19.9416L16.5218 38.5519V29.1901H34.2335L34.2353 22.2134C34.2353 21.8797 34.2353 21.2708 34.0673 21.2708C34.0673 21.2708 34.0673 21.1047 33.2361 21.1047C32.0728 20.9385 25.7642 20.9385 20.9394 20.9385H20.939Z" fill="black"/>
<path d="M25.2617 41.1436L25.2668 49.241" stroke="black" stroke-width="0.169946" stroke-miterlimit="10"/>
<path d="M23.2407 41.5527H25.0167V48.8324H23.2407V41.5527Z" stroke="white" stroke-width="0.169946"/>
<path d="M6.63651 38.5518L3.56201 40.1712V50.2121L6.63651 51.8316H16.6773L19.7569 50.2121V40.1712L16.6773 38.5518H6.63651Z" stroke="white" stroke-width="0.169946"/>
<path d="M23.3202 40.1709H19.7573V50.2117H23.3202V40.1709Z" stroke="white" stroke-width="0.169946"/>
<defs>
<clipPath id="clip0">
<rect width="144.246" height="6.97962" fill="white" transform="translate(59.4927 4.98535)"/>
</clipPath>
</defs>
</svg>
