<svg width="24" height="31" viewBox="0 0 24 31" fill="none" xmlns="http://www.w3.org/2000/svg">
<path fill-rule="evenodd" clip-rule="evenodd" d="M20 31.001V26.001H24V31.001H20ZM23 27H21V30.001H23V27ZM19 14L23.985 14.018L24 24.001H19V14ZM20 23.001H23V15.003L20 15V23.001ZM13 0H24V12H13V0ZM15 10.001H22V2.001H15V10.001ZM17 15H13V23.001H16V20L15.015 19.987L15 19.001H17V24.001H12V14H17V15ZM8 31.001V26.001H9V30.001H11V26.001L11.998 26.003L12 31.001H8ZM9 2.001H2V12H0V0H11V12H9V2.001ZM0 29.004V26.001H3V27H1V28H3V31.001H0V30.004L2 30.001L1.992 29.004H0ZM4 24.001H0V14L1.015 14.018L1 23.001H4V24.001ZM5 14H10V24.001H5V14ZM6 23.001H9V15.003L6 15V23.001ZM7 27H6V31.001H5V27H4V26.001H7V27ZM15.999 27.004L17 27V30.001L15.999 29.984V27.004ZM16 27H14V30.001H16V31.001H13V26.001H16V27ZM19 31.001H18V26.001H19V31.001Z" fill="black"/>
</svg>
