<svg width="37" height="37" viewBox="0 0 37 37" fill="none" xmlns="http://www.w3.org/2000/svg">
<path d="M18.4612 32.8714C26.3812 32.8714 32.8017 26.4372 32.8017 18.5002C32.8017 10.5631 26.3812 4.12891 18.4612 4.12891C10.5412 4.12891 4.12073 10.5631 4.12073 18.5002C4.12073 26.4372 10.5412 32.8714 18.4612 32.8714Z" fill="url(#paint0_linear)"/>
<g clip-path="url(#clip0)">
<path d="M18.5008 12.957C17.0743 12.957 15.9138 14.1175 15.9138 15.544C15.9138 16.9705 17.0742 18.131 18.5008 18.131C19.9273 18.131 21.0878 16.9705 21.0878 15.544C21.0878 14.1175 19.9273 12.957 18.5008 12.957ZM18.5008 17.3918C17.4823 17.3918 16.653 16.5625 16.653 15.544C16.653 14.5255 17.4823 13.6962 18.5008 13.6962C19.5193 13.6962 20.3486 14.5255 20.3486 15.544C20.3486 16.5625 19.5193 17.3918 18.5008 17.3918Z" fill="white"/>
<path d="M23.6722 15.9121C22.6536 15.9121 21.8243 16.7414 21.8243 17.7599C21.8243 18.7784 22.6536 19.6077 23.6722 19.6077C24.6907 19.6077 25.52 18.7784 25.52 17.7599C25.52 16.7414 24.6907 15.9121 23.6722 15.9121ZM23.6722 18.8686C23.0609 18.8686 22.5635 18.3712 22.5635 17.7599C22.5635 17.1486 23.0609 16.6512 23.6722 16.6512C24.2834 16.6512 24.7808 17.1486 24.7808 17.7599C24.7808 18.3712 24.2834 18.8686 23.6722 18.8686Z" fill="white"/>
<path d="M13.3774 15.9121C12.3581 15.9121 11.5295 16.7414 11.5295 17.7599C11.5295 18.7784 12.3588 19.6077 13.3774 19.6077C14.3959 19.6077 15.2252 18.7784 15.2252 17.7599C15.2252 16.7414 14.3966 15.9121 13.3774 15.9121ZM13.3774 18.8686C12.7661 18.8686 12.2687 18.3712 12.2687 17.7599C12.2687 17.1486 12.7661 16.6512 13.3774 16.6512C13.9886 16.6512 14.4861 17.1486 14.4861 17.7599C14.4861 18.3712 13.9886 18.8686 13.3774 18.8686Z" fill="white"/>
<path d="M18.5014 18.8691C15.8523 18.8691 13.697 21.0244 13.697 23.6735C13.697 23.8775 13.8626 24.0431 14.0666 24.0431C14.2706 24.0431 14.4362 23.8775 14.4362 23.6735C14.4362 21.4317 16.2596 19.6083 18.5014 19.6083C20.7432 19.6083 22.5666 21.4317 22.5666 23.6735C22.5666 23.8775 22.7322 24.0431 22.9362 24.0431C23.1402 24.0431 23.3057 23.8775 23.3057 23.6735C23.3057 21.0244 21.1504 18.8691 18.5014 18.8691Z" fill="white"/>
<path d="M23.6746 20.3467C23.0663 20.3467 22.4705 20.513 21.9516 20.8271C21.778 20.9336 21.7218 21.1605 21.8275 21.3349C21.9346 21.5094 22.1608 21.5648 22.3353 21.4591C22.7381 21.2144 23.2008 21.0858 23.6746 21.0858C25.1011 21.0858 26.2615 22.2462 26.2615 23.6728C26.2615 23.8768 26.4271 24.0423 26.6311 24.0423C26.8351 24.0423 27.0007 23.8768 27.0007 23.6728C27.0006 21.839 25.5083 20.3467 23.6746 20.3467Z" fill="white"/>
<path d="M15.0483 20.8264C14.5301 20.513 13.9344 20.3467 13.3261 20.3467C11.4923 20.3467 10 21.839 10 23.6728C10 23.8768 10.1656 24.0423 10.3696 24.0423C10.5736 24.0423 10.7392 23.8768 10.7392 23.6728C10.7391 22.2462 11.8996 21.0858 13.3261 21.0858C13.7999 21.0858 14.2626 21.2144 14.6647 21.4583C14.8383 21.564 15.066 21.5086 15.1724 21.3341C15.2789 21.1597 15.2227 20.9328 15.0483 20.8264Z" fill="white"/>
</g>
<defs>
<linearGradient id="paint0_linear" x1="3.89168" y1="18.5001" x2="33.0047" y2="18.5001" gradientUnits="userSpaceOnUse">
<stop stop-color="#29C3B4"/>
<stop offset="1" stop-color="#69EE80"/>
</linearGradient>
<clipPath id="clip0">
<rect width="17" height="17" fill="white" transform="translate(10 10)"/>
</clipPath>
</defs>
</svg>
