<svg width="37" height="37" viewBox="0 0 37 37" fill="none" xmlns="http://www.w3.org/2000/svg">
<path d="M18.4612 32.8714C26.3812 32.8714 32.8017 26.4372 32.8017 18.5002C32.8017 10.5631 26.3812 4.12891 18.4612 4.12891C10.5412 4.12891 4.12073 10.5631 4.12073 18.5002C4.12073 26.4372 10.5412 32.8714 18.4612 32.8714Z" fill="url(#paint0_linear)"/>
<path d="M21.9002 10H15.9502C14.2923 10 12.2668 13.9223 12.2668 18.5C12.2668 23.0777 14.2923 27 15.9502 27H21.9002C23.7405 27 24.7335 22.6207 24.7335 18.5C24.7335 14.3793 23.7405 10 21.9002 10ZM15.9502 26.4333C15.5178 26.4333 14.9409 25.9213 14.4011 25.0167H15.6668C15.7227 25.0167 15.7775 25.0001 15.824 24.9691L16.674 24.4024L16.3597 23.9309L15.5811 24.45H14.0934C13.8882 24.0336 13.6943 23.559 13.523 23.0333H15.1002C15.1561 23.0333 15.2109 23.0167 15.2574 22.9857L16.1074 22.4191L15.793 21.9476L15.0144 22.4667H13.4002V22.6318C13.2582 22.1418 13.1364 21.6131 13.0424 21.05H14.5335C14.5894 21.05 14.6442 21.0334 14.6907 21.0024L15.5407 20.4357L15.2264 19.9642L14.4477 20.4833H12.9591C12.9012 20.0298 12.8621 19.5567 12.8447 19.0667H14.2502C14.3061 19.0667 14.3609 19.0501 14.4074 19.0191L15.2574 18.4524L14.943 17.9809L14.1644 18.5H12.8335C12.8335 18.0114 12.8569 17.5392 12.8979 17.0833H14.2502C14.3061 17.0833 14.3609 17.0667 14.4074 17.0357L15.2574 16.4691L14.943 15.9976L14.1644 16.5167H12.9591C13.0225 16.0199 13.1081 15.547 13.2108 15.1H14.8168C14.8727 15.1 14.9275 15.0834 14.974 15.0524L15.824 14.4857L15.5097 14.0142L14.7311 14.5333H13.3532C13.4951 14.0181 13.6594 13.5442 13.8373 13.1167H15.3835C15.4394 13.1167 15.4942 13.1001 15.5407 13.0691L16.3907 12.5024L16.0764 12.0309L15.2977 12.55H14.0934C14.7125 11.2938 15.4342 10.5667 15.9502 10.5667H20.8283C20.4353 11.0151 20.1059 11.7064 19.8418 12.55H18.3026L17.524 12.0309L17.2097 12.5024L18.0597 13.0691C18.1062 13.1001 18.161 13.1167 18.2168 13.1167H19.6798C19.5644 13.5603 19.465 14.0359 19.3817 14.5333H18.0193L17.2407 14.0143L16.9264 14.4858L17.7764 15.0524C17.8229 15.0834 17.8776 15.1 17.9335 15.1H19.2947C19.2309 15.5605 19.1804 16.0352 19.1432 16.5167H17.736L16.9574 15.9976L16.6431 16.4691L17.4931 17.0358C17.5396 17.0668 17.5943 17.0834 17.6502 17.0834H19.1063C19.0806 17.5544 19.0669 18.0289 19.0669 18.5001H17.736L16.9574 17.981L16.6431 18.4525L17.4931 19.0192C17.5396 19.0502 17.5944 19.0668 17.6503 19.0668H19.0739C19.0843 19.5408 19.1072 20.0152 19.1433 20.4834H17.7361L16.9575 19.9644L16.6431 20.4359L17.4931 21.0025C17.5396 21.0335 17.5944 21.0501 17.6503 21.0501H19.194C19.2427 21.5354 19.3054 22.01 19.3819 22.4668H18.0194L17.2408 21.9477L16.9265 22.4192L17.7765 22.9859C17.823 23.0169 17.8778 23.0335 17.9337 23.0335H19.4852C19.5861 23.5388 19.7054 24.0143 19.8419 24.4502H18.5861L17.8075 23.9311L17.4932 24.4026L18.3432 24.9693C18.3897 25.0003 18.4445 25.0169 18.5004 25.0169H20.0385C20.2642 25.6041 20.5277 26.0903 20.8285 26.4335H15.9502V26.4333ZM21.9002 26.4333C20.828 26.4333 19.6335 23.1753 19.6335 18.5C19.6335 13.8247 20.828 10.5667 21.9002 10.5667C22.9723 10.5667 24.1668 13.8247 24.1668 18.5C24.1668 23.1753 22.9723 26.4333 21.9002 26.4333Z" fill="white"/>
<path d="M21.8998 14.25C20.9264 14.25 20.4832 16.453 20.4832 18.5C20.4832 20.547 20.9264 22.75 21.8998 22.75C22.8732 22.75 23.3165 20.547 23.3165 18.5C23.3165 16.453 22.8732 14.25 21.8998 14.25ZM21.8998 22.1833C21.6455 22.1833 21.0498 20.9302 21.0498 18.5C21.0498 16.0698 21.6455 14.8167 21.8998 14.8167C22.1541 14.8167 22.7498 16.0698 22.7498 18.5C22.7498 20.9302 22.1541 22.1833 21.8998 22.1833Z" fill="white"/>
<defs>
<linearGradient id="paint0_linear" x1="3.89168" y1="18.5001" x2="33.0047" y2="18.5001" gradientUnits="userSpaceOnUse">
<stop stop-color="#29C3B4"/>
<stop offset="1" stop-color="#69EE80"/>
</linearGradient>
</defs>
</svg>
