<svg width="88" height="69" viewBox="0 0 88 69" fill="none" xmlns="http://www.w3.org/2000/svg">
<path d="M32.4504 68.7891H0.824219V46.3088C0.824219 37.2123 1.61206 30.0544 3.18774 24.8351C4.83845 19.5413 7.83974 14.8066 12.1916 10.6312C16.5435 6.45573 22.0959 3.17503 28.8488 0.789062L35.039 13.7627C28.7363 15.8505 24.1968 18.7584 21.4206 22.4864C18.7194 26.2145 17.2938 31.1728 17.1438 37.3614H32.4504V68.7891ZM85.2356 68.7891H53.6095V46.3088C53.6095 37.1377 54.3973 29.9426 55.973 24.7233C57.6237 19.504 60.625 14.8066 64.9769 10.6312C69.4038 6.45573 74.9562 3.17503 81.6341 0.789062L87.8242 13.7627C81.5215 15.8505 76.982 18.7584 74.2059 22.4864C71.5047 26.2145 70.0791 31.1728 69.929 37.3614H85.2356V68.7891Z" fill="black" fill-opacity="0.1"/>
</svg>
